solid CATIA STL
  facet normal  0.000000e+000  0.000000e+000  1.000000e+000
    outer loop
      vertex  3.500000e+001 -2.000000e+001  4.000000e+001
      vertex  3.100000e+001 -1.600000e+001  4.000000e+001
      vertex -3.500000e+001 -2.000000e+001  4.000000e+001
    endloop
  endfacet
  facet normal  0.000000e+000  0.000000e+000  1.000000e+000
    outer loop
      vertex -3.500000e+001 -2.000000e+001  4.000000e+001
      vertex  3.100000e+001 -1.600000e+001  4.000000e+001
      vertex -3.100000e+001 -1.600000e+001  4.000000e+001
    endloop
  endfacet
  facet normal  0.000000e+000  0.000000e+000  1.000000e+000
    outer loop
      vertex -3.500000e+001 -2.000000e+001  4.000000e+001
      vertex -3.100000e+001 -1.600000e+001  4.000000e+001
      vertex -3.500000e+001  2.000000e+001  4.000000e+001
    endloop
  endfacet
  facet normal  0.000000e+000  0.000000e+000  1.000000e+000
    outer loop
      vertex -3.500000e+001  2.000000e+001  4.000000e+001
      vertex -3.100000e+001 -1.600000e+001  4.000000e+001
      vertex -3.100000e+001  1.600000e+001  4.000000e+001
    endloop
  endfacet
  facet normal  0.000000e+000  -0.000000e+000  1.000000e+000
    outer loop
      vertex -3.500000e+001  2.000000e+001  4.000000e+001
      vertex -3.100000e+001  1.600000e+001  4.000000e+001
      vertex  3.500000e+001  2.000000e+001  4.000000e+001
    endloop
  endfacet
  facet normal  0.000000e+000  0.000000e+000  1.000000e+000
    outer loop
      vertex  3.500000e+001  2.000000e+001  4.000000e+001
      vertex -3.100000e+001  1.600000e+001  4.000000e+001
      vertex  3.100000e+001  1.600000e+001  4.000000e+001
    endloop
  endfacet
  facet normal  -0.000000e+000  0.000000e+000  1.000000e+000
    outer loop
      vertex  3.500000e+001  2.000000e+001  4.000000e+001
      vertex  3.100000e+001  1.600000e+001  4.000000e+001
      vertex  3.500000e+001 -2.000000e+001  4.000000e+001
    endloop
  endfacet
  facet normal  0.000000e+000  0.000000e+000  1.000000e+000
    outer loop
      vertex  3.500000e+001 -2.000000e+001  4.000000e+001
      vertex  3.100000e+001  1.600000e+001  4.000000e+001
      vertex  3.100000e+001 -1.600000e+001  4.000000e+001
    endloop
  endfacet
  facet normal  0.000000e+000 -1.000000e+000  0.000000e+000
    outer loop
      vertex -3.100000e+001  1.600000e+001  4.000000e+000
      vertex  3.100000e+001  1.600000e+001  4.000000e+000
      vertex -3.100000e+001  1.600000e+001  4.000000e+001
    endloop
  endfacet
  facet normal  0.000000e+000 -1.000000e+000  0.000000e+000
    outer loop
      vertex -3.100000e+001  1.600000e+001  4.000000e+001
      vertex  3.100000e+001  1.600000e+001  4.000000e+000
      vertex  3.100000e+001  1.600000e+001  4.000000e+001
    endloop
  endfacet
  facet normal -1.000000e+000  -0.000000e+000  0.000000e+000
    outer loop
      vertex  3.100000e+001 -1.600000e+001  4.000000e+001
      vertex  3.100000e+001  1.600000e+001  4.000000e+001
      vertex  3.100000e+001 -1.600000e+001  4.000000e+000
    endloop
  endfacet
  facet normal -1.000000e+000  0.000000e+000  0.000000e+000
    outer loop
      vertex  3.100000e+001 -1.600000e+001  4.000000e+000
      vertex  3.100000e+001  1.600000e+001  4.000000e+001
      vertex  3.100000e+001  1.600000e+001  4.000000e+000
    endloop
  endfacet
  facet normal  0.000000e+000  1.000000e+000  0.000000e+000
    outer loop
      vertex  3.100000e+001 -1.600000e+001  4.000000e+000
      vertex -3.100000e+001 -1.600000e+001  4.000000e+000
      vertex  3.100000e+001 -1.600000e+001  4.000000e+001
    endloop
  endfacet
  facet normal  0.000000e+000  1.000000e+000  0.000000e+000
    outer loop
      vertex  3.100000e+001 -1.600000e+001  4.000000e+001
      vertex -3.100000e+001 -1.600000e+001  4.000000e+000
      vertex -3.100000e+001 -1.600000e+001  4.000000e+001
    endloop
  endfacet
  facet normal  1.000000e+000  -0.000000e+000  0.000000e+000
    outer loop
      vertex -3.100000e+001  1.600000e+001  4.000000e+001
      vertex -3.100000e+001 -1.600000e+001  4.000000e+001
      vertex -3.100000e+001  1.600000e+001  4.000000e+000
    endloop
  endfacet
  facet normal  1.000000e+000  0.000000e+000  0.000000e+000
    outer loop
      vertex -3.100000e+001  1.600000e+001  4.000000e+000
      vertex -3.100000e+001 -1.600000e+001  4.000000e+001
      vertex -3.100000e+001 -1.600000e+001  4.000000e+000
    endloop
  endfacet
  facet normal  0.000000e+000  0.000000e+000  1.000000e+000
    outer loop
      vertex -3.100000e+001 -1.600000e+001  4.000000e+000
      vertex  3.100000e+001 -1.600000e+001  4.000000e+000
      vertex -3.100000e+001  1.600000e+001  4.000000e+000
    endloop
  endfacet
  facet normal  -0.000000e+000  0.000000e+000  1.000000e+000
    outer loop
      vertex -3.100000e+001  1.600000e+001  4.000000e+000
      vertex  3.100000e+001 -1.600000e+001  4.000000e+000
      vertex  3.100000e+001  1.600000e+001  4.000000e+000
    endloop
  endfacet
  facet normal  0.000000e+000  0.000000e+000 -1.000000e+000
    outer loop
      vertex -3.500000e+001 -2.000000e+001  0.000000e+000
      vertex -3.500000e+001  2.000000e+001  0.000000e+000
      vertex  3.500000e+001 -2.000000e+001  0.000000e+000
    endloop
  endfacet
  facet normal  0.000000e+000  0.000000e+000 -1.000000e+000
    outer loop
      vertex  3.500000e+001 -2.000000e+001  0.000000e+000
      vertex -3.500000e+001  2.000000e+001  0.000000e+000
      vertex  3.500000e+001  2.000000e+001  0.000000e+000
    endloop
  endfacet
  facet normal  1.000000e+000  0.000000e+000  0.000000e+000
    outer loop
      vertex  3.500000e+001  2.000000e+001  0.000000e+000
      vertex  3.500000e+001  2.000000e+001  4.000000e+001
      vertex  3.500000e+001 -2.000000e+001  0.000000e+000
    endloop
  endfacet
  facet normal  1.000000e+000  0.000000e+000  0.000000e+000
    outer loop
      vertex  3.500000e+001 -2.000000e+001  0.000000e+000
      vertex  3.500000e+001  2.000000e+001  4.000000e+001
      vertex  3.500000e+001 -2.000000e+001  4.000000e+001
    endloop
  endfacet
  facet normal  0.000000e+000 -1.000000e+000  0.000000e+000
    outer loop
      vertex  3.500000e+001 -2.000000e+001  4.000000e+001
      vertex -3.500000e+001 -2.000000e+001  4.000000e+001
      vertex  3.500000e+001 -2.000000e+001  0.000000e+000
    endloop
  endfacet
  facet normal  0.000000e+000 -1.000000e+000  0.000000e+000
    outer loop
      vertex  3.500000e+001 -2.000000e+001  0.000000e+000
      vertex -3.500000e+001 -2.000000e+001  4.000000e+001
      vertex -3.500000e+001 -2.000000e+001  0.000000e+000
    endloop
  endfacet
  facet normal -1.000000e+000  0.000000e+000  0.000000e+000
    outer loop
      vertex -3.500000e+001 -2.000000e+001  0.000000e+000
      vertex -3.500000e+001 -2.000000e+001  4.000000e+001
      vertex -3.500000e+001  2.000000e+001  0.000000e+000
    endloop
  endfacet
  facet normal -1.000000e+000  0.000000e+000  0.000000e+000
    outer loop
      vertex -3.500000e+001  2.000000e+001  0.000000e+000
      vertex -3.500000e+001 -2.000000e+001  4.000000e+001
      vertex -3.500000e+001  2.000000e+001  4.000000e+001
    endloop
  endfacet
  facet normal  0.000000e+000  1.000000e+000  0.000000e+000
    outer loop
      vertex -3.500000e+001  2.000000e+001  4.000000e+001
      vertex  3.500000e+001  2.000000e+001  4.000000e+001
      vertex -3.500000e+001  2.000000e+001  0.000000e+000
    endloop
  endfacet
  facet normal  0.000000e+000  1.000000e+000  0.000000e+000
    outer loop
      vertex -3.500000e+001  2.000000e+001  0.000000e+000
      vertex  3.500000e+001  2.000000e+001  4.000000e+001
      vertex  3.500000e+001  2.000000e+001  0.000000e+000
    endloop
  endfacet
endsolid CATIA STL
