solid CATIA STL
  facet normal -1.000000e+000  0.000000e+000  0.000000e+000
    outer loop
      vertex -3.600000e+001  8.742554e+000 -1.831561e+001
      vertex -3.600000e+001 -9.114920e+000 -1.784032e+001
      vertex -3.600000e+001  9.114920e+000 -1.784032e+001
    endloop
  endfacet
  facet normal -1.000000e+000  0.000000e+000  0.000000e+000
    outer loop
      vertex -3.600000e+001  9.114920e+000 -1.784032e+001
      vertex -3.600000e+001 -9.114920e+000 -1.784032e+001
      vertex -3.600000e+001 -9.427280e+000 -1.732362e+001
    endloop
  endfacet
  facet normal -9.999999e-001  0.000000e+000  0.000000e+000
    outer loop
      vertex -3.600000e+001  9.114920e+000 -1.784032e+001
      vertex -3.600000e+001 -9.427280e+000 -1.732362e+001
      vertex -3.600000e+001  9.427280e+000 -1.732362e+001
    endloop
  endfacet
  facet normal -1.000000e+000  0.000000e+000  0.000000e+000
    outer loop
      vertex -3.600000e+001  9.427280e+000 -1.732362e+001
      vertex -3.600000e+001 -9.427280e+000 -1.732362e+001
      vertex -3.600000e+001 -9.675081e+000 -1.677302e+001
    endloop
  endfacet
  facet normal -1.000000e+000  0.000000e+000  0.000000e+000
    outer loop
      vertex -3.600000e+001  9.427280e+000 -1.732362e+001
      vertex -3.600000e+001 -9.675081e+000 -1.677302e+001
      vertex -3.600000e+001  9.675081e+000 -1.677302e+001
    endloop
  endfacet
  facet normal -1.000000e+000  0.000000e+000  0.000000e+000
    outer loop
      vertex -3.600000e+001  9.675081e+000 -1.677302e+001
      vertex -3.600000e+001 -9.675081e+000 -1.677302e+001
      vertex -3.600000e+001 -9.854709e+000 -1.619658e+001
    endloop
  endfacet
  facet normal -1.000000e+000  0.000000e+000  0.000000e+000
    outer loop
      vertex -3.600000e+001  9.675081e+000 -1.677302e+001
      vertex -3.600000e+001 -9.854709e+000 -1.619658e+001
      vertex -3.600000e+001  9.854709e+000 -1.619658e+001
    endloop
  endfacet
  facet normal -1.000000e+000  0.000000e+000  0.000000e+000
    outer loop
      vertex -3.600000e+001  9.854709e+000 -1.619658e+001
      vertex -3.600000e+001 -9.854709e+000 -1.619658e+001
      vertex -3.600000e+001 -9.963545e+000 -1.560268e+001
    endloop
  endfacet
  facet normal -1.000000e+000  0.000000e+000  0.000000e+000
    outer loop
      vertex -3.600000e+001  9.854709e+000 -1.619658e+001
      vertex -3.600000e+001 -9.963545e+000 -1.560268e+001
      vertex -3.600000e+001  9.963545e+000 -1.560268e+001
    endloop
  endfacet
  facet normal -9.999999e-001  0.000000e+000  0.000000e+000
    outer loop
      vertex -3.600000e+001  9.963545e+000 -1.560268e+001
      vertex -3.600000e+001 -9.963545e+000 -1.560268e+001
      vertex -3.600000e+001 -1.000000e+001 -1.500000e+001
    endloop
  endfacet
  facet normal -1.000000e+000  0.000000e+000  0.000000e+000
    outer loop
      vertex -3.600000e+001  9.963545e+000 -1.560268e+001
      vertex -3.600000e+001 -1.000000e+001 -1.500000e+001
      vertex -3.600000e+001  1.000000e+001 -1.500000e+001
    endloop
  endfacet
  facet normal -1.000000e+000  0.000000e+000  0.000000e+000
    outer loop
      vertex -3.600000e+001  1.000000e+001 -1.500000e+001
      vertex -3.600000e+001 -1.000000e+001 -1.500000e+001
      vertex -3.600000e+001 -1.000000e+001  2.000000e+001
    endloop
  endfacet
  facet normal -1.000000e+000  0.000000e+000  0.000000e+000
    outer loop
      vertex -3.600000e+001  1.000000e+001 -1.500000e+001
      vertex -3.600000e+001 -1.000000e+001  2.000000e+001
      vertex -3.600000e+001  1.000000e+001  2.000000e+001
    endloop
  endfacet
  facet normal -1.000000e+000  0.000000e+000  0.000000e+000
    outer loop
      vertex -3.600000e+001 -9.114920e+000 -1.784032e+001
      vertex -3.600000e+001  8.742554e+000 -1.831561e+001
      vertex -3.600000e+001 -8.742554e+000 -1.831561e+001
    endloop
  endfacet
  facet normal -1.000000e+000  0.000000e+000  0.000000e+000
    outer loop
      vertex -3.600000e+001 -8.742554e+000 -1.831561e+001
      vertex -3.600000e+001  8.742554e+000 -1.831561e+001
      vertex -3.600000e+001  8.315614e+000 -1.874255e+001
    endloop
  endfacet
  facet normal -9.999999e-001  0.000000e+000  0.000000e+000
    outer loop
      vertex -3.600000e+001 -8.742554e+000 -1.831561e+001
      vertex -3.600000e+001  8.315614e+000 -1.874255e+001
      vertex -3.600000e+001 -8.315614e+000 -1.874255e+001
    endloop
  endfacet
  facet normal -9.999999e-001  0.000000e+000  0.000000e+000
    outer loop
      vertex -3.600000e+001 -8.315614e+000 -1.874255e+001
      vertex -3.600000e+001  8.315614e+000 -1.874255e+001
      vertex -3.600000e+001  7.840324e+000 -1.911492e+001
    endloop
  endfacet
  facet normal -1.000000e+000  0.000000e+000  0.000000e+000
    outer loop
      vertex -3.600000e+001 -8.315614e+000 -1.874255e+001
      vertex -3.600000e+001  7.840324e+000 -1.911492e+001
      vertex -3.600000e+001 -7.840324e+000 -1.911492e+001
    endloop
  endfacet
  facet normal -1.000000e+000  0.000000e+000  0.000000e+000
    outer loop
      vertex -3.600000e+001 -7.840324e+000 -1.911492e+001
      vertex -3.600000e+001  7.840324e+000 -1.911492e+001
      vertex -3.600000e+001  7.323616e+000 -1.942728e+001
    endloop
  endfacet
  facet normal -1.000000e+000  0.000000e+000  0.000000e+000
    outer loop
      vertex -3.600000e+001 -7.840324e+000 -1.911492e+001
      vertex -3.600000e+001  7.323616e+000 -1.942728e+001
      vertex -3.600000e+001 -7.323616e+000 -1.942728e+001
    endloop
  endfacet
  facet normal -9.999999e-001  0.000000e+000  0.000000e+000
    outer loop
      vertex -3.600000e+001 -7.323616e+000 -1.942728e+001
      vertex -3.600000e+001  7.323616e+000 -1.942728e+001
      vertex -3.600000e+001  6.773025e+000 -1.967508e+001
    endloop
  endfacet
  facet normal -1.000000e+000  0.000000e+000  0.000000e+000
    outer loop
      vertex -3.600000e+001 -7.323616e+000 -1.942728e+001
      vertex -3.600000e+001  6.773025e+000 -1.967508e+001
      vertex -3.600000e+001 -6.773025e+000 -1.967508e+001
    endloop
  endfacet
  facet normal -1.000000e+000  0.000000e+000  0.000000e+000
    outer loop
      vertex -3.600000e+001 -6.773025e+000 -1.967508e+001
      vertex -3.600000e+001  6.773025e+000 -1.967508e+001
      vertex -3.600000e+001  6.196579e+000 -1.985471e+001
    endloop
  endfacet
  facet normal -1.000000e+000  0.000000e+000  0.000000e+000
    outer loop
      vertex -3.600000e+001 -6.773025e+000 -1.967508e+001
      vertex -3.600000e+001  6.196579e+000 -1.985471e+001
      vertex -3.600000e+001 -6.196579e+000 -1.985471e+001
    endloop
  endfacet
  facet normal -9.999999e-001  0.000000e+000  0.000000e+000
    outer loop
      vertex -3.600000e+001 -6.196579e+000 -1.985471e+001
      vertex -3.600000e+001  6.196579e+000 -1.985471e+001
      vertex -3.600000e+001  5.602684e+000 -1.996354e+001
    endloop
  endfacet
  facet normal -1.000000e+000  0.000000e+000  0.000000e+000
    outer loop
      vertex -3.600000e+001 -6.196579e+000 -1.985471e+001
      vertex -3.600000e+001  5.602684e+000 -1.996354e+001
      vertex -3.600000e+001 -5.602684e+000 -1.996354e+001
    endloop
  endfacet
  facet normal -1.000000e+000  0.000000e+000  0.000000e+000
    outer loop
      vertex -3.600000e+001 -5.602684e+000 -1.996354e+001
      vertex -3.600000e+001  5.602684e+000 -1.996354e+001
      vertex -3.600000e+001  5.000000e+000 -2.000000e+001
    endloop
  endfacet
  facet normal -1.000000e+000  0.000000e+000  0.000000e+000
    outer loop
      vertex -3.600000e+001 -5.602684e+000 -1.996354e+001
      vertex -3.600000e+001  5.000000e+000 -2.000000e+001
      vertex -3.600000e+001 -5.000000e+000 -2.000000e+001
    endloop
  endfacet
  facet normal  1.000000e+000  -0.000000e+000  0.000000e+000
    outer loop
      vertex  3.600000e+001  1.000000e+001  2.000000e+001
      vertex  3.600000e+001 -1.000000e+001  2.000000e+001
      vertex  3.600000e+001  1.000000e+001 -1.500000e+001
    endloop
  endfacet
  facet normal  1.000000e+000  0.000000e+000  0.000000e+000
    outer loop
      vertex  3.600000e+001  1.000000e+001 -1.500000e+001
      vertex  3.600000e+001 -1.000000e+001  2.000000e+001
      vertex  3.600000e+001 -1.000000e+001 -1.500000e+001
    endloop
  endfacet
  facet normal  1.000000e+000  -0.000000e+000  0.000000e+000
    outer loop
      vertex  3.600000e+001  1.000000e+001 -1.500000e+001
      vertex  3.600000e+001 -1.000000e+001 -1.500000e+001
      vertex  3.600000e+001  9.963545e+000 -1.560268e+001
    endloop
  endfacet
  facet normal  9.999999e-001  0.000000e+000  0.000000e+000
    outer loop
      vertex  3.600000e+001  9.963545e+000 -1.560268e+001
      vertex  3.600000e+001 -1.000000e+001 -1.500000e+001
      vertex  3.600000e+001 -9.963545e+000 -1.560268e+001
    endloop
  endfacet
  facet normal  1.000000e+000  -0.000000e+000  0.000000e+000
    outer loop
      vertex  3.600000e+001  9.963545e+000 -1.560268e+001
      vertex  3.600000e+001 -9.963545e+000 -1.560268e+001
      vertex  3.600000e+001  9.854709e+000 -1.619658e+001
    endloop
  endfacet
  facet normal  1.000000e+000  0.000000e+000  0.000000e+000
    outer loop
      vertex  3.600000e+001  9.854709e+000 -1.619658e+001
      vertex  3.600000e+001 -9.963545e+000 -1.560268e+001
      vertex  3.600000e+001 -9.854709e+000 -1.619658e+001
    endloop
  endfacet
  facet normal  1.000000e+000  -0.000000e+000  0.000000e+000
    outer loop
      vertex  3.600000e+001  9.854709e+000 -1.619658e+001
      vertex  3.600000e+001 -9.854709e+000 -1.619658e+001
      vertex  3.600000e+001  9.675081e+000 -1.677302e+001
    endloop
  endfacet
  facet normal  1.000000e+000  0.000000e+000  0.000000e+000
    outer loop
      vertex  3.600000e+001  9.675081e+000 -1.677302e+001
      vertex  3.600000e+001 -9.854709e+000 -1.619658e+001
      vertex  3.600000e+001 -9.675081e+000 -1.677302e+001
    endloop
  endfacet
  facet normal  1.000000e+000  -0.000000e+000  0.000000e+000
    outer loop
      vertex  3.600000e+001  9.675081e+000 -1.677302e+001
      vertex  3.600000e+001 -9.675081e+000 -1.677302e+001
      vertex  3.600000e+001  9.427280e+000 -1.732362e+001
    endloop
  endfacet
  facet normal  1.000000e+000  0.000000e+000  0.000000e+000
    outer loop
      vertex  3.600000e+001  9.427280e+000 -1.732362e+001
      vertex  3.600000e+001 -9.675081e+000 -1.677302e+001
      vertex  3.600000e+001 -9.427280e+000 -1.732362e+001
    endloop
  endfacet
  facet normal  9.999999e-001  -0.000000e+000  0.000000e+000
    outer loop
      vertex  3.600000e+001  9.427280e+000 -1.732362e+001
      vertex  3.600000e+001 -9.427280e+000 -1.732362e+001
      vertex  3.600000e+001  9.114920e+000 -1.784032e+001
    endloop
  endfacet
  facet normal  1.000000e+000  0.000000e+000  0.000000e+000
    outer loop
      vertex  3.600000e+001  9.114920e+000 -1.784032e+001
      vertex  3.600000e+001 -9.427280e+000 -1.732362e+001
      vertex  3.600000e+001 -9.114920e+000 -1.784032e+001
    endloop
  endfacet
  facet normal  1.000000e+000  -0.000000e+000  0.000000e+000
    outer loop
      vertex  3.600000e+001  9.114920e+000 -1.784032e+001
      vertex  3.600000e+001 -9.114920e+000 -1.784032e+001
      vertex  3.600000e+001  8.742554e+000 -1.831561e+001
    endloop
  endfacet
  facet normal  1.000000e+000  0.000000e+000  0.000000e+000
    outer loop
      vertex  3.600000e+001  8.742554e+000 -1.831561e+001
      vertex  3.600000e+001 -9.114920e+000 -1.784032e+001
      vertex  3.600000e+001 -8.742554e+000 -1.831561e+001
    endloop
  endfacet
  facet normal  1.000000e+000  -0.000000e+000  0.000000e+000
    outer loop
      vertex  3.600000e+001  8.742554e+000 -1.831561e+001
      vertex  3.600000e+001 -8.742554e+000 -1.831561e+001
      vertex  3.600000e+001  8.315614e+000 -1.874255e+001
    endloop
  endfacet
  facet normal  9.999999e-001  0.000000e+000  0.000000e+000
    outer loop
      vertex  3.600000e+001  8.315614e+000 -1.874255e+001
      vertex  3.600000e+001 -8.742554e+000 -1.831561e+001
      vertex  3.600000e+001 -8.315614e+000 -1.874255e+001
    endloop
  endfacet
  facet normal  9.999999e-001  -0.000000e+000  0.000000e+000
    outer loop
      vertex  3.600000e+001  8.315614e+000 -1.874255e+001
      vertex  3.600000e+001 -8.315614e+000 -1.874255e+001
      vertex  3.600000e+001  7.840324e+000 -1.911492e+001
    endloop
  endfacet
  facet normal  1.000000e+000  0.000000e+000  0.000000e+000
    outer loop
      vertex  3.600000e+001  7.840324e+000 -1.911492e+001
      vertex  3.600000e+001 -8.315614e+000 -1.874255e+001
      vertex  3.600000e+001 -7.840324e+000 -1.911492e+001
    endloop
  endfacet
  facet normal  1.000000e+000  -0.000000e+000  0.000000e+000
    outer loop
      vertex  3.600000e+001  7.840324e+000 -1.911492e+001
      vertex  3.600000e+001 -7.840324e+000 -1.911492e+001
      vertex  3.600000e+001  7.323616e+000 -1.942728e+001
    endloop
  endfacet
  facet normal  1.000000e+000  0.000000e+000  0.000000e+000
    outer loop
      vertex  3.600000e+001  7.323616e+000 -1.942728e+001
      vertex  3.600000e+001 -7.840324e+000 -1.911492e+001
      vertex  3.600000e+001 -7.323616e+000 -1.942728e+001
    endloop
  endfacet
  facet normal  9.999999e-001  -0.000000e+000  0.000000e+000
    outer loop
      vertex  3.600000e+001  7.323616e+000 -1.942728e+001
      vertex  3.600000e+001 -7.323616e+000 -1.942728e+001
      vertex  3.600000e+001  6.773025e+000 -1.967508e+001
    endloop
  endfacet
  facet normal  1.000000e+000  0.000000e+000  0.000000e+000
    outer loop
      vertex  3.600000e+001  6.773025e+000 -1.967508e+001
      vertex  3.600000e+001 -7.323616e+000 -1.942728e+001
      vertex  3.600000e+001 -6.773025e+000 -1.967508e+001
    endloop
  endfacet
  facet normal  1.000000e+000  -0.000000e+000  0.000000e+000
    outer loop
      vertex  3.600000e+001  6.773025e+000 -1.967508e+001
      vertex  3.600000e+001 -6.773025e+000 -1.967508e+001
      vertex  3.600000e+001  6.196579e+000 -1.985471e+001
    endloop
  endfacet
  facet normal  1.000000e+000  0.000000e+000  0.000000e+000
    outer loop
      vertex  3.600000e+001  6.196579e+000 -1.985471e+001
      vertex  3.600000e+001 -6.773025e+000 -1.967508e+001
      vertex  3.600000e+001 -6.196579e+000 -1.985471e+001
    endloop
  endfacet
  facet normal  9.999999e-001  -0.000000e+000  0.000000e+000
    outer loop
      vertex  3.600000e+001  6.196579e+000 -1.985471e+001
      vertex  3.600000e+001 -6.196579e+000 -1.985471e+001
      vertex  3.600000e+001  5.602684e+000 -1.996354e+001
    endloop
  endfacet
  facet normal  1.000000e+000  0.000000e+000  0.000000e+000
    outer loop
      vertex  3.600000e+001  5.602684e+000 -1.996354e+001
      vertex  3.600000e+001 -6.196579e+000 -1.985471e+001
      vertex  3.600000e+001 -5.602684e+000 -1.996354e+001
    endloop
  endfacet
  facet normal  1.000000e+000  -0.000000e+000  0.000000e+000
    outer loop
      vertex  3.600000e+001  5.602684e+000 -1.996354e+001
      vertex  3.600000e+001 -5.602684e+000 -1.996354e+001
      vertex  3.600000e+001  5.000000e+000 -2.000000e+001
    endloop
  endfacet
  facet normal  1.000000e+000  0.000000e+000  0.000000e+000
    outer loop
      vertex  3.600000e+001  5.000000e+000 -2.000000e+001
      vertex  3.600000e+001 -5.602684e+000 -1.996354e+001
      vertex  3.600000e+001 -5.000000e+000 -2.000000e+001
    endloop
  endfacet
  facet normal  0.000000e+000  0.000000e+000 -1.000000e+000
    outer loop
      vertex  3.600000e+001  5.000000e+000 -2.000000e+001
      vertex  3.600000e+001 -5.000000e+000 -2.000000e+001
      vertex -3.600000e+001  5.000000e+000 -2.000000e+001
    endloop
  endfacet
  facet normal  0.000000e+000  0.000000e+000 -1.000000e+000
    outer loop
      vertex -3.600000e+001  5.000000e+000 -2.000000e+001
      vertex  3.600000e+001 -5.000000e+000 -2.000000e+001
      vertex -3.600000e+001 -5.000000e+000 -2.000000e+001
    endloop
  endfacet
  facet normal  0.000000e+000 -1.000000e+000  0.000000e+000
    outer loop
      vertex  3.600000e+001 -1.000000e+001  2.000000e+001
      vertex -3.600000e+001 -1.000000e+001  2.000000e+001
      vertex  3.600000e+001 -1.000000e+001 -1.500000e+001
    endloop
  endfacet
  facet normal  0.000000e+000 -1.000000e+000  0.000000e+000
    outer loop
      vertex  3.600000e+001 -1.000000e+001 -1.500000e+001
      vertex -3.600000e+001 -1.000000e+001  2.000000e+001
      vertex -3.600000e+001 -1.000000e+001 -1.500000e+001
    endloop
  endfacet
  facet normal  0.000000e+000 -9.981756e-001 -6.037775e-002
    outer loop
      vertex  3.600000e+001 -1.000000e+001 -1.500000e+001
      vertex -3.600000e+001 -1.000000e+001 -1.500000e+001
      vertex  3.600000e+001 -9.963545e+000 -1.560268e+001
    endloop
  endfacet
  facet normal  -0.000000e+000 -9.981756e-001 -6.037775e-002
    outer loop
      vertex  3.600000e+001 -9.963545e+000 -1.560268e+001
      vertex -3.600000e+001 -1.000000e+001 -1.500000e+001
      vertex -3.600000e+001 -9.963545e+000 -1.560268e+001
    endloop
  endfacet
  facet normal  0.000000e+000 -9.836197e-001 -1.802562e-001
    outer loop
      vertex  3.600000e+001 -9.963545e+000 -1.560268e+001
      vertex -3.600000e+001 -9.963545e+000 -1.560268e+001
      vertex  3.600000e+001 -9.854709e+000 -1.619658e+001
    endloop
  endfacet
  facet normal  -0.000000e+000 -9.836197e-001 -1.802562e-001
    outer loop
      vertex  3.600000e+001 -9.854709e+000 -1.619658e+001
      vertex -3.600000e+001 -9.963545e+000 -1.560268e+001
      vertex -3.600000e+001 -9.854709e+000 -1.619658e+001
    endloop
  endfacet
  facet normal  0.000000e+000 -9.547209e-001 -2.975031e-001
    outer loop
      vertex  3.600000e+001 -9.854709e+000 -1.619658e+001
      vertex -3.600000e+001 -9.854709e+000 -1.619658e+001
      vertex  3.600000e+001 -9.675081e+000 -1.677302e+001
    endloop
  endfacet
  facet normal  -0.000000e+000 -9.547209e-001 -2.975031e-001
    outer loop
      vertex  3.600000e+001 -9.675081e+000 -1.677302e+001
      vertex -3.600000e+001 -9.854709e+000 -1.619658e+001
      vertex -3.600000e+001 -9.675081e+000 -1.677302e+001
    endloop
  endfacet
  facet normal  0.000000e+000 -9.119003e-001 -4.104118e-001
    outer loop
      vertex  3.600000e+001 -9.675081e+000 -1.677302e+001
      vertex -3.600000e+001 -9.675081e+000 -1.677302e+001
      vertex  3.600000e+001 -9.427280e+000 -1.732362e+001
    endloop
  endfacet
  facet normal  -0.000000e+000 -9.119003e-001 -4.104118e-001
    outer loop
      vertex  3.600000e+001 -9.427280e+000 -1.732362e+001
      vertex -3.600000e+001 -9.675081e+000 -1.677302e+001
      vertex -3.600000e+001 -9.427280e+000 -1.732362e+001
    endloop
  endfacet
  facet normal  0.000000e+000 -8.557815e-001 -5.173374e-001
    outer loop
      vertex  3.600000e+001 -9.427280e+000 -1.732362e+001
      vertex -3.600000e+001 -9.427280e+000 -1.732362e+001
      vertex  3.600000e+001 -9.114920e+000 -1.784032e+001
    endloop
  endfacet
  facet normal  -0.000000e+000 -8.557815e-001 -5.173374e-001
    outer loop
      vertex  3.600000e+001 -9.114920e+000 -1.784032e+001
      vertex -3.600000e+001 -9.427280e+000 -1.732362e+001
      vertex -3.600000e+001 -9.114920e+000 -1.784032e+001
    endloop
  endfacet
  facet normal  0.000000e+000 -7.871825e-001 -6.167201e-001
    outer loop
      vertex  3.600000e+001 -9.114920e+000 -1.784032e+001
      vertex -3.600000e+001 -9.114920e+000 -1.784032e+001
      vertex  3.600000e+001 -8.742554e+000 -1.831561e+001
    endloop
  endfacet
  facet normal  -0.000000e+000 -7.871825e-001 -6.167201e-001
    outer loop
      vertex  3.600000e+001 -8.742554e+000 -1.831561e+001
      vertex -3.600000e+001 -9.114920e+000 -1.784032e+001
      vertex -3.600000e+001 -8.742554e+000 -1.831561e+001
    endloop
  endfacet
  facet normal  0.000000e+000 -7.071075e-001 -7.071060e-001
    outer loop
      vertex  3.600000e+001 -8.742554e+000 -1.831561e+001
      vertex -3.600000e+001 -8.742554e+000 -1.831561e+001
      vertex  3.600000e+001 -8.315614e+000 -1.874255e+001
    endloop
  endfacet
  facet normal  -0.000000e+000 -7.071075e-001 -7.071060e-001
    outer loop
      vertex  3.600000e+001 -8.315614e+000 -1.874255e+001
      vertex -3.600000e+001 -8.742554e+000 -1.831561e+001
      vertex -3.600000e+001 -8.315614e+000 -1.874255e+001
    endloop
  endfacet
  facet normal  0.000000e+000 -6.167190e-001 -7.871833e-001
    outer loop
      vertex  3.600000e+001 -8.315614e+000 -1.874255e+001
      vertex -3.600000e+001 -8.315614e+000 -1.874255e+001
      vertex  3.600000e+001 -7.840324e+000 -1.911492e+001
    endloop
  endfacet
  facet normal  -0.000000e+000 -6.167190e-001 -7.871833e-001
    outer loop
      vertex  3.600000e+001 -7.840324e+000 -1.911492e+001
      vertex -3.600000e+001 -8.315614e+000 -1.874255e+001
      vertex -3.600000e+001 -7.840324e+000 -1.911492e+001
    endloop
  endfacet
  facet normal  0.000000e+000 -5.173377e-001 -8.557813e-001
    outer loop
      vertex  3.600000e+001 -7.840324e+000 -1.911492e+001
      vertex -3.600000e+001 -7.840324e+000 -1.911492e+001
      vertex  3.600000e+001 -7.323616e+000 -1.942728e+001
    endloop
  endfacet
  facet normal  -0.000000e+000 -5.173377e-001 -8.557813e-001
    outer loop
      vertex  3.600000e+001 -7.323616e+000 -1.942728e+001
      vertex -3.600000e+001 -7.840324e+000 -1.911492e+001
      vertex -3.600000e+001 -7.323616e+000 -1.942728e+001
    endloop
  endfacet
  facet normal  0.000000e+000 -4.104124e-001 -9.119000e-001
    outer loop
      vertex  3.600000e+001 -7.323616e+000 -1.942728e+001
      vertex -3.600000e+001 -7.323616e+000 -1.942728e+001
      vertex  3.600000e+001 -6.773025e+000 -1.967508e+001
    endloop
  endfacet
  facet normal  -0.000000e+000 -4.104124e-001 -9.119000e-001
    outer loop
      vertex  3.600000e+001 -6.773025e+000 -1.967508e+001
      vertex -3.600000e+001 -7.323616e+000 -1.942728e+001
      vertex -3.600000e+001 -6.773025e+000 -1.967508e+001
    endloop
  endfacet
  facet normal  0.000000e+000 -2.975038e-001 -9.547206e-001
    outer loop
      vertex  3.600000e+001 -6.773025e+000 -1.967508e+001
      vertex -3.600000e+001 -6.773025e+000 -1.967508e+001
      vertex  3.600000e+001 -6.196579e+000 -1.985471e+001
    endloop
  endfacet
  facet normal  -0.000000e+000 -2.975038e-001 -9.547206e-001
    outer loop
      vertex  3.600000e+001 -6.196579e+000 -1.985471e+001
      vertex -3.600000e+001 -6.773025e+000 -1.967508e+001
      vertex -3.600000e+001 -6.196579e+000 -1.985471e+001
    endloop
  endfacet
  facet normal  0.000000e+000 -1.802549e-001 -9.836200e-001
    outer loop
      vertex  3.600000e+001 -6.196579e+000 -1.985471e+001
      vertex -3.600000e+001 -6.196579e+000 -1.985471e+001
      vertex  3.600000e+001 -5.602684e+000 -1.996354e+001
    endloop
  endfacet
  facet normal  -0.000000e+000 -1.802549e-001 -9.836200e-001
    outer loop
      vertex  3.600000e+001 -5.602684e+000 -1.996354e+001
      vertex -3.600000e+001 -6.196579e+000 -1.985471e+001
      vertex -3.600000e+001 -5.602684e+000 -1.996354e+001
    endloop
  endfacet
  facet normal  0.000000e+000 -6.037770e-002 -9.981756e-001
    outer loop
      vertex  3.600000e+001 -5.602684e+000 -1.996354e+001
      vertex -3.600000e+001 -5.602684e+000 -1.996354e+001
      vertex  3.600000e+001 -5.000000e+000 -2.000000e+001
    endloop
  endfacet
  facet normal  -0.000000e+000 -6.037770e-002 -9.981756e-001
    outer loop
      vertex  3.600000e+001 -5.000000e+000 -2.000000e+001
      vertex -3.600000e+001 -5.602684e+000 -1.996354e+001
      vertex -3.600000e+001 -5.000000e+000 -2.000000e+001
    endloop
  endfacet
  facet normal  0.000000e+000  1.000000e+000  0.000000e+000
    outer loop
      vertex  3.600000e+001  1.000000e+001 -1.500000e+001
      vertex -3.600000e+001  1.000000e+001 -1.500000e+001
      vertex  3.600000e+001  1.000000e+001  2.000000e+001
    endloop
  endfacet
  facet normal  0.000000e+000  1.000000e+000  0.000000e+000
    outer loop
      vertex  3.600000e+001  1.000000e+001  2.000000e+001
      vertex -3.600000e+001  1.000000e+001 -1.500000e+001
      vertex -3.600000e+001  1.000000e+001  2.000000e+001
    endloop
  endfacet
  facet normal  0.000000e+000  6.037770e-002 -9.981756e-001
    outer loop
      vertex  3.600000e+001  5.000000e+000 -2.000000e+001
      vertex -3.600000e+001  5.000000e+000 -2.000000e+001
      vertex  3.600000e+001  5.602684e+000 -1.996354e+001
    endloop
  endfacet
  facet normal  0.000000e+000  6.037770e-002 -9.981756e-001
    outer loop
      vertex  3.600000e+001  5.602684e+000 -1.996354e+001
      vertex -3.600000e+001  5.000000e+000 -2.000000e+001
      vertex -3.600000e+001  5.602684e+000 -1.996354e+001
    endloop
  endfacet
  facet normal  0.000000e+000  1.802549e-001 -9.836200e-001
    outer loop
      vertex  3.600000e+001  5.602684e+000 -1.996354e+001
      vertex -3.600000e+001  5.602684e+000 -1.996354e+001
      vertex  3.600000e+001  6.196579e+000 -1.985471e+001
    endloop
  endfacet
  facet normal  0.000000e+000  1.802549e-001 -9.836200e-001
    outer loop
      vertex  3.600000e+001  6.196579e+000 -1.985471e+001
      vertex -3.600000e+001  5.602684e+000 -1.996354e+001
      vertex -3.600000e+001  6.196579e+000 -1.985471e+001
    endloop
  endfacet
  facet normal  0.000000e+000  2.975038e-001 -9.547206e-001
    outer loop
      vertex  3.600000e+001  6.196579e+000 -1.985471e+001
      vertex -3.600000e+001  6.196579e+000 -1.985471e+001
      vertex  3.600000e+001  6.773025e+000 -1.967508e+001
    endloop
  endfacet
  facet normal  0.000000e+000  2.975038e-001 -9.547206e-001
    outer loop
      vertex  3.600000e+001  6.773025e+000 -1.967508e+001
      vertex -3.600000e+001  6.196579e+000 -1.985471e+001
      vertex -3.600000e+001  6.773025e+000 -1.967508e+001
    endloop
  endfacet
  facet normal  0.000000e+000  4.104124e-001 -9.119000e-001
    outer loop
      vertex  3.600000e+001  6.773025e+000 -1.967508e+001
      vertex -3.600000e+001  6.773025e+000 -1.967508e+001
      vertex  3.600000e+001  7.323616e+000 -1.942728e+001
    endloop
  endfacet
  facet normal  0.000000e+000  4.104124e-001 -9.119000e-001
    outer loop
      vertex  3.600000e+001  7.323616e+000 -1.942728e+001
      vertex -3.600000e+001  6.773025e+000 -1.967508e+001
      vertex -3.600000e+001  7.323616e+000 -1.942728e+001
    endloop
  endfacet
  facet normal  0.000000e+000  5.173377e-001 -8.557813e-001
    outer loop
      vertex  3.600000e+001  7.323616e+000 -1.942728e+001
      vertex -3.600000e+001  7.323616e+000 -1.942728e+001
      vertex  3.600000e+001  7.840324e+000 -1.911492e+001
    endloop
  endfacet
  facet normal  0.000000e+000  5.173377e-001 -8.557813e-001
    outer loop
      vertex  3.600000e+001  7.840324e+000 -1.911492e+001
      vertex -3.600000e+001  7.323616e+000 -1.942728e+001
      vertex -3.600000e+001  7.840324e+000 -1.911492e+001
    endloop
  endfacet
  facet normal  0.000000e+000  6.167190e-001 -7.871833e-001
    outer loop
      vertex  3.600000e+001  7.840324e+000 -1.911492e+001
      vertex -3.600000e+001  7.840324e+000 -1.911492e+001
      vertex  3.600000e+001  8.315614e+000 -1.874255e+001
    endloop
  endfacet
  facet normal  0.000000e+000  6.167190e-001 -7.871833e-001
    outer loop
      vertex  3.600000e+001  8.315614e+000 -1.874255e+001
      vertex -3.600000e+001  7.840324e+000 -1.911492e+001
      vertex -3.600000e+001  8.315614e+000 -1.874255e+001
    endloop
  endfacet
  facet normal  0.000000e+000  7.071075e-001 -7.071060e-001
    outer loop
      vertex  3.600000e+001  8.315614e+000 -1.874255e+001
      vertex -3.600000e+001  8.315614e+000 -1.874255e+001
      vertex  3.600000e+001  8.742554e+000 -1.831561e+001
    endloop
  endfacet
  facet normal  0.000000e+000  7.071075e-001 -7.071060e-001
    outer loop
      vertex  3.600000e+001  8.742554e+000 -1.831561e+001
      vertex -3.600000e+001  8.315614e+000 -1.874255e+001
      vertex -3.600000e+001  8.742554e+000 -1.831561e+001
    endloop
  endfacet
  facet normal  0.000000e+000  7.871825e-001 -6.167201e-001
    outer loop
      vertex  3.600000e+001  8.742554e+000 -1.831561e+001
      vertex -3.600000e+001  8.742554e+000 -1.831561e+001
      vertex  3.600000e+001  9.114920e+000 -1.784032e+001
    endloop
  endfacet
  facet normal  0.000000e+000  7.871825e-001 -6.167201e-001
    outer loop
      vertex  3.600000e+001  9.114920e+000 -1.784032e+001
      vertex -3.600000e+001  8.742554e+000 -1.831561e+001
      vertex -3.600000e+001  9.114920e+000 -1.784032e+001
    endloop
  endfacet
  facet normal  0.000000e+000  8.557815e-001 -5.173374e-001
    outer loop
      vertex  3.600000e+001  9.114920e+000 -1.784032e+001
      vertex -3.600000e+001  9.114920e+000 -1.784032e+001
      vertex  3.600000e+001  9.427280e+000 -1.732362e+001
    endloop
  endfacet
  facet normal  0.000000e+000  8.557815e-001 -5.173374e-001
    outer loop
      vertex  3.600000e+001  9.427280e+000 -1.732362e+001
      vertex -3.600000e+001  9.114920e+000 -1.784032e+001
      vertex -3.600000e+001  9.427280e+000 -1.732362e+001
    endloop
  endfacet
  facet normal  0.000000e+000  9.119003e-001 -4.104118e-001
    outer loop
      vertex  3.600000e+001  9.427280e+000 -1.732362e+001
      vertex -3.600000e+001  9.427280e+000 -1.732362e+001
      vertex  3.600000e+001  9.675081e+000 -1.677302e+001
    endloop
  endfacet
  facet normal  0.000000e+000  9.119003e-001 -4.104118e-001
    outer loop
      vertex  3.600000e+001  9.675081e+000 -1.677302e+001
      vertex -3.600000e+001  9.427280e+000 -1.732362e+001
      vertex -3.600000e+001  9.675081e+000 -1.677302e+001
    endloop
  endfacet
  facet normal  0.000000e+000  9.547209e-001 -2.975031e-001
    outer loop
      vertex  3.600000e+001  9.675081e+000 -1.677302e+001
      vertex -3.600000e+001  9.675081e+000 -1.677302e+001
      vertex  3.600000e+001  9.854709e+000 -1.619658e+001
    endloop
  endfacet
  facet normal  0.000000e+000  9.547209e-001 -2.975031e-001
    outer loop
      vertex  3.600000e+001  9.854709e+000 -1.619658e+001
      vertex -3.600000e+001  9.675081e+000 -1.677302e+001
      vertex -3.600000e+001  9.854709e+000 -1.619658e+001
    endloop
  endfacet
  facet normal  0.000000e+000  9.836197e-001 -1.802562e-001
    outer loop
      vertex  3.600000e+001  9.854709e+000 -1.619658e+001
      vertex -3.600000e+001  9.854709e+000 -1.619658e+001
      vertex  3.600000e+001  9.963545e+000 -1.560268e+001
    endloop
  endfacet
  facet normal  0.000000e+000  9.836197e-001 -1.802562e-001
    outer loop
      vertex  3.600000e+001  9.963545e+000 -1.560268e+001
      vertex -3.600000e+001  9.854709e+000 -1.619658e+001
      vertex -3.600000e+001  9.963545e+000 -1.560268e+001
    endloop
  endfacet
  facet normal  0.000000e+000  9.981756e-001 -6.037775e-002
    outer loop
      vertex  3.600000e+001  9.963545e+000 -1.560268e+001
      vertex -3.600000e+001  9.963545e+000 -1.560268e+001
      vertex  3.600000e+001  1.000000e+001 -1.500000e+001
    endloop
  endfacet
  facet normal  0.000000e+000  9.981756e-001 -6.037775e-002
    outer loop
      vertex  3.600000e+001  1.000000e+001 -1.500000e+001
      vertex -3.600000e+001  9.963545e+000 -1.560268e+001
      vertex -3.600000e+001  1.000000e+001 -1.500000e+001
    endloop
  endfacet
  facet normal  -0.000000e+000  0.000000e+000  1.000000e+000
    outer loop
      vertex  3.600000e+001  1.000000e+001  2.000000e+001
      vertex  3.300000e+001  7.000000e+000  2.000000e+001
      vertex  3.600000e+001 -1.000000e+001  2.000000e+001
    endloop
  endfacet
  facet normal  0.000000e+000  0.000000e+000  1.000000e+000
    outer loop
      vertex  3.600000e+001 -1.000000e+001  2.000000e+001
      vertex  3.300000e+001  7.000000e+000  2.000000e+001
      vertex  3.300000e+001 -7.000000e+000  2.000000e+001
    endloop
  endfacet
  facet normal  0.000000e+000  0.000000e+000  1.000000e+000
    outer loop
      vertex  3.600000e+001 -1.000000e+001  2.000000e+001
      vertex  3.300000e+001 -7.000000e+000  2.000000e+001
      vertex -3.600000e+001 -1.000000e+001  2.000000e+001
    endloop
  endfacet
  facet normal  0.000000e+000  0.000000e+000  1.000000e+000
    outer loop
      vertex -3.600000e+001 -1.000000e+001  2.000000e+001
      vertex  3.300000e+001 -7.000000e+000  2.000000e+001
      vertex -3.300000e+001 -7.000000e+000  2.000000e+001
    endloop
  endfacet
  facet normal  0.000000e+000  0.000000e+000  1.000000e+000
    outer loop
      vertex -3.600000e+001 -1.000000e+001  2.000000e+001
      vertex -3.300000e+001 -7.000000e+000  2.000000e+001
      vertex -3.600000e+001  1.000000e+001  2.000000e+001
    endloop
  endfacet
  facet normal  0.000000e+000  0.000000e+000  1.000000e+000
    outer loop
      vertex -3.600000e+001  1.000000e+001  2.000000e+001
      vertex -3.300000e+001 -7.000000e+000  2.000000e+001
      vertex -3.300000e+001  7.000000e+000  2.000000e+001
    endloop
  endfacet
  facet normal  0.000000e+000  -0.000000e+000  1.000000e+000
    outer loop
      vertex -3.600000e+001  1.000000e+001  2.000000e+001
      vertex -3.300000e+001  7.000000e+000  2.000000e+001
      vertex  3.600000e+001  1.000000e+001  2.000000e+001
    endloop
  endfacet
  facet normal  0.000000e+000  0.000000e+000  1.000000e+000
    outer loop
      vertex  3.600000e+001  1.000000e+001  2.000000e+001
      vertex -3.300000e+001  7.000000e+000  2.000000e+001
      vertex  3.300000e+001  7.000000e+000  2.000000e+001
    endloop
  endfacet
  facet normal  0.000000e+000 -1.000000e+000  0.000000e+000
    outer loop
      vertex -3.300000e+001  7.000000e+000 -1.500000e+001
      vertex  3.300000e+001  7.000000e+000 -1.500000e+001
      vertex -3.300000e+001  7.000000e+000  2.000000e+001
    endloop
  endfacet
  facet normal  0.000000e+000 -1.000000e+000  0.000000e+000
    outer loop
      vertex -3.300000e+001  7.000000e+000  2.000000e+001
      vertex  3.300000e+001  7.000000e+000 -1.500000e+001
      vertex  3.300000e+001  7.000000e+000  2.000000e+001
    endloop
  endfacet
  facet normal -9.999999e-001  -0.000000e+000  0.000000e+000
    outer loop
      vertex  3.300000e+001 -7.000000e+000  2.000000e+001
      vertex  3.300000e+001  7.000000e+000  2.000000e+001
      vertex  3.300000e+001 -7.000000e+000 -1.500000e+001
    endloop
  endfacet
  facet normal -9.999999e-001  0.000000e+000  0.000000e+000
    outer loop
      vertex  3.300000e+001 -7.000000e+000 -1.500000e+001
      vertex  3.300000e+001  7.000000e+000  2.000000e+001
      vertex  3.300000e+001  7.000000e+000 -1.500000e+001
    endloop
  endfacet
  facet normal  0.000000e+000  1.000000e+000  0.000000e+000
    outer loop
      vertex  3.300000e+001 -7.000000e+000 -1.500000e+001
      vertex -3.300000e+001 -7.000000e+000 -1.500000e+001
      vertex  3.300000e+001 -7.000000e+000  2.000000e+001
    endloop
  endfacet
  facet normal  0.000000e+000  1.000000e+000  0.000000e+000
    outer loop
      vertex  3.300000e+001 -7.000000e+000  2.000000e+001
      vertex -3.300000e+001 -7.000000e+000 -1.500000e+001
      vertex -3.300000e+001 -7.000000e+000  2.000000e+001
    endloop
  endfacet
  facet normal  9.999999e-001  -0.000000e+000  0.000000e+000
    outer loop
      vertex -3.300000e+001  7.000000e+000  2.000000e+001
      vertex -3.300000e+001 -7.000000e+000  2.000000e+001
      vertex -3.300000e+001  7.000000e+000 -1.500000e+001
    endloop
  endfacet
  facet normal  9.999999e-001  0.000000e+000  0.000000e+000
    outer loop
      vertex -3.300000e+001  7.000000e+000 -1.500000e+001
      vertex -3.300000e+001 -7.000000e+000  2.000000e+001
      vertex -3.300000e+001 -7.000000e+000 -1.500000e+001
    endloop
  endfacet
  facet normal  0.000000e+000  0.000000e+000  1.000000e+000
    outer loop
      vertex -3.300000e+001 -7.000000e+000 -1.500000e+001
      vertex  3.300000e+001 -7.000000e+000 -1.500000e+001
      vertex -3.300000e+001  7.000000e+000 -1.500000e+001
    endloop
  endfacet
  facet normal  -0.000000e+000  0.000000e+000  1.000000e+000
    outer loop
      vertex -3.300000e+001  7.000000e+000 -1.500000e+001
      vertex  3.300000e+001 -7.000000e+000 -1.500000e+001
      vertex  3.300000e+001  7.000000e+000 -1.500000e+001
    endloop
  endfacet
endsolid CATIA STL
