solid CATIA STL
  facet normal  -0.000000e+000  1.000000e+000  -0.000000e+000
    outer loop
      vertex  3.668845e+000  1.000000e+001  1.593604e+000
      vertex  1.889796e+000  1.000000e+001  1.636665e+000
      vertex  1.569300e+000  1.000000e+001  1.946098e+000
    endloop
  endfacet
  facet normal  0.000000e+000  9.999999e-001  0.000000e+000
    outer loop
      vertex -1.702011e+000  1.000000e+001 -1.831164e+000
      vertex -1.349975e+000  1.000000e+001 -2.104179e+000
      vertex -3.417678e+000  1.000000e+001 -2.078336e+000
    endloop
  endfacet
  facet normal  0.000000e+000  9.999999e-001  0.000000e+000
    outer loop
      vertex -8.778112e-002  1.000000e+001 -2.498458e+000
      vertex  3.570634e-001  1.000000e+001 -2.474370e+000
      vertex  2.729697e-001  1.000000e+001 -3.990675e+000
    endloop
  endfacet
  facet normal  0.000000e+000  1.000000e+000  0.000000e+000
    outer loop
      vertex -8.778112e-002  1.000000e+001 -2.498458e+000
      vertex  2.729697e-001  1.000000e+001 -3.990675e+000
      vertex -2.729697e-001  1.000000e+001 -3.990675e+000
    endloop
  endfacet
  facet normal  0.000000e+000  1.000000e+000  -0.000000e+000
    outer loop
      vertex -8.778112e-002  1.000000e+001 -2.498458e+000
      vertex -2.729697e-001  1.000000e+001 -3.990675e+000
      vertex -8.138241e-001  1.000000e+001 -3.916336e+000
    endloop
  endfacet
  facet normal  0.000000e+000  1.000000e+000  -0.000000e+000
    outer loop
      vertex -8.778112e-002  1.000000e+001 -2.498458e+000
      vertex -8.138241e-001  1.000000e+001 -3.916336e+000
      vertex -1.339518e+000  1.000000e+001 -3.769044e+000
    endloop
  endfacet
  facet normal  0.000000e+000  1.000000e+000  -0.000000e+000
    outer loop
      vertex -8.778112e-002  1.000000e+001 -2.498458e+000
      vertex -1.339518e+000  1.000000e+001 -3.769044e+000
      vertex -1.840260e+000  1.000000e+001 -3.551541e+000
    endloop
  endfacet
  facet normal  0.000000e+000  1.000000e+000  -0.000000e+000
    outer loop
      vertex -8.778112e-002  1.000000e+001 -2.498458e+000
      vertex -1.840260e+000  1.000000e+001 -3.551541e+000
      vertex -2.306721e+000  1.000000e+001 -3.267879e+000
    endloop
  endfacet
  facet normal  0.000000e+000  1.000000e+000  -0.000000e+000
    outer loop
      vertex -8.778112e-002  1.000000e+001 -2.498458e+000
      vertex -2.306721e+000  1.000000e+001 -3.267879e+000
      vertex -2.730213e+000  1.000000e+001 -2.923344e+000
    endloop
  endfacet
  facet normal  0.000000e+000  1.000000e+000  -0.000000e+000
    outer loop
      vertex -8.778112e-002  1.000000e+001 -2.498458e+000
      vertex -2.730213e+000  1.000000e+001 -2.923344e+000
      vertex -3.102845e+000  1.000000e+001 -2.524352e+000
    endloop
  endfacet
  facet normal  0.000000e+000  1.000000e+000  0.000000e+000
    outer loop
      vertex  3.102845e+000  1.000000e+001  2.524352e+000
      vertex  3.417678e+000  1.000000e+001  2.078336e+000
      vertex  7.905694e-001  1.000000e+001  2.371708e+000
    endloop
  endfacet
  facet normal  0.000000e+000  1.000000e+000  -0.000000e+000
    outer loop
      vertex  3.102845e+000  1.000000e+001  2.524352e+000
      vertex  7.905694e-001  1.000000e+001  2.371708e+000
      vertex  3.570634e-001  1.000000e+001  2.474370e+000
    endloop
  endfacet
  facet normal  0.000000e+000  9.999999e-001  0.000000e+000
    outer loop
      vertex  3.102845e+000  1.000000e+001  2.524352e+000
      vertex  3.570634e-001  1.000000e+001  2.474370e+000
      vertex  8.138241e-001  1.000000e+001  3.916336e+000
    endloop
  endfacet
  facet normal  0.000000e+000  9.999999e-001  0.000000e+000
    outer loop
      vertex  3.102845e+000  1.000000e+001  2.524352e+000
      vertex  8.138241e-001  1.000000e+001  3.916336e+000
      vertex  1.339518e+000  1.000000e+001  3.769044e+000
    endloop
  endfacet
  facet normal  0.000000e+000  9.999999e-001  0.000000e+000
    outer loop
      vertex  3.102845e+000  1.000000e+001  2.524352e+000
      vertex  1.339518e+000  1.000000e+001  3.769044e+000
      vertex  1.840260e+000  1.000000e+001  3.551541e+000
    endloop
  endfacet
  facet normal  0.000000e+000  1.000000e+000  0.000000e+000
    outer loop
      vertex  3.102845e+000  1.000000e+001  2.524352e+000
      vertex  1.840260e+000  1.000000e+001  3.551541e+000
      vertex  2.306721e+000  1.000000e+001  3.267879e+000
    endloop
  endfacet
  facet normal  0.000000e+000  1.000000e+000  0.000000e+000
    outer loop
      vertex  3.102845e+000  1.000000e+001  2.524352e+000
      vertex  2.306721e+000  1.000000e+001  3.267879e+000
      vertex  2.730213e+000  1.000000e+001  2.923344e+000
    endloop
  endfacet
  facet normal  0.000000e+000  1.000000e+000  0.000000e+000
    outer loop
      vertex  2.729697e-001  1.000000e+001 -3.990675e+000
      vertex  3.570634e-001  1.000000e+001 -2.474370e+000
      vertex  3.102845e+000  1.000000e+001 -2.524352e+000
    endloop
  endfacet
  facet normal  0.000000e+000  1.000000e+000  0.000000e+000
    outer loop
      vertex  2.729697e-001  1.000000e+001 -3.990675e+000
      vertex  3.102845e+000  1.000000e+001 -2.524352e+000
      vertex  2.730213e+000  1.000000e+001 -2.923344e+000
    endloop
  endfacet
  facet normal  0.000000e+000  1.000000e+000  0.000000e+000
    outer loop
      vertex  2.729697e-001  1.000000e+001 -3.990675e+000
      vertex  2.730213e+000  1.000000e+001 -2.923344e+000
      vertex  2.306721e+000  1.000000e+001 -3.267879e+000
    endloop
  endfacet
  facet normal  0.000000e+000  1.000000e+000  0.000000e+000
    outer loop
      vertex  2.729697e-001  1.000000e+001 -3.990675e+000
      vertex  2.306721e+000  1.000000e+001 -3.267879e+000
      vertex  1.840260e+000  1.000000e+001 -3.551541e+000
    endloop
  endfacet
  facet normal  0.000000e+000  1.000000e+000  0.000000e+000
    outer loop
      vertex  2.729697e-001  1.000000e+001 -3.990675e+000
      vertex  1.840260e+000  1.000000e+001 -3.551541e+000
      vertex  1.339518e+000  1.000000e+001 -3.769044e+000
    endloop
  endfacet
  facet normal  0.000000e+000  1.000000e+000  0.000000e+000
    outer loop
      vertex  2.729697e-001  1.000000e+001 -3.990675e+000
      vertex  1.339518e+000  1.000000e+001 -3.769044e+000
      vertex  8.138241e-001  1.000000e+001 -3.916336e+000
    endloop
  endfacet
  facet normal  -0.000000e+000  1.000000e+000  0.000000e+000
    outer loop
      vertex  3.102845e+000  1.000000e+001 -2.524352e+000
      vertex  3.570634e-001  1.000000e+001 -2.474370e+000
      vertex  7.905694e-001  1.000000e+001 -2.371708e+000
    endloop
  endfacet
  facet normal  -0.000000e+000  1.000000e+000  0.000000e+000
    outer loop
      vertex  3.102845e+000  1.000000e+001 -2.524352e+000
      vertex  7.905694e-001  1.000000e+001 -2.371708e+000
      vertex  1.198971e+000  1.000000e+001 -2.193734e+000
    endloop
  endfacet
  facet normal  -0.000000e+000  9.999999e-001  0.000000e+000
    outer loop
      vertex  3.102845e+000  1.000000e+001 -2.524352e+000
      vertex  1.198971e+000  1.000000e+001 -2.193734e+000
      vertex  3.417678e+000  1.000000e+001 -2.078336e+000
    endloop
  endfacet
  facet normal  0.000000e+000  1.000000e+000  -0.000000e+000
    outer loop
      vertex -8.778112e-002  1.000000e+001  2.498458e+000
      vertex -5.298381e-001  1.000000e+001  2.443209e+000
      vertex -3.102845e+000  1.000000e+001  2.524352e+000
    endloop
  endfacet
  facet normal  -0.000000e+000  1.000000e+000  0.000000e+000
    outer loop
      vertex -8.778112e-002  1.000000e+001  2.498458e+000
      vertex -3.102845e+000  1.000000e+001  2.524352e+000
      vertex -2.730213e+000  1.000000e+001  2.923344e+000
    endloop
  endfacet
  facet normal  -0.000000e+000  1.000000e+000  0.000000e+000
    outer loop
      vertex -8.778112e-002  1.000000e+001  2.498458e+000
      vertex -2.730213e+000  1.000000e+001  2.923344e+000
      vertex -2.306721e+000  1.000000e+001  3.267879e+000
    endloop
  endfacet
  facet normal  -0.000000e+000  1.000000e+000  0.000000e+000
    outer loop
      vertex -8.778112e-002  1.000000e+001  2.498458e+000
      vertex -2.306721e+000  1.000000e+001  3.267879e+000
      vertex -1.840260e+000  1.000000e+001  3.551541e+000
    endloop
  endfacet
  facet normal  -0.000000e+000  1.000000e+000  0.000000e+000
    outer loop
      vertex -8.778112e-002  1.000000e+001  2.498458e+000
      vertex -1.840260e+000  1.000000e+001  3.551541e+000
      vertex -1.339518e+000  1.000000e+001  3.769044e+000
    endloop
  endfacet
  facet normal  -0.000000e+000  1.000000e+000  0.000000e+000
    outer loop
      vertex -8.778112e-002  1.000000e+001  2.498458e+000
      vertex -1.339518e+000  1.000000e+001  3.769044e+000
      vertex -8.138241e-001  1.000000e+001  3.916336e+000
    endloop
  endfacet
  facet normal  -0.000000e+000  1.000000e+000  0.000000e+000
    outer loop
      vertex -8.778112e-002  1.000000e+001  2.498458e+000
      vertex -8.138241e-001  1.000000e+001  3.916336e+000
      vertex -2.729697e-001  1.000000e+001  3.990675e+000
    endloop
  endfacet
  facet normal  -0.000000e+000  1.000000e+000  0.000000e+000
    outer loop
      vertex -8.778112e-002  1.000000e+001  2.498458e+000
      vertex -2.729697e-001  1.000000e+001  3.990675e+000
      vertex  2.729697e-001  1.000000e+001  3.990675e+000
    endloop
  endfacet
  facet normal  0.000000e+000  1.000000e+000  0.000000e+000
    outer loop
      vertex -8.778112e-002  1.000000e+001  2.498458e+000
      vertex  2.729697e-001  1.000000e+001  3.990675e+000
      vertex  8.138241e-001  1.000000e+001  3.916336e+000
    endloop
  endfacet
  facet normal  0.000000e+000  1.000000e+000  0.000000e+000
    outer loop
      vertex -8.778112e-002  1.000000e+001  2.498458e+000
      vertex  8.138241e-001  1.000000e+001  3.916336e+000
      vertex  3.570634e-001  1.000000e+001  2.474370e+000
    endloop
  endfacet
  facet normal  0.000000e+000  1.000000e+000  0.000000e+000
    outer loop
      vertex -2.000000e+000  1.000000e+001 -1.500000e+000
      vertex -1.702011e+000  1.000000e+001 -1.831164e+000
      vertex -3.417678e+000  1.000000e+001 -2.078336e+000
    endloop
  endfacet
  facet normal  0.000000e+000  9.999999e-001  -0.000000e+000
    outer loop
      vertex -2.000000e+000  1.000000e+001 -1.500000e+000
      vertex -3.417678e+000  1.000000e+001 -2.078336e+000
      vertex -3.668845e+000  1.000000e+001 -1.593604e+000
    endloop
  endfacet
  facet normal  0.000000e+000  1.000000e+000  -0.000000e+000
    outer loop
      vertex -2.000000e+000  1.000000e+001 -1.500000e+000
      vertex -3.668845e+000  1.000000e+001 -1.593604e+000
      vertex -3.851669e+000  1.000000e+001 -1.079187e+000
    endloop
  endfacet
  facet normal  -0.000000e+000  1.000000e+000  -0.000000e+000
    outer loop
      vertex -2.000000e+000  1.000000e+001 -1.500000e+000
      vertex -3.851669e+000  1.000000e+001 -1.079187e+000
      vertex -3.962744e+000  1.000000e+001 -5.446666e-001
    endloop
  endfacet
  facet normal  -0.000000e+000  1.000000e+000  -0.000000e+000
    outer loop
      vertex -2.000000e+000  1.000000e+001 -1.500000e+000
      vertex -3.962744e+000  1.000000e+001 -5.446666e-001
      vertex -4.000000e+000  1.000000e+001  0.000000e+000
    endloop
  endfacet
  facet normal  -0.000000e+000  1.000000e+000  0.000000e+000
    outer loop
      vertex -2.000000e+000  1.000000e+001 -1.500000e+000
      vertex -4.000000e+000  1.000000e+001  0.000000e+000
      vertex -2.000000e+000  1.000000e+001  0.000000e+000
    endloop
  endfacet
  facet normal  0.000000e+000  9.999999e-001  0.000000e+000
    outer loop
      vertex -3.102845e+000  1.000000e+001 -2.524352e+000
      vertex -3.417678e+000  1.000000e+001 -2.078336e+000
      vertex -1.349975e+000  1.000000e+001 -2.104179e+000
    endloop
  endfacet
  facet normal  0.000000e+000  1.000000e+000  0.000000e+000
    outer loop
      vertex -3.102845e+000  1.000000e+001 -2.524352e+000
      vertex -1.349975e+000  1.000000e+001 -2.104179e+000
      vertex -9.550703e-001  1.000000e+001 -2.310377e+000
    endloop
  endfacet
  facet normal  0.000000e+000  9.999999e-001  0.000000e+000
    outer loop
      vertex -3.102845e+000  1.000000e+001 -2.524352e+000
      vertex -9.550703e-001  1.000000e+001 -2.310377e+000
      vertex -5.298381e-001  1.000000e+001 -2.443209e+000
    endloop
  endfacet
  facet normal  0.000000e+000  1.000000e+000  0.000000e+000
    outer loop
      vertex -3.102845e+000  1.000000e+001 -2.524352e+000
      vertex -5.298381e-001  1.000000e+001 -2.443209e+000
      vertex -8.778112e-002  1.000000e+001 -2.498458e+000
    endloop
  endfacet
  facet normal  -0.000000e+000  9.999999e-001  0.000000e+000
    outer loop
      vertex  3.668845e+000  1.000000e+001  1.593604e+000
      vertex  1.569300e+000  1.000000e+001  1.946098e+000
      vertex  3.417678e+000  1.000000e+001  2.078336e+000
    endloop
  endfacet
  facet normal  0.000000e+000  1.000000e+000  0.000000e+000
    outer loop
      vertex  3.417678e+000  1.000000e+001  2.078336e+000
      vertex  1.569300e+000  1.000000e+001  1.946098e+000
      vertex  1.198971e+000  1.000000e+001  2.193734e+000
    endloop
  endfacet
  facet normal  -0.000000e+000  1.000000e+000  -0.000000e+000
    outer loop
      vertex  3.417678e+000  1.000000e+001  2.078336e+000
      vertex  1.198971e+000  1.000000e+001  2.193734e+000
      vertex  7.905694e-001  1.000000e+001  2.371708e+000
    endloop
  endfacet
  facet normal  0.000000e+000  1.000000e+000  0.000000e+000
    outer loop
      vertex  1.889796e+000  1.000000e+001  1.636665e+000
      vertex  3.668845e+000  1.000000e+001  1.593604e+000
      vertex  2.150282e+000  1.000000e+001  1.275259e+000
    endloop
  endfacet
  facet normal  -0.000000e+000  1.000000e+000  0.000000e+000
    outer loop
      vertex  2.150282e+000  1.000000e+001  1.275259e+000
      vertex  3.668845e+000  1.000000e+001  1.593604e+000
      vertex  3.851669e+000  1.000000e+001  1.079187e+000
    endloop
  endfacet
  facet normal  0.000000e+000  9.999999e-001  0.000000e+000
    outer loop
      vertex  2.150282e+000  1.000000e+001  1.275259e+000
      vertex  3.851669e+000  1.000000e+001  1.079187e+000
      vertex  2.342487e+000  1.000000e+001  8.733584e-001
    endloop
  endfacet
  facet normal  -0.000000e+000  1.000000e+000  0.000000e+000
    outer loop
      vertex  2.342487e+000  1.000000e+001  8.733584e-001
      vertex  3.851669e+000  1.000000e+001  1.079187e+000
      vertex  3.962744e+000  1.000000e+001  5.446666e-001
    endloop
  endfacet
  facet normal  0.000000e+000  1.000000e+000  0.000000e+000
    outer loop
      vertex  2.342487e+000  1.000000e+001  8.733584e-001
      vertex  3.962744e+000  1.000000e+001  5.446666e-001
      vertex  2.460307e+000  1.000000e+001  4.437244e-001
    endloop
  endfacet
  facet normal  0.000000e+000  1.000000e+000  0.000000e+000
    outer loop
      vertex  2.460307e+000  1.000000e+001  4.437244e-001
      vertex  3.962744e+000  1.000000e+001  5.446666e-001
      vertex  2.500000e+000  1.000000e+001  3.061516e-016
    endloop
  endfacet
  facet normal  0.000000e+000  1.000000e+000  0.000000e+000
    outer loop
      vertex  2.500000e+000  1.000000e+001  3.061516e-016
      vertex  3.962744e+000  1.000000e+001  5.446666e-001
      vertex  4.000000e+000  1.000000e+001  4.898425e-016
    endloop
  endfacet
  facet normal  0.000000e+000  1.000000e+000  0.000000e+000
    outer loop
      vertex  2.500000e+000  1.000000e+001  3.061516e-016
      vertex  4.000000e+000  1.000000e+001  4.898425e-016
      vertex  2.460307e+000  1.000000e+001 -4.437244e-001
    endloop
  endfacet
  facet normal  -0.000000e+000  1.000000e+000  0.000000e+000
    outer loop
      vertex  2.460307e+000  1.000000e+001 -4.437244e-001
      vertex  4.000000e+000  1.000000e+001  4.898425e-016
      vertex  3.962744e+000  1.000000e+001 -5.446666e-001
    endloop
  endfacet
  facet normal  0.000000e+000  1.000000e+000  0.000000e+000
    outer loop
      vertex  2.460307e+000  1.000000e+001 -4.437244e-001
      vertex  3.962744e+000  1.000000e+001 -5.446666e-001
      vertex  2.342487e+000  1.000000e+001 -8.733584e-001
    endloop
  endfacet
  facet normal  -0.000000e+000  1.000000e+000  0.000000e+000
    outer loop
      vertex  2.342487e+000  1.000000e+001 -8.733584e-001
      vertex  3.962744e+000  1.000000e+001 -5.446666e-001
      vertex  3.851669e+000  1.000000e+001 -1.079187e+000
    endloop
  endfacet
  facet normal  0.000000e+000  9.999999e-001  0.000000e+000
    outer loop
      vertex  2.342487e+000  1.000000e+001 -8.733584e-001
      vertex  3.851669e+000  1.000000e+001 -1.079187e+000
      vertex  2.150282e+000  1.000000e+001 -1.275259e+000
    endloop
  endfacet
  facet normal  0.000000e+000  1.000000e+000  0.000000e+000
    outer loop
      vertex  2.150282e+000  1.000000e+001 -1.275259e+000
      vertex  3.851669e+000  1.000000e+001 -1.079187e+000
      vertex  1.889796e+000  1.000000e+001 -1.636665e+000
    endloop
  endfacet
  facet normal  0.000000e+000  1.000000e+000  0.000000e+000
    outer loop
      vertex  1.889796e+000  1.000000e+001 -1.636665e+000
      vertex  3.851669e+000  1.000000e+001 -1.079187e+000
      vertex  3.668845e+000  1.000000e+001 -1.593604e+000
    endloop
  endfacet
  facet normal  0.000000e+000  1.000000e+000  0.000000e+000
    outer loop
      vertex  1.889796e+000  1.000000e+001 -1.636665e+000
      vertex  3.668845e+000  1.000000e+001 -1.593604e+000
      vertex  1.569300e+000  1.000000e+001 -1.946098e+000
    endloop
  endfacet
  facet normal  -0.000000e+000  9.999999e-001  0.000000e+000
    outer loop
      vertex  1.569300e+000  1.000000e+001 -1.946098e+000
      vertex  3.668845e+000  1.000000e+001 -1.593604e+000
      vertex  3.417678e+000  1.000000e+001 -2.078336e+000
    endloop
  endfacet
  facet normal  0.000000e+000  1.000000e+000  0.000000e+000
    outer loop
      vertex  1.569300e+000  1.000000e+001 -1.946098e+000
      vertex  3.417678e+000  1.000000e+001 -2.078336e+000
      vertex  1.198971e+000  1.000000e+001 -2.193734e+000
    endloop
  endfacet
  facet normal  0.000000e+000  1.000000e+000  0.000000e+000
    outer loop
      vertex -3.102845e+000  1.000000e+001  2.524352e+000
      vertex -5.298381e-001  1.000000e+001  2.443209e+000
      vertex -3.417678e+000  1.000000e+001  2.078336e+000
    endloop
  endfacet
  facet normal  0.000000e+000  9.999999e-001  0.000000e+000
    outer loop
      vertex -3.417678e+000  1.000000e+001  2.078336e+000
      vertex -5.298381e-001  1.000000e+001  2.443209e+000
      vertex -9.550703e-001  1.000000e+001  2.310377e+000
    endloop
  endfacet
  facet normal  0.000000e+000  1.000000e+000  0.000000e+000
    outer loop
      vertex -3.417678e+000  1.000000e+001  2.078336e+000
      vertex -9.550703e-001  1.000000e+001  2.310377e+000
      vertex -1.349975e+000  1.000000e+001  2.104179e+000
    endloop
  endfacet
  facet normal  0.000000e+000  1.000000e+000  0.000000e+000
    outer loop
      vertex -3.417678e+000  1.000000e+001  2.078336e+000
      vertex -1.349975e+000  1.000000e+001  2.104179e+000
      vertex -3.668845e+000  1.000000e+001  1.593604e+000
    endloop
  endfacet
  facet normal  0.000000e+000  9.999999e-001  0.000000e+000
    outer loop
      vertex -3.668845e+000  1.000000e+001  1.593604e+000
      vertex -1.349975e+000  1.000000e+001  2.104179e+000
      vertex -1.702011e+000  1.000000e+001  1.831164e+000
    endloop
  endfacet
  facet normal  0.000000e+000  1.000000e+000  0.000000e+000
    outer loop
      vertex -3.668845e+000  1.000000e+001  1.593604e+000
      vertex -1.702011e+000  1.000000e+001  1.831164e+000
      vertex -2.000000e+000  1.000000e+001  1.500000e+000
    endloop
  endfacet
  facet normal  0.000000e+000  1.000000e+000  0.000000e+000
    outer loop
      vertex -3.668845e+000  1.000000e+001  1.593604e+000
      vertex -2.000000e+000  1.000000e+001  1.500000e+000
      vertex -3.851669e+000  1.000000e+001  1.079187e+000
    endloop
  endfacet
  facet normal  -0.000000e+000  9.999999e-001  0.000000e+000
    outer loop
      vertex -3.851669e+000  1.000000e+001  1.079187e+000
      vertex -2.000000e+000  1.000000e+001  1.500000e+000
      vertex -2.000000e+000  1.000000e+001  0.000000e+000
    endloop
  endfacet
  facet normal  0.000000e+000  1.000000e+000  0.000000e+000
    outer loop
      vertex -3.851669e+000  1.000000e+001  1.079187e+000
      vertex -2.000000e+000  1.000000e+001  0.000000e+000
      vertex -3.962744e+000  1.000000e+001  5.446666e-001
    endloop
  endfacet
  facet normal  0.000000e+000  1.000000e+000  0.000000e+000
    outer loop
      vertex -3.962744e+000  1.000000e+001  5.446666e-001
      vertex -2.000000e+000  1.000000e+001  0.000000e+000
      vertex -4.000000e+000  1.000000e+001  0.000000e+000
    endloop
  endfacet
  facet normal  0.000000e+000 -1.000000e+000  0.000000e+000
    outer loop
      vertex  1.569300e+000 -1.000000e+001  1.946098e+000
      vertex  1.889796e+000 -1.000000e+001  1.636665e+000
      vertex  3.668845e+000 -1.000000e+001  1.593604e+000
    endloop
  endfacet
  facet normal  0.000000e+000 -9.999999e-001  0.000000e+000
    outer loop
      vertex -3.417678e+000 -1.000000e+001 -2.078336e+000
      vertex -1.349975e+000 -1.000000e+001 -2.104179e+000
      vertex -1.702011e+000 -1.000000e+001 -1.831164e+000
    endloop
  endfacet
  facet normal  0.000000e+000 -1.000000e+000  0.000000e+000
    outer loop
      vertex -8.778112e-002 -1.000000e+001 -2.498458e+000
      vertex -3.102845e+000 -1.000000e+001 -2.524352e+000
      vertex -2.730213e+000 -1.000000e+001 -2.923344e+000
    endloop
  endfacet
  facet normal  0.000000e+000 -1.000000e+000  0.000000e+000
    outer loop
      vertex -8.778112e-002 -1.000000e+001 -2.498458e+000
      vertex -2.730213e+000 -1.000000e+001 -2.923344e+000
      vertex -2.306721e+000 -1.000000e+001 -3.267879e+000
    endloop
  endfacet
  facet normal  0.000000e+000 -1.000000e+000  0.000000e+000
    outer loop
      vertex -8.778112e-002 -1.000000e+001 -2.498458e+000
      vertex -2.306721e+000 -1.000000e+001 -3.267879e+000
      vertex -1.840260e+000 -1.000000e+001 -3.551541e+000
    endloop
  endfacet
  facet normal  0.000000e+000 -1.000000e+000  0.000000e+000
    outer loop
      vertex -8.778112e-002 -1.000000e+001 -2.498458e+000
      vertex -1.840260e+000 -1.000000e+001 -3.551541e+000
      vertex -1.339518e+000 -1.000000e+001 -3.769044e+000
    endloop
  endfacet
  facet normal  0.000000e+000 -1.000000e+000  0.000000e+000
    outer loop
      vertex -8.778112e-002 -1.000000e+001 -2.498458e+000
      vertex -1.339518e+000 -1.000000e+001 -3.769044e+000
      vertex -8.138241e-001 -1.000000e+001 -3.916336e+000
    endloop
  endfacet
  facet normal  0.000000e+000 -1.000000e+000  0.000000e+000
    outer loop
      vertex -8.778112e-002 -1.000000e+001 -2.498458e+000
      vertex -8.138241e-001 -1.000000e+001 -3.916336e+000
      vertex -2.729697e-001 -1.000000e+001 -3.990675e+000
    endloop
  endfacet
  facet normal  0.000000e+000 -1.000000e+000  0.000000e+000
    outer loop
      vertex -8.778112e-002 -1.000000e+001 -2.498458e+000
      vertex -2.729697e-001 -1.000000e+001 -3.990675e+000
      vertex  2.729697e-001 -1.000000e+001 -3.990675e+000
    endloop
  endfacet
  facet normal  0.000000e+000 -1.000000e+000  0.000000e+000
    outer loop
      vertex -8.778112e-002 -1.000000e+001 -2.498458e+000
      vertex  2.729697e-001 -1.000000e+001 -3.990675e+000
      vertex  3.570634e-001 -1.000000e+001 -2.474370e+000
    endloop
  endfacet
  facet normal  -0.000000e+000 -1.000000e+000  -0.000000e+000
    outer loop
      vertex  3.102845e+000 -1.000000e+001  2.524352e+000
      vertex  2.730213e+000 -1.000000e+001  2.923344e+000
      vertex  2.306721e+000 -1.000000e+001  3.267879e+000
    endloop
  endfacet
  facet normal  -0.000000e+000 -1.000000e+000  -0.000000e+000
    outer loop
      vertex  3.102845e+000 -1.000000e+001  2.524352e+000
      vertex  2.306721e+000 -1.000000e+001  3.267879e+000
      vertex  1.840260e+000 -1.000000e+001  3.551541e+000
    endloop
  endfacet
  facet normal  -0.000000e+000 -9.999999e-001  -0.000000e+000
    outer loop
      vertex  3.102845e+000 -1.000000e+001  2.524352e+000
      vertex  1.840260e+000 -1.000000e+001  3.551541e+000
      vertex  1.339518e+000 -1.000000e+001  3.769044e+000
    endloop
  endfacet
  facet normal  -0.000000e+000 -1.000000e+000  -0.000000e+000
    outer loop
      vertex  3.102845e+000 -1.000000e+001  2.524352e+000
      vertex  1.339518e+000 -1.000000e+001  3.769044e+000
      vertex  8.138241e-001 -1.000000e+001  3.916336e+000
    endloop
  endfacet
  facet normal  0.000000e+000 -1.000000e+000  -0.000000e+000
    outer loop
      vertex  3.102845e+000 -1.000000e+001  2.524352e+000
      vertex  8.138241e-001 -1.000000e+001  3.916336e+000
      vertex  3.570634e-001 -1.000000e+001  2.474370e+000
    endloop
  endfacet
  facet normal  0.000000e+000 -1.000000e+000  0.000000e+000
    outer loop
      vertex  3.102845e+000 -1.000000e+001  2.524352e+000
      vertex  3.570634e-001 -1.000000e+001  2.474370e+000
      vertex  7.905694e-001 -1.000000e+001  2.371708e+000
    endloop
  endfacet
  facet normal  0.000000e+000 -1.000000e+000  0.000000e+000
    outer loop
      vertex  3.102845e+000 -1.000000e+001  2.524352e+000
      vertex  7.905694e-001 -1.000000e+001  2.371708e+000
      vertex  3.417678e+000 -1.000000e+001  2.078336e+000
    endloop
  endfacet
  facet normal  -0.000000e+000 -1.000000e+000  0.000000e+000
    outer loop
      vertex  2.729697e-001 -1.000000e+001 -3.990675e+000
      vertex  8.138241e-001 -1.000000e+001 -3.916336e+000
      vertex  1.339518e+000 -1.000000e+001 -3.769044e+000
    endloop
  endfacet
  facet normal  -0.000000e+000 -1.000000e+000  0.000000e+000
    outer loop
      vertex  2.729697e-001 -1.000000e+001 -3.990675e+000
      vertex  1.339518e+000 -1.000000e+001 -3.769044e+000
      vertex  1.840260e+000 -1.000000e+001 -3.551541e+000
    endloop
  endfacet
  facet normal  -0.000000e+000 -1.000000e+000  0.000000e+000
    outer loop
      vertex  2.729697e-001 -1.000000e+001 -3.990675e+000
      vertex  1.840260e+000 -1.000000e+001 -3.551541e+000
      vertex  2.306721e+000 -1.000000e+001 -3.267879e+000
    endloop
  endfacet
  facet normal  -0.000000e+000 -1.000000e+000  0.000000e+000
    outer loop
      vertex  2.729697e-001 -1.000000e+001 -3.990675e+000
      vertex  2.306721e+000 -1.000000e+001 -3.267879e+000
      vertex  2.730213e+000 -1.000000e+001 -2.923344e+000
    endloop
  endfacet
  facet normal  -0.000000e+000 -1.000000e+000  0.000000e+000
    outer loop
      vertex  2.729697e-001 -1.000000e+001 -3.990675e+000
      vertex  2.730213e+000 -1.000000e+001 -2.923344e+000
      vertex  3.102845e+000 -1.000000e+001 -2.524352e+000
    endloop
  endfacet
  facet normal  -0.000000e+000 -1.000000e+000  0.000000e+000
    outer loop
      vertex  2.729697e-001 -1.000000e+001 -3.990675e+000
      vertex  3.102845e+000 -1.000000e+001 -2.524352e+000
      vertex  3.570634e-001 -1.000000e+001 -2.474370e+000
    endloop
  endfacet
  facet normal  0.000000e+000 -9.999999e-001  0.000000e+000
    outer loop
      vertex  3.102845e+000 -1.000000e+001 -2.524352e+000
      vertex  3.417678e+000 -1.000000e+001 -2.078336e+000
      vertex  1.198971e+000 -1.000000e+001 -2.193734e+000
    endloop
  endfacet
  facet normal  0.000000e+000 -1.000000e+000  -0.000000e+000
    outer loop
      vertex  3.102845e+000 -1.000000e+001 -2.524352e+000
      vertex  1.198971e+000 -1.000000e+001 -2.193734e+000
      vertex  7.905694e-001 -1.000000e+001 -2.371708e+000
    endloop
  endfacet
  facet normal  0.000000e+000 -1.000000e+000  -0.000000e+000
    outer loop
      vertex  3.102845e+000 -1.000000e+001 -2.524352e+000
      vertex  7.905694e-001 -1.000000e+001 -2.371708e+000
      vertex  3.570634e-001 -1.000000e+001 -2.474370e+000
    endloop
  endfacet
  facet normal  0.000000e+000 -9.999999e-001  0.000000e+000
    outer loop
      vertex -8.778112e-002 -1.000000e+001  2.498458e+000
      vertex  3.570634e-001 -1.000000e+001  2.474370e+000
      vertex  8.138241e-001 -1.000000e+001  3.916336e+000
    endloop
  endfacet
  facet normal  -0.000000e+000 -1.000000e+000  0.000000e+000
    outer loop
      vertex -8.778112e-002 -1.000000e+001  2.498458e+000
      vertex  8.138241e-001 -1.000000e+001  3.916336e+000
      vertex  2.729697e-001 -1.000000e+001  3.990675e+000
    endloop
  endfacet
  facet normal  -0.000000e+000 -1.000000e+000  0.000000e+000
    outer loop
      vertex -8.778112e-002 -1.000000e+001  2.498458e+000
      vertex  2.729697e-001 -1.000000e+001  3.990675e+000
      vertex -2.729697e-001 -1.000000e+001  3.990675e+000
    endloop
  endfacet
  facet normal  0.000000e+000 -1.000000e+000  -0.000000e+000
    outer loop
      vertex -8.778112e-002 -1.000000e+001  2.498458e+000
      vertex -2.729697e-001 -1.000000e+001  3.990675e+000
      vertex -8.138241e-001 -1.000000e+001  3.916336e+000
    endloop
  endfacet
  facet normal  0.000000e+000 -1.000000e+000  -0.000000e+000
    outer loop
      vertex -8.778112e-002 -1.000000e+001  2.498458e+000
      vertex -8.138241e-001 -1.000000e+001  3.916336e+000
      vertex -1.339518e+000 -1.000000e+001  3.769044e+000
    endloop
  endfacet
  facet normal  0.000000e+000 -1.000000e+000  -0.000000e+000
    outer loop
      vertex -8.778112e-002 -1.000000e+001  2.498458e+000
      vertex -1.339518e+000 -1.000000e+001  3.769044e+000
      vertex -1.840260e+000 -1.000000e+001  3.551541e+000
    endloop
  endfacet
  facet normal  0.000000e+000 -1.000000e+000  -0.000000e+000
    outer loop
      vertex -8.778112e-002 -1.000000e+001  2.498458e+000
      vertex -1.840260e+000 -1.000000e+001  3.551541e+000
      vertex -2.306721e+000 -1.000000e+001  3.267879e+000
    endloop
  endfacet
  facet normal  0.000000e+000 -1.000000e+000  -0.000000e+000
    outer loop
      vertex -8.778112e-002 -1.000000e+001  2.498458e+000
      vertex -2.306721e+000 -1.000000e+001  3.267879e+000
      vertex -2.730213e+000 -1.000000e+001  2.923344e+000
    endloop
  endfacet
  facet normal  0.000000e+000 -1.000000e+000  -0.000000e+000
    outer loop
      vertex -8.778112e-002 -1.000000e+001  2.498458e+000
      vertex -2.730213e+000 -1.000000e+001  2.923344e+000
      vertex -3.102845e+000 -1.000000e+001  2.524352e+000
    endloop
  endfacet
  facet normal  0.000000e+000 -1.000000e+000  0.000000e+000
    outer loop
      vertex -8.778112e-002 -1.000000e+001  2.498458e+000
      vertex -3.102845e+000 -1.000000e+001  2.524352e+000
      vertex -5.298381e-001 -1.000000e+001  2.443209e+000
    endloop
  endfacet
  facet normal  -0.000000e+000 -1.000000e+000  -0.000000e+000
    outer loop
      vertex -2.000000e+000 -1.000000e+001 -1.500000e+000
      vertex -2.000000e+000 -1.000000e+001  0.000000e+000
      vertex -4.000000e+000 -1.000000e+001  0.000000e+000
    endloop
  endfacet
  facet normal  0.000000e+000 -1.000000e+000  0.000000e+000
    outer loop
      vertex -2.000000e+000 -1.000000e+001 -1.500000e+000
      vertex -4.000000e+000 -1.000000e+001  0.000000e+000
      vertex -3.962744e+000 -1.000000e+001 -5.446666e-001
    endloop
  endfacet
  facet normal  0.000000e+000 -1.000000e+000  0.000000e+000
    outer loop
      vertex -2.000000e+000 -1.000000e+001 -1.500000e+000
      vertex -3.962744e+000 -1.000000e+001 -5.446666e-001
      vertex -3.851669e+000 -1.000000e+001 -1.079187e+000
    endloop
  endfacet
  facet normal  0.000000e+000 -1.000000e+000  0.000000e+000
    outer loop
      vertex -2.000000e+000 -1.000000e+001 -1.500000e+000
      vertex -3.851669e+000 -1.000000e+001 -1.079187e+000
      vertex -3.668845e+000 -1.000000e+001 -1.593604e+000
    endloop
  endfacet
  facet normal  0.000000e+000 -9.999999e-001  0.000000e+000
    outer loop
      vertex -2.000000e+000 -1.000000e+001 -1.500000e+000
      vertex -3.668845e+000 -1.000000e+001 -1.593604e+000
      vertex -3.417678e+000 -1.000000e+001 -2.078336e+000
    endloop
  endfacet
  facet normal  0.000000e+000 -1.000000e+000  0.000000e+000
    outer loop
      vertex -2.000000e+000 -1.000000e+001 -1.500000e+000
      vertex -3.417678e+000 -1.000000e+001 -2.078336e+000
      vertex -1.702011e+000 -1.000000e+001 -1.831164e+000
    endloop
  endfacet
  facet normal  -0.000000e+000 -1.000000e+000  0.000000e+000
    outer loop
      vertex -3.102845e+000 -1.000000e+001 -2.524352e+000
      vertex -8.778112e-002 -1.000000e+001 -2.498458e+000
      vertex -5.298381e-001 -1.000000e+001 -2.443209e+000
    endloop
  endfacet
  facet normal  -0.000000e+000 -9.999999e-001  0.000000e+000
    outer loop
      vertex -3.102845e+000 -1.000000e+001 -2.524352e+000
      vertex -5.298381e-001 -1.000000e+001 -2.443209e+000
      vertex -9.550703e-001 -1.000000e+001 -2.310377e+000
    endloop
  endfacet
  facet normal  -0.000000e+000 -1.000000e+000  0.000000e+000
    outer loop
      vertex -3.102845e+000 -1.000000e+001 -2.524352e+000
      vertex -9.550703e-001 -1.000000e+001 -2.310377e+000
      vertex -1.349975e+000 -1.000000e+001 -2.104179e+000
    endloop
  endfacet
  facet normal  -0.000000e+000 -9.999999e-001  0.000000e+000
    outer loop
      vertex -3.102845e+000 -1.000000e+001 -2.524352e+000
      vertex -1.349975e+000 -1.000000e+001 -2.104179e+000
      vertex -3.417678e+000 -1.000000e+001 -2.078336e+000
    endloop
  endfacet
  facet normal  0.000000e+000 -1.000000e+000  0.000000e+000
    outer loop
      vertex  7.905694e-001 -1.000000e+001  2.371708e+000
      vertex  1.198971e+000 -1.000000e+001  2.193734e+000
      vertex  3.417678e+000 -1.000000e+001  2.078336e+000
    endloop
  endfacet
  facet normal  -0.000000e+000 -1.000000e+000  0.000000e+000
    outer loop
      vertex  3.417678e+000 -1.000000e+001  2.078336e+000
      vertex  1.198971e+000 -1.000000e+001  2.193734e+000
      vertex  1.569300e+000 -1.000000e+001  1.946098e+000
    endloop
  endfacet
  facet normal  0.000000e+000 -9.999999e-001  0.000000e+000
    outer loop
      vertex  3.417678e+000 -1.000000e+001  2.078336e+000
      vertex  1.569300e+000 -1.000000e+001  1.946098e+000
      vertex  3.668845e+000 -1.000000e+001  1.593604e+000
    endloop
  endfacet
  facet normal  -0.000000e+000 -1.000000e+000  0.000000e+000
    outer loop
      vertex  2.460307e+000 -1.000000e+001  4.437244e-001
      vertex  3.962744e+000 -1.000000e+001  5.446666e-001
      vertex  2.342487e+000 -1.000000e+001  8.733584e-001
    endloop
  endfacet
  facet normal  0.000000e+000 -1.000000e+000  0.000000e+000
    outer loop
      vertex  2.342487e+000 -1.000000e+001  8.733584e-001
      vertex  3.962744e+000 -1.000000e+001  5.446666e-001
      vertex  3.851669e+000 -1.000000e+001  1.079187e+000
    endloop
  endfacet
  facet normal  -0.000000e+000 -9.999999e-001  0.000000e+000
    outer loop
      vertex  2.342487e+000 -1.000000e+001  8.733584e-001
      vertex  3.851669e+000 -1.000000e+001  1.079187e+000
      vertex  2.150282e+000 -1.000000e+001  1.275259e+000
    endloop
  endfacet
  facet normal  0.000000e+000 -1.000000e+000  0.000000e+000
    outer loop
      vertex  2.150282e+000 -1.000000e+001  1.275259e+000
      vertex  3.851669e+000 -1.000000e+001  1.079187e+000
      vertex  3.668845e+000 -1.000000e+001  1.593604e+000
    endloop
  endfacet
  facet normal  -0.000000e+000 -1.000000e+000  0.000000e+000
    outer loop
      vertex  2.150282e+000 -1.000000e+001  1.275259e+000
      vertex  3.668845e+000 -1.000000e+001  1.593604e+000
      vertex  1.889796e+000 -1.000000e+001  1.636665e+000
    endloop
  endfacet
  facet normal  -0.000000e+000 -9.999999e-001  0.000000e+000
    outer loop
      vertex  2.150282e+000 -1.000000e+001 -1.275259e+000
      vertex  3.851669e+000 -1.000000e+001 -1.079187e+000
      vertex  2.342487e+000 -1.000000e+001 -8.733584e-001
    endloop
  endfacet
  facet normal  0.000000e+000 -1.000000e+000  0.000000e+000
    outer loop
      vertex  2.342487e+000 -1.000000e+001 -8.733584e-001
      vertex  3.851669e+000 -1.000000e+001 -1.079187e+000
      vertex  3.962744e+000 -1.000000e+001 -5.446666e-001
    endloop
  endfacet
  facet normal  -0.000000e+000 -1.000000e+000  0.000000e+000
    outer loop
      vertex  2.342487e+000 -1.000000e+001 -8.733584e-001
      vertex  3.962744e+000 -1.000000e+001 -5.446666e-001
      vertex  2.460307e+000 -1.000000e+001 -4.437244e-001
    endloop
  endfacet
  facet normal  0.000000e+000 -1.000000e+000  0.000000e+000
    outer loop
      vertex  2.460307e+000 -1.000000e+001 -4.437244e-001
      vertex  3.962744e+000 -1.000000e+001 -5.446666e-001
      vertex  4.000000e+000 -1.000000e+001  4.898425e-016
    endloop
  endfacet
  facet normal  0.000000e+000 -1.000000e+000  0.000000e+000
    outer loop
      vertex  2.460307e+000 -1.000000e+001 -4.437244e-001
      vertex  4.000000e+000 -1.000000e+001  4.898425e-016
      vertex  2.500000e+000 -1.000000e+001  3.061516e-016
    endloop
  endfacet
  facet normal  0.000000e+000 -1.000000e+000  0.000000e+000
    outer loop
      vertex  2.500000e+000 -1.000000e+001  3.061516e-016
      vertex  4.000000e+000 -1.000000e+001  4.898425e-016
      vertex  3.962744e+000 -1.000000e+001  5.446666e-001
    endloop
  endfacet
  facet normal  0.000000e+000 -1.000000e+000  0.000000e+000
    outer loop
      vertex  2.500000e+000 -1.000000e+001  3.061516e-016
      vertex  3.962744e+000 -1.000000e+001  5.446666e-001
      vertex  2.460307e+000 -1.000000e+001  4.437244e-001
    endloop
  endfacet
  facet normal  -0.000000e+000 -1.000000e+000  0.000000e+000
    outer loop
      vertex  1.198971e+000 -1.000000e+001 -2.193734e+000
      vertex  3.417678e+000 -1.000000e+001 -2.078336e+000
      vertex  1.569300e+000 -1.000000e+001 -1.946098e+000
    endloop
  endfacet
  facet normal  0.000000e+000 -9.999999e-001  0.000000e+000
    outer loop
      vertex  1.569300e+000 -1.000000e+001 -1.946098e+000
      vertex  3.417678e+000 -1.000000e+001 -2.078336e+000
      vertex  3.668845e+000 -1.000000e+001 -1.593604e+000
    endloop
  endfacet
  facet normal  0.000000e+000 -1.000000e+000  0.000000e+000
    outer loop
      vertex  1.569300e+000 -1.000000e+001 -1.946098e+000
      vertex  3.668845e+000 -1.000000e+001 -1.593604e+000
      vertex  1.889796e+000 -1.000000e+001 -1.636665e+000
    endloop
  endfacet
  facet normal  0.000000e+000 -1.000000e+000  0.000000e+000
    outer loop
      vertex  1.889796e+000 -1.000000e+001 -1.636665e+000
      vertex  3.668845e+000 -1.000000e+001 -1.593604e+000
      vertex  3.851669e+000 -1.000000e+001 -1.079187e+000
    endloop
  endfacet
  facet normal  0.000000e+000 -1.000000e+000  0.000000e+000
    outer loop
      vertex  1.889796e+000 -1.000000e+001 -1.636665e+000
      vertex  3.851669e+000 -1.000000e+001 -1.079187e+000
      vertex  2.150282e+000 -1.000000e+001 -1.275259e+000
    endloop
  endfacet
  facet normal  0.000000e+000 -1.000000e+000  0.000000e+000
    outer loop
      vertex -1.349975e+000 -1.000000e+001  2.104179e+000
      vertex -9.550703e-001 -1.000000e+001  2.310377e+000
      vertex -3.417678e+000 -1.000000e+001  2.078336e+000
    endloop
  endfacet
  facet normal  0.000000e+000 -9.999999e-001  0.000000e+000
    outer loop
      vertex -3.417678e+000 -1.000000e+001  2.078336e+000
      vertex -9.550703e-001 -1.000000e+001  2.310377e+000
      vertex -5.298381e-001 -1.000000e+001  2.443209e+000
    endloop
  endfacet
  facet normal  -0.000000e+000 -1.000000e+000  0.000000e+000
    outer loop
      vertex -3.417678e+000 -1.000000e+001  2.078336e+000
      vertex -5.298381e-001 -1.000000e+001  2.443209e+000
      vertex -3.102845e+000 -1.000000e+001  2.524352e+000
    endloop
  endfacet
  facet normal  0.000000e+000 -1.000000e+000  0.000000e+000
    outer loop
      vertex -2.000000e+000 -1.000000e+001  1.500000e+000
      vertex -1.702011e+000 -1.000000e+001  1.831164e+000
      vertex -3.668845e+000 -1.000000e+001  1.593604e+000
    endloop
  endfacet
  facet normal  0.000000e+000 -9.999999e-001  0.000000e+000
    outer loop
      vertex -3.668845e+000 -1.000000e+001  1.593604e+000
      vertex -1.702011e+000 -1.000000e+001  1.831164e+000
      vertex -1.349975e+000 -1.000000e+001  2.104179e+000
    endloop
  endfacet
  facet normal  0.000000e+000 -1.000000e+000  0.000000e+000
    outer loop
      vertex -3.668845e+000 -1.000000e+001  1.593604e+000
      vertex -1.349975e+000 -1.000000e+001  2.104179e+000
      vertex -3.417678e+000 -1.000000e+001  2.078336e+000
    endloop
  endfacet
  facet normal  0.000000e+000 -1.000000e+000  0.000000e+000
    outer loop
      vertex -3.668845e+000 -1.000000e+001  1.593604e+000
      vertex -3.851669e+000 -1.000000e+001  1.079187e+000
      vertex -2.000000e+000 -1.000000e+001  1.500000e+000
    endloop
  endfacet
  facet normal  0.000000e+000 -9.999999e-001  -0.000000e+000
    outer loop
      vertex -2.000000e+000 -1.000000e+001  1.500000e+000
      vertex -3.851669e+000 -1.000000e+001  1.079187e+000
      vertex -2.000000e+000 -1.000000e+001  0.000000e+000
    endloop
  endfacet
  facet normal  0.000000e+000 -1.000000e+000  0.000000e+000
    outer loop
      vertex -3.851669e+000 -1.000000e+001  1.079187e+000
      vertex -3.962744e+000 -1.000000e+001  5.446666e-001
      vertex -2.000000e+000 -1.000000e+001  0.000000e+000
    endloop
  endfacet
  facet normal  0.000000e+000 -1.000000e+000  0.000000e+000
    outer loop
      vertex -2.000000e+000 -1.000000e+001  0.000000e+000
      vertex -3.962744e+000 -1.000000e+001  5.446666e-001
      vertex -4.000000e+000 -1.000000e+001  0.000000e+000
    endloop
  endfacet
  facet normal  1.000000e+000  0.000000e+000  -0.000000e+000
    outer loop
      vertex -2.000000e+000 -1.000000e+001  1.500000e+000
      vertex -2.000000e+000  1.000000e+001  0.000000e+000
      vertex -2.000000e+000  1.000000e+001  1.500000e+000
    endloop
  endfacet
  facet normal  1.000000e+000  0.000000e+000  0.000000e+000
    outer loop
      vertex -2.000000e+000  1.000000e+001  0.000000e+000
      vertex -2.000000e+000 -1.000000e+001  1.500000e+000
      vertex -2.000000e+000  1.000000e+001 -1.500000e+000
    endloop
  endfacet
  facet normal  1.000000e+000  0.000000e+000  0.000000e+000
    outer loop
      vertex -2.000000e+000  1.000000e+001 -1.500000e+000
      vertex -2.000000e+000 -1.000000e+001  1.500000e+000
      vertex -2.000000e+000 -1.000000e+001  0.000000e+000
    endloop
  endfacet
  facet normal  1.000000e+000  0.000000e+000  0.000000e+000
    outer loop
      vertex -2.000000e+000  1.000000e+001 -1.500000e+000
      vertex -2.000000e+000 -1.000000e+001  0.000000e+000
      vertex -2.000000e+000 -1.000000e+001 -1.500000e+000
    endloop
  endfacet
  facet normal -9.960228e-001  0.000000e+000  8.909921e-002
    outer loop
      vertex  2.500000e+000 -1.000000e+001  3.061516e-016
      vertex  2.460307e+000  1.000000e+001 -4.437244e-001
      vertex  2.460307e+000 -1.000000e+001 -4.437244e-001
    endloop
  endfacet
  facet normal -9.643943e-001  0.000000e+000  2.644686e-001
    outer loop
      vertex  2.460307e+000 -1.000000e+001 -4.437244e-001
      vertex  2.460307e+000  1.000000e+001 -4.437244e-001
      vertex  2.342487e+000  1.000000e+001 -8.733584e-001
    endloop
  endfacet
  facet normal -9.643943e-001  0.000000e+000  2.644686e-001
    outer loop
      vertex  2.460307e+000 -1.000000e+001 -4.437244e-001
      vertex  2.342487e+000  1.000000e+001 -8.733584e-001
      vertex  2.342487e+000 -1.000000e+001 -8.733584e-001
    endloop
  endfacet
  facet normal -9.021420e-001  0.000000e+000  4.314391e-001
    outer loop
      vertex  2.342487e+000 -1.000000e+001 -8.733584e-001
      vertex  2.342487e+000  1.000000e+001 -8.733584e-001
      vertex  2.150282e+000  1.000000e+001 -1.275259e+000
    endloop
  endfacet
  facet normal -9.021420e-001  0.000000e+000  4.314391e-001
    outer loop
      vertex  2.342487e+000 -1.000000e+001 -8.733584e-001
      vertex  2.150282e+000  1.000000e+001 -1.275259e+000
      vertex  2.150282e+000 -1.000000e+001 -1.275259e+000
    endloop
  endfacet
  facet normal -8.112419e-001  0.000000e+000  5.847105e-001
    outer loop
      vertex  2.150282e+000 -1.000000e+001 -1.275259e+000
      vertex  2.150282e+000  1.000000e+001 -1.275259e+000
      vertex  1.889796e+000  1.000000e+001 -1.636665e+000
    endloop
  endfacet
  facet normal -8.112419e-001  0.000000e+000  5.847105e-001
    outer loop
      vertex  2.150282e+000 -1.000000e+001 -1.275259e+000
      vertex  1.889796e+000  1.000000e+001 -1.636665e+000
      vertex  1.889796e+000 -1.000000e+001 -1.636665e+000
    endloop
  endfacet
  facet normal -6.945818e-001  0.000000e+000  7.194137e-001
    outer loop
      vertex  1.889796e+000 -1.000000e+001 -1.636665e+000
      vertex  1.889796e+000  1.000000e+001 -1.636665e+000
      vertex  1.569300e+000  1.000000e+001 -1.946098e+000
    endloop
  endfacet
  facet normal -6.945818e-001  0.000000e+000  7.194137e-001
    outer loop
      vertex  1.889796e+000 -1.000000e+001 -1.636665e+000
      vertex  1.569300e+000  1.000000e+001 -1.946098e+000
      vertex  1.569300e+000 -1.000000e+001 -1.946098e+000
    endloop
  endfacet
  facet normal -5.558651e-001  0.000000e+000  8.312725e-001
    outer loop
      vertex  1.569300e+000 -1.000000e+001 -1.946098e+000
      vertex  1.569300e+000  1.000000e+001 -1.946098e+000
      vertex  1.198971e+000  1.000000e+001 -2.193734e+000
    endloop
  endfacet
  facet normal -5.558651e-001  0.000000e+000  8.312725e-001
    outer loop
      vertex  1.569300e+000 -1.000000e+001 -1.946098e+000
      vertex  1.198971e+000  1.000000e+001 -2.193734e+000
      vertex  1.198971e+000 -1.000000e+001 -2.193734e+000
    endloop
  endfacet
  facet normal -3.994967e-001  0.000000e+000  9.167346e-001
    outer loop
      vertex  1.198971e+000 -1.000000e+001 -2.193734e+000
      vertex  1.198971e+000  1.000000e+001 -2.193734e+000
      vertex  7.905694e-001  1.000000e+001 -2.371708e+000
    endloop
  endfacet
  facet normal -3.994967e-001  0.000000e+000  9.167346e-001
    outer loop
      vertex  1.198971e+000 -1.000000e+001 -2.193734e+000
      vertex  7.905694e-001  1.000000e+001 -2.371708e+000
      vertex  7.905694e-001 -1.000000e+001 -2.371708e+000
    endloop
  endfacet
  facet normal -2.304433e-001  0.000000e+000  9.730857e-001
    outer loop
      vertex  7.905694e-001 -1.000000e+001 -2.371708e+000
      vertex  7.905694e-001  1.000000e+001 -2.371708e+000
      vertex  3.570634e-001  1.000000e+001 -2.474370e+000
    endloop
  endfacet
  facet normal -2.304433e-001  0.000000e+000  9.730857e-001
    outer loop
      vertex  7.905694e-001 -1.000000e+001 -2.371708e+000
      vertex  3.570634e-001  1.000000e+001 -2.474370e+000
      vertex  3.570634e-001 -1.000000e+001 -2.474370e+000
    endloop
  endfacet
  facet normal -5.407144e-002  0.000000e+000  9.985371e-001
    outer loop
      vertex  3.570634e-001 -1.000000e+001 -2.474370e+000
      vertex  3.570634e-001  1.000000e+001 -2.474370e+000
      vertex -8.778112e-002  1.000000e+001 -2.498458e+000
    endloop
  endfacet
  facet normal -5.407144e-002  0.000000e+000  9.985371e-001
    outer loop
      vertex  3.570634e-001 -1.000000e+001 -2.474370e+000
      vertex -8.778112e-002  1.000000e+001 -2.498458e+000
      vertex -8.778112e-002 -1.000000e+001 -2.498458e+000
    endloop
  endfacet
  facet normal  1.240172e-001  -0.000000e+000  9.922801e-001
    outer loop
      vertex -8.778112e-002 -1.000000e+001 -2.498458e+000
      vertex -8.778112e-002  1.000000e+001 -2.498458e+000
      vertex -5.298381e-001  1.000000e+001 -2.443209e+000
    endloop
  endfacet
  facet normal  1.240172e-001  0.000000e+000  9.922801e-001
    outer loop
      vertex -8.778112e-002 -1.000000e+001 -2.498458e+000
      vertex -5.298381e-001  1.000000e+001 -2.443209e+000
      vertex -5.298381e-001 -1.000000e+001 -2.443209e+000
    endloop
  endfacet
  facet normal  2.981676e-001  -0.000000e+000  9.545135e-001
    outer loop
      vertex -5.298381e-001 -1.000000e+001 -2.443209e+000
      vertex -5.298381e-001  1.000000e+001 -2.443209e+000
      vertex -9.550703e-001  1.000000e+001 -2.310377e+000
    endloop
  endfacet
  facet normal  2.981676e-001  0.000000e+000  9.545135e-001
    outer loop
      vertex -5.298381e-001 -1.000000e+001 -2.443209e+000
      vertex -9.550703e-001  1.000000e+001 -2.310377e+000
      vertex -9.550703e-001 -1.000000e+001 -2.310377e+000
    endloop
  endfacet
  facet normal  4.628497e-001  -0.000000e+000  8.864369e-001
    outer loop
      vertex -9.550703e-001 -1.000000e+001 -2.310377e+000
      vertex -9.550703e-001  1.000000e+001 -2.310377e+000
      vertex -1.349975e+000  1.000000e+001 -2.104179e+000
    endloop
  endfacet
  facet normal  4.628497e-001  0.000000e+000  8.864369e-001
    outer loop
      vertex -9.550703e-001 -1.000000e+001 -2.310377e+000
      vertex -1.349975e+000  1.000000e+001 -2.104179e+000
      vertex -1.349975e+000 -1.000000e+001 -2.104179e+000
    endloop
  endfacet
  facet normal  6.128344e-001  -0.000000e+000  7.902113e-001
    outer loop
      vertex -1.349975e+000 -1.000000e+001 -2.104179e+000
      vertex -1.349975e+000  1.000000e+001 -2.104179e+000
      vertex -1.702011e+000  1.000000e+001 -1.831164e+000
    endloop
  endfacet
  facet normal  6.128344e-001  0.000000e+000  7.902113e-001
    outer loop
      vertex -1.349975e+000 -1.000000e+001 -2.104179e+000
      vertex -1.702011e+000  1.000000e+001 -1.831164e+000
      vertex -1.702011e+000 -1.000000e+001 -1.831164e+000
    endloop
  endfacet
  facet normal  7.433587e-001  -0.000000e+000  6.688930e-001
    outer loop
      vertex -1.702011e+000 -1.000000e+001 -1.831164e+000
      vertex -1.702011e+000  1.000000e+001 -1.831164e+000
      vertex -2.000000e+000  1.000000e+001 -1.500000e+000
    endloop
  endfacet
  facet normal  7.433587e-001  0.000000e+000  6.688930e-001
    outer loop
      vertex -1.702011e+000 -1.000000e+001 -1.831164e+000
      vertex -2.000000e+000  1.000000e+001 -1.500000e+000
      vertex -2.000000e+000 -1.000000e+001 -1.500000e+000
    endloop
  endfacet
  facet normal -9.960228e-001  0.000000e+000  8.909921e-002
    outer loop
      vertex  2.460307e+000  1.000000e+001 -4.437244e-001
      vertex  2.500000e+000 -1.000000e+001  3.061516e-016
      vertex  2.500000e+000  1.000000e+001  3.061516e-016
    endloop
  endfacet
  facet normal -9.960228e-001  -0.000000e+000 -8.909921e-002
    outer loop
      vertex  2.500000e+000  1.000000e+001  3.061516e-016
      vertex  2.500000e+000 -1.000000e+001  3.061516e-016
      vertex  2.460307e+000 -1.000000e+001  4.437244e-001
    endloop
  endfacet
  facet normal -9.960228e-001  0.000000e+000 -8.909921e-002
    outer loop
      vertex  2.500000e+000  1.000000e+001  3.061516e-016
      vertex  2.460307e+000 -1.000000e+001  4.437244e-001
      vertex  2.460307e+000  1.000000e+001  4.437244e-001
    endloop
  endfacet
  facet normal -9.643943e-001  -0.000000e+000 -2.644686e-001
    outer loop
      vertex  2.460307e+000  1.000000e+001  4.437244e-001
      vertex  2.460307e+000 -1.000000e+001  4.437244e-001
      vertex  2.342487e+000 -1.000000e+001  8.733584e-001
    endloop
  endfacet
  facet normal -9.643943e-001  0.000000e+000 -2.644686e-001
    outer loop
      vertex  2.460307e+000  1.000000e+001  4.437244e-001
      vertex  2.342487e+000 -1.000000e+001  8.733584e-001
      vertex  2.342487e+000  1.000000e+001  8.733584e-001
    endloop
  endfacet
  facet normal -9.021420e-001  -0.000000e+000 -4.314391e-001
    outer loop
      vertex  2.342487e+000  1.000000e+001  8.733584e-001
      vertex  2.342487e+000 -1.000000e+001  8.733584e-001
      vertex  2.150282e+000 -1.000000e+001  1.275259e+000
    endloop
  endfacet
  facet normal -9.021420e-001  0.000000e+000 -4.314391e-001
    outer loop
      vertex  2.342487e+000  1.000000e+001  8.733584e-001
      vertex  2.150282e+000 -1.000000e+001  1.275259e+000
      vertex  2.150282e+000  1.000000e+001  1.275259e+000
    endloop
  endfacet
  facet normal -8.112419e-001  -0.000000e+000 -5.847105e-001
    outer loop
      vertex  2.150282e+000  1.000000e+001  1.275259e+000
      vertex  2.150282e+000 -1.000000e+001  1.275259e+000
      vertex  1.889796e+000 -1.000000e+001  1.636665e+000
    endloop
  endfacet
  facet normal -8.112419e-001  0.000000e+000 -5.847105e-001
    outer loop
      vertex  2.150282e+000  1.000000e+001  1.275259e+000
      vertex  1.889796e+000 -1.000000e+001  1.636665e+000
      vertex  1.889796e+000  1.000000e+001  1.636665e+000
    endloop
  endfacet
  facet normal -6.945818e-001  -0.000000e+000 -7.194137e-001
    outer loop
      vertex  1.889796e+000  1.000000e+001  1.636665e+000
      vertex  1.889796e+000 -1.000000e+001  1.636665e+000
      vertex  1.569300e+000 -1.000000e+001  1.946098e+000
    endloop
  endfacet
  facet normal -6.945818e-001  0.000000e+000 -7.194137e-001
    outer loop
      vertex  1.889796e+000  1.000000e+001  1.636665e+000
      vertex  1.569300e+000 -1.000000e+001  1.946098e+000
      vertex  1.569300e+000  1.000000e+001  1.946098e+000
    endloop
  endfacet
  facet normal -5.558651e-001  -0.000000e+000 -8.312725e-001
    outer loop
      vertex  1.569300e+000  1.000000e+001  1.946098e+000
      vertex  1.569300e+000 -1.000000e+001  1.946098e+000
      vertex  1.198971e+000 -1.000000e+001  2.193734e+000
    endloop
  endfacet
  facet normal -5.558651e-001  0.000000e+000 -8.312725e-001
    outer loop
      vertex  1.569300e+000  1.000000e+001  1.946098e+000
      vertex  1.198971e+000 -1.000000e+001  2.193734e+000
      vertex  1.198971e+000  1.000000e+001  2.193734e+000
    endloop
  endfacet
  facet normal -3.994967e-001  -0.000000e+000 -9.167346e-001
    outer loop
      vertex  1.198971e+000  1.000000e+001  2.193734e+000
      vertex  1.198971e+000 -1.000000e+001  2.193734e+000
      vertex  7.905694e-001 -1.000000e+001  2.371708e+000
    endloop
  endfacet
  facet normal -3.994967e-001  0.000000e+000 -9.167346e-001
    outer loop
      vertex  1.198971e+000  1.000000e+001  2.193734e+000
      vertex  7.905694e-001 -1.000000e+001  2.371708e+000
      vertex  7.905694e-001  1.000000e+001  2.371708e+000
    endloop
  endfacet
  facet normal -2.304433e-001  -0.000000e+000 -9.730857e-001
    outer loop
      vertex  7.905694e-001  1.000000e+001  2.371708e+000
      vertex  7.905694e-001 -1.000000e+001  2.371708e+000
      vertex  3.570634e-001 -1.000000e+001  2.474370e+000
    endloop
  endfacet
  facet normal -2.304433e-001  0.000000e+000 -9.730857e-001
    outer loop
      vertex  7.905694e-001  1.000000e+001  2.371708e+000
      vertex  3.570634e-001 -1.000000e+001  2.474370e+000
      vertex  3.570634e-001  1.000000e+001  2.474370e+000
    endloop
  endfacet
  facet normal -5.407144e-002  -0.000000e+000 -9.985371e-001
    outer loop
      vertex  3.570634e-001  1.000000e+001  2.474370e+000
      vertex  3.570634e-001 -1.000000e+001  2.474370e+000
      vertex -8.778112e-002 -1.000000e+001  2.498458e+000
    endloop
  endfacet
  facet normal -5.407144e-002  0.000000e+000 -9.985371e-001
    outer loop
      vertex  3.570634e-001  1.000000e+001  2.474370e+000
      vertex -8.778112e-002 -1.000000e+001  2.498458e+000
      vertex -8.778112e-002  1.000000e+001  2.498458e+000
    endloop
  endfacet
  facet normal  1.240172e-001  0.000000e+000 -9.922801e-001
    outer loop
      vertex -8.778112e-002  1.000000e+001  2.498458e+000
      vertex -8.778112e-002 -1.000000e+001  2.498458e+000
      vertex -5.298381e-001 -1.000000e+001  2.443209e+000
    endloop
  endfacet
  facet normal  1.240172e-001  0.000000e+000 -9.922801e-001
    outer loop
      vertex -8.778112e-002  1.000000e+001  2.498458e+000
      vertex -5.298381e-001 -1.000000e+001  2.443209e+000
      vertex -5.298381e-001  1.000000e+001  2.443209e+000
    endloop
  endfacet
  facet normal  2.981676e-001  0.000000e+000 -9.545135e-001
    outer loop
      vertex -5.298381e-001  1.000000e+001  2.443209e+000
      vertex -5.298381e-001 -1.000000e+001  2.443209e+000
      vertex -9.550703e-001 -1.000000e+001  2.310377e+000
    endloop
  endfacet
  facet normal  2.981676e-001  0.000000e+000 -9.545135e-001
    outer loop
      vertex -5.298381e-001  1.000000e+001  2.443209e+000
      vertex -9.550703e-001 -1.000000e+001  2.310377e+000
      vertex -9.550703e-001  1.000000e+001  2.310377e+000
    endloop
  endfacet
  facet normal  4.628497e-001  0.000000e+000 -8.864369e-001
    outer loop
      vertex -9.550703e-001  1.000000e+001  2.310377e+000
      vertex -9.550703e-001 -1.000000e+001  2.310377e+000
      vertex -1.349975e+000 -1.000000e+001  2.104179e+000
    endloop
  endfacet
  facet normal  4.628497e-001  0.000000e+000 -8.864369e-001
    outer loop
      vertex -9.550703e-001  1.000000e+001  2.310377e+000
      vertex -1.349975e+000 -1.000000e+001  2.104179e+000
      vertex -1.349975e+000  1.000000e+001  2.104179e+000
    endloop
  endfacet
  facet normal  6.128344e-001  0.000000e+000 -7.902113e-001
    outer loop
      vertex -1.349975e+000  1.000000e+001  2.104179e+000
      vertex -1.349975e+000 -1.000000e+001  2.104179e+000
      vertex -1.702011e+000 -1.000000e+001  1.831164e+000
    endloop
  endfacet
  facet normal  6.128344e-001  0.000000e+000 -7.902113e-001
    outer loop
      vertex -1.349975e+000  1.000000e+001  2.104179e+000
      vertex -1.702011e+000 -1.000000e+001  1.831164e+000
      vertex -1.702011e+000  1.000000e+001  1.831164e+000
    endloop
  endfacet
  facet normal  7.433587e-001  0.000000e+000 -6.688930e-001
    outer loop
      vertex -1.702011e+000  1.000000e+001  1.831164e+000
      vertex -1.702011e+000 -1.000000e+001  1.831164e+000
      vertex -2.000000e+000 -1.000000e+001  1.500000e+000
    endloop
  endfacet
  facet normal  7.433587e-001  0.000000e+000 -6.688930e-001
    outer loop
      vertex -1.702011e+000  1.000000e+001  1.831164e+000
      vertex -2.000000e+000 -1.000000e+001  1.500000e+000
      vertex -2.000000e+000  1.000000e+001  1.500000e+000
    endloop
  endfacet
  facet normal -9.976687e-001  -0.000000e+000 -6.824246e-002
    outer loop
      vertex -4.000000e+000 -1.000000e+001  0.000000e+000
      vertex -4.000000e+000  1.000000e+001  0.000000e+000
      vertex -3.962744e+000 -1.000000e+001 -5.446666e-001
    endloop
  endfacet
  facet normal -9.976687e-001  0.000000e+000 -6.824246e-002
    outer loop
      vertex -3.962744e+000 -1.000000e+001 -5.446666e-001
      vertex -4.000000e+000  1.000000e+001  0.000000e+000
      vertex -3.962744e+000  1.000000e+001 -5.446666e-001
    endloop
  endfacet
  facet normal -9.790841e-001  -0.000000e+000 -2.034561e-001
    outer loop
      vertex -3.962744e+000 -1.000000e+001 -5.446666e-001
      vertex -3.962744e+000  1.000000e+001 -5.446666e-001
      vertex -3.851669e+000 -1.000000e+001 -1.079187e+000
    endloop
  endfacet
  facet normal -9.790841e-001  0.000000e+000 -2.034561e-001
    outer loop
      vertex -3.851669e+000 -1.000000e+001 -1.079187e+000
      vertex -3.962744e+000  1.000000e+001 -5.446666e-001
      vertex -3.851669e+000  1.000000e+001 -1.079187e+000
    endloop
  endfacet
  facet normal -9.422609e-001  -0.000000e+000 -3.348795e-001
    outer loop
      vertex -3.851669e+000 -1.000000e+001 -1.079187e+000
      vertex -3.851669e+000  1.000000e+001 -1.079187e+000
      vertex -3.668845e+000 -1.000000e+001 -1.593604e+000
    endloop
  endfacet
  facet normal -9.422609e-001  0.000000e+000 -3.348795e-001
    outer loop
      vertex -3.668845e+000 -1.000000e+001 -1.593604e+000
      vertex -3.851669e+000  1.000000e+001 -1.079187e+000
      vertex -3.668845e+000  1.000000e+001 -1.593604e+000
    endloop
  endfacet
  facet normal -8.878852e-001  -0.000000e+000 -4.600649e-001
    outer loop
      vertex -3.668845e+000 -1.000000e+001 -1.593604e+000
      vertex -3.668845e+000  1.000000e+001 -1.593604e+000
      vertex -3.417678e+000 -1.000000e+001 -2.078336e+000
    endloop
  endfacet
  facet normal -8.878852e-001  0.000000e+000 -4.600649e-001
    outer loop
      vertex -3.417678e+000 -1.000000e+001 -2.078336e+000
      vertex -3.668845e+000  1.000000e+001 -1.593604e+000
      vertex -3.417678e+000  1.000000e+001 -2.078336e+000
    endloop
  endfacet
  facet normal -8.169699e-001  -0.000000e+000 -5.766802e-001
    outer loop
      vertex -3.417678e+000 -1.000000e+001 -2.078336e+000
      vertex -3.417678e+000  1.000000e+001 -2.078336e+000
      vertex -3.102845e+000 -1.000000e+001 -2.524352e+000
    endloop
  endfacet
  facet normal -8.169699e-001  0.000000e+000 -5.766802e-001
    outer loop
      vertex -3.102845e+000 -1.000000e+001 -2.524352e+000
      vertex -3.417678e+000  1.000000e+001 -2.078336e+000
      vertex -3.102845e+000  1.000000e+001 -2.524352e+000
    endloop
  endfacet
  facet normal -7.308360e-001  -0.000000e+000 -6.825531e-001
    outer loop
      vertex -3.102845e+000 -1.000000e+001 -2.524352e+000
      vertex -3.102845e+000  1.000000e+001 -2.524352e+000
      vertex -2.730213e+000 -1.000000e+001 -2.923344e+000
    endloop
  endfacet
  facet normal -7.308360e-001  0.000000e+000 -6.825531e-001
    outer loop
      vertex -2.730213e+000 -1.000000e+001 -2.923344e+000
      vertex -3.102845e+000  1.000000e+001 -2.524352e+000
      vertex -2.730213e+000  1.000000e+001 -2.923344e+000
    endloop
  endfacet
  facet normal -6.310876e-001  -0.000000e+000 -7.757115e-001
    outer loop
      vertex -2.730213e+000 -1.000000e+001 -2.923344e+000
      vertex -2.730213e+000  1.000000e+001 -2.923344e+000
      vertex -2.306721e+000 -1.000000e+001 -3.267879e+000
    endloop
  endfacet
  facet normal -6.310876e-001  0.000000e+000 -7.757115e-001
    outer loop
      vertex -2.306721e+000 -1.000000e+001 -3.267879e+000
      vertex -2.730213e+000  1.000000e+001 -2.923344e+000
      vertex -2.306721e+000  1.000000e+001 -3.267879e+000
    endloop
  endfacet
  facet normal -5.195841e-001  -0.000000e+000 -8.544193e-001
    outer loop
      vertex -2.306721e+000 -1.000000e+001 -3.267879e+000
      vertex -2.306721e+000  1.000000e+001 -3.267879e+000
      vertex -1.840260e+000 -1.000000e+001 -3.551541e+000
    endloop
  endfacet
  facet normal -5.195841e-001  0.000000e+000 -8.544193e-001
    outer loop
      vertex -1.840260e+000 -1.000000e+001 -3.551541e+000
      vertex -2.306721e+000  1.000000e+001 -3.267879e+000
      vertex -1.840260e+000  1.000000e+001 -3.551541e+000
    endloop
  endfacet
  facet normal -3.984011e-001  -0.000000e+000 -9.172112e-001
    outer loop
      vertex -1.840260e+000 -1.000000e+001 -3.551541e+000
      vertex -1.840260e+000  1.000000e+001 -3.551541e+000
      vertex -1.339518e+000 -1.000000e+001 -3.769044e+000
    endloop
  endfacet
  facet normal -3.984011e-001  0.000000e+000 -9.172112e-001
    outer loop
      vertex -1.339518e+000 -1.000000e+001 -3.769044e+000
      vertex -1.840260e+000  1.000000e+001 -3.551541e+000
      vertex -1.339518e+000  1.000000e+001 -3.769044e+000
    endloop
  endfacet
  facet normal -2.697967e-001  -0.000000e+000 -9.629173e-001
    outer loop
      vertex -1.339518e+000 -1.000000e+001 -3.769044e+000
      vertex -1.339518e+000  1.000000e+001 -3.769044e+000
      vertex -8.138241e-001 -1.000000e+001 -3.916336e+000
    endloop
  endfacet
  facet normal -2.697967e-001  0.000000e+000 -9.629173e-001
    outer loop
      vertex -8.138241e-001 -1.000000e+001 -3.916336e+000
      vertex -1.339518e+000  1.000000e+001 -3.769044e+000
      vertex -8.138241e-001  1.000000e+001 -3.916336e+000
    endloop
  endfacet
  facet normal -1.361666e-001  -0.000000e+000 -9.906859e-001
    outer loop
      vertex -8.138241e-001 -1.000000e+001 -3.916336e+000
      vertex -8.138241e-001  1.000000e+001 -3.916336e+000
      vertex -2.729697e-001 -1.000000e+001 -3.990675e+000
    endloop
  endfacet
  facet normal -1.361666e-001  0.000000e+000 -9.906859e-001
    outer loop
      vertex -2.729697e-001 -1.000000e+001 -3.990675e+000
      vertex -8.138241e-001  1.000000e+001 -3.916336e+000
      vertex -2.729697e-001  1.000000e+001 -3.990675e+000
    endloop
  endfacet
  facet normal  0.000000e+000  0.000000e+000 -1.000000e+000
    outer loop
      vertex -2.729697e-001 -1.000000e+001 -3.990675e+000
      vertex -2.729697e-001  1.000000e+001 -3.990675e+000
      vertex  2.729697e-001 -1.000000e+001 -3.990675e+000
    endloop
  endfacet
  facet normal  0.000000e+000  0.000000e+000 -1.000000e+000
    outer loop
      vertex  2.729697e-001 -1.000000e+001 -3.990675e+000
      vertex -2.729697e-001  1.000000e+001 -3.990675e+000
      vertex  2.729697e-001  1.000000e+001 -3.990675e+000
    endloop
  endfacet
  facet normal  1.361666e-001  0.000000e+000 -9.906859e-001
    outer loop
      vertex  2.729697e-001 -1.000000e+001 -3.990675e+000
      vertex  2.729697e-001  1.000000e+001 -3.990675e+000
      vertex  8.138241e-001 -1.000000e+001 -3.916336e+000
    endloop
  endfacet
  facet normal  1.361666e-001  0.000000e+000 -9.906859e-001
    outer loop
      vertex  8.138241e-001 -1.000000e+001 -3.916336e+000
      vertex  2.729697e-001  1.000000e+001 -3.990675e+000
      vertex  8.138241e-001  1.000000e+001 -3.916336e+000
    endloop
  endfacet
  facet normal  2.697967e-001  0.000000e+000 -9.629173e-001
    outer loop
      vertex  8.138241e-001 -1.000000e+001 -3.916336e+000
      vertex  8.138241e-001  1.000000e+001 -3.916336e+000
      vertex  1.339518e+000 -1.000000e+001 -3.769044e+000
    endloop
  endfacet
  facet normal  2.697967e-001  0.000000e+000 -9.629173e-001
    outer loop
      vertex  1.339518e+000 -1.000000e+001 -3.769044e+000
      vertex  8.138241e-001  1.000000e+001 -3.916336e+000
      vertex  1.339518e+000  1.000000e+001 -3.769044e+000
    endloop
  endfacet
  facet normal  3.984011e-001  0.000000e+000 -9.172112e-001
    outer loop
      vertex  1.339518e+000 -1.000000e+001 -3.769044e+000
      vertex  1.339518e+000  1.000000e+001 -3.769044e+000
      vertex  1.840260e+000 -1.000000e+001 -3.551541e+000
    endloop
  endfacet
  facet normal  3.984011e-001  0.000000e+000 -9.172112e-001
    outer loop
      vertex  1.840260e+000 -1.000000e+001 -3.551541e+000
      vertex  1.339518e+000  1.000000e+001 -3.769044e+000
      vertex  1.840260e+000  1.000000e+001 -3.551541e+000
    endloop
  endfacet
  facet normal  5.195841e-001  0.000000e+000 -8.544193e-001
    outer loop
      vertex  1.840260e+000 -1.000000e+001 -3.551541e+000
      vertex  1.840260e+000  1.000000e+001 -3.551541e+000
      vertex  2.306721e+000 -1.000000e+001 -3.267879e+000
    endloop
  endfacet
  facet normal  5.195841e-001  0.000000e+000 -8.544193e-001
    outer loop
      vertex  2.306721e+000 -1.000000e+001 -3.267879e+000
      vertex  1.840260e+000  1.000000e+001 -3.551541e+000
      vertex  2.306721e+000  1.000000e+001 -3.267879e+000
    endloop
  endfacet
  facet normal  6.310876e-001  0.000000e+000 -7.757115e-001
    outer loop
      vertex  2.306721e+000 -1.000000e+001 -3.267879e+000
      vertex  2.306721e+000  1.000000e+001 -3.267879e+000
      vertex  2.730213e+000 -1.000000e+001 -2.923344e+000
    endloop
  endfacet
  facet normal  6.310876e-001  0.000000e+000 -7.757115e-001
    outer loop
      vertex  2.730213e+000 -1.000000e+001 -2.923344e+000
      vertex  2.306721e+000  1.000000e+001 -3.267879e+000
      vertex  2.730213e+000  1.000000e+001 -2.923344e+000
    endloop
  endfacet
  facet normal  7.308360e-001  0.000000e+000 -6.825531e-001
    outer loop
      vertex  2.730213e+000 -1.000000e+001 -2.923344e+000
      vertex  2.730213e+000  1.000000e+001 -2.923344e+000
      vertex  3.102845e+000 -1.000000e+001 -2.524352e+000
    endloop
  endfacet
  facet normal  7.308360e-001  0.000000e+000 -6.825531e-001
    outer loop
      vertex  3.102845e+000 -1.000000e+001 -2.524352e+000
      vertex  2.730213e+000  1.000000e+001 -2.923344e+000
      vertex  3.102845e+000  1.000000e+001 -2.524352e+000
    endloop
  endfacet
  facet normal  8.169699e-001  0.000000e+000 -5.766802e-001
    outer loop
      vertex  3.102845e+000 -1.000000e+001 -2.524352e+000
      vertex  3.102845e+000  1.000000e+001 -2.524352e+000
      vertex  3.417678e+000 -1.000000e+001 -2.078336e+000
    endloop
  endfacet
  facet normal  8.169699e-001  0.000000e+000 -5.766802e-001
    outer loop
      vertex  3.417678e+000 -1.000000e+001 -2.078336e+000
      vertex  3.102845e+000  1.000000e+001 -2.524352e+000
      vertex  3.417678e+000  1.000000e+001 -2.078336e+000
    endloop
  endfacet
  facet normal  8.878852e-001  0.000000e+000 -4.600649e-001
    outer loop
      vertex  3.417678e+000 -1.000000e+001 -2.078336e+000
      vertex  3.417678e+000  1.000000e+001 -2.078336e+000
      vertex  3.668845e+000 -1.000000e+001 -1.593604e+000
    endloop
  endfacet
  facet normal  8.878852e-001  0.000000e+000 -4.600649e-001
    outer loop
      vertex  3.668845e+000 -1.000000e+001 -1.593604e+000
      vertex  3.417678e+000  1.000000e+001 -2.078336e+000
      vertex  3.668845e+000  1.000000e+001 -1.593604e+000
    endloop
  endfacet
  facet normal  9.422609e-001  0.000000e+000 -3.348795e-001
    outer loop
      vertex  3.668845e+000 -1.000000e+001 -1.593604e+000
      vertex  3.668845e+000  1.000000e+001 -1.593604e+000
      vertex  3.851669e+000 -1.000000e+001 -1.079187e+000
    endloop
  endfacet
  facet normal  9.422609e-001  0.000000e+000 -3.348795e-001
    outer loop
      vertex  3.851669e+000 -1.000000e+001 -1.079187e+000
      vertex  3.668845e+000  1.000000e+001 -1.593604e+000
      vertex  3.851669e+000  1.000000e+001 -1.079187e+000
    endloop
  endfacet
  facet normal  9.790841e-001  0.000000e+000 -2.034561e-001
    outer loop
      vertex  3.851669e+000 -1.000000e+001 -1.079187e+000
      vertex  3.851669e+000  1.000000e+001 -1.079187e+000
      vertex  3.962744e+000 -1.000000e+001 -5.446666e-001
    endloop
  endfacet
  facet normal  9.790841e-001  0.000000e+000 -2.034561e-001
    outer loop
      vertex  3.962744e+000 -1.000000e+001 -5.446666e-001
      vertex  3.851669e+000  1.000000e+001 -1.079187e+000
      vertex  3.962744e+000  1.000000e+001 -5.446666e-001
    endloop
  endfacet
  facet normal  9.976687e-001  0.000000e+000 -6.824246e-002
    outer loop
      vertex  3.962744e+000 -1.000000e+001 -5.446666e-001
      vertex  3.962744e+000  1.000000e+001 -5.446666e-001
      vertex  4.000000e+000 -1.000000e+001  4.898425e-016
    endloop
  endfacet
  facet normal  9.976687e-001  0.000000e+000 -6.824246e-002
    outer loop
      vertex  4.000000e+000 -1.000000e+001  4.898425e-016
      vertex  3.962744e+000  1.000000e+001 -5.446666e-001
      vertex  4.000000e+000  1.000000e+001  4.898425e-016
    endloop
  endfacet
  facet normal  9.976687e-001  0.000000e+000  6.824246e-002
    outer loop
      vertex  4.000000e+000 -1.000000e+001  4.898425e-016
      vertex  4.000000e+000  1.000000e+001  4.898425e-016
      vertex  3.962744e+000 -1.000000e+001  5.446666e-001
    endloop
  endfacet
  facet normal  9.976687e-001  -0.000000e+000  6.824246e-002
    outer loop
      vertex  3.962744e+000 -1.000000e+001  5.446666e-001
      vertex  4.000000e+000  1.000000e+001  4.898425e-016
      vertex  3.962744e+000  1.000000e+001  5.446666e-001
    endloop
  endfacet
  facet normal  9.790841e-001  0.000000e+000  2.034561e-001
    outer loop
      vertex  3.962744e+000 -1.000000e+001  5.446666e-001
      vertex  3.962744e+000  1.000000e+001  5.446666e-001
      vertex  3.851669e+000 -1.000000e+001  1.079187e+000
    endloop
  endfacet
  facet normal  9.790841e-001  -0.000000e+000  2.034561e-001
    outer loop
      vertex  3.851669e+000 -1.000000e+001  1.079187e+000
      vertex  3.962744e+000  1.000000e+001  5.446666e-001
      vertex  3.851669e+000  1.000000e+001  1.079187e+000
    endloop
  endfacet
  facet normal  9.422609e-001  0.000000e+000  3.348795e-001
    outer loop
      vertex  3.851669e+000 -1.000000e+001  1.079187e+000
      vertex  3.851669e+000  1.000000e+001  1.079187e+000
      vertex  3.668845e+000 -1.000000e+001  1.593604e+000
    endloop
  endfacet
  facet normal  9.422609e-001  -0.000000e+000  3.348795e-001
    outer loop
      vertex  3.668845e+000 -1.000000e+001  1.593604e+000
      vertex  3.851669e+000  1.000000e+001  1.079187e+000
      vertex  3.668845e+000  1.000000e+001  1.593604e+000
    endloop
  endfacet
  facet normal  8.878852e-001  0.000000e+000  4.600649e-001
    outer loop
      vertex  3.668845e+000 -1.000000e+001  1.593604e+000
      vertex  3.668845e+000  1.000000e+001  1.593604e+000
      vertex  3.417678e+000 -1.000000e+001  2.078336e+000
    endloop
  endfacet
  facet normal  8.878852e-001  -0.000000e+000  4.600649e-001
    outer loop
      vertex  3.417678e+000 -1.000000e+001  2.078336e+000
      vertex  3.668845e+000  1.000000e+001  1.593604e+000
      vertex  3.417678e+000  1.000000e+001  2.078336e+000
    endloop
  endfacet
  facet normal  8.169699e-001  0.000000e+000  5.766802e-001
    outer loop
      vertex  3.417678e+000 -1.000000e+001  2.078336e+000
      vertex  3.417678e+000  1.000000e+001  2.078336e+000
      vertex  3.102845e+000 -1.000000e+001  2.524352e+000
    endloop
  endfacet
  facet normal  8.169699e-001  -0.000000e+000  5.766802e-001
    outer loop
      vertex  3.102845e+000 -1.000000e+001  2.524352e+000
      vertex  3.417678e+000  1.000000e+001  2.078336e+000
      vertex  3.102845e+000  1.000000e+001  2.524352e+000
    endloop
  endfacet
  facet normal  7.308360e-001  0.000000e+000  6.825531e-001
    outer loop
      vertex  3.102845e+000 -1.000000e+001  2.524352e+000
      vertex  3.102845e+000  1.000000e+001  2.524352e+000
      vertex  2.730213e+000 -1.000000e+001  2.923344e+000
    endloop
  endfacet
  facet normal  7.308360e-001  -0.000000e+000  6.825531e-001
    outer loop
      vertex  2.730213e+000 -1.000000e+001  2.923344e+000
      vertex  3.102845e+000  1.000000e+001  2.524352e+000
      vertex  2.730213e+000  1.000000e+001  2.923344e+000
    endloop
  endfacet
  facet normal  6.310876e-001  0.000000e+000  7.757115e-001
    outer loop
      vertex  2.730213e+000 -1.000000e+001  2.923344e+000
      vertex  2.730213e+000  1.000000e+001  2.923344e+000
      vertex  2.306721e+000 -1.000000e+001  3.267879e+000
    endloop
  endfacet
  facet normal  6.310876e-001  -0.000000e+000  7.757115e-001
    outer loop
      vertex  2.306721e+000 -1.000000e+001  3.267879e+000
      vertex  2.730213e+000  1.000000e+001  2.923344e+000
      vertex  2.306721e+000  1.000000e+001  3.267879e+000
    endloop
  endfacet
  facet normal  5.195841e-001  0.000000e+000  8.544193e-001
    outer loop
      vertex  2.306721e+000 -1.000000e+001  3.267879e+000
      vertex  2.306721e+000  1.000000e+001  3.267879e+000
      vertex  1.840260e+000 -1.000000e+001  3.551541e+000
    endloop
  endfacet
  facet normal  5.195841e-001  -0.000000e+000  8.544193e-001
    outer loop
      vertex  1.840260e+000 -1.000000e+001  3.551541e+000
      vertex  2.306721e+000  1.000000e+001  3.267879e+000
      vertex  1.840260e+000  1.000000e+001  3.551541e+000
    endloop
  endfacet
  facet normal  3.984011e-001  0.000000e+000  9.172112e-001
    outer loop
      vertex  1.840260e+000 -1.000000e+001  3.551541e+000
      vertex  1.840260e+000  1.000000e+001  3.551541e+000
      vertex  1.339518e+000 -1.000000e+001  3.769044e+000
    endloop
  endfacet
  facet normal  3.984011e-001  -0.000000e+000  9.172112e-001
    outer loop
      vertex  1.339518e+000 -1.000000e+001  3.769044e+000
      vertex  1.840260e+000  1.000000e+001  3.551541e+000
      vertex  1.339518e+000  1.000000e+001  3.769044e+000
    endloop
  endfacet
  facet normal  2.697967e-001  0.000000e+000  9.629173e-001
    outer loop
      vertex  1.339518e+000 -1.000000e+001  3.769044e+000
      vertex  1.339518e+000  1.000000e+001  3.769044e+000
      vertex  8.138241e-001 -1.000000e+001  3.916336e+000
    endloop
  endfacet
  facet normal  2.697967e-001  -0.000000e+000  9.629173e-001
    outer loop
      vertex  8.138241e-001 -1.000000e+001  3.916336e+000
      vertex  1.339518e+000  1.000000e+001  3.769044e+000
      vertex  8.138241e-001  1.000000e+001  3.916336e+000
    endloop
  endfacet
  facet normal  1.361666e-001  0.000000e+000  9.906859e-001
    outer loop
      vertex  8.138241e-001 -1.000000e+001  3.916336e+000
      vertex  8.138241e-001  1.000000e+001  3.916336e+000
      vertex  2.729697e-001 -1.000000e+001  3.990675e+000
    endloop
  endfacet
  facet normal  1.361666e-001  -0.000000e+000  9.906859e-001
    outer loop
      vertex  2.729697e-001 -1.000000e+001  3.990675e+000
      vertex  8.138241e-001  1.000000e+001  3.916336e+000
      vertex  2.729697e-001  1.000000e+001  3.990675e+000
    endloop
  endfacet
  facet normal  0.000000e+000  0.000000e+000  1.000000e+000
    outer loop
      vertex  2.729697e-001 -1.000000e+001  3.990675e+000
      vertex  2.729697e-001  1.000000e+001  3.990675e+000
      vertex -2.729697e-001 -1.000000e+001  3.990675e+000
    endloop
  endfacet
  facet normal  0.000000e+000  0.000000e+000  1.000000e+000
    outer loop
      vertex -2.729697e-001 -1.000000e+001  3.990675e+000
      vertex  2.729697e-001  1.000000e+001  3.990675e+000
      vertex -2.729697e-001  1.000000e+001  3.990675e+000
    endloop
  endfacet
  facet normal -1.361666e-001  0.000000e+000  9.906859e-001
    outer loop
      vertex -2.729697e-001 -1.000000e+001  3.990675e+000
      vertex -2.729697e-001  1.000000e+001  3.990675e+000
      vertex -8.138241e-001 -1.000000e+001  3.916336e+000
    endloop
  endfacet
  facet normal -1.361666e-001  0.000000e+000  9.906859e-001
    outer loop
      vertex -8.138241e-001 -1.000000e+001  3.916336e+000
      vertex -2.729697e-001  1.000000e+001  3.990675e+000
      vertex -8.138241e-001  1.000000e+001  3.916336e+000
    endloop
  endfacet
  facet normal -2.697967e-001  0.000000e+000  9.629173e-001
    outer loop
      vertex -8.138241e-001 -1.000000e+001  3.916336e+000
      vertex -8.138241e-001  1.000000e+001  3.916336e+000
      vertex -1.339518e+000 -1.000000e+001  3.769044e+000
    endloop
  endfacet
  facet normal -2.697967e-001  0.000000e+000  9.629173e-001
    outer loop
      vertex -1.339518e+000 -1.000000e+001  3.769044e+000
      vertex -8.138241e-001  1.000000e+001  3.916336e+000
      vertex -1.339518e+000  1.000000e+001  3.769044e+000
    endloop
  endfacet
  facet normal -3.984011e-001  0.000000e+000  9.172112e-001
    outer loop
      vertex -1.339518e+000 -1.000000e+001  3.769044e+000
      vertex -1.339518e+000  1.000000e+001  3.769044e+000
      vertex -1.840260e+000 -1.000000e+001  3.551541e+000
    endloop
  endfacet
  facet normal -3.984011e-001  0.000000e+000  9.172112e-001
    outer loop
      vertex -1.840260e+000 -1.000000e+001  3.551541e+000
      vertex -1.339518e+000  1.000000e+001  3.769044e+000
      vertex -1.840260e+000  1.000000e+001  3.551541e+000
    endloop
  endfacet
  facet normal -5.195841e-001  0.000000e+000  8.544193e-001
    outer loop
      vertex -1.840260e+000 -1.000000e+001  3.551541e+000
      vertex -1.840260e+000  1.000000e+001  3.551541e+000
      vertex -2.306721e+000 -1.000000e+001  3.267879e+000
    endloop
  endfacet
  facet normal -5.195841e-001  0.000000e+000  8.544193e-001
    outer loop
      vertex -2.306721e+000 -1.000000e+001  3.267879e+000
      vertex -1.840260e+000  1.000000e+001  3.551541e+000
      vertex -2.306721e+000  1.000000e+001  3.267879e+000
    endloop
  endfacet
  facet normal -6.310876e-001  0.000000e+000  7.757115e-001
    outer loop
      vertex -2.306721e+000 -1.000000e+001  3.267879e+000
      vertex -2.306721e+000  1.000000e+001  3.267879e+000
      vertex -2.730213e+000 -1.000000e+001  2.923344e+000
    endloop
  endfacet
  facet normal -6.310876e-001  0.000000e+000  7.757115e-001
    outer loop
      vertex -2.730213e+000 -1.000000e+001  2.923344e+000
      vertex -2.306721e+000  1.000000e+001  3.267879e+000
      vertex -2.730213e+000  1.000000e+001  2.923344e+000
    endloop
  endfacet
  facet normal -7.308360e-001  0.000000e+000  6.825531e-001
    outer loop
      vertex -2.730213e+000 -1.000000e+001  2.923344e+000
      vertex -2.730213e+000  1.000000e+001  2.923344e+000
      vertex -3.102845e+000 -1.000000e+001  2.524352e+000
    endloop
  endfacet
  facet normal -7.308360e-001  0.000000e+000  6.825531e-001
    outer loop
      vertex -3.102845e+000 -1.000000e+001  2.524352e+000
      vertex -2.730213e+000  1.000000e+001  2.923344e+000
      vertex -3.102845e+000  1.000000e+001  2.524352e+000
    endloop
  endfacet
  facet normal -8.169699e-001  0.000000e+000  5.766802e-001
    outer loop
      vertex -3.102845e+000 -1.000000e+001  2.524352e+000
      vertex -3.102845e+000  1.000000e+001  2.524352e+000
      vertex -3.417678e+000 -1.000000e+001  2.078336e+000
    endloop
  endfacet
  facet normal -8.169699e-001  0.000000e+000  5.766802e-001
    outer loop
      vertex -3.417678e+000 -1.000000e+001  2.078336e+000
      vertex -3.102845e+000  1.000000e+001  2.524352e+000
      vertex -3.417678e+000  1.000000e+001  2.078336e+000
    endloop
  endfacet
  facet normal -8.878852e-001  0.000000e+000  4.600649e-001
    outer loop
      vertex -3.417678e+000 -1.000000e+001  2.078336e+000
      vertex -3.417678e+000  1.000000e+001  2.078336e+000
      vertex -3.668845e+000 -1.000000e+001  1.593604e+000
    endloop
  endfacet
  facet normal -8.878852e-001  0.000000e+000  4.600649e-001
    outer loop
      vertex -3.668845e+000 -1.000000e+001  1.593604e+000
      vertex -3.417678e+000  1.000000e+001  2.078336e+000
      vertex -3.668845e+000  1.000000e+001  1.593604e+000
    endloop
  endfacet
  facet normal -9.422609e-001  0.000000e+000  3.348795e-001
    outer loop
      vertex -3.668845e+000 -1.000000e+001  1.593604e+000
      vertex -3.668845e+000  1.000000e+001  1.593604e+000
      vertex -3.851669e+000 -1.000000e+001  1.079187e+000
    endloop
  endfacet
  facet normal -9.422609e-001  0.000000e+000  3.348795e-001
    outer loop
      vertex -3.851669e+000 -1.000000e+001  1.079187e+000
      vertex -3.668845e+000  1.000000e+001  1.593604e+000
      vertex -3.851669e+000  1.000000e+001  1.079187e+000
    endloop
  endfacet
  facet normal -9.790841e-001  0.000000e+000  2.034561e-001
    outer loop
      vertex -3.851669e+000 -1.000000e+001  1.079187e+000
      vertex -3.851669e+000  1.000000e+001  1.079187e+000
      vertex -3.962744e+000 -1.000000e+001  5.446666e-001
    endloop
  endfacet
  facet normal -9.790841e-001  0.000000e+000  2.034561e-001
    outer loop
      vertex -3.962744e+000 -1.000000e+001  5.446666e-001
      vertex -3.851669e+000  1.000000e+001  1.079187e+000
      vertex -3.962744e+000  1.000000e+001  5.446666e-001
    endloop
  endfacet
  facet normal -9.976687e-001  0.000000e+000  6.824246e-002
    outer loop
      vertex -3.962744e+000 -1.000000e+001  5.446666e-001
      vertex -3.962744e+000  1.000000e+001  5.446666e-001
      vertex -4.000000e+000 -1.000000e+001  0.000000e+000
    endloop
  endfacet
  facet normal -9.976687e-001  0.000000e+000  6.824246e-002
    outer loop
      vertex -4.000000e+000 -1.000000e+001  0.000000e+000
      vertex -3.962744e+000  1.000000e+001  5.446666e-001
      vertex -4.000000e+000  1.000000e+001  0.000000e+000
    endloop
  endfacet
endsolid CATIA STL
