solid CATIA STL
  facet normal -1.000000e+000  0.000000e+000  0.000000e+000
    outer loop
      vertex -1.000000e+001 -5.000000e+000  1.500000e+001
      vertex -1.000000e+001  1.000000e+001  0.000000e+000
      vertex -1.000000e+001 -1.000000e+001  1.500000e+001
    endloop
  endfacet
  facet normal -1.000000e+000  0.000000e+000  0.000000e+000
    outer loop
      vertex -1.000000e+001 -1.000000e+001  1.500000e+001
      vertex -1.000000e+001  1.000000e+001  0.000000e+000
      vertex -1.000000e+001  1.000000e+001 -5.000000e+000
    endloop
  endfacet
  facet normal -1.000000e+000  0.000000e+000  0.000000e+000
    outer loop
      vertex -1.000000e+001 -1.000000e+001  1.500000e+001
      vertex -1.000000e+001  1.000000e+001 -5.000000e+000
      vertex -1.000000e+001 -1.000000e+001 -5.000000e+000
    endloop
  endfacet
  facet normal  1.000000e+000  0.000000e+000  0.000000e+000
    outer loop
      vertex -8.000000e+000 -5.000000e+000  1.500000e+001
      vertex -8.000000e+000 -5.000000e+000  0.000000e+000
      vertex -8.000000e+000  1.000000e+001  0.000000e+000
    endloop
  endfacet
  facet normal  0.000000e+000  7.071068e-001  7.071068e-001
    outer loop
      vertex -1.000000e+001 -5.000000e+000  1.500000e+001
      vertex -8.000000e+000 -5.000000e+000  1.500000e+001
      vertex -1.000000e+001  1.000000e+001  0.000000e+000
    endloop
  endfacet
  facet normal  -0.000000e+000  7.071068e-001  7.071068e-001
    outer loop
      vertex -1.000000e+001  1.000000e+001  0.000000e+000
      vertex -8.000000e+000 -5.000000e+000  1.500000e+001
      vertex -8.000000e+000  1.000000e+001  0.000000e+000
    endloop
  endfacet
  facet normal  0.000000e+000  1.000000e+000  -0.000000e+000
    outer loop
      vertex  8.000000e+000 -5.000000e+000  1.500000e+001
      vertex  8.000000e+000 -5.000000e+000  0.000000e+000
      vertex  1.905256e+000 -5.000000e+000  1.210000e+001
    endloop
  endfacet
  facet normal  0.000000e+000  1.000000e+000  -0.000000e+000
    outer loop
      vertex  8.000000e+000 -5.000000e+000  1.500000e+001
      vertex  1.905256e+000 -5.000000e+000  1.210000e+001
      vertex  1.555635e+000 -5.000000e+000  1.255563e+001
    endloop
  endfacet
  facet normal  0.000000e+000  9.999999e-001  -0.000000e+000
    outer loop
      vertex  8.000000e+000 -5.000000e+000  1.500000e+001
      vertex  1.555635e+000 -5.000000e+000  1.255563e+001
      vertex  1.100000e+000 -5.000000e+000  1.290526e+001
    endloop
  endfacet
  facet normal  0.000000e+000  1.000000e+000  -0.000000e+000
    outer loop
      vertex  8.000000e+000 -5.000000e+000  1.500000e+001
      vertex  1.100000e+000 -5.000000e+000  1.290526e+001
      vertex  5.694019e-001 -5.000000e+000  1.312504e+001
    endloop
  endfacet
  facet normal  0.000000e+000  1.000000e+000  -0.000000e+000
    outer loop
      vertex  8.000000e+000 -5.000000e+000  1.500000e+001
      vertex  5.694019e-001 -5.000000e+000  1.312504e+001
      vertex -8.000000e+000 -5.000000e+000  1.500000e+001
    endloop
  endfacet
  facet normal  0.000000e+000  9.999999e-001  0.000000e+000
    outer loop
      vertex  8.000000e+000 -5.000000e+000  0.000000e+000
      vertex -8.000000e+000 -5.000000e+000  0.000000e+000
      vertex  5.694019e-001 -5.000000e+000  1.874963e+000
    endloop
  endfacet
  facet normal  -0.000000e+000  9.999999e-001  0.000000e+000
    outer loop
      vertex  8.000000e+000 -5.000000e+000  0.000000e+000
      vertex  5.694019e-001 -5.000000e+000  1.874963e+000
      vertex  1.100000e+000 -5.000000e+000  2.094744e+000
    endloop
  endfacet
  facet normal  -0.000000e+000  9.999999e-001  0.000000e+000
    outer loop
      vertex  8.000000e+000 -5.000000e+000  0.000000e+000
      vertex  1.100000e+000 -5.000000e+000  2.094744e+000
      vertex  1.555635e+000 -5.000000e+000  2.444365e+000
    endloop
  endfacet
  facet normal  -0.000000e+000  1.000000e+000  0.000000e+000
    outer loop
      vertex  8.000000e+000 -5.000000e+000  0.000000e+000
      vertex  1.555635e+000 -5.000000e+000  2.444365e+000
      vertex  1.905256e+000 -5.000000e+000  2.900000e+000
    endloop
  endfacet
  facet normal  -0.000000e+000  1.000000e+000  0.000000e+000
    outer loop
      vertex  8.000000e+000 -5.000000e+000  0.000000e+000
      vertex  1.905256e+000 -5.000000e+000  2.900000e+000
      vertex  2.125037e+000 -5.000000e+000  3.430598e+000
    endloop
  endfacet
  facet normal  -0.000000e+000  1.000000e+000  0.000000e+000
    outer loop
      vertex  8.000000e+000 -5.000000e+000  0.000000e+000
      vertex  2.125037e+000 -5.000000e+000  3.430598e+000
      vertex  2.200000e+000 -5.000000e+000  4.000000e+000
    endloop
  endfacet
  facet normal  -0.000000e+000  1.000000e+000  0.000000e+000
    outer loop
      vertex  8.000000e+000 -5.000000e+000  0.000000e+000
      vertex  2.200000e+000 -5.000000e+000  4.000000e+000
      vertex  2.200000e+000 -5.000000e+000  1.100000e+001
    endloop
  endfacet
  facet normal  -0.000000e+000  1.000000e+000  -0.000000e+000
    outer loop
      vertex  8.000000e+000 -5.000000e+000  0.000000e+000
      vertex  2.200000e+000 -5.000000e+000  1.100000e+001
      vertex  2.125037e+000 -5.000000e+000  1.156940e+001
    endloop
  endfacet
  facet normal  -0.000000e+000  1.000000e+000  -0.000000e+000
    outer loop
      vertex  8.000000e+000 -5.000000e+000  0.000000e+000
      vertex  2.125037e+000 -5.000000e+000  1.156940e+001
      vertex  1.905256e+000 -5.000000e+000  1.210000e+001
    endloop
  endfacet
  facet normal  0.000000e+000  1.000000e+000  0.000000e+000
    outer loop
      vertex -8.000000e+000 -5.000000e+000  0.000000e+000
      vertex -8.000000e+000 -5.000000e+000  1.500000e+001
      vertex -2.200000e+000 -5.000000e+000  1.100000e+001
    endloop
  endfacet
  facet normal  0.000000e+000  1.000000e+000  0.000000e+000
    outer loop
      vertex -8.000000e+000 -5.000000e+000  0.000000e+000
      vertex -2.200000e+000 -5.000000e+000  1.100000e+001
      vertex -2.200000e+000 -5.000000e+000  4.000000e+000
    endloop
  endfacet
  facet normal  0.000000e+000  1.000000e+000  0.000000e+000
    outer loop
      vertex -8.000000e+000 -5.000000e+000  0.000000e+000
      vertex -2.200000e+000 -5.000000e+000  4.000000e+000
      vertex -2.125037e+000 -5.000000e+000  3.430598e+000
    endloop
  endfacet
  facet normal  0.000000e+000  1.000000e+000  0.000000e+000
    outer loop
      vertex -8.000000e+000 -5.000000e+000  0.000000e+000
      vertex -2.125037e+000 -5.000000e+000  3.430598e+000
      vertex -1.905256e+000 -5.000000e+000  2.900000e+000
    endloop
  endfacet
  facet normal  0.000000e+000  1.000000e+000  0.000000e+000
    outer loop
      vertex -8.000000e+000 -5.000000e+000  0.000000e+000
      vertex -1.905256e+000 -5.000000e+000  2.900000e+000
      vertex -1.555635e+000 -5.000000e+000  2.444365e+000
    endloop
  endfacet
  facet normal  0.000000e+000  9.999999e-001  0.000000e+000
    outer loop
      vertex -8.000000e+000 -5.000000e+000  0.000000e+000
      vertex -1.555635e+000 -5.000000e+000  2.444365e+000
      vertex -1.100000e+000 -5.000000e+000  2.094744e+000
    endloop
  endfacet
  facet normal  0.000000e+000  1.000000e+000  0.000000e+000
    outer loop
      vertex -8.000000e+000 -5.000000e+000  0.000000e+000
      vertex -1.100000e+000 -5.000000e+000  2.094744e+000
      vertex -5.694019e-001 -5.000000e+000  1.874963e+000
    endloop
  endfacet
  facet normal  0.000000e+000  9.999999e-001  0.000000e+000
    outer loop
      vertex -8.000000e+000 -5.000000e+000  0.000000e+000
      vertex -5.694019e-001 -5.000000e+000  1.874963e+000
      vertex -3.503865e-015 -5.000000e+000  1.800000e+000
    endloop
  endfacet
  facet normal  -0.000000e+000  1.000000e+000  0.000000e+000
    outer loop
      vertex -8.000000e+000 -5.000000e+000  0.000000e+000
      vertex -3.503865e-015 -5.000000e+000  1.800000e+000
      vertex  5.694019e-001 -5.000000e+000  1.874963e+000
    endloop
  endfacet
  facet normal  0.000000e+000  9.999999e-001  0.000000e+000
    outer loop
      vertex -8.000000e+000 -5.000000e+000  1.500000e+001
      vertex  5.694019e-001 -5.000000e+000  1.312504e+001
      vertex -1.111703e-015 -5.000000e+000  1.320000e+001
    endloop
  endfacet
  facet normal  0.000000e+000  1.000000e+000  0.000000e+000
    outer loop
      vertex -8.000000e+000 -5.000000e+000  1.500000e+001
      vertex -1.111703e-015 -5.000000e+000  1.320000e+001
      vertex -5.694019e-001 -5.000000e+000  1.312504e+001
    endloop
  endfacet
  facet normal  0.000000e+000  1.000000e+000  0.000000e+000
    outer loop
      vertex -8.000000e+000 -5.000000e+000  1.500000e+001
      vertex -5.694019e-001 -5.000000e+000  1.312504e+001
      vertex -1.100000e+000 -5.000000e+000  1.290526e+001
    endloop
  endfacet
  facet normal  0.000000e+000  9.999999e-001  0.000000e+000
    outer loop
      vertex -8.000000e+000 -5.000000e+000  1.500000e+001
      vertex -1.100000e+000 -5.000000e+000  1.290526e+001
      vertex -1.555635e+000 -5.000000e+000  1.255563e+001
    endloop
  endfacet
  facet normal  0.000000e+000  1.000000e+000  0.000000e+000
    outer loop
      vertex -8.000000e+000 -5.000000e+000  1.500000e+001
      vertex -1.555635e+000 -5.000000e+000  1.255563e+001
      vertex -1.905256e+000 -5.000000e+000  1.210000e+001
    endloop
  endfacet
  facet normal  0.000000e+000  1.000000e+000  0.000000e+000
    outer loop
      vertex -8.000000e+000 -5.000000e+000  1.500000e+001
      vertex -1.905256e+000 -5.000000e+000  1.210000e+001
      vertex -2.125037e+000 -5.000000e+000  1.156940e+001
    endloop
  endfacet
  facet normal  0.000000e+000  1.000000e+000  0.000000e+000
    outer loop
      vertex -8.000000e+000 -5.000000e+000  1.500000e+001
      vertex -2.125037e+000 -5.000000e+000  1.156940e+001
      vertex -2.200000e+000 -5.000000e+000  1.100000e+001
    endloop
  endfacet
  facet normal  0.000000e+000  0.000000e+000  1.000000e+000
    outer loop
      vertex -8.000000e+000  1.000000e+001  0.000000e+000
      vertex -8.000000e+000 -5.000000e+000  0.000000e+000
      vertex -2.200000e+000 -1.000000e+000  0.000000e+000
    endloop
  endfacet
  facet normal  0.000000e+000  -0.000000e+000  1.000000e+000
    outer loop
      vertex -8.000000e+000  1.000000e+001  0.000000e+000
      vertex -2.200000e+000 -1.000000e+000  0.000000e+000
      vertex -2.200000e+000  6.000000e+000  0.000000e+000
    endloop
  endfacet
  facet normal  0.000000e+000  -0.000000e+000  9.999999e-001
    outer loop
      vertex -8.000000e+000  1.000000e+001  0.000000e+000
      vertex -2.200000e+000  6.000000e+000  0.000000e+000
      vertex -2.125037e+000  6.569402e+000  0.000000e+000
    endloop
  endfacet
  facet normal  0.000000e+000  -0.000000e+000  1.000000e+000
    outer loop
      vertex -8.000000e+000  1.000000e+001  0.000000e+000
      vertex -2.125037e+000  6.569402e+000  0.000000e+000
      vertex -1.905256e+000  7.100000e+000  0.000000e+000
    endloop
  endfacet
  facet normal  0.000000e+000  -0.000000e+000  1.000000e+000
    outer loop
      vertex -8.000000e+000  1.000000e+001  0.000000e+000
      vertex -1.905256e+000  7.100000e+000  0.000000e+000
      vertex -1.555635e+000  7.555635e+000  0.000000e+000
    endloop
  endfacet
  facet normal  0.000000e+000  -0.000000e+000  9.999999e-001
    outer loop
      vertex -8.000000e+000  1.000000e+001  0.000000e+000
      vertex -1.555635e+000  7.555635e+000  0.000000e+000
      vertex -1.100000e+000  7.905256e+000  0.000000e+000
    endloop
  endfacet
  facet normal  0.000000e+000  -0.000000e+000  1.000000e+000
    outer loop
      vertex -8.000000e+000  1.000000e+001  0.000000e+000
      vertex -1.100000e+000  7.905256e+000  0.000000e+000
      vertex -5.694019e-001  8.125037e+000  0.000000e+000
    endloop
  endfacet
  facet normal  0.000000e+000  -0.000000e+000  1.000000e+000
    outer loop
      vertex -8.000000e+000  1.000000e+001  0.000000e+000
      vertex -5.694019e-001  8.125037e+000  0.000000e+000
      vertex  6.232048e-016  8.200000e+000  0.000000e+000
    endloop
  endfacet
  facet normal  0.000000e+000  -0.000000e+000  1.000000e+000
    outer loop
      vertex -8.000000e+000  1.000000e+001  0.000000e+000
      vertex  6.232048e-016  8.200000e+000  0.000000e+000
      vertex  8.000000e+000  1.000000e+001  0.000000e+000
    endloop
  endfacet
  facet normal  0.000000e+000  0.000000e+000  1.000000e+000
    outer loop
      vertex -8.000000e+000 -5.000000e+000  0.000000e+000
      vertex  8.000000e+000 -5.000000e+000  0.000000e+000
      vertex -4.041201e-016 -3.200000e+000  0.000000e+000
    endloop
  endfacet
  facet normal  0.000000e+000  0.000000e+000  9.999999e-001
    outer loop
      vertex -8.000000e+000 -5.000000e+000  0.000000e+000
      vertex -4.041201e-016 -3.200000e+000  0.000000e+000
      vertex -5.694019e-001 -3.125037e+000  0.000000e+000
    endloop
  endfacet
  facet normal  0.000000e+000  0.000000e+000  1.000000e+000
    outer loop
      vertex -8.000000e+000 -5.000000e+000  0.000000e+000
      vertex -5.694019e-001 -3.125037e+000  0.000000e+000
      vertex -1.100000e+000 -2.905256e+000  0.000000e+000
    endloop
  endfacet
  facet normal  0.000000e+000  0.000000e+000  9.999999e-001
    outer loop
      vertex -8.000000e+000 -5.000000e+000  0.000000e+000
      vertex -1.100000e+000 -2.905256e+000  0.000000e+000
      vertex -1.555635e+000 -2.555635e+000  0.000000e+000
    endloop
  endfacet
  facet normal  0.000000e+000  0.000000e+000  1.000000e+000
    outer loop
      vertex -8.000000e+000 -5.000000e+000  0.000000e+000
      vertex -1.555635e+000 -2.555635e+000  0.000000e+000
      vertex -1.905256e+000 -2.100000e+000  0.000000e+000
    endloop
  endfacet
  facet normal  0.000000e+000  0.000000e+000  1.000000e+000
    outer loop
      vertex -8.000000e+000 -5.000000e+000  0.000000e+000
      vertex -1.905256e+000 -2.100000e+000  0.000000e+000
      vertex -2.125037e+000 -1.569402e+000  0.000000e+000
    endloop
  endfacet
  facet normal  0.000000e+000  0.000000e+000  1.000000e+000
    outer loop
      vertex -8.000000e+000 -5.000000e+000  0.000000e+000
      vertex -2.125037e+000 -1.569402e+000  0.000000e+000
      vertex -2.200000e+000 -1.000000e+000  0.000000e+000
    endloop
  endfacet
  facet normal  -0.000000e+000  0.000000e+000  1.000000e+000
    outer loop
      vertex  8.000000e+000  1.000000e+001  0.000000e+000
      vertex  6.232048e-016  8.200000e+000  0.000000e+000
      vertex  5.694019e-001  8.125037e+000  0.000000e+000
    endloop
  endfacet
  facet normal  -0.000000e+000  0.000000e+000  1.000000e+000
    outer loop
      vertex  8.000000e+000  1.000000e+001  0.000000e+000
      vertex  5.694019e-001  8.125037e+000  0.000000e+000
      vertex  1.100000e+000  7.905256e+000  0.000000e+000
    endloop
  endfacet
  facet normal  -0.000000e+000  0.000000e+000  9.999999e-001
    outer loop
      vertex  8.000000e+000  1.000000e+001  0.000000e+000
      vertex  1.100000e+000  7.905256e+000  0.000000e+000
      vertex  1.555635e+000  7.555635e+000  0.000000e+000
    endloop
  endfacet
  facet normal  -0.000000e+000  0.000000e+000  1.000000e+000
    outer loop
      vertex  8.000000e+000  1.000000e+001  0.000000e+000
      vertex  1.555635e+000  7.555635e+000  0.000000e+000
      vertex  1.905256e+000  7.100000e+000  0.000000e+000
    endloop
  endfacet
  facet normal  -0.000000e+000  0.000000e+000  1.000000e+000
    outer loop
      vertex  8.000000e+000  1.000000e+001  0.000000e+000
      vertex  1.905256e+000  7.100000e+000  0.000000e+000
      vertex  2.125037e+000  6.569402e+000  0.000000e+000
    endloop
  endfacet
  facet normal  -0.000000e+000  0.000000e+000  1.000000e+000
    outer loop
      vertex  8.000000e+000  1.000000e+001  0.000000e+000
      vertex  2.125037e+000  6.569402e+000  0.000000e+000
      vertex  2.200000e+000  6.000000e+000  0.000000e+000
    endloop
  endfacet
  facet normal  -0.000000e+000  0.000000e+000  1.000000e+000
    outer loop
      vertex  8.000000e+000  1.000000e+001  0.000000e+000
      vertex  2.200000e+000  6.000000e+000  0.000000e+000
      vertex  2.200000e+000 -1.000000e+000  0.000000e+000
    endloop
  endfacet
  facet normal  -0.000000e+000  0.000000e+000  1.000000e+000
    outer loop
      vertex  8.000000e+000  1.000000e+001  0.000000e+000
      vertex  2.200000e+000 -1.000000e+000  0.000000e+000
      vertex  8.000000e+000 -5.000000e+000  0.000000e+000
    endloop
  endfacet
  facet normal  0.000000e+000  0.000000e+000  9.999999e-001
    outer loop
      vertex  8.000000e+000 -5.000000e+000  0.000000e+000
      vertex  2.200000e+000 -1.000000e+000  0.000000e+000
      vertex  2.125037e+000 -1.569402e+000  0.000000e+000
    endloop
  endfacet
  facet normal  0.000000e+000  0.000000e+000  1.000000e+000
    outer loop
      vertex  8.000000e+000 -5.000000e+000  0.000000e+000
      vertex  2.125037e+000 -1.569402e+000  0.000000e+000
      vertex  1.905256e+000 -2.100000e+000  0.000000e+000
    endloop
  endfacet
  facet normal  0.000000e+000  0.000000e+000  1.000000e+000
    outer loop
      vertex  8.000000e+000 -5.000000e+000  0.000000e+000
      vertex  1.905256e+000 -2.100000e+000  0.000000e+000
      vertex  1.555635e+000 -2.555635e+000  0.000000e+000
    endloop
  endfacet
  facet normal  0.000000e+000  0.000000e+000  9.999999e-001
    outer loop
      vertex  8.000000e+000 -5.000000e+000  0.000000e+000
      vertex  1.555635e+000 -2.555635e+000  0.000000e+000
      vertex  1.100000e+000 -2.905256e+000  0.000000e+000
    endloop
  endfacet
  facet normal  0.000000e+000  0.000000e+000  1.000000e+000
    outer loop
      vertex  8.000000e+000 -5.000000e+000  0.000000e+000
      vertex  1.100000e+000 -2.905256e+000  0.000000e+000
      vertex  5.694019e-001 -3.125037e+000  0.000000e+000
    endloop
  endfacet
  facet normal  0.000000e+000  0.000000e+000  9.999999e-001
    outer loop
      vertex  8.000000e+000 -5.000000e+000  0.000000e+000
      vertex  5.694019e-001 -3.125037e+000  0.000000e+000
      vertex -4.041201e-016 -3.200000e+000  0.000000e+000
    endloop
  endfacet
  facet normal  -0.000000e+000  1.000000e+000  0.000000e+000
    outer loop
      vertex -1.000000e+001  1.000000e+001 -5.000000e+000
      vertex -1.000000e+001  1.000000e+001  0.000000e+000
      vertex -8.000000e+000  1.000000e+001  0.000000e+000
    endloop
  endfacet
  facet normal  -0.000000e+000  1.000000e+000  0.000000e+000
    outer loop
      vertex -1.000000e+001  1.000000e+001 -5.000000e+000
      vertex -8.000000e+000  1.000000e+001  0.000000e+000
      vertex  8.000000e+000  1.000000e+001  0.000000e+000
    endloop
  endfacet
  facet normal  -0.000000e+000  1.000000e+000  0.000000e+000
    outer loop
      vertex -1.000000e+001  1.000000e+001 -5.000000e+000
      vertex  8.000000e+000  1.000000e+001  0.000000e+000
      vertex  1.000000e+001  1.000000e+001  0.000000e+000
    endloop
  endfacet
  facet normal  0.000000e+000  1.000000e+000  0.000000e+000
    outer loop
      vertex -1.000000e+001  1.000000e+001 -5.000000e+000
      vertex  1.000000e+001  1.000000e+001  0.000000e+000
      vertex  1.000000e+001  1.000000e+001 -5.000000e+000
    endloop
  endfacet
  facet normal  0.000000e+000  -0.000000e+000  1.000000e+000
    outer loop
      vertex -1.000000e+001 -1.000000e+001  1.500000e+001
      vertex  1.000000e+001 -1.000000e+001  1.500000e+001
      vertex  1.000000e+001 -5.000000e+000  1.500000e+001
    endloop
  endfacet
  facet normal  0.000000e+000  0.000000e+000  1.000000e+000
    outer loop
      vertex -1.000000e+001 -1.000000e+001  1.500000e+001
      vertex  1.000000e+001 -5.000000e+000  1.500000e+001
      vertex  8.000000e+000 -5.000000e+000  1.500000e+001
    endloop
  endfacet
  facet normal  0.000000e+000  0.000000e+000  1.000000e+000
    outer loop
      vertex -1.000000e+001 -1.000000e+001  1.500000e+001
      vertex  8.000000e+000 -5.000000e+000  1.500000e+001
      vertex -8.000000e+000 -5.000000e+000  1.500000e+001
    endloop
  endfacet
  facet normal  0.000000e+000  0.000000e+000  1.000000e+000
    outer loop
      vertex -1.000000e+001 -1.000000e+001  1.500000e+001
      vertex -8.000000e+000 -5.000000e+000  1.500000e+001
      vertex -1.000000e+001 -5.000000e+000  1.500000e+001
    endloop
  endfacet
  facet normal  1.000000e+000  -0.000000e+000  0.000000e+000
    outer loop
      vertex  1.000000e+001 -5.000000e+000  1.500000e+001
      vertex  1.000000e+001 -1.000000e+001  1.500000e+001
      vertex  1.000000e+001  1.000000e+001  0.000000e+000
    endloop
  endfacet
  facet normal  1.000000e+000  0.000000e+000  0.000000e+000
    outer loop
      vertex  1.000000e+001  1.000000e+001  0.000000e+000
      vertex  1.000000e+001 -1.000000e+001  1.500000e+001
      vertex  1.000000e+001 -1.000000e+001 -5.000000e+000
    endloop
  endfacet
  facet normal  1.000000e+000  0.000000e+000  0.000000e+000
    outer loop
      vertex  1.000000e+001  1.000000e+001  0.000000e+000
      vertex  1.000000e+001 -1.000000e+001 -5.000000e+000
      vertex  1.000000e+001  1.000000e+001 -5.000000e+000
    endloop
  endfacet
  facet normal -1.000000e+000  0.000000e+000  0.000000e+000
    outer loop
      vertex  8.000000e+000 -5.000000e+000  1.500000e+001
      vertex  8.000000e+000  1.000000e+001  0.000000e+000
      vertex  8.000000e+000 -5.000000e+000  0.000000e+000
    endloop
  endfacet
  facet normal  0.000000e+000  7.071068e-001  7.071068e-001
    outer loop
      vertex  8.000000e+000 -5.000000e+000  1.500000e+001
      vertex  1.000000e+001 -5.000000e+000  1.500000e+001
      vertex  8.000000e+000  1.000000e+001  0.000000e+000
    endloop
  endfacet
  facet normal  -0.000000e+000  7.071068e-001  7.071068e-001
    outer loop
      vertex  8.000000e+000  1.000000e+001  0.000000e+000
      vertex  1.000000e+001 -5.000000e+000  1.500000e+001
      vertex  1.000000e+001  1.000000e+001  0.000000e+000
    endloop
  endfacet
  facet normal  0.000000e+000 -1.000000e+000  -0.000000e+000
    outer loop
      vertex  1.000000e+001 -1.000000e+001 -5.000000e+000
      vertex  1.000000e+001 -1.000000e+001  1.500000e+001
      vertex  2.200000e+000 -1.000000e+001  1.100000e+001
    endloop
  endfacet
  facet normal  0.000000e+000 -1.000000e+000  0.000000e+000
    outer loop
      vertex  1.000000e+001 -1.000000e+001 -5.000000e+000
      vertex  2.200000e+000 -1.000000e+001  1.100000e+001
      vertex  2.200000e+000 -1.000000e+001  4.000000e+000
    endloop
  endfacet
  facet normal  0.000000e+000 -1.000000e+000  -0.000000e+000
    outer loop
      vertex  1.000000e+001 -1.000000e+001 -5.000000e+000
      vertex  2.200000e+000 -1.000000e+001  4.000000e+000
      vertex  2.125037e+000 -1.000000e+001  3.430598e+000
    endloop
  endfacet
  facet normal  0.000000e+000 -1.000000e+000  -0.000000e+000
    outer loop
      vertex  1.000000e+001 -1.000000e+001 -5.000000e+000
      vertex  2.125037e+000 -1.000000e+001  3.430598e+000
      vertex  1.905256e+000 -1.000000e+001  2.900000e+000
    endloop
  endfacet
  facet normal  0.000000e+000 -1.000000e+000  -0.000000e+000
    outer loop
      vertex  1.000000e+001 -1.000000e+001 -5.000000e+000
      vertex  1.905256e+000 -1.000000e+001  2.900000e+000
      vertex  1.555635e+000 -1.000000e+001  2.444365e+000
    endloop
  endfacet
  facet normal  0.000000e+000 -1.000000e+000  -0.000000e+000
    outer loop
      vertex  1.000000e+001 -1.000000e+001 -5.000000e+000
      vertex  1.555635e+000 -1.000000e+001  2.444365e+000
      vertex  1.100000e+000 -1.000000e+001  2.094744e+000
    endloop
  endfacet
  facet normal  0.000000e+000 -1.000000e+000  -0.000000e+000
    outer loop
      vertex  1.000000e+001 -1.000000e+001 -5.000000e+000
      vertex  1.100000e+000 -1.000000e+001  2.094744e+000
      vertex  5.694019e-001 -1.000000e+001  1.874963e+000
    endloop
  endfacet
  facet normal  0.000000e+000 -1.000000e+000  -0.000000e+000
    outer loop
      vertex  1.000000e+001 -1.000000e+001 -5.000000e+000
      vertex  5.694019e-001 -1.000000e+001  1.874963e+000
      vertex -3.552714e-015 -1.000000e+001  1.800000e+000
    endloop
  endfacet
  facet normal  0.000000e+000 -1.000000e+000  -0.000000e+000
    outer loop
      vertex  1.000000e+001 -1.000000e+001 -5.000000e+000
      vertex -3.552714e-015 -1.000000e+001  1.800000e+000
      vertex -1.000000e+001 -1.000000e+001 -5.000000e+000
    endloop
  endfacet
  facet normal  0.000000e+000 -1.000000e+000  0.000000e+000
    outer loop
      vertex  1.000000e+001 -1.000000e+001  1.500000e+001
      vertex -1.000000e+001 -1.000000e+001  1.500000e+001
      vertex  0.000000e+000 -1.000000e+001  1.320000e+001
    endloop
  endfacet
  facet normal  0.000000e+000 -1.000000e+000  0.000000e+000
    outer loop
      vertex  1.000000e+001 -1.000000e+001  1.500000e+001
      vertex  0.000000e+000 -1.000000e+001  1.320000e+001
      vertex  5.694019e-001 -1.000000e+001  1.312504e+001
    endloop
  endfacet
  facet normal  0.000000e+000 -1.000000e+000  0.000000e+000
    outer loop
      vertex  1.000000e+001 -1.000000e+001  1.500000e+001
      vertex  5.694019e-001 -1.000000e+001  1.312504e+001
      vertex  1.100000e+000 -1.000000e+001  1.290526e+001
    endloop
  endfacet
  facet normal  0.000000e+000 -1.000000e+000  0.000000e+000
    outer loop
      vertex  1.000000e+001 -1.000000e+001  1.500000e+001
      vertex  1.100000e+000 -1.000000e+001  1.290526e+001
      vertex  1.555635e+000 -1.000000e+001  1.255563e+001
    endloop
  endfacet
  facet normal  0.000000e+000 -1.000000e+000  0.000000e+000
    outer loop
      vertex  1.000000e+001 -1.000000e+001  1.500000e+001
      vertex  1.555635e+000 -1.000000e+001  1.255563e+001
      vertex  1.905256e+000 -1.000000e+001  1.210000e+001
    endloop
  endfacet
  facet normal  0.000000e+000 -1.000000e+000  0.000000e+000
    outer loop
      vertex  1.000000e+001 -1.000000e+001  1.500000e+001
      vertex  1.905256e+000 -1.000000e+001  1.210000e+001
      vertex  2.125037e+000 -1.000000e+001  1.156940e+001
    endloop
  endfacet
  facet normal  0.000000e+000 -1.000000e+000  0.000000e+000
    outer loop
      vertex  1.000000e+001 -1.000000e+001  1.500000e+001
      vertex  2.125037e+000 -1.000000e+001  1.156940e+001
      vertex  2.200000e+000 -1.000000e+001  1.100000e+001
    endloop
  endfacet
  facet normal  -0.000000e+000 -1.000000e+000  0.000000e+000
    outer loop
      vertex -1.000000e+001 -1.000000e+001 -5.000000e+000
      vertex -3.552714e-015 -1.000000e+001  1.800000e+000
      vertex -5.694019e-001 -1.000000e+001  1.874963e+000
    endloop
  endfacet
  facet normal  -0.000000e+000 -1.000000e+000  0.000000e+000
    outer loop
      vertex -1.000000e+001 -1.000000e+001 -5.000000e+000
      vertex -5.694019e-001 -1.000000e+001  1.874963e+000
      vertex -1.100000e+000 -1.000000e+001  2.094744e+000
    endloop
  endfacet
  facet normal  -0.000000e+000 -1.000000e+000  0.000000e+000
    outer loop
      vertex -1.000000e+001 -1.000000e+001 -5.000000e+000
      vertex -1.100000e+000 -1.000000e+001  2.094744e+000
      vertex -1.555635e+000 -1.000000e+001  2.444365e+000
    endloop
  endfacet
  facet normal  -0.000000e+000 -1.000000e+000  0.000000e+000
    outer loop
      vertex -1.000000e+001 -1.000000e+001 -5.000000e+000
      vertex -1.555635e+000 -1.000000e+001  2.444365e+000
      vertex -1.905256e+000 -1.000000e+001  2.900000e+000
    endloop
  endfacet
  facet normal  -0.000000e+000 -1.000000e+000  0.000000e+000
    outer loop
      vertex -1.000000e+001 -1.000000e+001 -5.000000e+000
      vertex -1.905256e+000 -1.000000e+001  2.900000e+000
      vertex -2.125037e+000 -1.000000e+001  3.430598e+000
    endloop
  endfacet
  facet normal  -0.000000e+000 -1.000000e+000  0.000000e+000
    outer loop
      vertex -1.000000e+001 -1.000000e+001 -5.000000e+000
      vertex -2.125037e+000 -1.000000e+001  3.430598e+000
      vertex -2.200000e+000 -1.000000e+001  4.000000e+000
    endloop
  endfacet
  facet normal  -0.000000e+000 -1.000000e+000  0.000000e+000
    outer loop
      vertex -1.000000e+001 -1.000000e+001 -5.000000e+000
      vertex -2.200000e+000 -1.000000e+001  4.000000e+000
      vertex -2.200000e+000 -1.000000e+001  1.100000e+001
    endloop
  endfacet
  facet normal  -0.000000e+000 -1.000000e+000  0.000000e+000
    outer loop
      vertex -1.000000e+001 -1.000000e+001 -5.000000e+000
      vertex -2.200000e+000 -1.000000e+001  1.100000e+001
      vertex -1.000000e+001 -1.000000e+001  1.500000e+001
    endloop
  endfacet
  facet normal  0.000000e+000 -1.000000e+000  0.000000e+000
    outer loop
      vertex -1.000000e+001 -1.000000e+001  1.500000e+001
      vertex -2.200000e+000 -1.000000e+001  1.100000e+001
      vertex -2.125037e+000 -1.000000e+001  1.156940e+001
    endloop
  endfacet
  facet normal  0.000000e+000 -9.999999e-001  0.000000e+000
    outer loop
      vertex -1.000000e+001 -1.000000e+001  1.500000e+001
      vertex -2.125037e+000 -1.000000e+001  1.156940e+001
      vertex -1.905256e+000 -1.000000e+001  1.210000e+001
    endloop
  endfacet
  facet normal  0.000000e+000 -1.000000e+000  0.000000e+000
    outer loop
      vertex -1.000000e+001 -1.000000e+001  1.500000e+001
      vertex -1.905256e+000 -1.000000e+001  1.210000e+001
      vertex -1.555635e+000 -1.000000e+001  1.255563e+001
    endloop
  endfacet
  facet normal  0.000000e+000 -1.000000e+000  0.000000e+000
    outer loop
      vertex -1.000000e+001 -1.000000e+001  1.500000e+001
      vertex -1.555635e+000 -1.000000e+001  1.255563e+001
      vertex -1.100000e+000 -1.000000e+001  1.290526e+001
    endloop
  endfacet
  facet normal  0.000000e+000 -1.000000e+000  0.000000e+000
    outer loop
      vertex -1.000000e+001 -1.000000e+001  1.500000e+001
      vertex -1.100000e+000 -1.000000e+001  1.290526e+001
      vertex -5.694019e-001 -1.000000e+001  1.312504e+001
    endloop
  endfacet
  facet normal  0.000000e+000 -1.000000e+000  0.000000e+000
    outer loop
      vertex -1.000000e+001 -1.000000e+001  1.500000e+001
      vertex -5.694019e-001 -1.000000e+001  1.312504e+001
      vertex  0.000000e+000 -1.000000e+001  1.320000e+001
    endloop
  endfacet
  facet normal  1.305262e-001  0.000000e+000  9.914449e-001
    outer loop
      vertex -3.552714e-015 -1.000000e+001  1.800000e+000
      vertex -5.694019e-001 -5.000000e+000  1.874963e+000
      vertex -5.694019e-001 -1.000000e+001  1.874963e+000
    endloop
  endfacet
  facet normal  3.826836e-001  -0.000000e+000  9.238794e-001
    outer loop
      vertex -5.694019e-001 -1.000000e+001  1.874963e+000
      vertex -5.694019e-001 -5.000000e+000  1.874963e+000
      vertex -1.100000e+000 -5.000000e+000  2.094744e+000
    endloop
  endfacet
  facet normal  3.826836e-001  0.000000e+000  9.238794e-001
    outer loop
      vertex -5.694019e-001 -1.000000e+001  1.874963e+000
      vertex -1.100000e+000 -5.000000e+000  2.094744e+000
      vertex -1.100000e+000 -1.000000e+001  2.094744e+000
    endloop
  endfacet
  facet normal  6.087612e-001  -0.000000e+000  7.933535e-001
    outer loop
      vertex -1.100000e+000 -1.000000e+001  2.094744e+000
      vertex -1.100000e+000 -5.000000e+000  2.094744e+000
      vertex -1.555635e+000 -5.000000e+000  2.444365e+000
    endloop
  endfacet
  facet normal  6.087612e-001  0.000000e+000  7.933535e-001
    outer loop
      vertex -1.100000e+000 -1.000000e+001  2.094744e+000
      vertex -1.555635e+000 -5.000000e+000  2.444365e+000
      vertex -1.555635e+000 -1.000000e+001  2.444365e+000
    endloop
  endfacet
  facet normal  7.933534e-001  -0.000000e+000  6.087613e-001
    outer loop
      vertex -1.555635e+000 -1.000000e+001  2.444365e+000
      vertex -1.555635e+000 -5.000000e+000  2.444365e+000
      vertex -1.905256e+000 -5.000000e+000  2.900000e+000
    endloop
  endfacet
  facet normal  7.933534e-001  0.000000e+000  6.087613e-001
    outer loop
      vertex -1.555635e+000 -1.000000e+001  2.444365e+000
      vertex -1.905256e+000 -5.000000e+000  2.900000e+000
      vertex -1.905256e+000 -1.000000e+001  2.900000e+000
    endloop
  endfacet
  facet normal  9.238796e-001  -0.000000e+000  3.826834e-001
    outer loop
      vertex -1.905256e+000 -1.000000e+001  2.900000e+000
      vertex -1.905256e+000 -5.000000e+000  2.900000e+000
      vertex -2.125037e+000 -5.000000e+000  3.430598e+000
    endloop
  endfacet
  facet normal  9.238796e-001  0.000000e+000  3.826834e-001
    outer loop
      vertex -1.905256e+000 -1.000000e+001  2.900000e+000
      vertex -2.125037e+000 -5.000000e+000  3.430598e+000
      vertex -2.125037e+000 -1.000000e+001  3.430598e+000
    endloop
  endfacet
  facet normal  9.914448e-001  -0.000000e+000  1.305264e-001
    outer loop
      vertex -2.125037e+000 -1.000000e+001  3.430598e+000
      vertex -2.125037e+000 -5.000000e+000  3.430598e+000
      vertex -2.200000e+000 -5.000000e+000  4.000000e+000
    endloop
  endfacet
  facet normal  9.914448e-001  0.000000e+000  1.305264e-001
    outer loop
      vertex -2.125037e+000 -1.000000e+001  3.430598e+000
      vertex -2.200000e+000 -5.000000e+000  4.000000e+000
      vertex -2.200000e+000 -1.000000e+001  4.000000e+000
    endloop
  endfacet
  facet normal  1.305262e-001 -1.275210e-018  9.914449e-001
    outer loop
      vertex -5.694019e-001 -5.000000e+000  1.874963e+000
      vertex -3.552714e-015 -1.000000e+001  1.800000e+000
      vertex -3.503865e-015 -5.000000e+000  1.800000e+000
    endloop
  endfacet
  facet normal -1.305262e-001  1.275210e-018  9.914449e-001
    outer loop
      vertex -3.503865e-015 -5.000000e+000  1.800000e+000
      vertex -3.552714e-015 -1.000000e+001  1.800000e+000
      vertex  5.694019e-001 -1.000000e+001  1.874963e+000
    endloop
  endfacet
  facet normal -1.305262e-001  0.000000e+000  9.914449e-001
    outer loop
      vertex -3.503865e-015 -5.000000e+000  1.800000e+000
      vertex  5.694019e-001 -1.000000e+001  1.874963e+000
      vertex  5.694019e-001 -5.000000e+000  1.874963e+000
    endloop
  endfacet
  facet normal -3.826836e-001  0.000000e+000  9.238794e-001
    outer loop
      vertex  5.694019e-001 -5.000000e+000  1.874963e+000
      vertex  5.694019e-001 -1.000000e+001  1.874963e+000
      vertex  1.100000e+000 -1.000000e+001  2.094744e+000
    endloop
  endfacet
  facet normal -3.826836e-001  0.000000e+000  9.238794e-001
    outer loop
      vertex  5.694019e-001 -5.000000e+000  1.874963e+000
      vertex  1.100000e+000 -1.000000e+001  2.094744e+000
      vertex  1.100000e+000 -5.000000e+000  2.094744e+000
    endloop
  endfacet
  facet normal -6.087612e-001  0.000000e+000  7.933535e-001
    outer loop
      vertex  1.100000e+000 -5.000000e+000  2.094744e+000
      vertex  1.100000e+000 -1.000000e+001  2.094744e+000
      vertex  1.555635e+000 -1.000000e+001  2.444365e+000
    endloop
  endfacet
  facet normal -6.087612e-001  0.000000e+000  7.933535e-001
    outer loop
      vertex  1.100000e+000 -5.000000e+000  2.094744e+000
      vertex  1.555635e+000 -1.000000e+001  2.444365e+000
      vertex  1.555635e+000 -5.000000e+000  2.444365e+000
    endloop
  endfacet
  facet normal -7.933534e-001  0.000000e+000  6.087613e-001
    outer loop
      vertex  1.555635e+000 -5.000000e+000  2.444365e+000
      vertex  1.555635e+000 -1.000000e+001  2.444365e+000
      vertex  1.905256e+000 -1.000000e+001  2.900000e+000
    endloop
  endfacet
  facet normal -7.933534e-001  0.000000e+000  6.087613e-001
    outer loop
      vertex  1.555635e+000 -5.000000e+000  2.444365e+000
      vertex  1.905256e+000 -1.000000e+001  2.900000e+000
      vertex  1.905256e+000 -5.000000e+000  2.900000e+000
    endloop
  endfacet
  facet normal -9.238796e-001  0.000000e+000  3.826834e-001
    outer loop
      vertex  1.905256e+000 -5.000000e+000  2.900000e+000
      vertex  1.905256e+000 -1.000000e+001  2.900000e+000
      vertex  2.125037e+000 -1.000000e+001  3.430598e+000
    endloop
  endfacet
  facet normal -9.238796e-001  0.000000e+000  3.826834e-001
    outer loop
      vertex  1.905256e+000 -5.000000e+000  2.900000e+000
      vertex  2.125037e+000 -1.000000e+001  3.430598e+000
      vertex  2.125037e+000 -5.000000e+000  3.430598e+000
    endloop
  endfacet
  facet normal -9.914448e-001  0.000000e+000  1.305264e-001
    outer loop
      vertex  2.125037e+000 -5.000000e+000  3.430598e+000
      vertex  2.125037e+000 -1.000000e+001  3.430598e+000
      vertex  2.200000e+000 -1.000000e+001  4.000000e+000
    endloop
  endfacet
  facet normal -9.914448e-001  0.000000e+000  1.305264e-001
    outer loop
      vertex  2.125037e+000 -5.000000e+000  3.430598e+000
      vertex  2.200000e+000 -1.000000e+001  4.000000e+000
      vertex  2.200000e+000 -5.000000e+000  4.000000e+000
    endloop
  endfacet
  facet normal  1.000000e+000  -0.000000e+000  0.000000e+000
    outer loop
      vertex -2.200000e+000 -5.000000e+000  1.100000e+001
      vertex -2.200000e+000 -1.000000e+001  1.100000e+001
      vertex -2.200000e+000 -5.000000e+000  4.000000e+000
    endloop
  endfacet
  facet normal  1.000000e+000  0.000000e+000  0.000000e+000
    outer loop
      vertex -2.200000e+000 -5.000000e+000  4.000000e+000
      vertex -2.200000e+000 -1.000000e+001  1.100000e+001
      vertex -2.200000e+000 -1.000000e+001  4.000000e+000
    endloop
  endfacet
  facet normal -1.305252e-001  -0.000000e+000 -9.914450e-001
    outer loop
      vertex  0.000000e+000 -1.000000e+001  1.320000e+001
      vertex  5.694019e-001 -5.000000e+000  1.312504e+001
      vertex  5.694019e-001 -1.000000e+001  1.312504e+001
    endloop
  endfacet
  facet normal -3.826834e-001  0.000000e+000 -9.238796e-001
    outer loop
      vertex  5.694019e-001 -1.000000e+001  1.312504e+001
      vertex  5.694019e-001 -5.000000e+000  1.312504e+001
      vertex  1.100000e+000 -5.000000e+000  1.290526e+001
    endloop
  endfacet
  facet normal -3.826834e-001  -0.000000e+000 -9.238796e-001
    outer loop
      vertex  5.694019e-001 -1.000000e+001  1.312504e+001
      vertex  1.100000e+000 -5.000000e+000  1.290526e+001
      vertex  1.100000e+000 -1.000000e+001  1.290526e+001
    endloop
  endfacet
  facet normal -6.087623e-001  0.000000e+000 -7.933527e-001
    outer loop
      vertex  1.100000e+000 -1.000000e+001  1.290526e+001
      vertex  1.100000e+000 -5.000000e+000  1.290526e+001
      vertex  1.555635e+000 -5.000000e+000  1.255563e+001
    endloop
  endfacet
  facet normal -6.087623e-001  -0.000000e+000 -7.933527e-001
    outer loop
      vertex  1.100000e+000 -1.000000e+001  1.290526e+001
      vertex  1.555635e+000 -5.000000e+000  1.255563e+001
      vertex  1.555635e+000 -1.000000e+001  1.255563e+001
    endloop
  endfacet
  facet normal -7.933528e-001  0.000000e+000 -6.087620e-001
    outer loop
      vertex  1.555635e+000 -1.000000e+001  1.255563e+001
      vertex  1.555635e+000 -5.000000e+000  1.255563e+001
      vertex  1.905256e+000 -5.000000e+000  1.210000e+001
    endloop
  endfacet
  facet normal -7.933528e-001  -0.000000e+000 -6.087620e-001
    outer loop
      vertex  1.555635e+000 -1.000000e+001  1.255563e+001
      vertex  1.905256e+000 -5.000000e+000  1.210000e+001
      vertex  1.905256e+000 -1.000000e+001  1.210000e+001
    endloop
  endfacet
  facet normal -9.238797e-001  0.000000e+000 -3.826829e-001
    outer loop
      vertex  1.905256e+000 -1.000000e+001  1.210000e+001
      vertex  1.905256e+000 -5.000000e+000  1.210000e+001
      vertex  2.125037e+000 -5.000000e+000  1.156940e+001
    endloop
  endfacet
  facet normal -9.238797e-001  -0.000000e+000 -3.826829e-001
    outer loop
      vertex  1.905256e+000 -1.000000e+001  1.210000e+001
      vertex  2.125037e+000 -5.000000e+000  1.156940e+001
      vertex  2.125037e+000 -1.000000e+001  1.156940e+001
    endloop
  endfacet
  facet normal -9.914448e-001  0.000000e+000 -1.305265e-001
    outer loop
      vertex  2.125037e+000 -1.000000e+001  1.156940e+001
      vertex  2.125037e+000 -5.000000e+000  1.156940e+001
      vertex  2.200000e+000 -5.000000e+000  1.100000e+001
    endloop
  endfacet
  facet normal -9.914448e-001  -0.000000e+000 -1.305265e-001
    outer loop
      vertex  2.125037e+000 -1.000000e+001  1.156940e+001
      vertex  2.200000e+000 -5.000000e+000  1.100000e+001
      vertex  2.200000e+000 -1.000000e+001  1.100000e+001
    endloop
  endfacet
  facet normal -1.305252e-001 -2.902105e-017 -9.914450e-001
    outer loop
      vertex  5.694019e-001 -5.000000e+000  1.312504e+001
      vertex  0.000000e+000 -1.000000e+001  1.320000e+001
      vertex -1.111703e-015 -5.000000e+000  1.320000e+001
    endloop
  endfacet
  facet normal  1.305252e-001  2.902105e-017 -9.914450e-001
    outer loop
      vertex -1.111703e-015 -5.000000e+000  1.320000e+001
      vertex  0.000000e+000 -1.000000e+001  1.320000e+001
      vertex -5.694019e-001 -1.000000e+001  1.312504e+001
    endloop
  endfacet
  facet normal  1.305252e-001  0.000000e+000 -9.914450e-001
    outer loop
      vertex -1.111703e-015 -5.000000e+000  1.320000e+001
      vertex -5.694019e-001 -1.000000e+001  1.312504e+001
      vertex -5.694019e-001 -5.000000e+000  1.312504e+001
    endloop
  endfacet
  facet normal  3.826834e-001  0.000000e+000 -9.238796e-001
    outer loop
      vertex -5.694019e-001 -5.000000e+000  1.312504e+001
      vertex -5.694019e-001 -1.000000e+001  1.312504e+001
      vertex -1.100000e+000 -1.000000e+001  1.290526e+001
    endloop
  endfacet
  facet normal  3.826834e-001  0.000000e+000 -9.238796e-001
    outer loop
      vertex -5.694019e-001 -5.000000e+000  1.312504e+001
      vertex -1.100000e+000 -1.000000e+001  1.290526e+001
      vertex -1.100000e+000 -5.000000e+000  1.290526e+001
    endloop
  endfacet
  facet normal  6.087623e-001  0.000000e+000 -7.933527e-001
    outer loop
      vertex -1.100000e+000 -5.000000e+000  1.290526e+001
      vertex -1.100000e+000 -1.000000e+001  1.290526e+001
      vertex -1.555635e+000 -1.000000e+001  1.255563e+001
    endloop
  endfacet
  facet normal  6.087623e-001  0.000000e+000 -7.933527e-001
    outer loop
      vertex -1.100000e+000 -5.000000e+000  1.290526e+001
      vertex -1.555635e+000 -1.000000e+001  1.255563e+001
      vertex -1.555635e+000 -5.000000e+000  1.255563e+001
    endloop
  endfacet
  facet normal  7.933528e-001  0.000000e+000 -6.087620e-001
    outer loop
      vertex -1.555635e+000 -5.000000e+000  1.255563e+001
      vertex -1.555635e+000 -1.000000e+001  1.255563e+001
      vertex -1.905256e+000 -1.000000e+001  1.210000e+001
    endloop
  endfacet
  facet normal  7.933528e-001  0.000000e+000 -6.087620e-001
    outer loop
      vertex -1.555635e+000 -5.000000e+000  1.255563e+001
      vertex -1.905256e+000 -1.000000e+001  1.210000e+001
      vertex -1.905256e+000 -5.000000e+000  1.210000e+001
    endloop
  endfacet
  facet normal  9.238797e-001  0.000000e+000 -3.826829e-001
    outer loop
      vertex -1.905256e+000 -5.000000e+000  1.210000e+001
      vertex -1.905256e+000 -1.000000e+001  1.210000e+001
      vertex -2.125037e+000 -1.000000e+001  1.156940e+001
    endloop
  endfacet
  facet normal  9.238797e-001  0.000000e+000 -3.826829e-001
    outer loop
      vertex -1.905256e+000 -5.000000e+000  1.210000e+001
      vertex -2.125037e+000 -1.000000e+001  1.156940e+001
      vertex -2.125037e+000 -5.000000e+000  1.156940e+001
    endloop
  endfacet
  facet normal  9.914448e-001  0.000000e+000 -1.305265e-001
    outer loop
      vertex -2.125037e+000 -5.000000e+000  1.156940e+001
      vertex -2.125037e+000 -1.000000e+001  1.156940e+001
      vertex -2.200000e+000 -1.000000e+001  1.100000e+001
    endloop
  endfacet
  facet normal  9.914448e-001  0.000000e+000 -1.305265e-001
    outer loop
      vertex -2.125037e+000 -5.000000e+000  1.156940e+001
      vertex -2.200000e+000 -1.000000e+001  1.100000e+001
      vertex -2.200000e+000 -5.000000e+000  1.100000e+001
    endloop
  endfacet
  facet normal -1.000000e+000  0.000000e+000  0.000000e+000
    outer loop
      vertex  2.200000e+000 -5.000000e+000  1.100000e+001
      vertex  2.200000e+000 -5.000000e+000  4.000000e+000
      vertex  2.200000e+000 -1.000000e+001  1.100000e+001
    endloop
  endfacet
  facet normal -1.000000e+000  0.000000e+000  0.000000e+000
    outer loop
      vertex  2.200000e+000 -1.000000e+001  1.100000e+001
      vertex  2.200000e+000 -5.000000e+000  4.000000e+000
      vertex  2.200000e+000 -1.000000e+001  4.000000e+000
    endloop
  endfacet
  facet normal  -0.000000e+000  0.000000e+000 -1.000000e+000
    outer loop
      vertex -1.000000e+001  1.000000e+001 -5.000000e+000
      vertex  1.000000e+001  1.000000e+001 -5.000000e+000
      vertex -1.502504e-015  8.200000e+000 -5.000000e+000
    endloop
  endfacet
  facet normal  -0.000000e+000  0.000000e+000 -1.000000e+000
    outer loop
      vertex -1.000000e+001  1.000000e+001 -5.000000e+000
      vertex -1.502504e-015  8.200000e+000 -5.000000e+000
      vertex -5.694019e-001  8.125037e+000 -5.000000e+000
    endloop
  endfacet
  facet normal  -0.000000e+000  0.000000e+000 -9.999999e-001
    outer loop
      vertex -1.000000e+001  1.000000e+001 -5.000000e+000
      vertex -5.694019e-001  8.125037e+000 -5.000000e+000
      vertex -1.100000e+000  7.905256e+000 -5.000000e+000
    endloop
  endfacet
  facet normal  -0.000000e+000  0.000000e+000 -1.000000e+000
    outer loop
      vertex -1.000000e+001  1.000000e+001 -5.000000e+000
      vertex -1.100000e+000  7.905256e+000 -5.000000e+000
      vertex -1.555635e+000  7.555635e+000 -5.000000e+000
    endloop
  endfacet
  facet normal  -0.000000e+000  0.000000e+000 -9.999999e-001
    outer loop
      vertex -1.000000e+001  1.000000e+001 -5.000000e+000
      vertex -1.555635e+000  7.555635e+000 -5.000000e+000
      vertex -1.905256e+000  7.100000e+000 -5.000000e+000
    endloop
  endfacet
  facet normal  -0.000000e+000  0.000000e+000 -1.000000e+000
    outer loop
      vertex -1.000000e+001  1.000000e+001 -5.000000e+000
      vertex -1.905256e+000  7.100000e+000 -5.000000e+000
      vertex -2.125037e+000  6.569402e+000 -5.000000e+000
    endloop
  endfacet
  facet normal  -0.000000e+000  0.000000e+000 -1.000000e+000
    outer loop
      vertex -1.000000e+001  1.000000e+001 -5.000000e+000
      vertex -2.125037e+000  6.569402e+000 -5.000000e+000
      vertex -2.200000e+000  6.000000e+000 -5.000000e+000
    endloop
  endfacet
  facet normal  -0.000000e+000  -0.000000e+000 -1.000000e+000
    outer loop
      vertex -1.000000e+001  1.000000e+001 -5.000000e+000
      vertex -2.200000e+000  6.000000e+000 -5.000000e+000
      vertex -2.200000e+000 -1.000000e+000 -5.000000e+000
    endloop
  endfacet
  facet normal  -0.000000e+000  0.000000e+000 -1.000000e+000
    outer loop
      vertex -1.000000e+001  1.000000e+001 -5.000000e+000
      vertex -2.200000e+000 -1.000000e+000 -5.000000e+000
      vertex -1.000000e+001 -1.000000e+001 -5.000000e+000
    endloop
  endfacet
  facet normal  0.000000e+000  -0.000000e+000 -1.000000e+000
    outer loop
      vertex -1.000000e+001 -1.000000e+001 -5.000000e+000
      vertex -2.200000e+000 -1.000000e+000 -5.000000e+000
      vertex -2.125037e+000 -1.569402e+000 -5.000000e+000
    endloop
  endfacet
  facet normal  0.000000e+000  -0.000000e+000 -1.000000e+000
    outer loop
      vertex -1.000000e+001 -1.000000e+001 -5.000000e+000
      vertex -2.125037e+000 -1.569402e+000 -5.000000e+000
      vertex -1.905256e+000 -2.100000e+000 -5.000000e+000
    endloop
  endfacet
  facet normal  0.000000e+000  -0.000000e+000 -1.000000e+000
    outer loop
      vertex -1.000000e+001 -1.000000e+001 -5.000000e+000
      vertex -1.905256e+000 -2.100000e+000 -5.000000e+000
      vertex -1.555635e+000 -2.555635e+000 -5.000000e+000
    endloop
  endfacet
  facet normal  0.000000e+000  -0.000000e+000 -1.000000e+000
    outer loop
      vertex -1.000000e+001 -1.000000e+001 -5.000000e+000
      vertex -1.555635e+000 -2.555635e+000 -5.000000e+000
      vertex -1.100000e+000 -2.905256e+000 -5.000000e+000
    endloop
  endfacet
  facet normal  0.000000e+000  -0.000000e+000 -1.000000e+000
    outer loop
      vertex -1.000000e+001 -1.000000e+001 -5.000000e+000
      vertex -1.100000e+000 -2.905256e+000 -5.000000e+000
      vertex -5.694019e-001 -3.125037e+000 -5.000000e+000
    endloop
  endfacet
  facet normal  0.000000e+000  -0.000000e+000 -1.000000e+000
    outer loop
      vertex -1.000000e+001 -1.000000e+001 -5.000000e+000
      vertex -5.694019e-001 -3.125037e+000 -5.000000e+000
      vertex  1.327828e-015 -3.200000e+000 -5.000000e+000
    endloop
  endfacet
  facet normal  0.000000e+000  -0.000000e+000 -1.000000e+000
    outer loop
      vertex -1.000000e+001 -1.000000e+001 -5.000000e+000
      vertex  1.327828e-015 -3.200000e+000 -5.000000e+000
      vertex  1.000000e+001 -1.000000e+001 -5.000000e+000
    endloop
  endfacet
  facet normal  0.000000e+000  0.000000e+000 -1.000000e+000
    outer loop
      vertex  1.000000e+001  1.000000e+001 -5.000000e+000
      vertex  1.000000e+001 -1.000000e+001 -5.000000e+000
      vertex  2.200000e+000 -1.000000e+000 -5.000000e+000
    endloop
  endfacet
  facet normal  0.000000e+000  0.000000e+000 -1.000000e+000
    outer loop
      vertex  1.000000e+001  1.000000e+001 -5.000000e+000
      vertex  2.200000e+000 -1.000000e+000 -5.000000e+000
      vertex  2.200000e+000  6.000000e+000 -5.000000e+000
    endloop
  endfacet
  facet normal  0.000000e+000  0.000000e+000 -1.000000e+000
    outer loop
      vertex  1.000000e+001  1.000000e+001 -5.000000e+000
      vertex  2.200000e+000  6.000000e+000 -5.000000e+000
      vertex  2.125037e+000  6.569402e+000 -5.000000e+000
    endloop
  endfacet
  facet normal  0.000000e+000  0.000000e+000 -1.000000e+000
    outer loop
      vertex  1.000000e+001  1.000000e+001 -5.000000e+000
      vertex  2.125037e+000  6.569402e+000 -5.000000e+000
      vertex  1.905256e+000  7.100000e+000 -5.000000e+000
    endloop
  endfacet
  facet normal  0.000000e+000  0.000000e+000 -9.999999e-001
    outer loop
      vertex  1.000000e+001  1.000000e+001 -5.000000e+000
      vertex  1.905256e+000  7.100000e+000 -5.000000e+000
      vertex  1.555635e+000  7.555635e+000 -5.000000e+000
    endloop
  endfacet
  facet normal  0.000000e+000  0.000000e+000 -1.000000e+000
    outer loop
      vertex  1.000000e+001  1.000000e+001 -5.000000e+000
      vertex  1.555635e+000  7.555635e+000 -5.000000e+000
      vertex  1.100000e+000  7.905256e+000 -5.000000e+000
    endloop
  endfacet
  facet normal  0.000000e+000  0.000000e+000 -1.000000e+000
    outer loop
      vertex  1.000000e+001  1.000000e+001 -5.000000e+000
      vertex  1.100000e+000  7.905256e+000 -5.000000e+000
      vertex  5.694019e-001  8.125037e+000 -5.000000e+000
    endloop
  endfacet
  facet normal  0.000000e+000  0.000000e+000 -1.000000e+000
    outer loop
      vertex  1.000000e+001  1.000000e+001 -5.000000e+000
      vertex  5.694019e-001  8.125037e+000 -5.000000e+000
      vertex -1.502504e-015  8.200000e+000 -5.000000e+000
    endloop
  endfacet
  facet normal  0.000000e+000  0.000000e+000 -1.000000e+000
    outer loop
      vertex  1.000000e+001 -1.000000e+001 -5.000000e+000
      vertex  1.327828e-015 -3.200000e+000 -5.000000e+000
      vertex  5.694019e-001 -3.125037e+000 -5.000000e+000
    endloop
  endfacet
  facet normal  0.000000e+000  0.000000e+000 -1.000000e+000
    outer loop
      vertex  1.000000e+001 -1.000000e+001 -5.000000e+000
      vertex  5.694019e-001 -3.125037e+000 -5.000000e+000
      vertex  1.100000e+000 -2.905256e+000 -5.000000e+000
    endloop
  endfacet
  facet normal  0.000000e+000  0.000000e+000 -1.000000e+000
    outer loop
      vertex  1.000000e+001 -1.000000e+001 -5.000000e+000
      vertex  1.100000e+000 -2.905256e+000 -5.000000e+000
      vertex  1.555635e+000 -2.555635e+000 -5.000000e+000
    endloop
  endfacet
  facet normal  0.000000e+000  0.000000e+000 -1.000000e+000
    outer loop
      vertex  1.000000e+001 -1.000000e+001 -5.000000e+000
      vertex  1.555635e+000 -2.555635e+000 -5.000000e+000
      vertex  1.905256e+000 -2.100000e+000 -5.000000e+000
    endloop
  endfacet
  facet normal  0.000000e+000  0.000000e+000 -1.000000e+000
    outer loop
      vertex  1.000000e+001 -1.000000e+001 -5.000000e+000
      vertex  1.905256e+000 -2.100000e+000 -5.000000e+000
      vertex  2.125037e+000 -1.569402e+000 -5.000000e+000
    endloop
  endfacet
  facet normal  0.000000e+000  0.000000e+000 -1.000000e+000
    outer loop
      vertex  1.000000e+001 -1.000000e+001 -5.000000e+000
      vertex  2.125037e+000 -1.569402e+000 -5.000000e+000
      vertex  2.200000e+000 -1.000000e+000 -5.000000e+000
    endloop
  endfacet
  facet normal -1.305264e-001  9.914448e-001  0.000000e+000
    outer loop
      vertex  1.327828e-015 -3.200000e+000 -5.000000e+000
      vertex  5.694019e-001 -3.125037e+000  0.000000e+000
      vertex  5.694019e-001 -3.125037e+000 -5.000000e+000
    endloop
  endfacet
  facet normal -3.826834e-001  9.238796e-001  0.000000e+000
    outer loop
      vertex  5.694019e-001 -3.125037e+000 -5.000000e+000
      vertex  5.694019e-001 -3.125037e+000  0.000000e+000
      vertex  1.100000e+000 -2.905256e+000  0.000000e+000
    endloop
  endfacet
  facet normal -3.826834e-001  9.238796e-001  0.000000e+000
    outer loop
      vertex  5.694019e-001 -3.125037e+000 -5.000000e+000
      vertex  1.100000e+000 -2.905256e+000  0.000000e+000
      vertex  1.100000e+000 -2.905256e+000 -5.000000e+000
    endloop
  endfacet
  facet normal -6.087612e-001  7.933535e-001  0.000000e+000
    outer loop
      vertex  1.100000e+000 -2.905256e+000 -5.000000e+000
      vertex  1.100000e+000 -2.905256e+000  0.000000e+000
      vertex  1.555635e+000 -2.555635e+000  0.000000e+000
    endloop
  endfacet
  facet normal -6.087612e-001  7.933535e-001  0.000000e+000
    outer loop
      vertex  1.100000e+000 -2.905256e+000 -5.000000e+000
      vertex  1.555635e+000 -2.555635e+000  0.000000e+000
      vertex  1.555635e+000 -2.555635e+000 -5.000000e+000
    endloop
  endfacet
  facet normal -7.933534e-001  6.087613e-001  0.000000e+000
    outer loop
      vertex  1.555635e+000 -2.555635e+000 -5.000000e+000
      vertex  1.555635e+000 -2.555635e+000  0.000000e+000
      vertex  1.905256e+000 -2.100000e+000  0.000000e+000
    endloop
  endfacet
  facet normal -7.933534e-001  6.087613e-001  0.000000e+000
    outer loop
      vertex  1.555635e+000 -2.555635e+000 -5.000000e+000
      vertex  1.905256e+000 -2.100000e+000  0.000000e+000
      vertex  1.905256e+000 -2.100000e+000 -5.000000e+000
    endloop
  endfacet
  facet normal -9.238796e-001  3.826833e-001  0.000000e+000
    outer loop
      vertex  1.905256e+000 -2.100000e+000 -5.000000e+000
      vertex  1.905256e+000 -2.100000e+000  0.000000e+000
      vertex  2.125037e+000 -1.569402e+000  0.000000e+000
    endloop
  endfacet
  facet normal -9.238796e-001  3.826833e-001  0.000000e+000
    outer loop
      vertex  1.905256e+000 -2.100000e+000 -5.000000e+000
      vertex  2.125037e+000 -1.569402e+000  0.000000e+000
      vertex  2.125037e+000 -1.569402e+000 -5.000000e+000
    endloop
  endfacet
  facet normal -9.914448e-001  1.305265e-001  0.000000e+000
    outer loop
      vertex  2.125037e+000 -1.569402e+000 -5.000000e+000
      vertex  2.125037e+000 -1.569402e+000  0.000000e+000
      vertex  2.200000e+000 -1.000000e+000  0.000000e+000
    endloop
  endfacet
  facet normal -9.914448e-001  1.305265e-001  0.000000e+000
    outer loop
      vertex  2.125037e+000 -1.569402e+000 -5.000000e+000
      vertex  2.200000e+000 -1.000000e+000  0.000000e+000
      vertex  2.200000e+000 -1.000000e+000 -5.000000e+000
    endloop
  endfacet
  facet normal -1.305264e-001  9.914448e-001 -4.521300e-017
    outer loop
      vertex  5.694019e-001 -3.125037e+000  0.000000e+000
      vertex  1.327828e-015 -3.200000e+000 -5.000000e+000
      vertex -4.041201e-016 -3.200000e+000  0.000000e+000
    endloop
  endfacet
  facet normal  1.305264e-001  9.914448e-001  4.521300e-017
    outer loop
      vertex -4.041201e-016 -3.200000e+000  0.000000e+000
      vertex  1.327828e-015 -3.200000e+000 -5.000000e+000
      vertex -5.694019e-001 -3.125037e+000 -5.000000e+000
    endloop
  endfacet
  facet normal  1.305264e-001  9.914448e-001  -0.000000e+000
    outer loop
      vertex -4.041201e-016 -3.200000e+000  0.000000e+000
      vertex -5.694019e-001 -3.125037e+000 -5.000000e+000
      vertex -5.694019e-001 -3.125037e+000  0.000000e+000
    endloop
  endfacet
  facet normal  3.826834e-001  9.238796e-001  0.000000e+000
    outer loop
      vertex -5.694019e-001 -3.125037e+000  0.000000e+000
      vertex -5.694019e-001 -3.125037e+000 -5.000000e+000
      vertex -1.100000e+000 -2.905256e+000 -5.000000e+000
    endloop
  endfacet
  facet normal  3.826834e-001  9.238796e-001  -0.000000e+000
    outer loop
      vertex -5.694019e-001 -3.125037e+000  0.000000e+000
      vertex -1.100000e+000 -2.905256e+000 -5.000000e+000
      vertex -1.100000e+000 -2.905256e+000  0.000000e+000
    endloop
  endfacet
  facet normal  6.087612e-001  7.933535e-001  0.000000e+000
    outer loop
      vertex -1.100000e+000 -2.905256e+000  0.000000e+000
      vertex -1.100000e+000 -2.905256e+000 -5.000000e+000
      vertex -1.555635e+000 -2.555635e+000 -5.000000e+000
    endloop
  endfacet
  facet normal  6.087612e-001  7.933535e-001  -0.000000e+000
    outer loop
      vertex -1.100000e+000 -2.905256e+000  0.000000e+000
      vertex -1.555635e+000 -2.555635e+000 -5.000000e+000
      vertex -1.555635e+000 -2.555635e+000  0.000000e+000
    endloop
  endfacet
  facet normal  7.933534e-001  6.087613e-001  0.000000e+000
    outer loop
      vertex -1.555635e+000 -2.555635e+000  0.000000e+000
      vertex -1.555635e+000 -2.555635e+000 -5.000000e+000
      vertex -1.905256e+000 -2.100000e+000 -5.000000e+000
    endloop
  endfacet
  facet normal  7.933534e-001  6.087613e-001  -0.000000e+000
    outer loop
      vertex -1.555635e+000 -2.555635e+000  0.000000e+000
      vertex -1.905256e+000 -2.100000e+000 -5.000000e+000
      vertex -1.905256e+000 -2.100000e+000  0.000000e+000
    endloop
  endfacet
  facet normal  9.238796e-001  3.826833e-001  0.000000e+000
    outer loop
      vertex -1.905256e+000 -2.100000e+000  0.000000e+000
      vertex -1.905256e+000 -2.100000e+000 -5.000000e+000
      vertex -2.125037e+000 -1.569402e+000 -5.000000e+000
    endloop
  endfacet
  facet normal  9.238796e-001  3.826833e-001  -0.000000e+000
    outer loop
      vertex -1.905256e+000 -2.100000e+000  0.000000e+000
      vertex -2.125037e+000 -1.569402e+000 -5.000000e+000
      vertex -2.125037e+000 -1.569402e+000  0.000000e+000
    endloop
  endfacet
  facet normal  9.914448e-001  1.305265e-001  0.000000e+000
    outer loop
      vertex -2.125037e+000 -1.569402e+000  0.000000e+000
      vertex -2.125037e+000 -1.569402e+000 -5.000000e+000
      vertex -2.200000e+000 -1.000000e+000 -5.000000e+000
    endloop
  endfacet
  facet normal  9.914448e-001  1.305265e-001  -0.000000e+000
    outer loop
      vertex -2.125037e+000 -1.569402e+000  0.000000e+000
      vertex -2.200000e+000 -1.000000e+000 -5.000000e+000
      vertex -2.200000e+000 -1.000000e+000  0.000000e+000
    endloop
  endfacet
  facet normal -1.000000e+000  0.000000e+000  0.000000e+000
    outer loop
      vertex  2.200000e+000  6.000000e+000 -5.000000e+000
      vertex  2.200000e+000 -1.000000e+000 -5.000000e+000
      vertex  2.200000e+000  6.000000e+000  0.000000e+000
    endloop
  endfacet
  facet normal -1.000000e+000  -0.000000e+000  0.000000e+000
    outer loop
      vertex  2.200000e+000  6.000000e+000  0.000000e+000
      vertex  2.200000e+000 -1.000000e+000 -5.000000e+000
      vertex  2.200000e+000 -1.000000e+000  0.000000e+000
    endloop
  endfacet
  facet normal  1.305252e-001 -9.914450e-001  0.000000e+000
    outer loop
      vertex -1.502504e-015  8.200000e+000 -5.000000e+000
      vertex -5.694019e-001  8.125037e+000  0.000000e+000
      vertex -5.694019e-001  8.125037e+000 -5.000000e+000
    endloop
  endfacet
  facet normal  3.826841e-001 -9.238792e-001  0.000000e+000
    outer loop
      vertex -5.694019e-001  8.125037e+000 -5.000000e+000
      vertex -5.694019e-001  8.125037e+000  0.000000e+000
      vertex -1.100000e+000  7.905256e+000  0.000000e+000
    endloop
  endfacet
  facet normal  3.826841e-001 -9.238792e-001  0.000000e+000
    outer loop
      vertex -5.694019e-001  8.125037e+000 -5.000000e+000
      vertex -1.100000e+000  7.905256e+000  0.000000e+000
      vertex -1.100000e+000  7.905256e+000 -5.000000e+000
    endloop
  endfacet
  facet normal  6.087612e-001 -7.933535e-001  0.000000e+000
    outer loop
      vertex -1.100000e+000  7.905256e+000 -5.000000e+000
      vertex -1.100000e+000  7.905256e+000  0.000000e+000
      vertex -1.555635e+000  7.555635e+000  0.000000e+000
    endloop
  endfacet
  facet normal  6.087612e-001 -7.933535e-001  0.000000e+000
    outer loop
      vertex -1.100000e+000  7.905256e+000 -5.000000e+000
      vertex -1.555635e+000  7.555635e+000  0.000000e+000
      vertex -1.555635e+000  7.555635e+000 -5.000000e+000
    endloop
  endfacet
  facet normal  7.933534e-001 -6.087613e-001  0.000000e+000
    outer loop
      vertex -1.555635e+000  7.555635e+000 -5.000000e+000
      vertex -1.555635e+000  7.555635e+000  0.000000e+000
      vertex -1.905256e+000  7.100000e+000  0.000000e+000
    endloop
  endfacet
  facet normal  7.933534e-001 -6.087613e-001  0.000000e+000
    outer loop
      vertex -1.555635e+000  7.555635e+000 -5.000000e+000
      vertex -1.905256e+000  7.100000e+000  0.000000e+000
      vertex -1.905256e+000  7.100000e+000 -5.000000e+000
    endloop
  endfacet
  facet normal  9.238796e-001 -3.826832e-001  0.000000e+000
    outer loop
      vertex -1.905256e+000  7.100000e+000 -5.000000e+000
      vertex -1.905256e+000  7.100000e+000  0.000000e+000
      vertex -2.125037e+000  6.569402e+000  0.000000e+000
    endloop
  endfacet
  facet normal  9.238796e-001 -3.826832e-001  0.000000e+000
    outer loop
      vertex -1.905256e+000  7.100000e+000 -5.000000e+000
      vertex -2.125037e+000  6.569402e+000  0.000000e+000
      vertex -2.125037e+000  6.569402e+000 -5.000000e+000
    endloop
  endfacet
  facet normal  9.914448e-001 -1.305265e-001  0.000000e+000
    outer loop
      vertex -2.125037e+000  6.569402e+000 -5.000000e+000
      vertex -2.125037e+000  6.569402e+000  0.000000e+000
      vertex -2.200000e+000  6.000000e+000  0.000000e+000
    endloop
  endfacet
  facet normal  9.914448e-001 -1.305265e-001  0.000000e+000
    outer loop
      vertex -2.125037e+000  6.569402e+000 -5.000000e+000
      vertex -2.200000e+000  6.000000e+000  0.000000e+000
      vertex -2.200000e+000  6.000000e+000 -5.000000e+000
    endloop
  endfacet
  facet normal  1.305252e-001 -9.914450e-001 -5.549171e-017
    outer loop
      vertex -5.694019e-001  8.125037e+000  0.000000e+000
      vertex -1.502504e-015  8.200000e+000 -5.000000e+000
      vertex  6.232048e-016  8.200000e+000  0.000000e+000
    endloop
  endfacet
  facet normal -1.305252e-001 -9.914450e-001  5.549171e-017
    outer loop
      vertex  6.232048e-016  8.200000e+000  0.000000e+000
      vertex -1.502504e-015  8.200000e+000 -5.000000e+000
      vertex  5.694019e-001  8.125037e+000 -5.000000e+000
    endloop
  endfacet
  facet normal -1.305252e-001 -9.914450e-001  0.000000e+000
    outer loop
      vertex  6.232048e-016  8.200000e+000  0.000000e+000
      vertex  5.694019e-001  8.125037e+000 -5.000000e+000
      vertex  5.694019e-001  8.125037e+000  0.000000e+000
    endloop
  endfacet
  facet normal -3.826841e-001 -9.238792e-001  -0.000000e+000
    outer loop
      vertex  5.694019e-001  8.125037e+000  0.000000e+000
      vertex  5.694019e-001  8.125037e+000 -5.000000e+000
      vertex  1.100000e+000  7.905256e+000 -5.000000e+000
    endloop
  endfacet
  facet normal -3.826841e-001 -9.238792e-001  0.000000e+000
    outer loop
      vertex  5.694019e-001  8.125037e+000  0.000000e+000
      vertex  1.100000e+000  7.905256e+000 -5.000000e+000
      vertex  1.100000e+000  7.905256e+000  0.000000e+000
    endloop
  endfacet
  facet normal -6.087612e-001 -7.933535e-001  -0.000000e+000
    outer loop
      vertex  1.100000e+000  7.905256e+000  0.000000e+000
      vertex  1.100000e+000  7.905256e+000 -5.000000e+000
      vertex  1.555635e+000  7.555635e+000 -5.000000e+000
    endloop
  endfacet
  facet normal -6.087612e-001 -7.933535e-001  0.000000e+000
    outer loop
      vertex  1.100000e+000  7.905256e+000  0.000000e+000
      vertex  1.555635e+000  7.555635e+000 -5.000000e+000
      vertex  1.555635e+000  7.555635e+000  0.000000e+000
    endloop
  endfacet
  facet normal -7.933534e-001 -6.087613e-001  -0.000000e+000
    outer loop
      vertex  1.555635e+000  7.555635e+000  0.000000e+000
      vertex  1.555635e+000  7.555635e+000 -5.000000e+000
      vertex  1.905256e+000  7.100000e+000 -5.000000e+000
    endloop
  endfacet
  facet normal -7.933534e-001 -6.087613e-001  0.000000e+000
    outer loop
      vertex  1.555635e+000  7.555635e+000  0.000000e+000
      vertex  1.905256e+000  7.100000e+000 -5.000000e+000
      vertex  1.905256e+000  7.100000e+000  0.000000e+000
    endloop
  endfacet
  facet normal -9.238796e-001 -3.826832e-001  -0.000000e+000
    outer loop
      vertex  1.905256e+000  7.100000e+000  0.000000e+000
      vertex  1.905256e+000  7.100000e+000 -5.000000e+000
      vertex  2.125037e+000  6.569402e+000 -5.000000e+000
    endloop
  endfacet
  facet normal -9.238796e-001 -3.826832e-001  0.000000e+000
    outer loop
      vertex  1.905256e+000  7.100000e+000  0.000000e+000
      vertex  2.125037e+000  6.569402e+000 -5.000000e+000
      vertex  2.125037e+000  6.569402e+000  0.000000e+000
    endloop
  endfacet
  facet normal -9.914448e-001 -1.305265e-001  -0.000000e+000
    outer loop
      vertex  2.125037e+000  6.569402e+000  0.000000e+000
      vertex  2.125037e+000  6.569402e+000 -5.000000e+000
      vertex  2.200000e+000  6.000000e+000 -5.000000e+000
    endloop
  endfacet
  facet normal -9.914448e-001 -1.305265e-001  0.000000e+000
    outer loop
      vertex  2.125037e+000  6.569402e+000  0.000000e+000
      vertex  2.200000e+000  6.000000e+000 -5.000000e+000
      vertex  2.200000e+000  6.000000e+000  0.000000e+000
    endloop
  endfacet
  facet normal  1.000000e+000  0.000000e+000  0.000000e+000
    outer loop
      vertex -2.200000e+000  6.000000e+000 -5.000000e+000
      vertex -2.200000e+000  6.000000e+000  0.000000e+000
      vertex -2.200000e+000 -1.000000e+000 -5.000000e+000
    endloop
  endfacet
  facet normal  1.000000e+000  0.000000e+000  0.000000e+000
    outer loop
      vertex -2.200000e+000 -1.000000e+000 -5.000000e+000
      vertex -2.200000e+000  6.000000e+000  0.000000e+000
      vertex -2.200000e+000 -1.000000e+000  0.000000e+000
    endloop
  endfacet
endsolid CATIA STL
