solid CATIA STL
  facet normal  9.999999e-001  0.000000e+000  0.000000e+000
    outer loop
      vertex  1.200000e+001 -3.013417e-001  5.518228e+000
      vertex  1.200000e+001 -5.000000e+000 -2.000000e+001
      vertex  1.200000e+001 -2.427355e+000 -7.401711e+000
    endloop
  endfacet
  facet normal  1.000000e+000  0.000000e+000  0.000000e+000
    outer loop
      vertex  1.200000e+001 -3.013417e-001  5.518228e+000
      vertex  1.200000e+001 -2.427355e+000 -7.401711e+000
      vertex  1.200000e+001 -2.213640e+000 -6.838192e+000
    endloop
  endfacet
  facet normal  1.000000e+000  0.000000e+000  0.000000e+000
    outer loop
      vertex  1.200000e+001 -3.013417e-001  5.518228e+000
      vertex  1.200000e+001 -2.213640e+000 -6.838192e+000
      vertex  1.200000e+001 -1.871277e+000 -6.342193e+000
    endloop
  endfacet
  facet normal  1.000000e+000  0.000000e+000  0.000000e+000
    outer loop
      vertex  1.200000e+001 -3.013417e-001  5.518228e+000
      vertex  1.200000e+001 -1.871277e+000 -6.342193e+000
      vertex  1.200000e+001 -1.420162e+000 -5.942540e+000
    endloop
  endfacet
  facet normal  1.000000e+000  0.000000e+000  0.000000e+000
    outer loop
      vertex  1.200000e+001 -3.013417e-001  5.518228e+000
      vertex  1.200000e+001 -1.420162e+000 -5.942540e+000
      vertex  1.200000e+001 -8.865122e-001 -5.662459e+000
    endloop
  endfacet
  facet normal  9.999999e-001  0.000000e+000  0.000000e+000
    outer loop
      vertex  1.200000e+001 -3.013417e-001  5.518228e+000
      vertex  1.200000e+001 -8.865122e-001 -5.662459e+000
      vertex  1.200000e+001 -3.013417e-001 -5.518228e+000
    endloop
  endfacet
  facet normal  1.000000e+000  0.000000e+000  0.000000e+000
    outer loop
      vertex  1.200000e+001 -3.013417e-001  5.518228e+000
      vertex  1.200000e+001 -3.013417e-001 -5.518228e+000
      vertex  1.200000e+001  3.013417e-001 -5.518228e+000
    endloop
  endfacet
  facet normal  1.000000e+000  0.000000e+000  -0.000000e+000
    outer loop
      vertex  1.200000e+001 -3.013417e-001  5.518228e+000
      vertex  1.200000e+001  3.013417e-001 -5.518228e+000
      vertex  1.200000e+001  3.013417e-001  5.518228e+000
    endloop
  endfacet
  facet normal  9.999999e-001  -0.000000e+000  0.000000e+000
    outer loop
      vertex  1.200000e+001  3.013417e-001  5.518228e+000
      vertex  1.200000e+001  3.013417e-001 -5.518228e+000
      vertex  1.200000e+001  8.865122e-001 -5.662459e+000
    endloop
  endfacet
  facet normal  1.000000e+000  -0.000000e+000  -0.000000e+000
    outer loop
      vertex  1.200000e+001  3.013417e-001  5.518228e+000
      vertex  1.200000e+001  8.865122e-001 -5.662459e+000
      vertex  1.200000e+001  1.420162e+000 -5.942540e+000
    endloop
  endfacet
  facet normal  1.000000e+000  -0.000000e+000  -0.000000e+000
    outer loop
      vertex  1.200000e+001  3.013417e-001  5.518228e+000
      vertex  1.200000e+001  1.420162e+000 -5.942540e+000
      vertex  1.200000e+001  1.871277e+000 -6.342193e+000
    endloop
  endfacet
  facet normal  1.000000e+000  -0.000000e+000  -0.000000e+000
    outer loop
      vertex  1.200000e+001  3.013417e-001  5.518228e+000
      vertex  1.200000e+001  1.871277e+000 -6.342193e+000
      vertex  1.200000e+001  2.213640e+000 -6.838192e+000
    endloop
  endfacet
  facet normal  1.000000e+000  -0.000000e+000  -0.000000e+000
    outer loop
      vertex  1.200000e+001  3.013417e-001  5.518228e+000
      vertex  1.200000e+001  2.213640e+000 -6.838192e+000
      vertex  1.200000e+001  2.427355e+000 -7.401711e+000
    endloop
  endfacet
  facet normal  1.000000e+000  -0.000000e+000  -0.000000e+000
    outer loop
      vertex  1.200000e+001  3.013417e-001  5.518228e+000
      vertex  1.200000e+001  2.427355e+000 -7.401711e+000
      vertex  1.200000e+001  5.000000e+000 -2.000000e+001
    endloop
  endfacet
  facet normal  9.999999e-001  0.000000e+000  0.000000e+000
    outer loop
      vertex  1.200000e+001 -5.000000e+000 -2.000000e+001
      vertex  1.200000e+001 -3.013417e-001  5.518228e+000
      vertex  1.200000e+001 -8.865122e-001  5.662459e+000
    endloop
  endfacet
  facet normal  9.999999e-001  0.000000e+000  0.000000e+000
    outer loop
      vertex  1.200000e+001 -5.000000e+000 -2.000000e+001
      vertex  1.200000e+001 -8.865122e-001  5.662459e+000
      vertex  1.200000e+001 -1.420162e+000  5.942540e+000
    endloop
  endfacet
  facet normal  1.000000e+000  0.000000e+000  0.000000e+000
    outer loop
      vertex  1.200000e+001 -5.000000e+000 -2.000000e+001
      vertex  1.200000e+001 -1.420162e+000  5.942540e+000
      vertex  1.200000e+001 -1.871277e+000  6.342193e+000
    endloop
  endfacet
  facet normal  1.000000e+000  0.000000e+000  0.000000e+000
    outer loop
      vertex  1.200000e+001 -5.000000e+000 -2.000000e+001
      vertex  1.200000e+001 -1.871277e+000  6.342193e+000
      vertex  1.200000e+001 -2.213640e+000  6.838192e+000
    endloop
  endfacet
  facet normal  1.000000e+000  0.000000e+000  0.000000e+000
    outer loop
      vertex  1.200000e+001 -5.000000e+000 -2.000000e+001
      vertex  1.200000e+001 -2.213640e+000  6.838192e+000
      vertex  1.200000e+001 -2.427355e+000  7.401711e+000
    endloop
  endfacet
  facet normal  9.999999e-001  0.000000e+000  0.000000e+000
    outer loop
      vertex  1.200000e+001 -5.000000e+000 -2.000000e+001
      vertex  1.200000e+001 -2.427355e+000  7.401711e+000
      vertex  1.200000e+001 -2.500000e+000  8.000000e+000
    endloop
  endfacet
  facet normal  1.000000e+000  0.000000e+000  0.000000e+000
    outer loop
      vertex  1.200000e+001 -5.000000e+000 -2.000000e+001
      vertex  1.200000e+001  5.000000e+000 -2.000000e+001
      vertex  1.200000e+001  3.013417e-001 -1.048177e+001
    endloop
  endfacet
  facet normal  1.000000e+000  0.000000e+000  0.000000e+000
    outer loop
      vertex  1.200000e+001 -5.000000e+000 -2.000000e+001
      vertex  1.200000e+001  3.013417e-001 -1.048177e+001
      vertex  1.200000e+001 -3.013417e-001 -1.048177e+001
    endloop
  endfacet
  facet normal  1.000000e+000  0.000000e+000  0.000000e+000
    outer loop
      vertex  1.200000e+001 -5.000000e+000 -2.000000e+001
      vertex  1.200000e+001 -3.013417e-001 -1.048177e+001
      vertex  1.200000e+001 -8.865122e-001 -1.033754e+001
    endloop
  endfacet
  facet normal  1.000000e+000  0.000000e+000  0.000000e+000
    outer loop
      vertex  1.200000e+001 -5.000000e+000 -2.000000e+001
      vertex  1.200000e+001 -8.865122e-001 -1.033754e+001
      vertex  1.200000e+001 -1.420162e+000 -1.005746e+001
    endloop
  endfacet
  facet normal  1.000000e+000  0.000000e+000  0.000000e+000
    outer loop
      vertex  1.200000e+001 -5.000000e+000 -2.000000e+001
      vertex  1.200000e+001 -1.420162e+000 -1.005746e+001
      vertex  1.200000e+001 -1.871277e+000 -9.657806e+000
    endloop
  endfacet
  facet normal  9.999999e-001  0.000000e+000  0.000000e+000
    outer loop
      vertex  1.200000e+001 -5.000000e+000 -2.000000e+001
      vertex  1.200000e+001 -1.871277e+000 -9.657806e+000
      vertex  1.200000e+001 -2.213640e+000 -9.161808e+000
    endloop
  endfacet
  facet normal  1.000000e+000  0.000000e+000  0.000000e+000
    outer loop
      vertex  1.200000e+001 -5.000000e+000 -2.000000e+001
      vertex  1.200000e+001 -2.213640e+000 -9.161808e+000
      vertex  1.200000e+001 -2.427355e+000 -8.598289e+000
    endloop
  endfacet
  facet normal  1.000000e+000  0.000000e+000  0.000000e+000
    outer loop
      vertex  1.200000e+001 -5.000000e+000 -2.000000e+001
      vertex  1.200000e+001 -2.427355e+000 -8.598289e+000
      vertex  1.200000e+001 -2.500000e+000 -8.000000e+000
    endloop
  endfacet
  facet normal  9.999999e-001  0.000000e+000  -0.000000e+000
    outer loop
      vertex  1.200000e+001 -5.000000e+000 -2.000000e+001
      vertex  1.200000e+001 -2.500000e+000 -8.000000e+000
      vertex  1.200000e+001 -2.427355e+000 -7.401711e+000
    endloop
  endfacet
  facet normal  1.000000e+000  0.000000e+000  0.000000e+000
    outer loop
      vertex  1.200000e+001 -5.000000e+000  2.000000e+001
      vertex  1.200000e+001 -5.000000e+000 -2.000000e+001
      vertex  1.200000e+001 -2.500000e+000  8.000000e+000
    endloop
  endfacet
  facet normal  1.000000e+000  0.000000e+000  -0.000000e+000
    outer loop
      vertex  1.200000e+001 -5.000000e+000  2.000000e+001
      vertex  1.200000e+001 -2.500000e+000  8.000000e+000
      vertex  1.200000e+001 -2.427355e+000  8.598289e+000
    endloop
  endfacet
  facet normal  1.000000e+000  0.000000e+000  -0.000000e+000
    outer loop
      vertex  1.200000e+001 -5.000000e+000  2.000000e+001
      vertex  1.200000e+001 -2.427355e+000  8.598289e+000
      vertex  1.200000e+001 -2.213640e+000  9.161808e+000
    endloop
  endfacet
  facet normal  9.999999e-001  0.000000e+000  -0.000000e+000
    outer loop
      vertex  1.200000e+001 -5.000000e+000  2.000000e+001
      vertex  1.200000e+001 -2.213640e+000  9.161808e+000
      vertex  1.200000e+001 -1.871277e+000  9.657806e+000
    endloop
  endfacet
  facet normal  1.000000e+000  0.000000e+000  -0.000000e+000
    outer loop
      vertex  1.200000e+001 -5.000000e+000  2.000000e+001
      vertex  1.200000e+001 -1.871277e+000  9.657806e+000
      vertex  1.200000e+001 -1.420162e+000  1.005746e+001
    endloop
  endfacet
  facet normal  1.000000e+000  0.000000e+000  -0.000000e+000
    outer loop
      vertex  1.200000e+001 -5.000000e+000  2.000000e+001
      vertex  1.200000e+001 -1.420162e+000  1.005746e+001
      vertex  1.200000e+001 -8.865122e-001  1.033754e+001
    endloop
  endfacet
  facet normal  1.000000e+000  0.000000e+000  -0.000000e+000
    outer loop
      vertex  1.200000e+001 -5.000000e+000  2.000000e+001
      vertex  1.200000e+001 -8.865122e-001  1.033754e+001
      vertex  1.200000e+001 -3.013417e-001  1.048177e+001
    endloop
  endfacet
  facet normal  1.000000e+000  0.000000e+000  -0.000000e+000
    outer loop
      vertex  1.200000e+001 -5.000000e+000  2.000000e+001
      vertex  1.200000e+001 -3.013417e-001  1.048177e+001
      vertex  1.200000e+001  3.013417e-001  1.048177e+001
    endloop
  endfacet
  facet normal  1.000000e+000  0.000000e+000  -0.000000e+000
    outer loop
      vertex  1.200000e+001 -5.000000e+000  2.000000e+001
      vertex  1.200000e+001  3.013417e-001  1.048177e+001
      vertex  1.200000e+001  5.000000e+000  2.000000e+001
    endloop
  endfacet
  facet normal  1.000000e+000  0.000000e+000  0.000000e+000
    outer loop
      vertex  1.200000e+001  5.000000e+000 -2.000000e+001
      vertex  1.200000e+001  2.427355e+000 -7.401711e+000
      vertex  1.200000e+001  2.500000e+000 -8.000000e+000
    endloop
  endfacet
  facet normal  1.000000e+000  0.000000e+000  0.000000e+000
    outer loop
      vertex  1.200000e+001  5.000000e+000 -2.000000e+001
      vertex  1.200000e+001  2.500000e+000 -8.000000e+000
      vertex  1.200000e+001  2.427355e+000 -8.598289e+000
    endloop
  endfacet
  facet normal  1.000000e+000  0.000000e+000  0.000000e+000
    outer loop
      vertex  1.200000e+001  5.000000e+000 -2.000000e+001
      vertex  1.200000e+001  2.427355e+000 -8.598289e+000
      vertex  1.200000e+001  2.213640e+000 -9.161808e+000
    endloop
  endfacet
  facet normal  9.999999e-001  0.000000e+000  0.000000e+000
    outer loop
      vertex  1.200000e+001  5.000000e+000 -2.000000e+001
      vertex  1.200000e+001  2.213640e+000 -9.161808e+000
      vertex  1.200000e+001  1.871277e+000 -9.657806e+000
    endloop
  endfacet
  facet normal  1.000000e+000  0.000000e+000  0.000000e+000
    outer loop
      vertex  1.200000e+001  5.000000e+000 -2.000000e+001
      vertex  1.200000e+001  1.871277e+000 -9.657806e+000
      vertex  1.200000e+001  1.420162e+000 -1.005746e+001
    endloop
  endfacet
  facet normal  1.000000e+000  0.000000e+000  0.000000e+000
    outer loop
      vertex  1.200000e+001  5.000000e+000 -2.000000e+001
      vertex  1.200000e+001  1.420162e+000 -1.005746e+001
      vertex  1.200000e+001  8.865122e-001 -1.033754e+001
    endloop
  endfacet
  facet normal  1.000000e+000  0.000000e+000  0.000000e+000
    outer loop
      vertex  1.200000e+001  5.000000e+000 -2.000000e+001
      vertex  1.200000e+001  8.865122e-001 -1.033754e+001
      vertex  1.200000e+001  3.013417e-001 -1.048177e+001
    endloop
  endfacet
  facet normal  9.999999e-001  0.000000e+000  0.000000e+000
    outer loop
      vertex  1.200000e+001  5.000000e+000 -2.000000e+001
      vertex  1.200000e+001  2.500000e+000  8.000000e+000
      vertex  1.200000e+001  2.427355e+000  7.401711e+000
    endloop
  endfacet
  facet normal  1.000000e+000  0.000000e+000  0.000000e+000
    outer loop
      vertex  1.200000e+001  5.000000e+000 -2.000000e+001
      vertex  1.200000e+001  2.427355e+000  7.401711e+000
      vertex  1.200000e+001  2.213640e+000  6.838192e+000
    endloop
  endfacet
  facet normal  1.000000e+000  0.000000e+000  0.000000e+000
    outer loop
      vertex  1.200000e+001  5.000000e+000 -2.000000e+001
      vertex  1.200000e+001  2.213640e+000  6.838192e+000
      vertex  1.200000e+001  1.871277e+000  6.342193e+000
    endloop
  endfacet
  facet normal  1.000000e+000  0.000000e+000  0.000000e+000
    outer loop
      vertex  1.200000e+001  5.000000e+000 -2.000000e+001
      vertex  1.200000e+001  1.871277e+000  6.342193e+000
      vertex  1.200000e+001  1.420162e+000  5.942540e+000
    endloop
  endfacet
  facet normal  1.000000e+000  0.000000e+000  0.000000e+000
    outer loop
      vertex  1.200000e+001  5.000000e+000 -2.000000e+001
      vertex  1.200000e+001  1.420162e+000  5.942540e+000
      vertex  1.200000e+001  8.865122e-001  5.662459e+000
    endloop
  endfacet
  facet normal  1.000000e+000  0.000000e+000  0.000000e+000
    outer loop
      vertex  1.200000e+001  5.000000e+000 -2.000000e+001
      vertex  1.200000e+001  8.865122e-001  5.662459e+000
      vertex  1.200000e+001  3.013417e-001  5.518228e+000
    endloop
  endfacet
  facet normal  1.000000e+000  -0.000000e+000  0.000000e+000
    outer loop
      vertex  1.200000e+001  5.000000e+000  2.000000e+001
      vertex  1.200000e+001  3.013417e-001  1.048177e+001
      vertex  1.200000e+001  8.865122e-001  1.033754e+001
    endloop
  endfacet
  facet normal  1.000000e+000  -0.000000e+000  0.000000e+000
    outer loop
      vertex  1.200000e+001  5.000000e+000  2.000000e+001
      vertex  1.200000e+001  8.865122e-001  1.033754e+001
      vertex  1.200000e+001  1.420162e+000  1.005746e+001
    endloop
  endfacet
  facet normal  1.000000e+000  -0.000000e+000  0.000000e+000
    outer loop
      vertex  1.200000e+001  5.000000e+000  2.000000e+001
      vertex  1.200000e+001  1.420162e+000  1.005746e+001
      vertex  1.200000e+001  1.871277e+000  9.657806e+000
    endloop
  endfacet
  facet normal  9.999999e-001  -0.000000e+000  0.000000e+000
    outer loop
      vertex  1.200000e+001  5.000000e+000  2.000000e+001
      vertex  1.200000e+001  1.871277e+000  9.657806e+000
      vertex  1.200000e+001  2.213640e+000  9.161808e+000
    endloop
  endfacet
  facet normal  1.000000e+000  -0.000000e+000  0.000000e+000
    outer loop
      vertex  1.200000e+001  5.000000e+000  2.000000e+001
      vertex  1.200000e+001  2.213640e+000  9.161808e+000
      vertex  1.200000e+001  2.427355e+000  8.598289e+000
    endloop
  endfacet
  facet normal  1.000000e+000  -0.000000e+000  0.000000e+000
    outer loop
      vertex  1.200000e+001  5.000000e+000  2.000000e+001
      vertex  1.200000e+001  2.427355e+000  8.598289e+000
      vertex  1.200000e+001  2.500000e+000  8.000000e+000
    endloop
  endfacet
  facet normal  1.000000e+000  -0.000000e+000  0.000000e+000
    outer loop
      vertex  1.200000e+001  5.000000e+000  2.000000e+001
      vertex  1.200000e+001  2.500000e+000  8.000000e+000
      vertex  1.200000e+001  5.000000e+000 -2.000000e+001
    endloop
  endfacet
  facet normal -1.000000e+000  -0.000000e+000  -0.000000e+000
    outer loop
      vertex -1.200000e+001 -3.013417e-001  5.518228e+000
      vertex -1.200000e+001  3.013417e-001  5.518228e+000
      vertex -1.200000e+001  3.013417e-001 -5.518228e+000
    endloop
  endfacet
  facet normal -1.000000e+000  0.000000e+000  0.000000e+000
    outer loop
      vertex -1.200000e+001 -3.013417e-001  5.518228e+000
      vertex -1.200000e+001  3.013417e-001 -5.518228e+000
      vertex -1.200000e+001 -3.013417e-001 -5.518228e+000
    endloop
  endfacet
  facet normal -9.999999e-001  -0.000000e+000  0.000000e+000
    outer loop
      vertex -1.200000e+001 -3.013417e-001  5.518228e+000
      vertex -1.200000e+001 -3.013417e-001 -5.518228e+000
      vertex -1.200000e+001 -8.865122e-001 -5.662459e+000
    endloop
  endfacet
  facet normal -1.000000e+000  -0.000000e+000  0.000000e+000
    outer loop
      vertex -1.200000e+001 -3.013417e-001  5.518228e+000
      vertex -1.200000e+001 -8.865122e-001 -5.662459e+000
      vertex -1.200000e+001 -1.420162e+000 -5.942540e+000
    endloop
  endfacet
  facet normal -1.000000e+000  -0.000000e+000  0.000000e+000
    outer loop
      vertex -1.200000e+001 -3.013417e-001  5.518228e+000
      vertex -1.200000e+001 -1.420162e+000 -5.942540e+000
      vertex -1.200000e+001 -1.871277e+000 -6.342193e+000
    endloop
  endfacet
  facet normal -1.000000e+000  -0.000000e+000  0.000000e+000
    outer loop
      vertex -1.200000e+001 -3.013417e-001  5.518228e+000
      vertex -1.200000e+001 -1.871277e+000 -6.342193e+000
      vertex -1.200000e+001 -2.213640e+000 -6.838192e+000
    endloop
  endfacet
  facet normal -1.000000e+000  -0.000000e+000  0.000000e+000
    outer loop
      vertex -1.200000e+001 -3.013417e-001  5.518228e+000
      vertex -1.200000e+001 -2.213640e+000 -6.838192e+000
      vertex -1.200000e+001 -2.427355e+000 -7.401711e+000
    endloop
  endfacet
  facet normal -1.000000e+000  -0.000000e+000  0.000000e+000
    outer loop
      vertex -1.200000e+001 -3.013417e-001  5.518228e+000
      vertex -1.200000e+001 -2.427355e+000 -7.401711e+000
      vertex -1.200000e+001 -5.000000e+000 -2.000000e+001
    endloop
  endfacet
  facet normal -9.999999e-001  0.000000e+000  0.000000e+000
    outer loop
      vertex -1.200000e+001  3.013417e-001  5.518228e+000
      vertex -1.200000e+001  5.000000e+000 -2.000000e+001
      vertex -1.200000e+001  2.427355e+000 -7.401711e+000
    endloop
  endfacet
  facet normal -1.000000e+000  0.000000e+000  0.000000e+000
    outer loop
      vertex -1.200000e+001  3.013417e-001  5.518228e+000
      vertex -1.200000e+001  2.427355e+000 -7.401711e+000
      vertex -1.200000e+001  2.213640e+000 -6.838192e+000
    endloop
  endfacet
  facet normal -1.000000e+000  0.000000e+000  0.000000e+000
    outer loop
      vertex -1.200000e+001  3.013417e-001  5.518228e+000
      vertex -1.200000e+001  2.213640e+000 -6.838192e+000
      vertex -1.200000e+001  1.871277e+000 -6.342193e+000
    endloop
  endfacet
  facet normal -1.000000e+000  0.000000e+000  0.000000e+000
    outer loop
      vertex -1.200000e+001  3.013417e-001  5.518228e+000
      vertex -1.200000e+001  1.871277e+000 -6.342193e+000
      vertex -1.200000e+001  1.420162e+000 -5.942540e+000
    endloop
  endfacet
  facet normal -1.000000e+000  0.000000e+000  0.000000e+000
    outer loop
      vertex -1.200000e+001  3.013417e-001  5.518228e+000
      vertex -1.200000e+001  1.420162e+000 -5.942540e+000
      vertex -1.200000e+001  8.865122e-001 -5.662459e+000
    endloop
  endfacet
  facet normal -9.999999e-001  0.000000e+000  0.000000e+000
    outer loop
      vertex -1.200000e+001  3.013417e-001  5.518228e+000
      vertex -1.200000e+001  8.865122e-001 -5.662459e+000
      vertex -1.200000e+001  3.013417e-001 -5.518228e+000
    endloop
  endfacet
  facet normal -9.999999e-001  0.000000e+000  -0.000000e+000
    outer loop
      vertex -1.200000e+001 -5.000000e+000 -2.000000e+001
      vertex -1.200000e+001 -2.500000e+000  8.000000e+000
      vertex -1.200000e+001 -2.427355e+000  7.401711e+000
    endloop
  endfacet
  facet normal -1.000000e+000  0.000000e+000  -0.000000e+000
    outer loop
      vertex -1.200000e+001 -5.000000e+000 -2.000000e+001
      vertex -1.200000e+001 -2.427355e+000  7.401711e+000
      vertex -1.200000e+001 -2.213640e+000  6.838192e+000
    endloop
  endfacet
  facet normal -1.000000e+000  0.000000e+000  -0.000000e+000
    outer loop
      vertex -1.200000e+001 -5.000000e+000 -2.000000e+001
      vertex -1.200000e+001 -2.213640e+000  6.838192e+000
      vertex -1.200000e+001 -1.871277e+000  6.342193e+000
    endloop
  endfacet
  facet normal -1.000000e+000  0.000000e+000  -0.000000e+000
    outer loop
      vertex -1.200000e+001 -5.000000e+000 -2.000000e+001
      vertex -1.200000e+001 -1.871277e+000  6.342193e+000
      vertex -1.200000e+001 -1.420162e+000  5.942540e+000
    endloop
  endfacet
  facet normal -1.000000e+000  0.000000e+000  -0.000000e+000
    outer loop
      vertex -1.200000e+001 -5.000000e+000 -2.000000e+001
      vertex -1.200000e+001 -1.420162e+000  5.942540e+000
      vertex -1.200000e+001 -8.865122e-001  5.662459e+000
    endloop
  endfacet
  facet normal -1.000000e+000  0.000000e+000  -0.000000e+000
    outer loop
      vertex -1.200000e+001 -5.000000e+000 -2.000000e+001
      vertex -1.200000e+001 -8.865122e-001  5.662459e+000
      vertex -1.200000e+001 -3.013417e-001  5.518228e+000
    endloop
  endfacet
  facet normal -1.000000e+000  0.000000e+000  0.000000e+000
    outer loop
      vertex -1.200000e+001 -5.000000e+000 -2.000000e+001
      vertex -1.200000e+001 -2.427355e+000 -7.401711e+000
      vertex -1.200000e+001 -2.500000e+000 -8.000000e+000
    endloop
  endfacet
  facet normal -1.000000e+000  0.000000e+000  -0.000000e+000
    outer loop
      vertex -1.200000e+001 -5.000000e+000 -2.000000e+001
      vertex -1.200000e+001 -2.500000e+000 -8.000000e+000
      vertex -1.200000e+001 -2.427355e+000 -8.598289e+000
    endloop
  endfacet
  facet normal -1.000000e+000  0.000000e+000  -0.000000e+000
    outer loop
      vertex -1.200000e+001 -5.000000e+000 -2.000000e+001
      vertex -1.200000e+001 -2.427355e+000 -8.598289e+000
      vertex -1.200000e+001 -2.213640e+000 -9.161808e+000
    endloop
  endfacet
  facet normal -9.999999e-001  0.000000e+000  -0.000000e+000
    outer loop
      vertex -1.200000e+001 -5.000000e+000 -2.000000e+001
      vertex -1.200000e+001 -2.213640e+000 -9.161808e+000
      vertex -1.200000e+001 -1.871277e+000 -9.657806e+000
    endloop
  endfacet
  facet normal -1.000000e+000  0.000000e+000  -0.000000e+000
    outer loop
      vertex -1.200000e+001 -5.000000e+000 -2.000000e+001
      vertex -1.200000e+001 -1.871277e+000 -9.657806e+000
      vertex -1.200000e+001 -1.420162e+000 -1.005746e+001
    endloop
  endfacet
  facet normal -1.000000e+000  0.000000e+000  -0.000000e+000
    outer loop
      vertex -1.200000e+001 -5.000000e+000 -2.000000e+001
      vertex -1.200000e+001 -1.420162e+000 -1.005746e+001
      vertex -1.200000e+001 -8.865122e-001 -1.033754e+001
    endloop
  endfacet
  facet normal -1.000000e+000  0.000000e+000  -0.000000e+000
    outer loop
      vertex -1.200000e+001 -5.000000e+000 -2.000000e+001
      vertex -1.200000e+001 -8.865122e-001 -1.033754e+001
      vertex -1.200000e+001 -3.013417e-001 -1.048177e+001
    endloop
  endfacet
  facet normal -1.000000e+000  0.000000e+000  -0.000000e+000
    outer loop
      vertex -1.200000e+001 -5.000000e+000 -2.000000e+001
      vertex -1.200000e+001 -3.013417e-001 -1.048177e+001
      vertex -1.200000e+001  3.013417e-001 -1.048177e+001
    endloop
  endfacet
  facet normal -1.000000e+000  0.000000e+000  -0.000000e+000
    outer loop
      vertex -1.200000e+001 -5.000000e+000 -2.000000e+001
      vertex -1.200000e+001  3.013417e-001 -1.048177e+001
      vertex -1.200000e+001  5.000000e+000 -2.000000e+001
    endloop
  endfacet
  facet normal -1.000000e+000  -0.000000e+000  0.000000e+000
    outer loop
      vertex -1.200000e+001 -5.000000e+000  2.000000e+001
      vertex -1.200000e+001  5.000000e+000  2.000000e+001
      vertex -1.200000e+001  3.013417e-001  1.048177e+001
    endloop
  endfacet
  facet normal -1.000000e+000  0.000000e+000  0.000000e+000
    outer loop
      vertex -1.200000e+001 -5.000000e+000  2.000000e+001
      vertex -1.200000e+001  3.013417e-001  1.048177e+001
      vertex -1.200000e+001 -3.013417e-001  1.048177e+001
    endloop
  endfacet
  facet normal -1.000000e+000  -0.000000e+000  0.000000e+000
    outer loop
      vertex -1.200000e+001 -5.000000e+000  2.000000e+001
      vertex -1.200000e+001 -3.013417e-001  1.048177e+001
      vertex -1.200000e+001 -8.865122e-001  1.033754e+001
    endloop
  endfacet
  facet normal -1.000000e+000  -0.000000e+000  0.000000e+000
    outer loop
      vertex -1.200000e+001 -5.000000e+000  2.000000e+001
      vertex -1.200000e+001 -8.865122e-001  1.033754e+001
      vertex -1.200000e+001 -1.420162e+000  1.005746e+001
    endloop
  endfacet
  facet normal -1.000000e+000  -0.000000e+000  0.000000e+000
    outer loop
      vertex -1.200000e+001 -5.000000e+000  2.000000e+001
      vertex -1.200000e+001 -1.420162e+000  1.005746e+001
      vertex -1.200000e+001 -1.871277e+000  9.657806e+000
    endloop
  endfacet
  facet normal -9.999999e-001  -0.000000e+000  0.000000e+000
    outer loop
      vertex -1.200000e+001 -5.000000e+000  2.000000e+001
      vertex -1.200000e+001 -1.871277e+000  9.657806e+000
      vertex -1.200000e+001 -2.213640e+000  9.161808e+000
    endloop
  endfacet
  facet normal -1.000000e+000  -0.000000e+000  0.000000e+000
    outer loop
      vertex -1.200000e+001 -5.000000e+000  2.000000e+001
      vertex -1.200000e+001 -2.213640e+000  9.161808e+000
      vertex -1.200000e+001 -2.427355e+000  8.598289e+000
    endloop
  endfacet
  facet normal -1.000000e+000  -0.000000e+000  0.000000e+000
    outer loop
      vertex -1.200000e+001 -5.000000e+000  2.000000e+001
      vertex -1.200000e+001 -2.427355e+000  8.598289e+000
      vertex -1.200000e+001 -2.500000e+000  8.000000e+000
    endloop
  endfacet
  facet normal -1.000000e+000  -0.000000e+000  0.000000e+000
    outer loop
      vertex -1.200000e+001 -5.000000e+000  2.000000e+001
      vertex -1.200000e+001 -2.500000e+000  8.000000e+000
      vertex -1.200000e+001 -5.000000e+000 -2.000000e+001
    endloop
  endfacet
  facet normal -1.000000e+000  0.000000e+000  0.000000e+000
    outer loop
      vertex -1.200000e+001  5.000000e+000 -2.000000e+001
      vertex -1.200000e+001  3.013417e-001 -1.048177e+001
      vertex -1.200000e+001  8.865122e-001 -1.033754e+001
    endloop
  endfacet
  facet normal -1.000000e+000  0.000000e+000  0.000000e+000
    outer loop
      vertex -1.200000e+001  5.000000e+000 -2.000000e+001
      vertex -1.200000e+001  8.865122e-001 -1.033754e+001
      vertex -1.200000e+001  1.420162e+000 -1.005746e+001
    endloop
  endfacet
  facet normal -1.000000e+000  0.000000e+000  0.000000e+000
    outer loop
      vertex -1.200000e+001  5.000000e+000 -2.000000e+001
      vertex -1.200000e+001  1.420162e+000 -1.005746e+001
      vertex -1.200000e+001  1.871277e+000 -9.657806e+000
    endloop
  endfacet
  facet normal -9.999999e-001  0.000000e+000  0.000000e+000
    outer loop
      vertex -1.200000e+001  5.000000e+000 -2.000000e+001
      vertex -1.200000e+001  1.871277e+000 -9.657806e+000
      vertex -1.200000e+001  2.213640e+000 -9.161808e+000
    endloop
  endfacet
  facet normal -1.000000e+000  0.000000e+000  0.000000e+000
    outer loop
      vertex -1.200000e+001  5.000000e+000 -2.000000e+001
      vertex -1.200000e+001  2.213640e+000 -9.161808e+000
      vertex -1.200000e+001  2.427355e+000 -8.598289e+000
    endloop
  endfacet
  facet normal -1.000000e+000  0.000000e+000  0.000000e+000
    outer loop
      vertex -1.200000e+001  5.000000e+000 -2.000000e+001
      vertex -1.200000e+001  2.427355e+000 -8.598289e+000
      vertex -1.200000e+001  2.500000e+000 -8.000000e+000
    endloop
  endfacet
  facet normal -9.999999e-001  0.000000e+000  0.000000e+000
    outer loop
      vertex -1.200000e+001  5.000000e+000 -2.000000e+001
      vertex -1.200000e+001  2.500000e+000 -8.000000e+000
      vertex -1.200000e+001  2.427355e+000 -7.401711e+000
    endloop
  endfacet
  facet normal -9.999999e-001  0.000000e+000  0.000000e+000
    outer loop
      vertex -1.200000e+001  5.000000e+000 -2.000000e+001
      vertex -1.200000e+001  3.013417e-001  5.518228e+000
      vertex -1.200000e+001  8.865122e-001  5.662459e+000
    endloop
  endfacet
  facet normal -9.999999e-001  0.000000e+000  0.000000e+000
    outer loop
      vertex -1.200000e+001  5.000000e+000 -2.000000e+001
      vertex -1.200000e+001  8.865122e-001  5.662459e+000
      vertex -1.200000e+001  1.420162e+000  5.942540e+000
    endloop
  endfacet
  facet normal -1.000000e+000  0.000000e+000  0.000000e+000
    outer loop
      vertex -1.200000e+001  5.000000e+000 -2.000000e+001
      vertex -1.200000e+001  1.420162e+000  5.942540e+000
      vertex -1.200000e+001  1.871277e+000  6.342193e+000
    endloop
  endfacet
  facet normal -1.000000e+000  0.000000e+000  0.000000e+000
    outer loop
      vertex -1.200000e+001  5.000000e+000 -2.000000e+001
      vertex -1.200000e+001  1.871277e+000  6.342193e+000
      vertex -1.200000e+001  2.213640e+000  6.838192e+000
    endloop
  endfacet
  facet normal -1.000000e+000  0.000000e+000  0.000000e+000
    outer loop
      vertex -1.200000e+001  5.000000e+000 -2.000000e+001
      vertex -1.200000e+001  2.213640e+000  6.838192e+000
      vertex -1.200000e+001  2.427355e+000  7.401711e+000
    endloop
  endfacet
  facet normal -9.999999e-001  0.000000e+000  0.000000e+000
    outer loop
      vertex -1.200000e+001  5.000000e+000 -2.000000e+001
      vertex -1.200000e+001  2.427355e+000  7.401711e+000
      vertex -1.200000e+001  2.500000e+000  8.000000e+000
    endloop
  endfacet
  facet normal -1.000000e+000  0.000000e+000  0.000000e+000
    outer loop
      vertex -1.200000e+001  5.000000e+000  2.000000e+001
      vertex -1.200000e+001  5.000000e+000 -2.000000e+001
      vertex -1.200000e+001  2.500000e+000  8.000000e+000
    endloop
  endfacet
  facet normal -1.000000e+000  0.000000e+000  0.000000e+000
    outer loop
      vertex -1.200000e+001  5.000000e+000  2.000000e+001
      vertex -1.200000e+001  2.500000e+000  8.000000e+000
      vertex -1.200000e+001  2.427355e+000  8.598289e+000
    endloop
  endfacet
  facet normal -1.000000e+000  0.000000e+000  0.000000e+000
    outer loop
      vertex -1.200000e+001  5.000000e+000  2.000000e+001
      vertex -1.200000e+001  2.427355e+000  8.598289e+000
      vertex -1.200000e+001  2.213640e+000  9.161808e+000
    endloop
  endfacet
  facet normal -9.999999e-001  0.000000e+000  0.000000e+000
    outer loop
      vertex -1.200000e+001  5.000000e+000  2.000000e+001
      vertex -1.200000e+001  2.213640e+000  9.161808e+000
      vertex -1.200000e+001  1.871277e+000  9.657806e+000
    endloop
  endfacet
  facet normal -1.000000e+000  0.000000e+000  0.000000e+000
    outer loop
      vertex -1.200000e+001  5.000000e+000  2.000000e+001
      vertex -1.200000e+001  1.871277e+000  9.657806e+000
      vertex -1.200000e+001  1.420162e+000  1.005746e+001
    endloop
  endfacet
  facet normal -1.000000e+000  0.000000e+000  0.000000e+000
    outer loop
      vertex -1.200000e+001  5.000000e+000  2.000000e+001
      vertex -1.200000e+001  1.420162e+000  1.005746e+001
      vertex -1.200000e+001  8.865122e-001  1.033754e+001
    endloop
  endfacet
  facet normal -1.000000e+000  0.000000e+000  0.000000e+000
    outer loop
      vertex -1.200000e+001  5.000000e+000  2.000000e+001
      vertex -1.200000e+001  8.865122e-001  1.033754e+001
      vertex -1.200000e+001  3.013417e-001  1.048177e+001
    endloop
  endfacet
  facet normal  0.000000e+000  2.393160e-001 -9.709417e-001
    outer loop
      vertex -1.200000e+001 -3.013417e-001 -5.518228e+000
      vertex  1.200000e+001 -8.865122e-001 -5.662459e+000
      vertex -1.200000e+001 -8.865122e-001 -5.662459e+000
    endloop
  endfacet
  facet normal  0.000000e+000  4.647230e-001 -8.854560e-001
    outer loop
      vertex -1.200000e+001 -8.865122e-001 -5.662459e+000
      vertex  1.200000e+001 -8.865122e-001 -5.662459e+000
      vertex  1.200000e+001 -1.420162e+000 -5.942540e+000
    endloop
  endfacet
  facet normal  0.000000e+000  4.647230e-001 -8.854560e-001
    outer loop
      vertex -1.200000e+001 -8.865122e-001 -5.662459e+000
      vertex  1.200000e+001 -1.420162e+000 -5.942540e+000
      vertex -1.200000e+001 -1.420162e+000 -5.942540e+000
    endloop
  endfacet
  facet normal  0.000000e+000  6.631227e-001 -7.485108e-001
    outer loop
      vertex -1.200000e+001 -1.420162e+000 -5.942540e+000
      vertex  1.200000e+001 -1.420162e+000 -5.942540e+000
      vertex  1.200000e+001 -1.871277e+000 -6.342193e+000
    endloop
  endfacet
  facet normal  0.000000e+000  6.631227e-001 -7.485108e-001
    outer loop
      vertex -1.200000e+001 -1.420162e+000 -5.942540e+000
      vertex  1.200000e+001 -1.871277e+000 -6.342193e+000
      vertex -1.200000e+001 -1.871277e+000 -6.342193e+000
    endloop
  endfacet
  facet normal  0.000000e+000  8.229840e-001 -5.680646e-001
    outer loop
      vertex -1.200000e+001 -1.871277e+000 -6.342193e+000
      vertex  1.200000e+001 -1.871277e+000 -6.342193e+000
      vertex  1.200000e+001 -2.213640e+000 -6.838192e+000
    endloop
  endfacet
  facet normal  0.000000e+000  8.229840e-001 -5.680646e-001
    outer loop
      vertex -1.200000e+001 -1.871277e+000 -6.342193e+000
      vertex  1.200000e+001 -2.213640e+000 -6.838192e+000
      vertex -1.200000e+001 -2.213640e+000 -6.838192e+000
    endloop
  endfacet
  facet normal  0.000000e+000  9.350162e-001 -3.546049e-001
    outer loop
      vertex -1.200000e+001 -2.213640e+000 -6.838192e+000
      vertex  1.200000e+001 -2.213640e+000 -6.838192e+000
      vertex  1.200000e+001 -2.427355e+000 -7.401711e+000
    endloop
  endfacet
  facet normal  0.000000e+000  9.350162e-001 -3.546049e-001
    outer loop
      vertex -1.200000e+001 -2.213640e+000 -6.838192e+000
      vertex  1.200000e+001 -2.427355e+000 -7.401711e+000
      vertex -1.200000e+001 -2.427355e+000 -7.401711e+000
    endloop
  endfacet
  facet normal  0.000000e+000  9.927089e-001 -1.205367e-001
    outer loop
      vertex -1.200000e+001 -2.427355e+000 -7.401711e+000
      vertex  1.200000e+001 -2.427355e+000 -7.401711e+000
      vertex  1.200000e+001 -2.500000e+000 -8.000000e+000
    endloop
  endfacet
  facet normal  0.000000e+000  9.927089e-001 -1.205367e-001
    outer loop
      vertex -1.200000e+001 -2.427355e+000 -7.401711e+000
      vertex  1.200000e+001 -2.500000e+000 -8.000000e+000
      vertex -1.200000e+001 -2.500000e+000 -8.000000e+000
    endloop
  endfacet
  facet normal  0.000000e+000  2.393160e-001 -9.709417e-001
    outer loop
      vertex  1.200000e+001 -8.865122e-001 -5.662459e+000
      vertex -1.200000e+001 -3.013417e-001 -5.518228e+000
      vertex  1.200000e+001 -3.013417e-001 -5.518228e+000
    endloop
  endfacet
  facet normal  0.000000e+000  0.000000e+000 -1.000000e+000
    outer loop
      vertex  1.200000e+001 -3.013417e-001 -5.518228e+000
      vertex -1.200000e+001 -3.013417e-001 -5.518228e+000
      vertex -1.200000e+001  3.013417e-001 -5.518228e+000
    endloop
  endfacet
  facet normal  0.000000e+000  0.000000e+000 -1.000000e+000
    outer loop
      vertex  1.200000e+001 -3.013417e-001 -5.518228e+000
      vertex -1.200000e+001  3.013417e-001 -5.518228e+000
      vertex  1.200000e+001  3.013417e-001 -5.518228e+000
    endloop
  endfacet
  facet normal  -0.000000e+000 -2.393160e-001 -9.709417e-001
    outer loop
      vertex  1.200000e+001  3.013417e-001 -5.518228e+000
      vertex -1.200000e+001  3.013417e-001 -5.518228e+000
      vertex -1.200000e+001  8.865122e-001 -5.662459e+000
    endloop
  endfacet
  facet normal  0.000000e+000 -2.393160e-001 -9.709417e-001
    outer loop
      vertex  1.200000e+001  3.013417e-001 -5.518228e+000
      vertex -1.200000e+001  8.865122e-001 -5.662459e+000
      vertex  1.200000e+001  8.865122e-001 -5.662459e+000
    endloop
  endfacet
  facet normal  -0.000000e+000 -4.647230e-001 -8.854560e-001
    outer loop
      vertex  1.200000e+001  8.865122e-001 -5.662459e+000
      vertex -1.200000e+001  8.865122e-001 -5.662459e+000
      vertex -1.200000e+001  1.420162e+000 -5.942540e+000
    endloop
  endfacet
  facet normal  0.000000e+000 -4.647230e-001 -8.854560e-001
    outer loop
      vertex  1.200000e+001  8.865122e-001 -5.662459e+000
      vertex -1.200000e+001  1.420162e+000 -5.942540e+000
      vertex  1.200000e+001  1.420162e+000 -5.942540e+000
    endloop
  endfacet
  facet normal  -0.000000e+000 -6.631227e-001 -7.485108e-001
    outer loop
      vertex  1.200000e+001  1.420162e+000 -5.942540e+000
      vertex -1.200000e+001  1.420162e+000 -5.942540e+000
      vertex -1.200000e+001  1.871277e+000 -6.342193e+000
    endloop
  endfacet
  facet normal  0.000000e+000 -6.631227e-001 -7.485108e-001
    outer loop
      vertex  1.200000e+001  1.420162e+000 -5.942540e+000
      vertex -1.200000e+001  1.871277e+000 -6.342193e+000
      vertex  1.200000e+001  1.871277e+000 -6.342193e+000
    endloop
  endfacet
  facet normal  -0.000000e+000 -8.229840e-001 -5.680646e-001
    outer loop
      vertex  1.200000e+001  1.871277e+000 -6.342193e+000
      vertex -1.200000e+001  1.871277e+000 -6.342193e+000
      vertex -1.200000e+001  2.213640e+000 -6.838192e+000
    endloop
  endfacet
  facet normal  0.000000e+000 -8.229840e-001 -5.680646e-001
    outer loop
      vertex  1.200000e+001  1.871277e+000 -6.342193e+000
      vertex -1.200000e+001  2.213640e+000 -6.838192e+000
      vertex  1.200000e+001  2.213640e+000 -6.838192e+000
    endloop
  endfacet
  facet normal  -0.000000e+000 -9.350162e-001 -3.546049e-001
    outer loop
      vertex  1.200000e+001  2.213640e+000 -6.838192e+000
      vertex -1.200000e+001  2.213640e+000 -6.838192e+000
      vertex -1.200000e+001  2.427355e+000 -7.401711e+000
    endloop
  endfacet
  facet normal  0.000000e+000 -9.350162e-001 -3.546049e-001
    outer loop
      vertex  1.200000e+001  2.213640e+000 -6.838192e+000
      vertex -1.200000e+001  2.427355e+000 -7.401711e+000
      vertex  1.200000e+001  2.427355e+000 -7.401711e+000
    endloop
  endfacet
  facet normal  -0.000000e+000 -9.927089e-001 -1.205367e-001
    outer loop
      vertex  1.200000e+001  2.427355e+000 -7.401711e+000
      vertex -1.200000e+001  2.427355e+000 -7.401711e+000
      vertex -1.200000e+001  2.500000e+000 -8.000000e+000
    endloop
  endfacet
  facet normal  0.000000e+000 -9.927089e-001 -1.205367e-001
    outer loop
      vertex  1.200000e+001  2.427355e+000 -7.401711e+000
      vertex -1.200000e+001  2.500000e+000 -8.000000e+000
      vertex  1.200000e+001  2.500000e+000 -8.000000e+000
    endloop
  endfacet
  facet normal  0.000000e+000 -2.393160e-001  9.709417e-001
    outer loop
      vertex -1.200000e+001  3.013417e-001 -1.048177e+001
      vertex  1.200000e+001  8.865122e-001 -1.033754e+001
      vertex -1.200000e+001  8.865122e-001 -1.033754e+001
    endloop
  endfacet
  facet normal  0.000000e+000 -4.647230e-001  8.854560e-001
    outer loop
      vertex -1.200000e+001  8.865122e-001 -1.033754e+001
      vertex  1.200000e+001  8.865122e-001 -1.033754e+001
      vertex  1.200000e+001  1.420162e+000 -1.005746e+001
    endloop
  endfacet
  facet normal  0.000000e+000 -4.647230e-001  8.854560e-001
    outer loop
      vertex -1.200000e+001  8.865122e-001 -1.033754e+001
      vertex  1.200000e+001  1.420162e+000 -1.005746e+001
      vertex -1.200000e+001  1.420162e+000 -1.005746e+001
    endloop
  endfacet
  facet normal  0.000000e+000 -6.631230e-001  7.485104e-001
    outer loop
      vertex -1.200000e+001  1.420162e+000 -1.005746e+001
      vertex  1.200000e+001  1.420162e+000 -1.005746e+001
      vertex  1.200000e+001  1.871277e+000 -9.657806e+000
    endloop
  endfacet
  facet normal  0.000000e+000 -6.631230e-001  7.485104e-001
    outer loop
      vertex -1.200000e+001  1.420162e+000 -1.005746e+001
      vertex  1.200000e+001  1.871277e+000 -9.657806e+000
      vertex -1.200000e+001  1.871277e+000 -9.657806e+000
    endloop
  endfacet
  facet normal  0.000000e+000 -8.229837e-001  5.680649e-001
    outer loop
      vertex -1.200000e+001  1.871277e+000 -9.657806e+000
      vertex  1.200000e+001  1.871277e+000 -9.657806e+000
      vertex  1.200000e+001  2.213640e+000 -9.161808e+000
    endloop
  endfacet
  facet normal  0.000000e+000 -8.229837e-001  5.680649e-001
    outer loop
      vertex -1.200000e+001  1.871277e+000 -9.657806e+000
      vertex  1.200000e+001  2.213640e+000 -9.161808e+000
      vertex -1.200000e+001  2.213640e+000 -9.161808e+000
    endloop
  endfacet
  facet normal  0.000000e+000 -9.350162e-001  3.546052e-001
    outer loop
      vertex -1.200000e+001  2.213640e+000 -9.161808e+000
      vertex  1.200000e+001  2.213640e+000 -9.161808e+000
      vertex  1.200000e+001  2.427355e+000 -8.598289e+000
    endloop
  endfacet
  facet normal  0.000000e+000 -9.350162e-001  3.546052e-001
    outer loop
      vertex -1.200000e+001  2.213640e+000 -9.161808e+000
      vertex  1.200000e+001  2.427355e+000 -8.598289e+000
      vertex -1.200000e+001  2.427355e+000 -8.598289e+000
    endloop
  endfacet
  facet normal  0.000000e+000 -9.927089e-001  1.205366e-001
    outer loop
      vertex -1.200000e+001  2.427355e+000 -8.598289e+000
      vertex  1.200000e+001  2.427355e+000 -8.598289e+000
      vertex  1.200000e+001  2.500000e+000 -8.000000e+000
    endloop
  endfacet
  facet normal  0.000000e+000 -9.927089e-001  1.205366e-001
    outer loop
      vertex -1.200000e+001  2.427355e+000 -8.598289e+000
      vertex  1.200000e+001  2.500000e+000 -8.000000e+000
      vertex -1.200000e+001  2.500000e+000 -8.000000e+000
    endloop
  endfacet
  facet normal  0.000000e+000 -2.393160e-001  9.709417e-001
    outer loop
      vertex  1.200000e+001  8.865122e-001 -1.033754e+001
      vertex -1.200000e+001  3.013417e-001 -1.048177e+001
      vertex  1.200000e+001  3.013417e-001 -1.048177e+001
    endloop
  endfacet
  facet normal  0.000000e+000  0.000000e+000  1.000000e+000
    outer loop
      vertex  1.200000e+001  3.013417e-001 -1.048177e+001
      vertex -1.200000e+001  3.013417e-001 -1.048177e+001
      vertex -1.200000e+001 -3.013417e-001 -1.048177e+001
    endloop
  endfacet
  facet normal  0.000000e+000  0.000000e+000  1.000000e+000
    outer loop
      vertex  1.200000e+001  3.013417e-001 -1.048177e+001
      vertex -1.200000e+001 -3.013417e-001 -1.048177e+001
      vertex  1.200000e+001 -3.013417e-001 -1.048177e+001
    endloop
  endfacet
  facet normal  0.000000e+000  2.393160e-001  9.709417e-001
    outer loop
      vertex  1.200000e+001 -3.013417e-001 -1.048177e+001
      vertex -1.200000e+001 -3.013417e-001 -1.048177e+001
      vertex -1.200000e+001 -8.865122e-001 -1.033754e+001
    endloop
  endfacet
  facet normal  -0.000000e+000  2.393160e-001  9.709417e-001
    outer loop
      vertex  1.200000e+001 -3.013417e-001 -1.048177e+001
      vertex -1.200000e+001 -8.865122e-001 -1.033754e+001
      vertex  1.200000e+001 -8.865122e-001 -1.033754e+001
    endloop
  endfacet
  facet normal  0.000000e+000  4.647230e-001  8.854560e-001
    outer loop
      vertex  1.200000e+001 -8.865122e-001 -1.033754e+001
      vertex -1.200000e+001 -8.865122e-001 -1.033754e+001
      vertex -1.200000e+001 -1.420162e+000 -1.005746e+001
    endloop
  endfacet
  facet normal  -0.000000e+000  4.647230e-001  8.854560e-001
    outer loop
      vertex  1.200000e+001 -8.865122e-001 -1.033754e+001
      vertex -1.200000e+001 -1.420162e+000 -1.005746e+001
      vertex  1.200000e+001 -1.420162e+000 -1.005746e+001
    endloop
  endfacet
  facet normal  0.000000e+000  6.631230e-001  7.485104e-001
    outer loop
      vertex  1.200000e+001 -1.420162e+000 -1.005746e+001
      vertex -1.200000e+001 -1.420162e+000 -1.005746e+001
      vertex -1.200000e+001 -1.871277e+000 -9.657806e+000
    endloop
  endfacet
  facet normal  -0.000000e+000  6.631230e-001  7.485104e-001
    outer loop
      vertex  1.200000e+001 -1.420162e+000 -1.005746e+001
      vertex -1.200000e+001 -1.871277e+000 -9.657806e+000
      vertex  1.200000e+001 -1.871277e+000 -9.657806e+000
    endloop
  endfacet
  facet normal  0.000000e+000  8.229837e-001  5.680649e-001
    outer loop
      vertex  1.200000e+001 -1.871277e+000 -9.657806e+000
      vertex -1.200000e+001 -1.871277e+000 -9.657806e+000
      vertex -1.200000e+001 -2.213640e+000 -9.161808e+000
    endloop
  endfacet
  facet normal  -0.000000e+000  8.229837e-001  5.680649e-001
    outer loop
      vertex  1.200000e+001 -1.871277e+000 -9.657806e+000
      vertex -1.200000e+001 -2.213640e+000 -9.161808e+000
      vertex  1.200000e+001 -2.213640e+000 -9.161808e+000
    endloop
  endfacet
  facet normal  0.000000e+000  9.350162e-001  3.546052e-001
    outer loop
      vertex  1.200000e+001 -2.213640e+000 -9.161808e+000
      vertex -1.200000e+001 -2.213640e+000 -9.161808e+000
      vertex -1.200000e+001 -2.427355e+000 -8.598289e+000
    endloop
  endfacet
  facet normal  -0.000000e+000  9.350162e-001  3.546052e-001
    outer loop
      vertex  1.200000e+001 -2.213640e+000 -9.161808e+000
      vertex -1.200000e+001 -2.427355e+000 -8.598289e+000
      vertex  1.200000e+001 -2.427355e+000 -8.598289e+000
    endloop
  endfacet
  facet normal  0.000000e+000  9.927089e-001  1.205366e-001
    outer loop
      vertex  1.200000e+001 -2.427355e+000 -8.598289e+000
      vertex -1.200000e+001 -2.427355e+000 -8.598289e+000
      vertex -1.200000e+001 -2.500000e+000 -8.000000e+000
    endloop
  endfacet
  facet normal  -0.000000e+000  9.927089e-001  1.205366e-001
    outer loop
      vertex  1.200000e+001 -2.427355e+000 -8.598289e+000
      vertex -1.200000e+001 -2.500000e+000 -8.000000e+000
      vertex  1.200000e+001 -2.500000e+000 -8.000000e+000
    endloop
  endfacet
  facet normal  0.000000e+000  2.393160e-001 -9.709417e-001
    outer loop
      vertex -1.200000e+001 -3.013417e-001  1.048177e+001
      vertex  1.200000e+001 -8.865122e-001  1.033754e+001
      vertex -1.200000e+001 -8.865122e-001  1.033754e+001
    endloop
  endfacet
  facet normal  0.000000e+000  4.647230e-001 -8.854560e-001
    outer loop
      vertex -1.200000e+001 -8.865122e-001  1.033754e+001
      vertex  1.200000e+001 -8.865122e-001  1.033754e+001
      vertex  1.200000e+001 -1.420162e+000  1.005746e+001
    endloop
  endfacet
  facet normal  0.000000e+000  4.647230e-001 -8.854560e-001
    outer loop
      vertex -1.200000e+001 -8.865122e-001  1.033754e+001
      vertex  1.200000e+001 -1.420162e+000  1.005746e+001
      vertex -1.200000e+001 -1.420162e+000  1.005746e+001
    endloop
  endfacet
  facet normal  0.000000e+000  6.631230e-001 -7.485104e-001
    outer loop
      vertex -1.200000e+001 -1.420162e+000  1.005746e+001
      vertex  1.200000e+001 -1.420162e+000  1.005746e+001
      vertex  1.200000e+001 -1.871277e+000  9.657806e+000
    endloop
  endfacet
  facet normal  0.000000e+000  6.631230e-001 -7.485104e-001
    outer loop
      vertex -1.200000e+001 -1.420162e+000  1.005746e+001
      vertex  1.200000e+001 -1.871277e+000  9.657806e+000
      vertex -1.200000e+001 -1.871277e+000  9.657806e+000
    endloop
  endfacet
  facet normal  0.000000e+000  8.229837e-001 -5.680649e-001
    outer loop
      vertex -1.200000e+001 -1.871277e+000  9.657806e+000
      vertex  1.200000e+001 -1.871277e+000  9.657806e+000
      vertex  1.200000e+001 -2.213640e+000  9.161808e+000
    endloop
  endfacet
  facet normal  0.000000e+000  8.229837e-001 -5.680649e-001
    outer loop
      vertex -1.200000e+001 -1.871277e+000  9.657806e+000
      vertex  1.200000e+001 -2.213640e+000  9.161808e+000
      vertex -1.200000e+001 -2.213640e+000  9.161808e+000
    endloop
  endfacet
  facet normal  0.000000e+000  9.350162e-001 -3.546052e-001
    outer loop
      vertex -1.200000e+001 -2.213640e+000  9.161808e+000
      vertex  1.200000e+001 -2.213640e+000  9.161808e+000
      vertex  1.200000e+001 -2.427355e+000  8.598289e+000
    endloop
  endfacet
  facet normal  0.000000e+000  9.350162e-001 -3.546052e-001
    outer loop
      vertex -1.200000e+001 -2.213640e+000  9.161808e+000
      vertex  1.200000e+001 -2.427355e+000  8.598289e+000
      vertex -1.200000e+001 -2.427355e+000  8.598289e+000
    endloop
  endfacet
  facet normal  0.000000e+000  9.927089e-001 -1.205366e-001
    outer loop
      vertex -1.200000e+001 -2.427355e+000  8.598289e+000
      vertex  1.200000e+001 -2.427355e+000  8.598289e+000
      vertex  1.200000e+001 -2.500000e+000  8.000000e+000
    endloop
  endfacet
  facet normal  0.000000e+000  9.927089e-001 -1.205366e-001
    outer loop
      vertex -1.200000e+001 -2.427355e+000  8.598289e+000
      vertex  1.200000e+001 -2.500000e+000  8.000000e+000
      vertex -1.200000e+001 -2.500000e+000  8.000000e+000
    endloop
  endfacet
  facet normal  0.000000e+000  2.393160e-001 -9.709417e-001
    outer loop
      vertex  1.200000e+001 -8.865122e-001  1.033754e+001
      vertex -1.200000e+001 -3.013417e-001  1.048177e+001
      vertex  1.200000e+001 -3.013417e-001  1.048177e+001
    endloop
  endfacet
  facet normal  0.000000e+000  0.000000e+000 -1.000000e+000
    outer loop
      vertex  1.200000e+001 -3.013417e-001  1.048177e+001
      vertex -1.200000e+001 -3.013417e-001  1.048177e+001
      vertex -1.200000e+001  3.013417e-001  1.048177e+001
    endloop
  endfacet
  facet normal  0.000000e+000  0.000000e+000 -1.000000e+000
    outer loop
      vertex  1.200000e+001 -3.013417e-001  1.048177e+001
      vertex -1.200000e+001  3.013417e-001  1.048177e+001
      vertex  1.200000e+001  3.013417e-001  1.048177e+001
    endloop
  endfacet
  facet normal  -0.000000e+000 -2.393160e-001 -9.709417e-001
    outer loop
      vertex  1.200000e+001  3.013417e-001  1.048177e+001
      vertex -1.200000e+001  3.013417e-001  1.048177e+001
      vertex -1.200000e+001  8.865122e-001  1.033754e+001
    endloop
  endfacet
  facet normal  0.000000e+000 -2.393160e-001 -9.709417e-001
    outer loop
      vertex  1.200000e+001  3.013417e-001  1.048177e+001
      vertex -1.200000e+001  8.865122e-001  1.033754e+001
      vertex  1.200000e+001  8.865122e-001  1.033754e+001
    endloop
  endfacet
  facet normal  -0.000000e+000 -4.647230e-001 -8.854560e-001
    outer loop
      vertex  1.200000e+001  8.865122e-001  1.033754e+001
      vertex -1.200000e+001  8.865122e-001  1.033754e+001
      vertex -1.200000e+001  1.420162e+000  1.005746e+001
    endloop
  endfacet
  facet normal  0.000000e+000 -4.647230e-001 -8.854560e-001
    outer loop
      vertex  1.200000e+001  8.865122e-001  1.033754e+001
      vertex -1.200000e+001  1.420162e+000  1.005746e+001
      vertex  1.200000e+001  1.420162e+000  1.005746e+001
    endloop
  endfacet
  facet normal  -0.000000e+000 -6.631230e-001 -7.485104e-001
    outer loop
      vertex  1.200000e+001  1.420162e+000  1.005746e+001
      vertex -1.200000e+001  1.420162e+000  1.005746e+001
      vertex -1.200000e+001  1.871277e+000  9.657806e+000
    endloop
  endfacet
  facet normal  0.000000e+000 -6.631230e-001 -7.485104e-001
    outer loop
      vertex  1.200000e+001  1.420162e+000  1.005746e+001
      vertex -1.200000e+001  1.871277e+000  9.657806e+000
      vertex  1.200000e+001  1.871277e+000  9.657806e+000
    endloop
  endfacet
  facet normal  -0.000000e+000 -8.229837e-001 -5.680649e-001
    outer loop
      vertex  1.200000e+001  1.871277e+000  9.657806e+000
      vertex -1.200000e+001  1.871277e+000  9.657806e+000
      vertex -1.200000e+001  2.213640e+000  9.161808e+000
    endloop
  endfacet
  facet normal  0.000000e+000 -8.229837e-001 -5.680649e-001
    outer loop
      vertex  1.200000e+001  1.871277e+000  9.657806e+000
      vertex -1.200000e+001  2.213640e+000  9.161808e+000
      vertex  1.200000e+001  2.213640e+000  9.161808e+000
    endloop
  endfacet
  facet normal  -0.000000e+000 -9.350162e-001 -3.546052e-001
    outer loop
      vertex  1.200000e+001  2.213640e+000  9.161808e+000
      vertex -1.200000e+001  2.213640e+000  9.161808e+000
      vertex -1.200000e+001  2.427355e+000  8.598289e+000
    endloop
  endfacet
  facet normal  0.000000e+000 -9.350162e-001 -3.546052e-001
    outer loop
      vertex  1.200000e+001  2.213640e+000  9.161808e+000
      vertex -1.200000e+001  2.427355e+000  8.598289e+000
      vertex  1.200000e+001  2.427355e+000  8.598289e+000
    endloop
  endfacet
  facet normal  -0.000000e+000 -9.927089e-001 -1.205366e-001
    outer loop
      vertex  1.200000e+001  2.427355e+000  8.598289e+000
      vertex -1.200000e+001  2.427355e+000  8.598289e+000
      vertex -1.200000e+001  2.500000e+000  8.000000e+000
    endloop
  endfacet
  facet normal  0.000000e+000 -9.927089e-001 -1.205366e-001
    outer loop
      vertex  1.200000e+001  2.427355e+000  8.598289e+000
      vertex -1.200000e+001  2.500000e+000  8.000000e+000
      vertex  1.200000e+001  2.500000e+000  8.000000e+000
    endloop
  endfacet
  facet normal  0.000000e+000 -2.393160e-001  9.709417e-001
    outer loop
      vertex -1.200000e+001  3.013417e-001  5.518228e+000
      vertex  1.200000e+001  8.865122e-001  5.662459e+000
      vertex -1.200000e+001  8.865122e-001  5.662459e+000
    endloop
  endfacet
  facet normal  0.000000e+000 -4.647230e-001  8.854560e-001
    outer loop
      vertex -1.200000e+001  8.865122e-001  5.662459e+000
      vertex  1.200000e+001  8.865122e-001  5.662459e+000
      vertex  1.200000e+001  1.420162e+000  5.942540e+000
    endloop
  endfacet
  facet normal  0.000000e+000 -4.647230e-001  8.854560e-001
    outer loop
      vertex -1.200000e+001  8.865122e-001  5.662459e+000
      vertex  1.200000e+001  1.420162e+000  5.942540e+000
      vertex -1.200000e+001  1.420162e+000  5.942540e+000
    endloop
  endfacet
  facet normal  0.000000e+000 -6.631227e-001  7.485108e-001
    outer loop
      vertex -1.200000e+001  1.420162e+000  5.942540e+000
      vertex  1.200000e+001  1.420162e+000  5.942540e+000
      vertex  1.200000e+001  1.871277e+000  6.342193e+000
    endloop
  endfacet
  facet normal  0.000000e+000 -6.631227e-001  7.485108e-001
    outer loop
      vertex -1.200000e+001  1.420162e+000  5.942540e+000
      vertex  1.200000e+001  1.871277e+000  6.342193e+000
      vertex -1.200000e+001  1.871277e+000  6.342193e+000
    endloop
  endfacet
  facet normal  0.000000e+000 -8.229840e-001  5.680646e-001
    outer loop
      vertex -1.200000e+001  1.871277e+000  6.342193e+000
      vertex  1.200000e+001  1.871277e+000  6.342193e+000
      vertex  1.200000e+001  2.213640e+000  6.838192e+000
    endloop
  endfacet
  facet normal  0.000000e+000 -8.229840e-001  5.680646e-001
    outer loop
      vertex -1.200000e+001  1.871277e+000  6.342193e+000
      vertex  1.200000e+001  2.213640e+000  6.838192e+000
      vertex -1.200000e+001  2.213640e+000  6.838192e+000
    endloop
  endfacet
  facet normal  0.000000e+000 -9.350162e-001  3.546049e-001
    outer loop
      vertex -1.200000e+001  2.213640e+000  6.838192e+000
      vertex  1.200000e+001  2.213640e+000  6.838192e+000
      vertex  1.200000e+001  2.427355e+000  7.401711e+000
    endloop
  endfacet
  facet normal  0.000000e+000 -9.350162e-001  3.546049e-001
    outer loop
      vertex -1.200000e+001  2.213640e+000  6.838192e+000
      vertex  1.200000e+001  2.427355e+000  7.401711e+000
      vertex -1.200000e+001  2.427355e+000  7.401711e+000
    endloop
  endfacet
  facet normal  0.000000e+000 -9.927089e-001  1.205367e-001
    outer loop
      vertex -1.200000e+001  2.427355e+000  7.401711e+000
      vertex  1.200000e+001  2.427355e+000  7.401711e+000
      vertex  1.200000e+001  2.500000e+000  8.000000e+000
    endloop
  endfacet
  facet normal  0.000000e+000 -9.927089e-001  1.205367e-001
    outer loop
      vertex -1.200000e+001  2.427355e+000  7.401711e+000
      vertex  1.200000e+001  2.500000e+000  8.000000e+000
      vertex -1.200000e+001  2.500000e+000  8.000000e+000
    endloop
  endfacet
  facet normal  0.000000e+000 -2.393160e-001  9.709417e-001
    outer loop
      vertex  1.200000e+001  8.865122e-001  5.662459e+000
      vertex -1.200000e+001  3.013417e-001  5.518228e+000
      vertex  1.200000e+001  3.013417e-001  5.518228e+000
    endloop
  endfacet
  facet normal  0.000000e+000  0.000000e+000  1.000000e+000
    outer loop
      vertex  1.200000e+001  3.013417e-001  5.518228e+000
      vertex -1.200000e+001  3.013417e-001  5.518228e+000
      vertex -1.200000e+001 -3.013417e-001  5.518228e+000
    endloop
  endfacet
  facet normal  0.000000e+000  0.000000e+000  1.000000e+000
    outer loop
      vertex  1.200000e+001  3.013417e-001  5.518228e+000
      vertex -1.200000e+001 -3.013417e-001  5.518228e+000
      vertex  1.200000e+001 -3.013417e-001  5.518228e+000
    endloop
  endfacet
  facet normal  0.000000e+000  2.393160e-001  9.709417e-001
    outer loop
      vertex  1.200000e+001 -3.013417e-001  5.518228e+000
      vertex -1.200000e+001 -3.013417e-001  5.518228e+000
      vertex -1.200000e+001 -8.865122e-001  5.662459e+000
    endloop
  endfacet
  facet normal  -0.000000e+000  2.393160e-001  9.709417e-001
    outer loop
      vertex  1.200000e+001 -3.013417e-001  5.518228e+000
      vertex -1.200000e+001 -8.865122e-001  5.662459e+000
      vertex  1.200000e+001 -8.865122e-001  5.662459e+000
    endloop
  endfacet
  facet normal  0.000000e+000  4.647230e-001  8.854560e-001
    outer loop
      vertex  1.200000e+001 -8.865122e-001  5.662459e+000
      vertex -1.200000e+001 -8.865122e-001  5.662459e+000
      vertex -1.200000e+001 -1.420162e+000  5.942540e+000
    endloop
  endfacet
  facet normal  -0.000000e+000  4.647230e-001  8.854560e-001
    outer loop
      vertex  1.200000e+001 -8.865122e-001  5.662459e+000
      vertex -1.200000e+001 -1.420162e+000  5.942540e+000
      vertex  1.200000e+001 -1.420162e+000  5.942540e+000
    endloop
  endfacet
  facet normal  0.000000e+000  6.631227e-001  7.485108e-001
    outer loop
      vertex  1.200000e+001 -1.420162e+000  5.942540e+000
      vertex -1.200000e+001 -1.420162e+000  5.942540e+000
      vertex -1.200000e+001 -1.871277e+000  6.342193e+000
    endloop
  endfacet
  facet normal  -0.000000e+000  6.631227e-001  7.485108e-001
    outer loop
      vertex  1.200000e+001 -1.420162e+000  5.942540e+000
      vertex -1.200000e+001 -1.871277e+000  6.342193e+000
      vertex  1.200000e+001 -1.871277e+000  6.342193e+000
    endloop
  endfacet
  facet normal  0.000000e+000  8.229840e-001  5.680646e-001
    outer loop
      vertex  1.200000e+001 -1.871277e+000  6.342193e+000
      vertex -1.200000e+001 -1.871277e+000  6.342193e+000
      vertex -1.200000e+001 -2.213640e+000  6.838192e+000
    endloop
  endfacet
  facet normal  -0.000000e+000  8.229840e-001  5.680646e-001
    outer loop
      vertex  1.200000e+001 -1.871277e+000  6.342193e+000
      vertex -1.200000e+001 -2.213640e+000  6.838192e+000
      vertex  1.200000e+001 -2.213640e+000  6.838192e+000
    endloop
  endfacet
  facet normal  0.000000e+000  9.350162e-001  3.546049e-001
    outer loop
      vertex  1.200000e+001 -2.213640e+000  6.838192e+000
      vertex -1.200000e+001 -2.213640e+000  6.838192e+000
      vertex -1.200000e+001 -2.427355e+000  7.401711e+000
    endloop
  endfacet
  facet normal  -0.000000e+000  9.350162e-001  3.546049e-001
    outer loop
      vertex  1.200000e+001 -2.213640e+000  6.838192e+000
      vertex -1.200000e+001 -2.427355e+000  7.401711e+000
      vertex  1.200000e+001 -2.427355e+000  7.401711e+000
    endloop
  endfacet
  facet normal  0.000000e+000  9.927089e-001  1.205367e-001
    outer loop
      vertex  1.200000e+001 -2.427355e+000  7.401711e+000
      vertex -1.200000e+001 -2.427355e+000  7.401711e+000
      vertex -1.200000e+001 -2.500000e+000  8.000000e+000
    endloop
  endfacet
  facet normal  -0.000000e+000  9.927089e-001  1.205367e-001
    outer loop
      vertex  1.200000e+001 -2.427355e+000  7.401711e+000
      vertex -1.200000e+001 -2.500000e+000  8.000000e+000
      vertex  1.200000e+001 -2.500000e+000  8.000000e+000
    endloop
  endfacet
  facet normal  0.000000e+000  0.000000e+000  1.000000e+000
    outer loop
      vertex -1.200000e+001 -5.000000e+000  2.000000e+001
      vertex  1.200000e+001 -5.000000e+000  2.000000e+001
      vertex -1.200000e+001  5.000000e+000  2.000000e+001
    endloop
  endfacet
  facet normal  -0.000000e+000  0.000000e+000  1.000000e+000
    outer loop
      vertex -1.200000e+001  5.000000e+000  2.000000e+001
      vertex  1.200000e+001 -5.000000e+000  2.000000e+001
      vertex  1.200000e+001  5.000000e+000  2.000000e+001
    endloop
  endfacet
  facet normal  0.000000e+000  1.000000e+000  0.000000e+000
    outer loop
      vertex  1.200000e+001  5.000000e+000 -2.000000e+001
      vertex -1.200000e+001  5.000000e+000 -2.000000e+001
      vertex  1.200000e+001  5.000000e+000  2.000000e+001
    endloop
  endfacet
  facet normal  0.000000e+000  1.000000e+000  0.000000e+000
    outer loop
      vertex  1.200000e+001  5.000000e+000  2.000000e+001
      vertex -1.200000e+001  5.000000e+000 -2.000000e+001
      vertex -1.200000e+001  5.000000e+000  2.000000e+001
    endloop
  endfacet
  facet normal  -0.000000e+000  0.000000e+000 -1.000000e+000
    outer loop
      vertex -1.200000e+001  5.000000e+000 -2.000000e+001
      vertex  1.200000e+001  5.000000e+000 -2.000000e+001
      vertex -1.200000e+001 -5.000000e+000 -2.000000e+001
    endloop
  endfacet
  facet normal  0.000000e+000  0.000000e+000 -1.000000e+000
    outer loop
      vertex -1.200000e+001 -5.000000e+000 -2.000000e+001
      vertex  1.200000e+001  5.000000e+000 -2.000000e+001
      vertex  1.200000e+001 -5.000000e+000 -2.000000e+001
    endloop
  endfacet
  facet normal  0.000000e+000 -1.000000e+000  0.000000e+000
    outer loop
      vertex  1.200000e+001 -5.000000e+000  2.000000e+001
      vertex -1.200000e+001 -5.000000e+000  2.000000e+001
      vertex  1.200000e+001 -5.000000e+000 -2.000000e+001
    endloop
  endfacet
  facet normal  0.000000e+000 -1.000000e+000  0.000000e+000
    outer loop
      vertex  1.200000e+001 -5.000000e+000 -2.000000e+001
      vertex -1.200000e+001 -5.000000e+000  2.000000e+001
      vertex -1.200000e+001 -5.000000e+000 -2.000000e+001
    endloop
  endfacet
endsolid CATIA STL
