solid CATIA STL
  facet normal  0.000000e+000  1.000000e+000  0.000000e+000
    outer loop
      vertex -3.552714e-015  1.000000e+001 -5.000000e+000
      vertex -3.552714e-015  1.000000e+001  4.000000e+001
      vertex  4.000000e+001  1.000000e+001 -5.000000e+000
    endloop
  endfacet
  facet normal  0.000000e+000  1.000000e+000  0.000000e+000
    outer loop
      vertex  4.000000e+001  1.000000e+001 -5.000000e+000
      vertex -3.552714e-015  1.000000e+001  4.000000e+001
      vertex  5.000000e+000  1.000000e+001  4.000000e+001
    endloop
  endfacet
  facet normal  0.000000e+000  1.000000e+000  0.000000e+000
    outer loop
      vertex  4.000000e+001  1.000000e+001 -5.000000e+000
      vertex  5.000000e+000  1.000000e+001  4.000000e+001
      vertex  4.000000e+001  1.000000e+001 -1.065814e-014
    endloop
  endfacet
  facet normal  0.000000e+000 -1.000000e+000  0.000000e+000
    outer loop
      vertex  4.000000e+001 -1.000000e+001 -1.065814e-014
      vertex  5.000000e+000 -1.000000e+001  4.000000e+001
      vertex  4.000000e+001 -1.000000e+001 -5.000000e+000
    endloop
  endfacet
  facet normal  0.000000e+000 -1.000000e+000  0.000000e+000
    outer loop
      vertex  4.000000e+001 -1.000000e+001 -5.000000e+000
      vertex  5.000000e+000 -1.000000e+001  4.000000e+001
      vertex -3.552714e-015 -1.000000e+001  4.000000e+001
    endloop
  endfacet
  facet normal  0.000000e+000 -1.000000e+000  0.000000e+000
    outer loop
      vertex  4.000000e+001 -1.000000e+001 -5.000000e+000
      vertex -3.552714e-015 -1.000000e+001  4.000000e+001
      vertex -3.552714e-015 -1.000000e+001 -5.000000e+000
    endloop
  endfacet
  facet normal  0.000000e+000  0.000000e+000  1.000000e+000
    outer loop
      vertex -3.552714e-015  1.000000e+001  4.000000e+001
      vertex -3.552714e-015 -1.000000e+001  4.000000e+001
      vertex  5.000000e+000 -1.000000e+001  4.000000e+001
    endloop
  endfacet
  facet normal  0.000000e+000  -0.000000e+000  1.000000e+000
    outer loop
      vertex -3.552714e-015  1.000000e+001  4.000000e+001
      vertex  5.000000e+000 -1.000000e+001  4.000000e+001
      vertex  5.000000e+000 -7.000000e+000  4.000000e+001
    endloop
  endfacet
  facet normal  0.000000e+000  -0.000000e+000  1.000000e+000
    outer loop
      vertex -3.552714e-015  1.000000e+001  4.000000e+001
      vertex  5.000000e+000 -7.000000e+000  4.000000e+001
      vertex  5.000000e+000  7.000000e+000  4.000000e+001
    endloop
  endfacet
  facet normal  0.000000e+000  -0.000000e+000  1.000000e+000
    outer loop
      vertex -3.552714e-015  1.000000e+001  4.000000e+001
      vertex  5.000000e+000  7.000000e+000  4.000000e+001
      vertex  5.000000e+000  1.000000e+001  4.000000e+001
    endloop
  endfacet
  facet normal -1.000000e+000  0.000000e+000  0.000000e+000
    outer loop
      vertex -3.552714e-015  1.000000e+001 -5.000000e+000
      vertex -3.552714e-015 -1.000000e+001 -5.000000e+000
      vertex -3.552714e-015  2.072440e-015  1.790000e+001
    endloop
  endfacet
  facet normal -1.000000e+000  0.000000e+000  0.000000e+000
    outer loop
      vertex -3.552714e-015  1.000000e+001 -5.000000e+000
      vertex -3.552714e-015  2.072440e-015  1.790000e+001
      vertex -3.552714e-015  5.435200e-001  1.797156e+001
    endloop
  endfacet
  facet normal -1.000000e+000  0.000000e+000  0.000000e+000
    outer loop
      vertex -3.552714e-015  1.000000e+001 -5.000000e+000
      vertex -3.552714e-015  5.435200e-001  1.797156e+001
      vertex -3.552714e-015  1.050000e+000  1.818135e+001
    endloop
  endfacet
  facet normal -1.000000e+000  0.000000e+000  0.000000e+000
    outer loop
      vertex -3.552714e-015  1.000000e+001 -5.000000e+000
      vertex -3.552714e-015  1.050000e+000  1.818135e+001
      vertex -3.552714e-015  1.484924e+000  1.851508e+001
    endloop
  endfacet
  facet normal -1.000000e+000  0.000000e+000  0.000000e+000
    outer loop
      vertex -3.552714e-015  1.000000e+001 -5.000000e+000
      vertex -3.552714e-015  1.484924e+000  1.851508e+001
      vertex -3.552714e-015  1.818653e+000  1.895000e+001
    endloop
  endfacet
  facet normal -1.000000e+000  0.000000e+000  0.000000e+000
    outer loop
      vertex -3.552714e-015  1.000000e+001 -5.000000e+000
      vertex -3.552714e-015  1.818653e+000  1.895000e+001
      vertex -3.552714e-015  2.028444e+000  1.945648e+001
    endloop
  endfacet
  facet normal -9.999999e-001  0.000000e+000  0.000000e+000
    outer loop
      vertex -3.552714e-015  1.000000e+001 -5.000000e+000
      vertex -3.552714e-015  2.028444e+000  1.945648e+001
      vertex -3.552714e-015  1.000000e+001  4.000000e+001
    endloop
  endfacet
  facet normal -1.000000e+000  0.000000e+000  0.000000e+000
    outer loop
      vertex -3.552714e-015  1.000000e+001  4.000000e+001
      vertex -3.552714e-015  2.028444e+000  1.945648e+001
      vertex -3.552714e-015  2.100000e+000  2.000000e+001
    endloop
  endfacet
  facet normal -1.000000e+000  0.000000e+000  0.000000e+000
    outer loop
      vertex -3.552714e-015  1.000000e+001  4.000000e+001
      vertex -3.552714e-015  2.100000e+000  2.000000e+001
      vertex -3.552714e-015  2.028444e+000  2.054352e+001
    endloop
  endfacet
  facet normal -1.000000e+000  0.000000e+000  0.000000e+000
    outer loop
      vertex -3.552714e-015  1.000000e+001  4.000000e+001
      vertex -3.552714e-015  2.028444e+000  2.054352e+001
      vertex -3.552714e-015  1.818653e+000  2.105000e+001
    endloop
  endfacet
  facet normal -1.000000e+000  0.000000e+000  0.000000e+000
    outer loop
      vertex -3.552714e-015  1.000000e+001  4.000000e+001
      vertex -3.552714e-015  1.818653e+000  2.105000e+001
      vertex -3.552714e-015  1.484924e+000  2.148492e+001
    endloop
  endfacet
  facet normal -9.999999e-001  0.000000e+000  0.000000e+000
    outer loop
      vertex -3.552714e-015  1.000000e+001  4.000000e+001
      vertex -3.552714e-015  1.484924e+000  2.148492e+001
      vertex -3.552714e-015  1.050000e+000  2.181865e+001
    endloop
  endfacet
  facet normal -1.000000e+000  0.000000e+000  0.000000e+000
    outer loop
      vertex -3.552714e-015  1.000000e+001  4.000000e+001
      vertex -3.552714e-015  1.050000e+000  2.181865e+001
      vertex -3.552714e-015  5.435200e-001  2.202844e+001
    endloop
  endfacet
  facet normal -1.000000e+000  0.000000e+000  0.000000e+000
    outer loop
      vertex -3.552714e-015  1.000000e+001  4.000000e+001
      vertex -3.552714e-015  5.435200e-001  2.202844e+001
      vertex -3.552714e-015 -3.070690e-016  2.210000e+001
    endloop
  endfacet
  facet normal -1.000000e+000  0.000000e+000  0.000000e+000
    outer loop
      vertex -3.552714e-015  1.000000e+001  4.000000e+001
      vertex -3.552714e-015 -3.070690e-016  2.210000e+001
      vertex -3.552714e-015 -1.000000e+001  4.000000e+001
    endloop
  endfacet
  facet normal -1.000000e+000  -0.000000e+000  0.000000e+000
    outer loop
      vertex -3.552714e-015 -1.000000e+001  4.000000e+001
      vertex -3.552714e-015 -3.070690e-016  2.210000e+001
      vertex -3.552714e-015 -5.435200e-001  2.202844e+001
    endloop
  endfacet
  facet normal -1.000000e+000  -0.000000e+000  0.000000e+000
    outer loop
      vertex -3.552714e-015 -1.000000e+001  4.000000e+001
      vertex -3.552714e-015 -5.435200e-001  2.202844e+001
      vertex -3.552714e-015 -1.050000e+000  2.181865e+001
    endloop
  endfacet
  facet normal -9.999999e-001  -0.000000e+000  0.000000e+000
    outer loop
      vertex -3.552714e-015 -1.000000e+001  4.000000e+001
      vertex -3.552714e-015 -1.050000e+000  2.181865e+001
      vertex -3.552714e-015 -1.484924e+000  2.148492e+001
    endloop
  endfacet
  facet normal -1.000000e+000  -0.000000e+000  0.000000e+000
    outer loop
      vertex -3.552714e-015 -1.000000e+001  4.000000e+001
      vertex -3.552714e-015 -1.484924e+000  2.148492e+001
      vertex -3.552714e-015 -1.818653e+000  2.105000e+001
    endloop
  endfacet
  facet normal -1.000000e+000  -0.000000e+000  0.000000e+000
    outer loop
      vertex -3.552714e-015 -1.000000e+001  4.000000e+001
      vertex -3.552714e-015 -1.818653e+000  2.105000e+001
      vertex -3.552714e-015 -2.028444e+000  2.054352e+001
    endloop
  endfacet
  facet normal -1.000000e+000  -0.000000e+000  0.000000e+000
    outer loop
      vertex -3.552714e-015 -1.000000e+001  4.000000e+001
      vertex -3.552714e-015 -2.028444e+000  2.054352e+001
      vertex -3.552714e-015 -2.100000e+000  2.000000e+001
    endloop
  endfacet
  facet normal -1.000000e+000  -0.000000e+000  -0.000000e+000
    outer loop
      vertex -3.552714e-015 -1.000000e+001  4.000000e+001
      vertex -3.552714e-015 -2.100000e+000  2.000000e+001
      vertex -3.552714e-015 -2.028444e+000  1.945648e+001
    endloop
  endfacet
  facet normal -9.999999e-001  0.000000e+000  0.000000e+000
    outer loop
      vertex -3.552714e-015 -1.000000e+001 -5.000000e+000
      vertex -3.552714e-015 -1.000000e+001  4.000000e+001
      vertex -3.552714e-015 -2.028444e+000  1.945648e+001
    endloop
  endfacet
  facet normal -1.000000e+000  0.000000e+000  -0.000000e+000
    outer loop
      vertex -3.552714e-015 -1.000000e+001 -5.000000e+000
      vertex -3.552714e-015 -2.028444e+000  1.945648e+001
      vertex -3.552714e-015 -1.818653e+000  1.895000e+001
    endloop
  endfacet
  facet normal -1.000000e+000  0.000000e+000  -0.000000e+000
    outer loop
      vertex -3.552714e-015 -1.000000e+001 -5.000000e+000
      vertex -3.552714e-015 -1.818653e+000  1.895000e+001
      vertex -3.552714e-015 -1.484924e+000  1.851508e+001
    endloop
  endfacet
  facet normal -1.000000e+000  0.000000e+000  -0.000000e+000
    outer loop
      vertex -3.552714e-015 -1.000000e+001 -5.000000e+000
      vertex -3.552714e-015 -1.484924e+000  1.851508e+001
      vertex -3.552714e-015 -1.050000e+000  1.818135e+001
    endloop
  endfacet
  facet normal -1.000000e+000  0.000000e+000  -0.000000e+000
    outer loop
      vertex -3.552714e-015 -1.000000e+001 -5.000000e+000
      vertex -3.552714e-015 -1.050000e+000  1.818135e+001
      vertex -3.552714e-015 -5.435200e-001  1.797156e+001
    endloop
  endfacet
  facet normal -1.000000e+000  0.000000e+000  -0.000000e+000
    outer loop
      vertex -3.552714e-015 -1.000000e+001 -5.000000e+000
      vertex -3.552714e-015 -5.435200e-001  1.797156e+001
      vertex -3.552714e-015  2.072440e-015  1.790000e+001
    endloop
  endfacet
  facet normal  9.999999e-001  -0.000000e+000  0.000000e+000
    outer loop
      vertex  5.000000e+000  7.000000e+000  4.000000e+001
      vertex  5.000000e+000 -7.000000e+000  4.000000e+001
      vertex  5.000000e+000 -3.070690e-016  2.210000e+001
    endloop
  endfacet
  facet normal  1.000000e+000  -0.000000e+000  0.000000e+000
    outer loop
      vertex  5.000000e+000  7.000000e+000  4.000000e+001
      vertex  5.000000e+000 -3.070690e-016  2.210000e+001
      vertex  5.000000e+000  5.435200e-001  2.202844e+001
    endloop
  endfacet
  facet normal  1.000000e+000  -0.000000e+000  0.000000e+000
    outer loop
      vertex  5.000000e+000  7.000000e+000  4.000000e+001
      vertex  5.000000e+000  5.435200e-001  2.202844e+001
      vertex  5.000000e+000  1.050000e+000  2.181865e+001
    endloop
  endfacet
  facet normal  9.999999e-001  -0.000000e+000  0.000000e+000
    outer loop
      vertex  5.000000e+000  7.000000e+000  4.000000e+001
      vertex  5.000000e+000  1.050000e+000  2.181865e+001
      vertex  5.000000e+000  1.484924e+000  2.148492e+001
    endloop
  endfacet
  facet normal  1.000000e+000  -0.000000e+000  0.000000e+000
    outer loop
      vertex  5.000000e+000  7.000000e+000  4.000000e+001
      vertex  5.000000e+000  1.484924e+000  2.148492e+001
      vertex  5.000000e+000  1.818653e+000  2.105000e+001
    endloop
  endfacet
  facet normal  9.999999e-001  -0.000000e+000  0.000000e+000
    outer loop
      vertex  5.000000e+000  7.000000e+000  4.000000e+001
      vertex  5.000000e+000  1.818653e+000  2.105000e+001
      vertex  5.000000e+000  2.028444e+000  2.054352e+001
    endloop
  endfacet
  facet normal  9.999999e-001  -0.000000e+000  0.000000e+000
    outer loop
      vertex  5.000000e+000  7.000000e+000  4.000000e+001
      vertex  5.000000e+000  2.028444e+000  2.054352e+001
      vertex  5.000000e+000  7.000000e+000  0.000000e+000
    endloop
  endfacet
  facet normal  1.000000e+000  0.000000e+000  0.000000e+000
    outer loop
      vertex  5.000000e+000  7.000000e+000  0.000000e+000
      vertex  5.000000e+000  2.028444e+000  2.054352e+001
      vertex  5.000000e+000  2.100000e+000  2.000000e+001
    endloop
  endfacet
  facet normal  1.000000e+000  0.000000e+000  0.000000e+000
    outer loop
      vertex  5.000000e+000  7.000000e+000  0.000000e+000
      vertex  5.000000e+000  2.100000e+000  2.000000e+001
      vertex  5.000000e+000  2.028444e+000  1.945648e+001
    endloop
  endfacet
  facet normal  9.999999e-001  0.000000e+000  0.000000e+000
    outer loop
      vertex  5.000000e+000  7.000000e+000  0.000000e+000
      vertex  5.000000e+000  2.028444e+000  1.945648e+001
      vertex  5.000000e+000  1.818653e+000  1.895000e+001
    endloop
  endfacet
  facet normal  1.000000e+000  0.000000e+000  0.000000e+000
    outer loop
      vertex  5.000000e+000  7.000000e+000  0.000000e+000
      vertex  5.000000e+000  1.818653e+000  1.895000e+001
      vertex  5.000000e+000  1.484924e+000  1.851508e+001
    endloop
  endfacet
  facet normal  9.999999e-001  0.000000e+000  0.000000e+000
    outer loop
      vertex  5.000000e+000  7.000000e+000  0.000000e+000
      vertex  5.000000e+000  1.484924e+000  1.851508e+001
      vertex  5.000000e+000  1.050000e+000  1.818135e+001
    endloop
  endfacet
  facet normal  1.000000e+000  0.000000e+000  0.000000e+000
    outer loop
      vertex  5.000000e+000  7.000000e+000  0.000000e+000
      vertex  5.000000e+000  1.050000e+000  1.818135e+001
      vertex  5.000000e+000  5.435200e-001  1.797156e+001
    endloop
  endfacet
  facet normal  1.000000e+000  0.000000e+000  0.000000e+000
    outer loop
      vertex  5.000000e+000  7.000000e+000  0.000000e+000
      vertex  5.000000e+000  5.435200e-001  1.797156e+001
      vertex  5.000000e+000  2.072440e-015  1.790000e+001
    endloop
  endfacet
  facet normal  9.999999e-001  0.000000e+000  0.000000e+000
    outer loop
      vertex  5.000000e+000  7.000000e+000  0.000000e+000
      vertex  5.000000e+000  2.072440e-015  1.790000e+001
      vertex  5.000000e+000 -7.000000e+000  0.000000e+000
    endloop
  endfacet
  facet normal  1.000000e+000  0.000000e+000  0.000000e+000
    outer loop
      vertex  5.000000e+000 -7.000000e+000  0.000000e+000
      vertex  5.000000e+000  2.072440e-015  1.790000e+001
      vertex  5.000000e+000 -5.435200e-001  1.797156e+001
    endloop
  endfacet
  facet normal  1.000000e+000  0.000000e+000  0.000000e+000
    outer loop
      vertex  5.000000e+000 -7.000000e+000  0.000000e+000
      vertex  5.000000e+000 -5.435200e-001  1.797156e+001
      vertex  5.000000e+000 -1.050000e+000  1.818135e+001
    endloop
  endfacet
  facet normal  9.999999e-001  0.000000e+000  0.000000e+000
    outer loop
      vertex  5.000000e+000 -7.000000e+000  0.000000e+000
      vertex  5.000000e+000 -1.050000e+000  1.818135e+001
      vertex  5.000000e+000 -1.484924e+000  1.851508e+001
    endloop
  endfacet
  facet normal  1.000000e+000  0.000000e+000  0.000000e+000
    outer loop
      vertex  5.000000e+000 -7.000000e+000  0.000000e+000
      vertex  5.000000e+000 -1.484924e+000  1.851508e+001
      vertex  5.000000e+000 -1.818653e+000  1.895000e+001
    endloop
  endfacet
  facet normal  9.999999e-001  0.000000e+000  0.000000e+000
    outer loop
      vertex  5.000000e+000 -7.000000e+000  0.000000e+000
      vertex  5.000000e+000 -1.818653e+000  1.895000e+001
      vertex  5.000000e+000 -2.028444e+000  1.945648e+001
    endloop
  endfacet
  facet normal  1.000000e+000  0.000000e+000  0.000000e+000
    outer loop
      vertex  5.000000e+000 -7.000000e+000  0.000000e+000
      vertex  5.000000e+000 -2.028444e+000  1.945648e+001
      vertex  5.000000e+000 -2.100000e+000  2.000000e+001
    endloop
  endfacet
  facet normal  1.000000e+000  0.000000e+000  -0.000000e+000
    outer loop
      vertex  5.000000e+000 -7.000000e+000  0.000000e+000
      vertex  5.000000e+000 -2.100000e+000  2.000000e+001
      vertex  5.000000e+000 -2.028444e+000  2.054352e+001
    endloop
  endfacet
  facet normal  9.999999e-001  0.000000e+000  0.000000e+000
    outer loop
      vertex  5.000000e+000 -7.000000e+000  4.000000e+001
      vertex  5.000000e+000 -7.000000e+000  0.000000e+000
      vertex  5.000000e+000 -2.028444e+000  2.054352e+001
    endloop
  endfacet
  facet normal  9.999999e-001  0.000000e+000  -0.000000e+000
    outer loop
      vertex  5.000000e+000 -7.000000e+000  4.000000e+001
      vertex  5.000000e+000 -2.028444e+000  2.054352e+001
      vertex  5.000000e+000 -1.818653e+000  2.105000e+001
    endloop
  endfacet
  facet normal  1.000000e+000  0.000000e+000  -0.000000e+000
    outer loop
      vertex  5.000000e+000 -7.000000e+000  4.000000e+001
      vertex  5.000000e+000 -1.818653e+000  2.105000e+001
      vertex  5.000000e+000 -1.484924e+000  2.148492e+001
    endloop
  endfacet
  facet normal  9.999999e-001  0.000000e+000  -0.000000e+000
    outer loop
      vertex  5.000000e+000 -7.000000e+000  4.000000e+001
      vertex  5.000000e+000 -1.484924e+000  2.148492e+001
      vertex  5.000000e+000 -1.050000e+000  2.181865e+001
    endloop
  endfacet
  facet normal  1.000000e+000  0.000000e+000  -0.000000e+000
    outer loop
      vertex  5.000000e+000 -7.000000e+000  4.000000e+001
      vertex  5.000000e+000 -1.050000e+000  2.181865e+001
      vertex  5.000000e+000 -5.435200e-001  2.202844e+001
    endloop
  endfacet
  facet normal  1.000000e+000  0.000000e+000  -0.000000e+000
    outer loop
      vertex  5.000000e+000 -7.000000e+000  4.000000e+001
      vertex  5.000000e+000 -5.435200e-001  2.202844e+001
      vertex  5.000000e+000 -3.070690e-016  2.210000e+001
    endloop
  endfacet
  facet normal  3.045184e-016 -9.321989e-016  1.000000e+000
    outer loop
      vertex  5.000000e+000 -7.000000e+000  0.000000e+000
      vertex  4.000000e+001 -7.000000e+000 -1.065814e-014
      vertex  2.000000e+001 -2.100000e+000  0.000000e+000
    endloop
  endfacet
  facet normal  0.000000e+000  0.000000e+000  1.000000e+000
    outer loop
      vertex  5.000000e+000 -7.000000e+000  0.000000e+000
      vertex  2.000000e+001 -2.100000e+000  0.000000e+000
      vertex  1.945648e+001 -2.028444e+000  0.000000e+000
    endloop
  endfacet
  facet normal  0.000000e+000  0.000000e+000  1.000000e+000
    outer loop
      vertex  5.000000e+000 -7.000000e+000  0.000000e+000
      vertex  1.945648e+001 -2.028444e+000  0.000000e+000
      vertex  1.895000e+001 -1.818653e+000  0.000000e+000
    endloop
  endfacet
  facet normal  0.000000e+000  0.000000e+000  9.999999e-001
    outer loop
      vertex  5.000000e+000 -7.000000e+000  0.000000e+000
      vertex  1.895000e+001 -1.818653e+000  0.000000e+000
      vertex  1.851508e+001 -1.484924e+000  0.000000e+000
    endloop
  endfacet
  facet normal  0.000000e+000  0.000000e+000  1.000000e+000
    outer loop
      vertex  5.000000e+000 -7.000000e+000  0.000000e+000
      vertex  1.851508e+001 -1.484924e+000  0.000000e+000
      vertex  1.818135e+001 -1.050000e+000  0.000000e+000
    endloop
  endfacet
  facet normal  0.000000e+000  0.000000e+000  9.999999e-001
    outer loop
      vertex  5.000000e+000 -7.000000e+000  0.000000e+000
      vertex  1.818135e+001 -1.050000e+000  0.000000e+000
      vertex  1.797156e+001 -5.435200e-001  0.000000e+000
    endloop
  endfacet
  facet normal  0.000000e+000  0.000000e+000  1.000000e+000
    outer loop
      vertex  5.000000e+000 -7.000000e+000  0.000000e+000
      vertex  1.797156e+001 -5.435200e-001  0.000000e+000
      vertex  1.790000e+001  5.850901e-016  0.000000e+000
    endloop
  endfacet
  facet normal  0.000000e+000  -0.000000e+000  1.000000e+000
    outer loop
      vertex  5.000000e+000 -7.000000e+000  0.000000e+000
      vertex  1.790000e+001  5.850901e-016  0.000000e+000
      vertex  1.797156e+001  5.435200e-001  0.000000e+000
    endloop
  endfacet
  facet normal  0.000000e+000  -0.000000e+000  9.999999e-001
    outer loop
      vertex  5.000000e+000 -7.000000e+000  0.000000e+000
      vertex  1.797156e+001  5.435200e-001  0.000000e+000
      vertex  1.818135e+001  1.050000e+000  0.000000e+000
    endloop
  endfacet
  facet normal  0.000000e+000  -0.000000e+000  9.999999e-001
    outer loop
      vertex  5.000000e+000 -7.000000e+000  0.000000e+000
      vertex  1.818135e+001  1.050000e+000  0.000000e+000
      vertex  1.851508e+001  1.484924e+000  0.000000e+000
    endloop
  endfacet
  facet normal  0.000000e+000  -0.000000e+000  1.000000e+000
    outer loop
      vertex  5.000000e+000 -7.000000e+000  0.000000e+000
      vertex  1.851508e+001  1.484924e+000  0.000000e+000
      vertex  1.895000e+001  1.818653e+000  0.000000e+000
    endloop
  endfacet
  facet normal  0.000000e+000  0.000000e+000  1.000000e+000
    outer loop
      vertex  5.000000e+000  7.000000e+000  0.000000e+000
      vertex  5.000000e+000 -7.000000e+000  0.000000e+000
      vertex  1.895000e+001  1.818653e+000  0.000000e+000
    endloop
  endfacet
  facet normal  0.000000e+000  -0.000000e+000  1.000000e+000
    outer loop
      vertex  5.000000e+000  7.000000e+000  0.000000e+000
      vertex  1.895000e+001  1.818653e+000  0.000000e+000
      vertex  1.945648e+001  2.028444e+000  0.000000e+000
    endloop
  endfacet
  facet normal  0.000000e+000  -0.000000e+000  1.000000e+000
    outer loop
      vertex  5.000000e+000  7.000000e+000  0.000000e+000
      vertex  1.945648e+001  2.028444e+000  0.000000e+000
      vertex  2.000000e+001  2.100000e+000  0.000000e+000
    endloop
  endfacet
  facet normal  3.045184e-016  9.321989e-016  1.000000e+000
    outer loop
      vertex  5.000000e+000  7.000000e+000  0.000000e+000
      vertex  2.000000e+001  2.100000e+000  0.000000e+000
      vertex  4.000000e+001  7.000000e+000 -1.065814e-014
    endloop
  endfacet
  facet normal  1.429225e-015  1.862606e-015  1.000000e+000
    outer loop
      vertex  4.000000e+001 -7.000000e+000 -1.065814e-014
      vertex  2.105000e+001  1.818653e+000  0.000000e+000
      vertex  2.148492e+001  1.484924e+000  0.000000e+000
    endloop
  endfacet
  facet normal  8.878551e-016  6.812745e-016  9.999999e-001
    outer loop
      vertex  4.000000e+001 -7.000000e+000 -1.065814e-014
      vertex  2.148492e+001  1.484924e+000  0.000000e+000
      vertex  2.181865e+001  1.050000e+000  0.000000e+000
    endloop
  endfacet
  facet normal  7.178687e-016  2.973514e-016  1.000000e+000
    outer loop
      vertex  4.000000e+001 -7.000000e+000 -1.065814e-014
      vertex  2.181865e+001  1.050000e+000  0.000000e+000
      vertex  2.202844e+001  5.435200e-001  0.000000e+000
    endloop
  endfacet
  facet normal  6.277460e-016  8.264471e-017  1.000000e+000
    outer loop
      vertex  4.000000e+001 -7.000000e+000 -1.065814e-014
      vertex  2.202844e+001  5.435200e-001  0.000000e+000
      vertex  2.210000e+001  3.279227e-016  0.000000e+000
    endloop
  endfacet
  facet normal  5.662726e-016 -7.455155e-017  1.000000e+000
    outer loop
      vertex  4.000000e+001 -7.000000e+000 -1.065814e-014
      vertex  2.210000e+001  3.279227e-016  0.000000e+000
      vertex  2.202844e+001 -5.435200e-001  0.000000e+000
    endloop
  endfacet
  facet normal  5.162347e-016 -2.138317e-016  1.000000e+000
    outer loop
      vertex  4.000000e+001 -7.000000e+000 -1.065814e-014
      vertex  2.202844e+001 -5.435200e-001  0.000000e+000
      vertex  2.181865e+001 -1.050000e+000  0.000000e+000
    endloop
  endfacet
  facet normal  4.685527e-016 -3.595328e-016  9.999999e-001
    outer loop
      vertex  4.000000e+001 -7.000000e+000 -1.065814e-014
      vertex  2.181865e+001 -1.050000e+000  0.000000e+000
      vertex  2.148492e+001 -1.484924e+000  0.000000e+000
    endloop
  endfacet
  facet normal  4.146737e-016 -5.404143e-016  1.000000e+000
    outer loop
      vertex  4.000000e+001 -7.000000e+000 -1.065814e-014
      vertex  2.148492e+001 -1.484924e+000  0.000000e+000
      vertex  2.105000e+001 -1.818653e+000  0.000000e+000
    endloop
  endfacet
  facet normal  3.387962e-016 -8.179249e-016  9.999999e-001
    outer loop
      vertex  4.000000e+001 -7.000000e+000 -1.065814e-014
      vertex  2.105000e+001 -1.818653e+000  0.000000e+000
      vertex  2.054352e+001 -2.028444e+000  0.000000e+000
    endloop
  endfacet
  facet normal  1.862684e-016 -1.414852e-015  1.000000e+000
    outer loop
      vertex  4.000000e+001 -7.000000e+000 -1.065814e-014
      vertex  2.054352e+001 -2.028444e+000  0.000000e+000
      vertex  2.000000e+001 -2.100000e+000  0.000000e+000
    endloop
  endfacet
  facet normal  1.862684e-016  1.414852e-015  1.000000e+000
    outer loop
      vertex  4.000000e+001  7.000000e+000 -1.065814e-014
      vertex  2.000000e+001  2.100000e+000  0.000000e+000
      vertex  2.054352e+001  2.028444e+000  0.000000e+000
    endloop
  endfacet
  facet normal  3.387962e-016  8.179249e-016  9.999999e-001
    outer loop
      vertex  4.000000e+001  7.000000e+000 -1.065814e-014
      vertex  2.054352e+001  2.028444e+000  0.000000e+000
      vertex  2.105000e+001  1.818653e+000  0.000000e+000
    endloop
  endfacet
  facet normal  5.624349e-016  0.000000e+000  1.000000e+000
    outer loop
      vertex  4.000000e+001  7.000000e+000 -1.065814e-014
      vertex  2.105000e+001  1.818653e+000  0.000000e+000
      vertex  4.000000e+001 -7.000000e+000 -1.065814e-014
    endloop
  endfacet
  facet normal  0.000000e+000  1.000000e+000  0.000000e+000
    outer loop
      vertex  5.000000e+000 -7.000000e+000  4.000000e+001
      vertex  4.000000e+001 -7.000000e+000 -1.065814e-014
      vertex  5.000000e+000 -7.000000e+000  0.000000e+000
    endloop
  endfacet
  facet normal  0.000000e+000 -1.000000e+000  0.000000e+000
    outer loop
      vertex  5.000000e+000  7.000000e+000  0.000000e+000
      vertex  4.000000e+001  7.000000e+000 -1.065814e-014
      vertex  5.000000e+000  7.000000e+000  4.000000e+001
    endloop
  endfacet
  facet normal  7.525766e-001  0.000000e+000  6.585046e-001
    outer loop
      vertex  5.000000e+000  7.000000e+000  4.000000e+001
      vertex  4.000000e+001  7.000000e+000 -1.065814e-014
      vertex  5.000000e+000  1.000000e+001  4.000000e+001
    endloop
  endfacet
  facet normal  7.525766e-001  0.000000e+000  6.585046e-001
    outer loop
      vertex  5.000000e+000  1.000000e+001  4.000000e+001
      vertex  4.000000e+001  7.000000e+000 -1.065814e-014
      vertex  4.000000e+001  1.000000e+001 -1.065814e-014
    endloop
  endfacet
  facet normal  7.525766e-001  0.000000e+000  6.585046e-001
    outer loop
      vertex  5.000000e+000 -1.000000e+001  4.000000e+001
      vertex  4.000000e+001 -1.000000e+001 -1.065814e-014
      vertex  5.000000e+000 -7.000000e+000  4.000000e+001
    endloop
  endfacet
  facet normal  7.525766e-001  0.000000e+000  6.585046e-001
    outer loop
      vertex  5.000000e+000 -7.000000e+000  4.000000e+001
      vertex  4.000000e+001 -1.000000e+001 -1.065814e-014
      vertex  4.000000e+001 -7.000000e+000 -1.065814e-014
    endloop
  endfacet
  facet normal  0.000000e+000 -1.305268e-001 -9.914448e-001
    outer loop
      vertex  5.000000e+000 -3.070690e-016  2.210000e+001
      vertex -3.552714e-015  5.435200e-001  2.202844e+001
      vertex  5.000000e+000  5.435200e-001  2.202844e+001
    endloop
  endfacet
  facet normal  -0.000000e+000 -3.826839e-001 -9.238793e-001
    outer loop
      vertex  5.000000e+000  5.435200e-001  2.202844e+001
      vertex -3.552714e-015  5.435200e-001  2.202844e+001
      vertex -3.552714e-015  1.050000e+000  2.181865e+001
    endloop
  endfacet
  facet normal  0.000000e+000 -3.826839e-001 -9.238793e-001
    outer loop
      vertex  5.000000e+000  5.435200e-001  2.202844e+001
      vertex -3.552714e-015  1.050000e+000  2.181865e+001
      vertex  5.000000e+000  1.050000e+000  2.181865e+001
    endloop
  endfacet
  facet normal  -0.000000e+000 -6.087611e-001 -7.933536e-001
    outer loop
      vertex  5.000000e+000  1.050000e+000  2.181865e+001
      vertex -3.552714e-015  1.050000e+000  2.181865e+001
      vertex -3.552714e-015  1.484924e+000  2.148492e+001
    endloop
  endfacet
  facet normal  0.000000e+000 -6.087611e-001 -7.933536e-001
    outer loop
      vertex  5.000000e+000  1.050000e+000  2.181865e+001
      vertex -3.552714e-015  1.484924e+000  2.148492e+001
      vertex  5.000000e+000  1.484924e+000  2.148492e+001
    endloop
  endfacet
  facet normal  -0.000000e+000 -7.933539e-001 -6.087607e-001
    outer loop
      vertex  5.000000e+000  1.484924e+000  2.148492e+001
      vertex -3.552714e-015  1.484924e+000  2.148492e+001
      vertex -3.552714e-015  1.818653e+000  2.105000e+001
    endloop
  endfacet
  facet normal  0.000000e+000 -7.933539e-001 -6.087607e-001
    outer loop
      vertex  5.000000e+000  1.484924e+000  2.148492e+001
      vertex -3.552714e-015  1.818653e+000  2.105000e+001
      vertex  5.000000e+000  1.818653e+000  2.105000e+001
    endloop
  endfacet
  facet normal  -0.000000e+000 -9.238793e-001 -3.826840e-001
    outer loop
      vertex  5.000000e+000  1.818653e+000  2.105000e+001
      vertex -3.552714e-015  1.818653e+000  2.105000e+001
      vertex -3.552714e-015  2.028444e+000  2.054352e+001
    endloop
  endfacet
  facet normal  0.000000e+000 -9.238793e-001 -3.826840e-001
    outer loop
      vertex  5.000000e+000  1.818653e+000  2.105000e+001
      vertex -3.552714e-015  2.028444e+000  2.054352e+001
      vertex  5.000000e+000  2.028444e+000  2.054352e+001
    endloop
  endfacet
  facet normal  -0.000000e+000 -9.914449e-001 -1.305259e-001
    outer loop
      vertex  5.000000e+000  2.028444e+000  2.054352e+001
      vertex -3.552714e-015  2.028444e+000  2.054352e+001
      vertex -3.552714e-015  2.100000e+000  2.000000e+001
    endloop
  endfacet
  facet normal  0.000000e+000 -9.914449e-001 -1.305259e-001
    outer loop
      vertex  5.000000e+000  2.028444e+000  2.054352e+001
      vertex -3.552714e-015  2.100000e+000  2.000000e+001
      vertex  5.000000e+000  2.100000e+000  2.000000e+001
    endloop
  endfacet
  facet normal  -0.000000e+000 -1.305268e-001 -9.914448e-001
    outer loop
      vertex -3.552714e-015  5.435200e-001  2.202844e+001
      vertex  5.000000e+000 -3.070690e-016  2.210000e+001
      vertex -3.552714e-015 -3.070690e-016  2.210000e+001
    endloop
  endfacet
  facet normal  0.000000e+000  1.305268e-001 -9.914448e-001
    outer loop
      vertex -3.552714e-015 -3.070690e-016  2.210000e+001
      vertex  5.000000e+000 -3.070690e-016  2.210000e+001
      vertex  5.000000e+000 -5.435200e-001  2.202844e+001
    endloop
  endfacet
  facet normal  0.000000e+000  1.305268e-001 -9.914448e-001
    outer loop
      vertex -3.552714e-015 -3.070690e-016  2.210000e+001
      vertex  5.000000e+000 -5.435200e-001  2.202844e+001
      vertex -3.552714e-015 -5.435200e-001  2.202844e+001
    endloop
  endfacet
  facet normal  0.000000e+000  3.826839e-001 -9.238793e-001
    outer loop
      vertex -3.552714e-015 -5.435200e-001  2.202844e+001
      vertex  5.000000e+000 -5.435200e-001  2.202844e+001
      vertex  5.000000e+000 -1.050000e+000  2.181865e+001
    endloop
  endfacet
  facet normal  0.000000e+000  3.826839e-001 -9.238793e-001
    outer loop
      vertex -3.552714e-015 -5.435200e-001  2.202844e+001
      vertex  5.000000e+000 -1.050000e+000  2.181865e+001
      vertex -3.552714e-015 -1.050000e+000  2.181865e+001
    endloop
  endfacet
  facet normal  0.000000e+000  6.087611e-001 -7.933536e-001
    outer loop
      vertex -3.552714e-015 -1.050000e+000  2.181865e+001
      vertex  5.000000e+000 -1.050000e+000  2.181865e+001
      vertex  5.000000e+000 -1.484924e+000  2.148492e+001
    endloop
  endfacet
  facet normal  0.000000e+000  6.087611e-001 -7.933536e-001
    outer loop
      vertex -3.552714e-015 -1.050000e+000  2.181865e+001
      vertex  5.000000e+000 -1.484924e+000  2.148492e+001
      vertex -3.552714e-015 -1.484924e+000  2.148492e+001
    endloop
  endfacet
  facet normal  0.000000e+000  7.933539e-001 -6.087607e-001
    outer loop
      vertex -3.552714e-015 -1.484924e+000  2.148492e+001
      vertex  5.000000e+000 -1.484924e+000  2.148492e+001
      vertex  5.000000e+000 -1.818653e+000  2.105000e+001
    endloop
  endfacet
  facet normal  0.000000e+000  7.933539e-001 -6.087607e-001
    outer loop
      vertex -3.552714e-015 -1.484924e+000  2.148492e+001
      vertex  5.000000e+000 -1.818653e+000  2.105000e+001
      vertex -3.552714e-015 -1.818653e+000  2.105000e+001
    endloop
  endfacet
  facet normal  0.000000e+000  9.238793e-001 -3.826840e-001
    outer loop
      vertex -3.552714e-015 -1.818653e+000  2.105000e+001
      vertex  5.000000e+000 -1.818653e+000  2.105000e+001
      vertex  5.000000e+000 -2.028444e+000  2.054352e+001
    endloop
  endfacet
  facet normal  0.000000e+000  9.238793e-001 -3.826840e-001
    outer loop
      vertex -3.552714e-015 -1.818653e+000  2.105000e+001
      vertex  5.000000e+000 -2.028444e+000  2.054352e+001
      vertex -3.552714e-015 -2.028444e+000  2.054352e+001
    endloop
  endfacet
  facet normal  0.000000e+000  9.914449e-001 -1.305259e-001
    outer loop
      vertex -3.552714e-015 -2.028444e+000  2.054352e+001
      vertex  5.000000e+000 -2.028444e+000  2.054352e+001
      vertex  5.000000e+000 -2.100000e+000  2.000000e+001
    endloop
  endfacet
  facet normal  0.000000e+000  9.914449e-001 -1.305259e-001
    outer loop
      vertex -3.552714e-015 -2.028444e+000  2.054352e+001
      vertex  5.000000e+000 -2.100000e+000  2.000000e+001
      vertex -3.552714e-015 -2.100000e+000  2.000000e+001
    endloop
  endfacet
  facet normal  -0.000000e+000  1.305268e-001  9.914448e-001
    outer loop
      vertex  5.000000e+000  2.072440e-015  1.790000e+001
      vertex -3.552714e-015 -5.435200e-001  1.797156e+001
      vertex  5.000000e+000 -5.435200e-001  1.797156e+001
    endloop
  endfacet
  facet normal  0.000000e+000  3.826839e-001  9.238793e-001
    outer loop
      vertex  5.000000e+000 -5.435200e-001  1.797156e+001
      vertex -3.552714e-015 -5.435200e-001  1.797156e+001
      vertex -3.552714e-015 -1.050000e+000  1.818135e+001
    endloop
  endfacet
  facet normal  -0.000000e+000  3.826839e-001  9.238793e-001
    outer loop
      vertex  5.000000e+000 -5.435200e-001  1.797156e+001
      vertex -3.552714e-015 -1.050000e+000  1.818135e+001
      vertex  5.000000e+000 -1.050000e+000  1.818135e+001
    endloop
  endfacet
  facet normal  0.000000e+000  6.087611e-001  7.933536e-001
    outer loop
      vertex  5.000000e+000 -1.050000e+000  1.818135e+001
      vertex -3.552714e-015 -1.050000e+000  1.818135e+001
      vertex -3.552714e-015 -1.484924e+000  1.851508e+001
    endloop
  endfacet
  facet normal  -0.000000e+000  6.087611e-001  7.933536e-001
    outer loop
      vertex  5.000000e+000 -1.050000e+000  1.818135e+001
      vertex -3.552714e-015 -1.484924e+000  1.851508e+001
      vertex  5.000000e+000 -1.484924e+000  1.851508e+001
    endloop
  endfacet
  facet normal  0.000000e+000  7.933539e-001  6.087607e-001
    outer loop
      vertex  5.000000e+000 -1.484924e+000  1.851508e+001
      vertex -3.552714e-015 -1.484924e+000  1.851508e+001
      vertex -3.552714e-015 -1.818653e+000  1.895000e+001
    endloop
  endfacet
  facet normal  -0.000000e+000  7.933539e-001  6.087607e-001
    outer loop
      vertex  5.000000e+000 -1.484924e+000  1.851508e+001
      vertex -3.552714e-015 -1.818653e+000  1.895000e+001
      vertex  5.000000e+000 -1.818653e+000  1.895000e+001
    endloop
  endfacet
  facet normal  0.000000e+000  9.238793e-001  3.826840e-001
    outer loop
      vertex  5.000000e+000 -1.818653e+000  1.895000e+001
      vertex -3.552714e-015 -1.818653e+000  1.895000e+001
      vertex -3.552714e-015 -2.028444e+000  1.945648e+001
    endloop
  endfacet
  facet normal  -0.000000e+000  9.238793e-001  3.826840e-001
    outer loop
      vertex  5.000000e+000 -1.818653e+000  1.895000e+001
      vertex -3.552714e-015 -2.028444e+000  1.945648e+001
      vertex  5.000000e+000 -2.028444e+000  1.945648e+001
    endloop
  endfacet
  facet normal  0.000000e+000  9.914449e-001  1.305259e-001
    outer loop
      vertex  5.000000e+000 -2.028444e+000  1.945648e+001
      vertex -3.552714e-015 -2.028444e+000  1.945648e+001
      vertex -3.552714e-015 -2.100000e+000  2.000000e+001
    endloop
  endfacet
  facet normal  -0.000000e+000  9.914449e-001  1.305259e-001
    outer loop
      vertex  5.000000e+000 -2.028444e+000  1.945648e+001
      vertex -3.552714e-015 -2.100000e+000  2.000000e+001
      vertex  5.000000e+000 -2.100000e+000  2.000000e+001
    endloop
  endfacet
  facet normal  0.000000e+000  1.305268e-001  9.914448e-001
    outer loop
      vertex -3.552714e-015 -5.435200e-001  1.797156e+001
      vertex  5.000000e+000  2.072440e-015  1.790000e+001
      vertex -3.552714e-015  2.072440e-015  1.790000e+001
    endloop
  endfacet
  facet normal  0.000000e+000 -1.305268e-001  9.914448e-001
    outer loop
      vertex -3.552714e-015  2.072440e-015  1.790000e+001
      vertex  5.000000e+000  2.072440e-015  1.790000e+001
      vertex  5.000000e+000  5.435200e-001  1.797156e+001
    endloop
  endfacet
  facet normal  0.000000e+000 -1.305268e-001  9.914448e-001
    outer loop
      vertex -3.552714e-015  2.072440e-015  1.790000e+001
      vertex  5.000000e+000  5.435200e-001  1.797156e+001
      vertex -3.552714e-015  5.435200e-001  1.797156e+001
    endloop
  endfacet
  facet normal  0.000000e+000 -3.826839e-001  9.238793e-001
    outer loop
      vertex -3.552714e-015  5.435200e-001  1.797156e+001
      vertex  5.000000e+000  5.435200e-001  1.797156e+001
      vertex  5.000000e+000  1.050000e+000  1.818135e+001
    endloop
  endfacet
  facet normal  0.000000e+000 -3.826839e-001  9.238793e-001
    outer loop
      vertex -3.552714e-015  5.435200e-001  1.797156e+001
      vertex  5.000000e+000  1.050000e+000  1.818135e+001
      vertex -3.552714e-015  1.050000e+000  1.818135e+001
    endloop
  endfacet
  facet normal  0.000000e+000 -6.087611e-001  7.933536e-001
    outer loop
      vertex -3.552714e-015  1.050000e+000  1.818135e+001
      vertex  5.000000e+000  1.050000e+000  1.818135e+001
      vertex  5.000000e+000  1.484924e+000  1.851508e+001
    endloop
  endfacet
  facet normal  0.000000e+000 -6.087611e-001  7.933536e-001
    outer loop
      vertex -3.552714e-015  1.050000e+000  1.818135e+001
      vertex  5.000000e+000  1.484924e+000  1.851508e+001
      vertex -3.552714e-015  1.484924e+000  1.851508e+001
    endloop
  endfacet
  facet normal  0.000000e+000 -7.933539e-001  6.087607e-001
    outer loop
      vertex -3.552714e-015  1.484924e+000  1.851508e+001
      vertex  5.000000e+000  1.484924e+000  1.851508e+001
      vertex  5.000000e+000  1.818653e+000  1.895000e+001
    endloop
  endfacet
  facet normal  0.000000e+000 -7.933539e-001  6.087607e-001
    outer loop
      vertex -3.552714e-015  1.484924e+000  1.851508e+001
      vertex  5.000000e+000  1.818653e+000  1.895000e+001
      vertex -3.552714e-015  1.818653e+000  1.895000e+001
    endloop
  endfacet
  facet normal  0.000000e+000 -9.238793e-001  3.826840e-001
    outer loop
      vertex -3.552714e-015  1.818653e+000  1.895000e+001
      vertex  5.000000e+000  1.818653e+000  1.895000e+001
      vertex  5.000000e+000  2.028444e+000  1.945648e+001
    endloop
  endfacet
  facet normal  0.000000e+000 -9.238793e-001  3.826840e-001
    outer loop
      vertex -3.552714e-015  1.818653e+000  1.895000e+001
      vertex  5.000000e+000  2.028444e+000  1.945648e+001
      vertex -3.552714e-015  2.028444e+000  1.945648e+001
    endloop
  endfacet
  facet normal  0.000000e+000 -9.914449e-001  1.305259e-001
    outer loop
      vertex -3.552714e-015  2.028444e+000  1.945648e+001
      vertex  5.000000e+000  2.028444e+000  1.945648e+001
      vertex  5.000000e+000  2.100000e+000  2.000000e+001
    endloop
  endfacet
  facet normal  0.000000e+000 -9.914449e-001  1.305259e-001
    outer loop
      vertex -3.552714e-015  2.028444e+000  1.945648e+001
      vertex  5.000000e+000  2.100000e+000  2.000000e+001
      vertex -3.552714e-015  2.100000e+000  2.000000e+001
    endloop
  endfacet
  facet normal  -0.000000e+000  0.000000e+000 -1.000000e+000
    outer loop
      vertex -3.552714e-015  1.000000e+001 -5.000000e+000
      vertex  4.000000e+001  1.000000e+001 -5.000000e+000
      vertex  2.000000e+001  2.100000e+000 -5.000000e+000
    endloop
  endfacet
  facet normal  -0.000000e+000  0.000000e+000 -1.000000e+000
    outer loop
      vertex -3.552714e-015  1.000000e+001 -5.000000e+000
      vertex  2.000000e+001  2.100000e+000 -5.000000e+000
      vertex  1.945648e+001  2.028444e+000 -5.000000e+000
    endloop
  endfacet
  facet normal  -0.000000e+000  0.000000e+000 -1.000000e+000
    outer loop
      vertex -3.552714e-015  1.000000e+001 -5.000000e+000
      vertex  1.945648e+001  2.028444e+000 -5.000000e+000
      vertex  1.895000e+001  1.818653e+000 -5.000000e+000
    endloop
  endfacet
  facet normal  -0.000000e+000  0.000000e+000 -1.000000e+000
    outer loop
      vertex -3.552714e-015  1.000000e+001 -5.000000e+000
      vertex  1.895000e+001  1.818653e+000 -5.000000e+000
      vertex -3.552714e-015 -1.000000e+001 -5.000000e+000
    endloop
  endfacet
  facet normal  0.000000e+000  0.000000e+000 -1.000000e+000
    outer loop
      vertex -3.552714e-015 -1.000000e+001 -5.000000e+000
      vertex  1.895000e+001  1.818653e+000 -5.000000e+000
      vertex  1.851508e+001  1.484924e+000 -5.000000e+000
    endloop
  endfacet
  facet normal  0.000000e+000  0.000000e+000 -1.000000e+000
    outer loop
      vertex -3.552714e-015 -1.000000e+001 -5.000000e+000
      vertex  1.851508e+001  1.484924e+000 -5.000000e+000
      vertex  1.818135e+001  1.050000e+000 -5.000000e+000
    endloop
  endfacet
  facet normal  0.000000e+000  0.000000e+000 -1.000000e+000
    outer loop
      vertex -3.552714e-015 -1.000000e+001 -5.000000e+000
      vertex  1.818135e+001  1.050000e+000 -5.000000e+000
      vertex  1.797156e+001  5.435200e-001 -5.000000e+000
    endloop
  endfacet
  facet normal  0.000000e+000  0.000000e+000 -1.000000e+000
    outer loop
      vertex -3.552714e-015 -1.000000e+001 -5.000000e+000
      vertex  1.797156e+001  5.435200e-001 -5.000000e+000
      vertex  1.790000e+001  5.850901e-016 -5.000000e+000
    endloop
  endfacet
  facet normal  0.000000e+000  -0.000000e+000 -1.000000e+000
    outer loop
      vertex -3.552714e-015 -1.000000e+001 -5.000000e+000
      vertex  1.790000e+001  5.850901e-016 -5.000000e+000
      vertex  1.797156e+001 -5.435200e-001 -5.000000e+000
    endloop
  endfacet
  facet normal  0.000000e+000  -0.000000e+000 -1.000000e+000
    outer loop
      vertex -3.552714e-015 -1.000000e+001 -5.000000e+000
      vertex  1.797156e+001 -5.435200e-001 -5.000000e+000
      vertex  1.818135e+001 -1.050000e+000 -5.000000e+000
    endloop
  endfacet
  facet normal  0.000000e+000  -0.000000e+000 -9.999999e-001
    outer loop
      vertex -3.552714e-015 -1.000000e+001 -5.000000e+000
      vertex  1.818135e+001 -1.050000e+000 -5.000000e+000
      vertex  1.851508e+001 -1.484924e+000 -5.000000e+000
    endloop
  endfacet
  facet normal  0.000000e+000  -0.000000e+000 -1.000000e+000
    outer loop
      vertex -3.552714e-015 -1.000000e+001 -5.000000e+000
      vertex  1.851508e+001 -1.484924e+000 -5.000000e+000
      vertex  1.895000e+001 -1.818653e+000 -5.000000e+000
    endloop
  endfacet
  facet normal  0.000000e+000  -0.000000e+000 -1.000000e+000
    outer loop
      vertex -3.552714e-015 -1.000000e+001 -5.000000e+000
      vertex  1.895000e+001 -1.818653e+000 -5.000000e+000
      vertex  1.945648e+001 -2.028444e+000 -5.000000e+000
    endloop
  endfacet
  facet normal  0.000000e+000  -0.000000e+000 -1.000000e+000
    outer loop
      vertex -3.552714e-015 -1.000000e+001 -5.000000e+000
      vertex  1.945648e+001 -2.028444e+000 -5.000000e+000
      vertex  2.000000e+001 -2.100000e+000 -5.000000e+000
    endloop
  endfacet
  facet normal  0.000000e+000  -0.000000e+000 -1.000000e+000
    outer loop
      vertex -3.552714e-015 -1.000000e+001 -5.000000e+000
      vertex  2.000000e+001 -2.100000e+000 -5.000000e+000
      vertex  4.000000e+001 -1.000000e+001 -5.000000e+000
    endloop
  endfacet
  facet normal  0.000000e+000  0.000000e+000 -1.000000e+000
    outer loop
      vertex  4.000000e+001 -1.000000e+001 -5.000000e+000
      vertex  2.000000e+001 -2.100000e+000 -5.000000e+000
      vertex  2.054352e+001 -2.028444e+000 -5.000000e+000
    endloop
  endfacet
  facet normal  0.000000e+000  0.000000e+000 -1.000000e+000
    outer loop
      vertex  4.000000e+001 -1.000000e+001 -5.000000e+000
      vertex  2.054352e+001 -2.028444e+000 -5.000000e+000
      vertex  2.105000e+001 -1.818653e+000 -5.000000e+000
    endloop
  endfacet
  facet normal  0.000000e+000  0.000000e+000 -1.000000e+000
    outer loop
      vertex  4.000000e+001 -1.000000e+001 -5.000000e+000
      vertex  2.105000e+001 -1.818653e+000 -5.000000e+000
      vertex  2.148492e+001 -1.484924e+000 -5.000000e+000
    endloop
  endfacet
  facet normal  0.000000e+000  0.000000e+000 -9.999999e-001
    outer loop
      vertex  4.000000e+001 -1.000000e+001 -5.000000e+000
      vertex  2.148492e+001 -1.484924e+000 -5.000000e+000
      vertex  2.181865e+001 -1.050000e+000 -5.000000e+000
    endloop
  endfacet
  facet normal  0.000000e+000  0.000000e+000 -1.000000e+000
    outer loop
      vertex  4.000000e+001 -1.000000e+001 -5.000000e+000
      vertex  2.181865e+001 -1.050000e+000 -5.000000e+000
      vertex  2.202844e+001 -5.435200e-001 -5.000000e+000
    endloop
  endfacet
  facet normal  0.000000e+000  0.000000e+000 -1.000000e+000
    outer loop
      vertex  4.000000e+001 -1.000000e+001 -5.000000e+000
      vertex  2.202844e+001 -5.435200e-001 -5.000000e+000
      vertex  2.210000e+001 -1.864119e-016 -5.000000e+000
    endloop
  endfacet
  facet normal  0.000000e+000  0.000000e+000 -1.000000e+000
    outer loop
      vertex  4.000000e+001 -1.000000e+001 -5.000000e+000
      vertex  2.210000e+001 -1.864119e-016 -5.000000e+000
      vertex  2.202844e+001  5.435200e-001 -5.000000e+000
    endloop
  endfacet
  facet normal  0.000000e+000  0.000000e+000 -1.000000e+000
    outer loop
      vertex  4.000000e+001 -1.000000e+001 -5.000000e+000
      vertex  2.202844e+001  5.435200e-001 -5.000000e+000
      vertex  2.181865e+001  1.050000e+000 -5.000000e+000
    endloop
  endfacet
  facet normal  0.000000e+000  0.000000e+000 -1.000000e+000
    outer loop
      vertex  4.000000e+001 -1.000000e+001 -5.000000e+000
      vertex  2.181865e+001  1.050000e+000 -5.000000e+000
      vertex  2.148492e+001  1.484924e+000 -5.000000e+000
    endloop
  endfacet
  facet normal  0.000000e+000  0.000000e+000 -1.000000e+000
    outer loop
      vertex  4.000000e+001 -1.000000e+001 -5.000000e+000
      vertex  2.148492e+001  1.484924e+000 -5.000000e+000
      vertex  2.105000e+001  1.818653e+000 -5.000000e+000
    endloop
  endfacet
  facet normal  0.000000e+000  0.000000e+000 -1.000000e+000
    outer loop
      vertex  4.000000e+001  1.000000e+001 -5.000000e+000
      vertex  4.000000e+001 -1.000000e+001 -5.000000e+000
      vertex  2.105000e+001  1.818653e+000 -5.000000e+000
    endloop
  endfacet
  facet normal  0.000000e+000  0.000000e+000 -1.000000e+000
    outer loop
      vertex  4.000000e+001  1.000000e+001 -5.000000e+000
      vertex  2.105000e+001  1.818653e+000 -5.000000e+000
      vertex  2.054352e+001  2.028444e+000 -5.000000e+000
    endloop
  endfacet
  facet normal  0.000000e+000  0.000000e+000 -1.000000e+000
    outer loop
      vertex  4.000000e+001  1.000000e+001 -5.000000e+000
      vertex  2.054352e+001  2.028444e+000 -5.000000e+000
      vertex  2.000000e+001  2.100000e+000 -5.000000e+000
    endloop
  endfacet
  facet normal  1.305259e-001 -9.914449e-001  0.000000e+000
    outer loop
      vertex  2.000000e+001  2.100000e+000 -5.000000e+000
      vertex  1.945648e+001  2.028444e+000  0.000000e+000
      vertex  1.945648e+001  2.028444e+000 -5.000000e+000
    endloop
  endfacet
  facet normal  3.826840e-001 -9.238793e-001  0.000000e+000
    outer loop
      vertex  1.945648e+001  2.028444e+000 -5.000000e+000
      vertex  1.945648e+001  2.028444e+000  0.000000e+000
      vertex  1.895000e+001  1.818653e+000  0.000000e+000
    endloop
  endfacet
  facet normal  3.826840e-001 -9.238793e-001  0.000000e+000
    outer loop
      vertex  1.945648e+001  2.028444e+000 -5.000000e+000
      vertex  1.895000e+001  1.818653e+000  0.000000e+000
      vertex  1.895000e+001  1.818653e+000 -5.000000e+000
    endloop
  endfacet
  facet normal  6.087607e-001 -7.933539e-001  0.000000e+000
    outer loop
      vertex  1.895000e+001  1.818653e+000 -5.000000e+000
      vertex  1.895000e+001  1.818653e+000  0.000000e+000
      vertex  1.851508e+001  1.484924e+000  0.000000e+000
    endloop
  endfacet
  facet normal  6.087607e-001 -7.933539e-001  0.000000e+000
    outer loop
      vertex  1.895000e+001  1.818653e+000 -5.000000e+000
      vertex  1.851508e+001  1.484924e+000  0.000000e+000
      vertex  1.851508e+001  1.484924e+000 -5.000000e+000
    endloop
  endfacet
  facet normal  7.933536e-001 -6.087611e-001  0.000000e+000
    outer loop
      vertex  1.851508e+001  1.484924e+000 -5.000000e+000
      vertex  1.851508e+001  1.484924e+000  0.000000e+000
      vertex  1.818135e+001  1.050000e+000  0.000000e+000
    endloop
  endfacet
  facet normal  7.933536e-001 -6.087611e-001  0.000000e+000
    outer loop
      vertex  1.851508e+001  1.484924e+000 -5.000000e+000
      vertex  1.818135e+001  1.050000e+000  0.000000e+000
      vertex  1.818135e+001  1.050000e+000 -5.000000e+000
    endloop
  endfacet
  facet normal  9.238793e-001 -3.826839e-001  0.000000e+000
    outer loop
      vertex  1.818135e+001  1.050000e+000 -5.000000e+000
      vertex  1.818135e+001  1.050000e+000  0.000000e+000
      vertex  1.797156e+001  5.435200e-001  0.000000e+000
    endloop
  endfacet
  facet normal  9.238793e-001 -3.826839e-001  0.000000e+000
    outer loop
      vertex  1.818135e+001  1.050000e+000 -5.000000e+000
      vertex  1.797156e+001  5.435200e-001  0.000000e+000
      vertex  1.797156e+001  5.435200e-001 -5.000000e+000
    endloop
  endfacet
  facet normal  9.914448e-001 -1.305268e-001  0.000000e+000
    outer loop
      vertex  1.797156e+001  5.435200e-001 -5.000000e+000
      vertex  1.797156e+001  5.435200e-001  0.000000e+000
      vertex  1.790000e+001  5.850901e-016  0.000000e+000
    endloop
  endfacet
  facet normal  9.914448e-001 -1.305268e-001  0.000000e+000
    outer loop
      vertex  1.797156e+001  5.435200e-001 -5.000000e+000
      vertex  1.790000e+001  5.850901e-016  0.000000e+000
      vertex  1.790000e+001  5.850901e-016 -5.000000e+000
    endloop
  endfacet
  facet normal  1.305259e-001 -9.914449e-001  0.000000e+000
    outer loop
      vertex  1.945648e+001  2.028444e+000  0.000000e+000
      vertex  2.000000e+001  2.100000e+000 -5.000000e+000
      vertex  2.000000e+001  2.100000e+000  0.000000e+000
    endloop
  endfacet
  facet normal -1.305259e-001 -9.914449e-001  -0.000000e+000
    outer loop
      vertex  2.000000e+001  2.100000e+000  0.000000e+000
      vertex  2.000000e+001  2.100000e+000 -5.000000e+000
      vertex  2.054352e+001  2.028444e+000 -5.000000e+000
    endloop
  endfacet
  facet normal -1.305259e-001 -9.914449e-001  0.000000e+000
    outer loop
      vertex  2.000000e+001  2.100000e+000  0.000000e+000
      vertex  2.054352e+001  2.028444e+000 -5.000000e+000
      vertex  2.054352e+001  2.028444e+000  0.000000e+000
    endloop
  endfacet
  facet normal -3.826840e-001 -9.238793e-001  -0.000000e+000
    outer loop
      vertex  2.054352e+001  2.028444e+000  0.000000e+000
      vertex  2.054352e+001  2.028444e+000 -5.000000e+000
      vertex  2.105000e+001  1.818653e+000 -5.000000e+000
    endloop
  endfacet
  facet normal -3.826840e-001 -9.238793e-001  0.000000e+000
    outer loop
      vertex  2.054352e+001  2.028444e+000  0.000000e+000
      vertex  2.105000e+001  1.818653e+000 -5.000000e+000
      vertex  2.105000e+001  1.818653e+000  0.000000e+000
    endloop
  endfacet
  facet normal -6.087607e-001 -7.933539e-001  -0.000000e+000
    outer loop
      vertex  2.105000e+001  1.818653e+000  0.000000e+000
      vertex  2.105000e+001  1.818653e+000 -5.000000e+000
      vertex  2.148492e+001  1.484924e+000 -5.000000e+000
    endloop
  endfacet
  facet normal -6.087607e-001 -7.933539e-001  0.000000e+000
    outer loop
      vertex  2.105000e+001  1.818653e+000  0.000000e+000
      vertex  2.148492e+001  1.484924e+000 -5.000000e+000
      vertex  2.148492e+001  1.484924e+000  0.000000e+000
    endloop
  endfacet
  facet normal -7.933536e-001 -6.087611e-001  -0.000000e+000
    outer loop
      vertex  2.148492e+001  1.484924e+000  0.000000e+000
      vertex  2.148492e+001  1.484924e+000 -5.000000e+000
      vertex  2.181865e+001  1.050000e+000 -5.000000e+000
    endloop
  endfacet
  facet normal -7.933536e-001 -6.087611e-001  0.000000e+000
    outer loop
      vertex  2.148492e+001  1.484924e+000  0.000000e+000
      vertex  2.181865e+001  1.050000e+000 -5.000000e+000
      vertex  2.181865e+001  1.050000e+000  0.000000e+000
    endloop
  endfacet
  facet normal -9.238793e-001 -3.826839e-001  -0.000000e+000
    outer loop
      vertex  2.181865e+001  1.050000e+000  0.000000e+000
      vertex  2.181865e+001  1.050000e+000 -5.000000e+000
      vertex  2.202844e+001  5.435200e-001 -5.000000e+000
    endloop
  endfacet
  facet normal -9.238793e-001 -3.826839e-001  0.000000e+000
    outer loop
      vertex  2.181865e+001  1.050000e+000  0.000000e+000
      vertex  2.202844e+001  5.435200e-001 -5.000000e+000
      vertex  2.202844e+001  5.435200e-001  0.000000e+000
    endloop
  endfacet
  facet normal -9.914448e-001 -1.305268e-001  -0.000000e+000
    outer loop
      vertex  2.202844e+001  5.435200e-001  0.000000e+000
      vertex  2.202844e+001  5.435200e-001 -5.000000e+000
      vertex  2.210000e+001 -1.864119e-016 -5.000000e+000
    endloop
  endfacet
  facet normal -9.914448e-001 -1.305268e-001  1.342689e-017
    outer loop
      vertex  2.202844e+001  5.435200e-001  0.000000e+000
      vertex  2.210000e+001 -1.864119e-016 -5.000000e+000
      vertex  2.210000e+001  3.279227e-016  0.000000e+000
    endloop
  endfacet
  facet normal -1.305259e-001  9.914449e-001  0.000000e+000
    outer loop
      vertex  2.000000e+001 -2.100000e+000 -5.000000e+000
      vertex  2.054352e+001 -2.028444e+000  0.000000e+000
      vertex  2.054352e+001 -2.028444e+000 -5.000000e+000
    endloop
  endfacet
  facet normal -3.826840e-001  9.238793e-001  0.000000e+000
    outer loop
      vertex  2.054352e+001 -2.028444e+000 -5.000000e+000
      vertex  2.054352e+001 -2.028444e+000  0.000000e+000
      vertex  2.105000e+001 -1.818653e+000  0.000000e+000
    endloop
  endfacet
  facet normal -3.826840e-001  9.238793e-001  0.000000e+000
    outer loop
      vertex  2.054352e+001 -2.028444e+000 -5.000000e+000
      vertex  2.105000e+001 -1.818653e+000  0.000000e+000
      vertex  2.105000e+001 -1.818653e+000 -5.000000e+000
    endloop
  endfacet
  facet normal -6.087607e-001  7.933539e-001  0.000000e+000
    outer loop
      vertex  2.105000e+001 -1.818653e+000 -5.000000e+000
      vertex  2.105000e+001 -1.818653e+000  0.000000e+000
      vertex  2.148492e+001 -1.484924e+000  0.000000e+000
    endloop
  endfacet
  facet normal -6.087607e-001  7.933539e-001  0.000000e+000
    outer loop
      vertex  2.105000e+001 -1.818653e+000 -5.000000e+000
      vertex  2.148492e+001 -1.484924e+000  0.000000e+000
      vertex  2.148492e+001 -1.484924e+000 -5.000000e+000
    endloop
  endfacet
  facet normal -7.933536e-001  6.087611e-001  0.000000e+000
    outer loop
      vertex  2.148492e+001 -1.484924e+000 -5.000000e+000
      vertex  2.148492e+001 -1.484924e+000  0.000000e+000
      vertex  2.181865e+001 -1.050000e+000  0.000000e+000
    endloop
  endfacet
  facet normal -7.933536e-001  6.087611e-001  0.000000e+000
    outer loop
      vertex  2.148492e+001 -1.484924e+000 -5.000000e+000
      vertex  2.181865e+001 -1.050000e+000  0.000000e+000
      vertex  2.181865e+001 -1.050000e+000 -5.000000e+000
    endloop
  endfacet
  facet normal -9.238793e-001  3.826839e-001  0.000000e+000
    outer loop
      vertex  2.181865e+001 -1.050000e+000 -5.000000e+000
      vertex  2.181865e+001 -1.050000e+000  0.000000e+000
      vertex  2.202844e+001 -5.435200e-001  0.000000e+000
    endloop
  endfacet
  facet normal -9.238793e-001  3.826839e-001  0.000000e+000
    outer loop
      vertex  2.181865e+001 -1.050000e+000 -5.000000e+000
      vertex  2.202844e+001 -5.435200e-001  0.000000e+000
      vertex  2.202844e+001 -5.435200e-001 -5.000000e+000
    endloop
  endfacet
  facet normal -9.914448e-001  1.305268e-001  0.000000e+000
    outer loop
      vertex  2.202844e+001 -5.435200e-001 -5.000000e+000
      vertex  2.202844e+001 -5.435200e-001  0.000000e+000
      vertex  2.210000e+001  3.279227e-016  0.000000e+000
    endloop
  endfacet
  facet normal -9.914448e-001  1.305268e-001 -1.342689e-017
    outer loop
      vertex  2.202844e+001 -5.435200e-001 -5.000000e+000
      vertex  2.210000e+001  3.279227e-016  0.000000e+000
      vertex  2.210000e+001 -1.864119e-016 -5.000000e+000
    endloop
  endfacet
  facet normal -1.305259e-001  9.914449e-001  0.000000e+000
    outer loop
      vertex  2.054352e+001 -2.028444e+000  0.000000e+000
      vertex  2.000000e+001 -2.100000e+000 -5.000000e+000
      vertex  2.000000e+001 -2.100000e+000  0.000000e+000
    endloop
  endfacet
  facet normal  1.305259e-001  9.914449e-001  0.000000e+000
    outer loop
      vertex  2.000000e+001 -2.100000e+000  0.000000e+000
      vertex  2.000000e+001 -2.100000e+000 -5.000000e+000
      vertex  1.945648e+001 -2.028444e+000 -5.000000e+000
    endloop
  endfacet
  facet normal  1.305259e-001  9.914449e-001  -0.000000e+000
    outer loop
      vertex  2.000000e+001 -2.100000e+000  0.000000e+000
      vertex  1.945648e+001 -2.028444e+000 -5.000000e+000
      vertex  1.945648e+001 -2.028444e+000  0.000000e+000
    endloop
  endfacet
  facet normal  3.826840e-001  9.238793e-001  0.000000e+000
    outer loop
      vertex  1.945648e+001 -2.028444e+000  0.000000e+000
      vertex  1.945648e+001 -2.028444e+000 -5.000000e+000
      vertex  1.895000e+001 -1.818653e+000 -5.000000e+000
    endloop
  endfacet
  facet normal  3.826840e-001  9.238793e-001  -0.000000e+000
    outer loop
      vertex  1.945648e+001 -2.028444e+000  0.000000e+000
      vertex  1.895000e+001 -1.818653e+000 -5.000000e+000
      vertex  1.895000e+001 -1.818653e+000  0.000000e+000
    endloop
  endfacet
  facet normal  6.087607e-001  7.933539e-001  0.000000e+000
    outer loop
      vertex  1.895000e+001 -1.818653e+000  0.000000e+000
      vertex  1.895000e+001 -1.818653e+000 -5.000000e+000
      vertex  1.851508e+001 -1.484924e+000 -5.000000e+000
    endloop
  endfacet
  facet normal  6.087607e-001  7.933539e-001  -0.000000e+000
    outer loop
      vertex  1.895000e+001 -1.818653e+000  0.000000e+000
      vertex  1.851508e+001 -1.484924e+000 -5.000000e+000
      vertex  1.851508e+001 -1.484924e+000  0.000000e+000
    endloop
  endfacet
  facet normal  7.933536e-001  6.087611e-001  0.000000e+000
    outer loop
      vertex  1.851508e+001 -1.484924e+000  0.000000e+000
      vertex  1.851508e+001 -1.484924e+000 -5.000000e+000
      vertex  1.818135e+001 -1.050000e+000 -5.000000e+000
    endloop
  endfacet
  facet normal  7.933536e-001  6.087611e-001  -0.000000e+000
    outer loop
      vertex  1.851508e+001 -1.484924e+000  0.000000e+000
      vertex  1.818135e+001 -1.050000e+000 -5.000000e+000
      vertex  1.818135e+001 -1.050000e+000  0.000000e+000
    endloop
  endfacet
  facet normal  9.238793e-001  3.826839e-001  0.000000e+000
    outer loop
      vertex  1.818135e+001 -1.050000e+000  0.000000e+000
      vertex  1.818135e+001 -1.050000e+000 -5.000000e+000
      vertex  1.797156e+001 -5.435200e-001 -5.000000e+000
    endloop
  endfacet
  facet normal  9.238793e-001  3.826839e-001  -0.000000e+000
    outer loop
      vertex  1.818135e+001 -1.050000e+000  0.000000e+000
      vertex  1.797156e+001 -5.435200e-001 -5.000000e+000
      vertex  1.797156e+001 -5.435200e-001  0.000000e+000
    endloop
  endfacet
  facet normal  9.914448e-001  1.305268e-001  0.000000e+000
    outer loop
      vertex  1.797156e+001 -5.435200e-001  0.000000e+000
      vertex  1.797156e+001 -5.435200e-001 -5.000000e+000
      vertex  1.790000e+001  5.850901e-016 -5.000000e+000
    endloop
  endfacet
  facet normal  9.914448e-001  1.305268e-001  -0.000000e+000
    outer loop
      vertex  1.797156e+001 -5.435200e-001  0.000000e+000
      vertex  1.790000e+001  5.850901e-016 -5.000000e+000
      vertex  1.790000e+001  5.850901e-016  0.000000e+000
    endloop
  endfacet
  facet normal  1.000000e+000  0.000000e+000  -0.000000e+000
    outer loop
      vertex  4.000000e+001 -1.000000e+001 -5.000000e+000
      vertex  4.000000e+001  1.000000e+001 -5.000000e+000
      vertex  4.000000e+001  1.000000e+001 -1.065814e-014
    endloop
  endfacet
  facet normal  1.000000e+000  0.000000e+000  0.000000e+000
    outer loop
      vertex  4.000000e+001 -1.000000e+001 -5.000000e+000
      vertex  4.000000e+001  1.000000e+001 -1.065814e-014
      vertex  4.000000e+001  7.000000e+000 -1.065814e-014
    endloop
  endfacet
  facet normal  1.000000e+000  0.000000e+000  0.000000e+000
    outer loop
      vertex  4.000000e+001 -1.000000e+001 -5.000000e+000
      vertex  4.000000e+001  7.000000e+000 -1.065814e-014
      vertex  4.000000e+001 -7.000000e+000 -1.065814e-014
    endloop
  endfacet
  facet normal  1.000000e+000  0.000000e+000  0.000000e+000
    outer loop
      vertex  4.000000e+001 -1.000000e+001 -5.000000e+000
      vertex  4.000000e+001 -7.000000e+000 -1.065814e-014
      vertex  4.000000e+001 -1.000000e+001 -1.065814e-014
    endloop
  endfacet
endsolid CATIA STL
