solid CATIA STL
  facet normal  1.000000e+000  0.000000e+000  -0.000000e+000
    outer loop
      vertex  5.000000e+000 -1.484924e+000 -1.601508e+001
      vertex  5.000000e+000 -1.050000e+000 -1.568135e+001
      vertex  5.000000e+000 -2.250926e-015  1.540000e+001
    endloop
  endfacet
  facet normal  1.000000e+000  0.000000e+000  -0.000000e+000
    outer loop
      vertex  5.000000e+000 -1.050000e+000 -1.568135e+001
      vertex  5.000000e+000 -5.435200e-001 -1.547156e+001
      vertex  5.000000e+000 -2.250926e-015  1.540000e+001
    endloop
  endfacet
  facet normal  1.000000e+000  0.000000e+000  0.000000e+000
    outer loop
      vertex  5.000000e+000 -5.435200e-001 -1.547156e+001
      vertex  5.000000e+000  5.948773e-016 -1.540000e+001
      vertex  5.000000e+000 -2.250926e-015  1.540000e+001
    endloop
  endfacet
  facet normal  1.000000e+000  0.000000e+000  0.000000e+000
    outer loop
      vertex  5.000000e+000  1.484924e+000 -1.601508e+001
      vertex  5.000000e+000 -2.250926e-015  1.540000e+001
      vertex  5.000000e+000  1.050000e+000 -1.568135e+001
    endloop
  endfacet
  facet normal  1.000000e+000  0.000000e+000  0.000000e+000
    outer loop
      vertex  5.000000e+000  1.050000e+000 -1.568135e+001
      vertex  5.000000e+000 -2.250926e-015  1.540000e+001
      vertex  5.000000e+000  5.435200e-001 -1.547156e+001
    endloop
  endfacet
  facet normal  1.000000e+000  0.000000e+000  0.000000e+000
    outer loop
      vertex  5.000000e+000  5.435200e-001 -1.547156e+001
      vertex  5.000000e+000 -2.250926e-015  1.540000e+001
      vertex  5.000000e+000  5.948773e-016 -1.540000e+001
    endloop
  endfacet
  facet normal  1.000000e+000  0.000000e+000  0.000000e+000
    outer loop
      vertex  5.000000e+000 -1.000000e+001 -2.500000e+001
      vertex  5.000000e+000  1.000000e+001 -2.500000e+001
      vertex  5.000000e+000 -2.250926e-015 -1.960000e+001
    endloop
  endfacet
  facet normal  9.999999e-001  0.000000e+000  0.000000e+000
    outer loop
      vertex  5.000000e+000 -1.000000e+001 -2.500000e+001
      vertex  5.000000e+000 -2.250926e-015 -1.960000e+001
      vertex  5.000000e+000 -5.435200e-001 -1.952844e+001
    endloop
  endfacet
  facet normal  1.000000e+000  0.000000e+000  0.000000e+000
    outer loop
      vertex  5.000000e+000 -1.000000e+001 -2.500000e+001
      vertex  5.000000e+000 -5.435200e-001 -1.952844e+001
      vertex  5.000000e+000 -1.050000e+000 -1.931865e+001
    endloop
  endfacet
  facet normal  1.000000e+000  0.000000e+000  0.000000e+000
    outer loop
      vertex  5.000000e+000 -1.000000e+001 -2.500000e+001
      vertex  5.000000e+000 -1.050000e+000 -1.931865e+001
      vertex  5.000000e+000 -1.484924e+000 -1.898492e+001
    endloop
  endfacet
  facet normal  1.000000e+000  0.000000e+000  0.000000e+000
    outer loop
      vertex  5.000000e+000 -1.000000e+001 -2.500000e+001
      vertex  5.000000e+000 -1.484924e+000 -1.898492e+001
      vertex  5.000000e+000 -1.818653e+000 -1.855000e+001
    endloop
  endfacet
  facet normal  1.000000e+000  0.000000e+000  0.000000e+000
    outer loop
      vertex  5.000000e+000 -1.000000e+001 -2.500000e+001
      vertex  5.000000e+000 -1.818653e+000 -1.855000e+001
      vertex  5.000000e+000 -2.028444e+000 -1.804352e+001
    endloop
  endfacet
  facet normal  1.000000e+000  0.000000e+000  0.000000e+000
    outer loop
      vertex  5.000000e+000 -1.000000e+001 -2.500000e+001
      vertex  5.000000e+000 -2.028444e+000 -1.804352e+001
      vertex  5.000000e+000 -2.100000e+000 -1.750000e+001
    endloop
  endfacet
  facet normal  1.000000e+000  0.000000e+000  -0.000000e+000
    outer loop
      vertex  5.000000e+000 -1.000000e+001 -2.500000e+001
      vertex  5.000000e+000 -2.100000e+000 -1.750000e+001
      vertex  5.000000e+000 -2.028444e+000 -1.695648e+001
    endloop
  endfacet
  facet normal  1.000000e+000  0.000000e+000  -0.000000e+000
    outer loop
      vertex  5.000000e+000 -1.000000e+001 -2.500000e+001
      vertex  5.000000e+000 -2.028444e+000 -1.695648e+001
      vertex  5.000000e+000 -1.818653e+000 -1.645000e+001
    endloop
  endfacet
  facet normal  9.999999e-001  0.000000e+000  -0.000000e+000
    outer loop
      vertex  5.000000e+000 -1.000000e+001 -2.500000e+001
      vertex  5.000000e+000 -1.818653e+000 -1.645000e+001
      vertex  5.000000e+000 -1.484924e+000 -1.601508e+001
    endloop
  endfacet
  facet normal  1.000000e+000  0.000000e+000  -0.000000e+000
    outer loop
      vertex  5.000000e+000 -1.000000e+001 -2.500000e+001
      vertex  5.000000e+000 -1.484924e+000 -1.601508e+001
      vertex  5.000000e+000 -2.250926e-015  1.540000e+001
    endloop
  endfacet
  facet normal  1.000000e+000  0.000000e+000  0.000000e+000
    outer loop
      vertex  5.000000e+000 -1.000000e+001 -2.500000e+001
      vertex  5.000000e+000 -2.250926e-015  1.540000e+001
      vertex  5.000000e+000 -5.435200e-001  1.547156e+001
    endloop
  endfacet
  facet normal  1.000000e+000  0.000000e+000  0.000000e+000
    outer loop
      vertex  5.000000e+000 -1.000000e+001 -2.500000e+001
      vertex  5.000000e+000 -5.435200e-001  1.547156e+001
      vertex  5.000000e+000 -1.050000e+000  1.568135e+001
    endloop
  endfacet
  facet normal  1.000000e+000  0.000000e+000  0.000000e+000
    outer loop
      vertex  5.000000e+000 -1.000000e+001 -2.500000e+001
      vertex  5.000000e+000 -1.050000e+000  1.568135e+001
      vertex  5.000000e+000 -1.484924e+000  1.601508e+001
    endloop
  endfacet
  facet normal  1.000000e+000  0.000000e+000  0.000000e+000
    outer loop
      vertex  5.000000e+000 -1.000000e+001 -2.500000e+001
      vertex  5.000000e+000 -1.484924e+000  1.601508e+001
      vertex  5.000000e+000 -1.818653e+000  1.645000e+001
    endloop
  endfacet
  facet normal  1.000000e+000  0.000000e+000  0.000000e+000
    outer loop
      vertex  5.000000e+000 -1.000000e+001 -2.500000e+001
      vertex  5.000000e+000 -1.818653e+000  1.645000e+001
      vertex  5.000000e+000 -2.028444e+000  1.695648e+001
    endloop
  endfacet
  facet normal  9.999999e-001  0.000000e+000  0.000000e+000
    outer loop
      vertex  5.000000e+000 -1.000000e+001 -2.500000e+001
      vertex  5.000000e+000 -2.028444e+000  1.695648e+001
      vertex  5.000000e+000 -2.100000e+000  1.750000e+001
    endloop
  endfacet
  facet normal  1.000000e+000  0.000000e+000  -0.000000e+000
    outer loop
      vertex  5.000000e+000 -1.000000e+001 -2.500000e+001
      vertex  5.000000e+000 -2.100000e+000  1.750000e+001
      vertex  5.000000e+000 -2.028444e+000  1.804352e+001
    endloop
  endfacet
  facet normal  1.000000e+000  0.000000e+000  0.000000e+000
    outer loop
      vertex  5.000000e+000 -1.000000e+001  2.500000e+001
      vertex  5.000000e+000 -1.000000e+001 -2.500000e+001
      vertex  5.000000e+000 -2.028444e+000  1.804352e+001
    endloop
  endfacet
  facet normal  1.000000e+000  0.000000e+000  -0.000000e+000
    outer loop
      vertex  5.000000e+000 -1.000000e+001  2.500000e+001
      vertex  5.000000e+000 -2.028444e+000  1.804352e+001
      vertex  5.000000e+000 -1.818653e+000  1.855000e+001
    endloop
  endfacet
  facet normal  1.000000e+000  0.000000e+000  -0.000000e+000
    outer loop
      vertex  5.000000e+000 -1.000000e+001  2.500000e+001
      vertex  5.000000e+000 -1.818653e+000  1.855000e+001
      vertex  5.000000e+000 -1.484924e+000  1.898492e+001
    endloop
  endfacet
  facet normal  1.000000e+000  0.000000e+000  -0.000000e+000
    outer loop
      vertex  5.000000e+000 -1.000000e+001  2.500000e+001
      vertex  5.000000e+000 -1.484924e+000  1.898492e+001
      vertex  5.000000e+000 -1.050000e+000  1.931865e+001
    endloop
  endfacet
  facet normal  1.000000e+000  0.000000e+000  -0.000000e+000
    outer loop
      vertex  5.000000e+000 -1.000000e+001  2.500000e+001
      vertex  5.000000e+000 -1.050000e+000  1.931865e+001
      vertex  5.000000e+000 -5.435200e-001  1.952844e+001
    endloop
  endfacet
  facet normal  9.999999e-001  0.000000e+000  -0.000000e+000
    outer loop
      vertex  5.000000e+000 -1.000000e+001  2.500000e+001
      vertex  5.000000e+000 -5.435200e-001  1.952844e+001
      vertex  5.000000e+000  5.948773e-016  1.960000e+001
    endloop
  endfacet
  facet normal  1.000000e+000  0.000000e+000  -0.000000e+000
    outer loop
      vertex  5.000000e+000 -1.000000e+001  2.500000e+001
      vertex  5.000000e+000  5.948773e-016  1.960000e+001
      vertex  5.000000e+000  1.000000e+001  2.500000e+001
    endloop
  endfacet
  facet normal  9.999999e-001  0.000000e+000  0.000000e+000
    outer loop
      vertex  5.000000e+000  1.000000e+001 -2.500000e+001
      vertex  5.000000e+000  2.028444e+000  1.804352e+001
      vertex  5.000000e+000  2.100000e+000  1.750000e+001
    endloop
  endfacet
  facet normal  9.999999e-001  0.000000e+000  0.000000e+000
    outer loop
      vertex  5.000000e+000  1.000000e+001 -2.500000e+001
      vertex  5.000000e+000  2.100000e+000  1.750000e+001
      vertex  5.000000e+000  2.028444e+000  1.695648e+001
    endloop
  endfacet
  facet normal  1.000000e+000  0.000000e+000  0.000000e+000
    outer loop
      vertex  5.000000e+000  1.000000e+001 -2.500000e+001
      vertex  5.000000e+000  2.028444e+000  1.695648e+001
      vertex  5.000000e+000  1.818653e+000  1.645000e+001
    endloop
  endfacet
  facet normal  1.000000e+000  0.000000e+000  0.000000e+000
    outer loop
      vertex  5.000000e+000  1.000000e+001 -2.500000e+001
      vertex  5.000000e+000  1.818653e+000  1.645000e+001
      vertex  5.000000e+000  1.484924e+000  1.601508e+001
    endloop
  endfacet
  facet normal  1.000000e+000  0.000000e+000  0.000000e+000
    outer loop
      vertex  5.000000e+000  1.000000e+001 -2.500000e+001
      vertex  5.000000e+000  1.484924e+000  1.601508e+001
      vertex  5.000000e+000  1.050000e+000  1.568135e+001
    endloop
  endfacet
  facet normal  1.000000e+000  0.000000e+000  0.000000e+000
    outer loop
      vertex  5.000000e+000  1.000000e+001 -2.500000e+001
      vertex  5.000000e+000  1.050000e+000  1.568135e+001
      vertex  5.000000e+000  5.435200e-001  1.547156e+001
    endloop
  endfacet
  facet normal  1.000000e+000  0.000000e+000  0.000000e+000
    outer loop
      vertex  5.000000e+000  1.000000e+001 -2.500000e+001
      vertex  5.000000e+000  5.435200e-001  1.547156e+001
      vertex  5.000000e+000 -2.250926e-015  1.540000e+001
    endloop
  endfacet
  facet normal  1.000000e+000  0.000000e+000  0.000000e+000
    outer loop
      vertex  5.000000e+000  1.000000e+001 -2.500000e+001
      vertex  5.000000e+000 -2.250926e-015  1.540000e+001
      vertex  5.000000e+000  1.484924e+000 -1.601508e+001
    endloop
  endfacet
  facet normal  9.999999e-001  0.000000e+000  0.000000e+000
    outer loop
      vertex  5.000000e+000  1.000000e+001 -2.500000e+001
      vertex  5.000000e+000  1.484924e+000 -1.601508e+001
      vertex  5.000000e+000  1.818653e+000 -1.645000e+001
    endloop
  endfacet
  facet normal  1.000000e+000  0.000000e+000  0.000000e+000
    outer loop
      vertex  5.000000e+000  1.000000e+001 -2.500000e+001
      vertex  5.000000e+000  1.818653e+000 -1.645000e+001
      vertex  5.000000e+000  2.028444e+000 -1.695648e+001
    endloop
  endfacet
  facet normal  1.000000e+000  0.000000e+000  0.000000e+000
    outer loop
      vertex  5.000000e+000  1.000000e+001 -2.500000e+001
      vertex  5.000000e+000  2.028444e+000 -1.695648e+001
      vertex  5.000000e+000  2.100000e+000 -1.750000e+001
    endloop
  endfacet
  facet normal  1.000000e+000  0.000000e+000  0.000000e+000
    outer loop
      vertex  5.000000e+000  1.000000e+001 -2.500000e+001
      vertex  5.000000e+000  2.100000e+000 -1.750000e+001
      vertex  5.000000e+000  2.028444e+000 -1.804352e+001
    endloop
  endfacet
  facet normal  1.000000e+000  0.000000e+000  0.000000e+000
    outer loop
      vertex  5.000000e+000  1.000000e+001 -2.500000e+001
      vertex  5.000000e+000  2.028444e+000 -1.804352e+001
      vertex  5.000000e+000  1.818653e+000 -1.855000e+001
    endloop
  endfacet
  facet normal  1.000000e+000  0.000000e+000  0.000000e+000
    outer loop
      vertex  5.000000e+000  1.000000e+001 -2.500000e+001
      vertex  5.000000e+000  1.818653e+000 -1.855000e+001
      vertex  5.000000e+000  1.484924e+000 -1.898492e+001
    endloop
  endfacet
  facet normal  1.000000e+000  0.000000e+000  0.000000e+000
    outer loop
      vertex  5.000000e+000  1.000000e+001 -2.500000e+001
      vertex  5.000000e+000  1.484924e+000 -1.898492e+001
      vertex  5.000000e+000  1.050000e+000 -1.931865e+001
    endloop
  endfacet
  facet normal  1.000000e+000  0.000000e+000  0.000000e+000
    outer loop
      vertex  5.000000e+000  1.000000e+001 -2.500000e+001
      vertex  5.000000e+000  1.050000e+000 -1.931865e+001
      vertex  5.000000e+000  5.435200e-001 -1.952844e+001
    endloop
  endfacet
  facet normal  9.999999e-001  0.000000e+000  0.000000e+000
    outer loop
      vertex  5.000000e+000  1.000000e+001 -2.500000e+001
      vertex  5.000000e+000  5.435200e-001 -1.952844e+001
      vertex  5.000000e+000 -2.250926e-015 -1.960000e+001
    endloop
  endfacet
  facet normal  9.999999e-001  -0.000000e+000  0.000000e+000
    outer loop
      vertex  5.000000e+000  1.000000e+001  2.500000e+001
      vertex  5.000000e+000  5.948773e-016  1.960000e+001
      vertex  5.000000e+000  5.435200e-001  1.952844e+001
    endloop
  endfacet
  facet normal  1.000000e+000  -0.000000e+000  0.000000e+000
    outer loop
      vertex  5.000000e+000  1.000000e+001  2.500000e+001
      vertex  5.000000e+000  5.435200e-001  1.952844e+001
      vertex  5.000000e+000  1.050000e+000  1.931865e+001
    endloop
  endfacet
  facet normal  1.000000e+000  -0.000000e+000  0.000000e+000
    outer loop
      vertex  5.000000e+000  1.000000e+001  2.500000e+001
      vertex  5.000000e+000  1.050000e+000  1.931865e+001
      vertex  5.000000e+000  1.484924e+000  1.898492e+001
    endloop
  endfacet
  facet normal  1.000000e+000  -0.000000e+000  0.000000e+000
    outer loop
      vertex  5.000000e+000  1.000000e+001  2.500000e+001
      vertex  5.000000e+000  1.484924e+000  1.898492e+001
      vertex  5.000000e+000  1.818653e+000  1.855000e+001
    endloop
  endfacet
  facet normal  1.000000e+000  -0.000000e+000  0.000000e+000
    outer loop
      vertex  5.000000e+000  1.000000e+001  2.500000e+001
      vertex  5.000000e+000  1.818653e+000  1.855000e+001
      vertex  5.000000e+000  2.028444e+000  1.804352e+001
    endloop
  endfacet
  facet normal  9.999999e-001  -0.000000e+000  0.000000e+000
    outer loop
      vertex  5.000000e+000  1.000000e+001  2.500000e+001
      vertex  5.000000e+000  2.028444e+000  1.804352e+001
      vertex  5.000000e+000  1.000000e+001 -2.500000e+001
    endloop
  endfacet
  facet normal -1.000000e+000  -0.000000e+000  0.000000e+000
    outer loop
      vertex  0.000000e+000 -2.250926e-015  1.540000e+001
      vertex  0.000000e+000 -1.050000e+000 -1.568135e+001
      vertex  0.000000e+000 -1.484924e+000 -1.601508e+001
    endloop
  endfacet
  facet normal -1.000000e+000  -0.000000e+000  0.000000e+000
    outer loop
      vertex  0.000000e+000 -2.250926e-015  1.540000e+001
      vertex  0.000000e+000 -5.435200e-001 -1.547156e+001
      vertex  0.000000e+000 -1.050000e+000 -1.568135e+001
    endloop
  endfacet
  facet normal -1.000000e+000  -0.000000e+000  0.000000e+000
    outer loop
      vertex  0.000000e+000 -2.250926e-015  1.540000e+001
      vertex  0.000000e+000  5.948773e-016 -1.540000e+001
      vertex  0.000000e+000 -5.435200e-001 -1.547156e+001
    endloop
  endfacet
  facet normal -1.000000e+000  0.000000e+000  0.000000e+000
    outer loop
      vertex  0.000000e+000  1.050000e+000 -1.568135e+001
      vertex  0.000000e+000 -2.250926e-015  1.540000e+001
      vertex  0.000000e+000  1.484924e+000 -1.601508e+001
    endloop
  endfacet
  facet normal -1.000000e+000  0.000000e+000  0.000000e+000
    outer loop
      vertex  0.000000e+000  5.435200e-001 -1.547156e+001
      vertex  0.000000e+000 -2.250926e-015  1.540000e+001
      vertex  0.000000e+000  1.050000e+000 -1.568135e+001
    endloop
  endfacet
  facet normal -1.000000e+000  0.000000e+000  0.000000e+000
    outer loop
      vertex  0.000000e+000  5.948773e-016 -1.540000e+001
      vertex  0.000000e+000 -2.250926e-015  1.540000e+001
      vertex  0.000000e+000  5.435200e-001 -1.547156e+001
    endloop
  endfacet
  facet normal -9.999999e-001  0.000000e+000  0.000000e+000
    outer loop
      vertex  0.000000e+000 -1.000000e+001 -2.500000e+001
      vertex  0.000000e+000 -2.028444e+000  1.804352e+001
      vertex  0.000000e+000 -2.100000e+000  1.750000e+001
    endloop
  endfacet
  facet normal -9.999999e-001  0.000000e+000  -0.000000e+000
    outer loop
      vertex  0.000000e+000 -1.000000e+001 -2.500000e+001
      vertex  0.000000e+000 -2.100000e+000  1.750000e+001
      vertex  0.000000e+000 -2.028444e+000  1.695648e+001
    endloop
  endfacet
  facet normal -1.000000e+000  0.000000e+000  -0.000000e+000
    outer loop
      vertex  0.000000e+000 -1.000000e+001 -2.500000e+001
      vertex  0.000000e+000 -2.028444e+000  1.695648e+001
      vertex  0.000000e+000 -1.818653e+000  1.645000e+001
    endloop
  endfacet
  facet normal -1.000000e+000  0.000000e+000  -0.000000e+000
    outer loop
      vertex  0.000000e+000 -1.000000e+001 -2.500000e+001
      vertex  0.000000e+000 -1.818653e+000  1.645000e+001
      vertex  0.000000e+000 -1.484924e+000  1.601508e+001
    endloop
  endfacet
  facet normal -1.000000e+000  0.000000e+000  -0.000000e+000
    outer loop
      vertex  0.000000e+000 -1.000000e+001 -2.500000e+001
      vertex  0.000000e+000 -1.484924e+000  1.601508e+001
      vertex  0.000000e+000 -1.050000e+000  1.568135e+001
    endloop
  endfacet
  facet normal -1.000000e+000  0.000000e+000  -0.000000e+000
    outer loop
      vertex  0.000000e+000 -1.000000e+001 -2.500000e+001
      vertex  0.000000e+000 -1.050000e+000  1.568135e+001
      vertex  0.000000e+000 -5.435200e-001  1.547156e+001
    endloop
  endfacet
  facet normal -1.000000e+000  0.000000e+000  -0.000000e+000
    outer loop
      vertex  0.000000e+000 -1.000000e+001 -2.500000e+001
      vertex  0.000000e+000 -5.435200e-001  1.547156e+001
      vertex  0.000000e+000 -2.250926e-015  1.540000e+001
    endloop
  endfacet
  facet normal -1.000000e+000  0.000000e+000  0.000000e+000
    outer loop
      vertex  0.000000e+000 -1.000000e+001 -2.500000e+001
      vertex  0.000000e+000 -2.250926e-015  1.540000e+001
      vertex  0.000000e+000 -1.484924e+000 -1.601508e+001
    endloop
  endfacet
  facet normal -9.999999e-001  0.000000e+000  0.000000e+000
    outer loop
      vertex  0.000000e+000 -1.000000e+001 -2.500000e+001
      vertex  0.000000e+000 -1.484924e+000 -1.601508e+001
      vertex  0.000000e+000 -1.818653e+000 -1.645000e+001
    endloop
  endfacet
  facet normal -1.000000e+000  0.000000e+000  0.000000e+000
    outer loop
      vertex  0.000000e+000 -1.000000e+001 -2.500000e+001
      vertex  0.000000e+000 -1.818653e+000 -1.645000e+001
      vertex  0.000000e+000 -2.028444e+000 -1.695648e+001
    endloop
  endfacet
  facet normal -1.000000e+000  0.000000e+000  0.000000e+000
    outer loop
      vertex  0.000000e+000 -1.000000e+001 -2.500000e+001
      vertex  0.000000e+000 -2.028444e+000 -1.695648e+001
      vertex  0.000000e+000 -2.100000e+000 -1.750000e+001
    endloop
  endfacet
  facet normal -1.000000e+000  0.000000e+000  -0.000000e+000
    outer loop
      vertex  0.000000e+000 -1.000000e+001 -2.500000e+001
      vertex  0.000000e+000 -2.100000e+000 -1.750000e+001
      vertex  0.000000e+000 -2.028444e+000 -1.804352e+001
    endloop
  endfacet
  facet normal -1.000000e+000  0.000000e+000  -0.000000e+000
    outer loop
      vertex  0.000000e+000 -1.000000e+001 -2.500000e+001
      vertex  0.000000e+000 -2.028444e+000 -1.804352e+001
      vertex  0.000000e+000 -1.818653e+000 -1.855000e+001
    endloop
  endfacet
  facet normal -1.000000e+000  0.000000e+000  -0.000000e+000
    outer loop
      vertex  0.000000e+000 -1.000000e+001 -2.500000e+001
      vertex  0.000000e+000 -1.818653e+000 -1.855000e+001
      vertex  0.000000e+000 -1.484924e+000 -1.898492e+001
    endloop
  endfacet
  facet normal -1.000000e+000  0.000000e+000  -0.000000e+000
    outer loop
      vertex  0.000000e+000 -1.000000e+001 -2.500000e+001
      vertex  0.000000e+000 -1.484924e+000 -1.898492e+001
      vertex  0.000000e+000 -1.050000e+000 -1.931865e+001
    endloop
  endfacet
  facet normal -1.000000e+000  0.000000e+000  -0.000000e+000
    outer loop
      vertex  0.000000e+000 -1.000000e+001 -2.500000e+001
      vertex  0.000000e+000 -1.050000e+000 -1.931865e+001
      vertex  0.000000e+000 -5.435200e-001 -1.952844e+001
    endloop
  endfacet
  facet normal -9.999999e-001  0.000000e+000  -0.000000e+000
    outer loop
      vertex  0.000000e+000 -1.000000e+001 -2.500000e+001
      vertex  0.000000e+000 -5.435200e-001 -1.952844e+001
      vertex  0.000000e+000 -2.250926e-015 -1.960000e+001
    endloop
  endfacet
  facet normal -1.000000e+000  0.000000e+000  -0.000000e+000
    outer loop
      vertex  0.000000e+000 -1.000000e+001 -2.500000e+001
      vertex  0.000000e+000 -2.250926e-015 -1.960000e+001
      vertex  0.000000e+000  1.000000e+001 -2.500000e+001
    endloop
  endfacet
  facet normal -1.000000e+000  -0.000000e+000  0.000000e+000
    outer loop
      vertex  0.000000e+000 -1.000000e+001  2.500000e+001
      vertex  0.000000e+000  1.000000e+001  2.500000e+001
      vertex  0.000000e+000  5.948773e-016  1.960000e+001
    endloop
  endfacet
  facet normal -9.999999e-001  -0.000000e+000  0.000000e+000
    outer loop
      vertex  0.000000e+000 -1.000000e+001  2.500000e+001
      vertex  0.000000e+000  5.948773e-016  1.960000e+001
      vertex  0.000000e+000 -5.435200e-001  1.952844e+001
    endloop
  endfacet
  facet normal -1.000000e+000  -0.000000e+000  0.000000e+000
    outer loop
      vertex  0.000000e+000 -1.000000e+001  2.500000e+001
      vertex  0.000000e+000 -5.435200e-001  1.952844e+001
      vertex  0.000000e+000 -1.050000e+000  1.931865e+001
    endloop
  endfacet
  facet normal -1.000000e+000  -0.000000e+000  0.000000e+000
    outer loop
      vertex  0.000000e+000 -1.000000e+001  2.500000e+001
      vertex  0.000000e+000 -1.050000e+000  1.931865e+001
      vertex  0.000000e+000 -1.484924e+000  1.898492e+001
    endloop
  endfacet
  facet normal -1.000000e+000  -0.000000e+000  0.000000e+000
    outer loop
      vertex  0.000000e+000 -1.000000e+001  2.500000e+001
      vertex  0.000000e+000 -1.484924e+000  1.898492e+001
      vertex  0.000000e+000 -1.818653e+000  1.855000e+001
    endloop
  endfacet
  facet normal -1.000000e+000  -0.000000e+000  0.000000e+000
    outer loop
      vertex  0.000000e+000 -1.000000e+001  2.500000e+001
      vertex  0.000000e+000 -1.818653e+000  1.855000e+001
      vertex  0.000000e+000 -2.028444e+000  1.804352e+001
    endloop
  endfacet
  facet normal -9.999999e-001  -0.000000e+000  0.000000e+000
    outer loop
      vertex  0.000000e+000 -1.000000e+001  2.500000e+001
      vertex  0.000000e+000 -2.028444e+000  1.804352e+001
      vertex  0.000000e+000 -1.000000e+001 -2.500000e+001
    endloop
  endfacet
  facet normal -9.999999e-001  0.000000e+000  0.000000e+000
    outer loop
      vertex  0.000000e+000  1.000000e+001 -2.500000e+001
      vertex  0.000000e+000 -2.250926e-015 -1.960000e+001
      vertex  0.000000e+000  5.435200e-001 -1.952844e+001
    endloop
  endfacet
  facet normal -1.000000e+000  0.000000e+000  0.000000e+000
    outer loop
      vertex  0.000000e+000  1.000000e+001 -2.500000e+001
      vertex  0.000000e+000  5.435200e-001 -1.952844e+001
      vertex  0.000000e+000  1.050000e+000 -1.931865e+001
    endloop
  endfacet
  facet normal -1.000000e+000  0.000000e+000  0.000000e+000
    outer loop
      vertex  0.000000e+000  1.000000e+001 -2.500000e+001
      vertex  0.000000e+000  1.050000e+000 -1.931865e+001
      vertex  0.000000e+000  1.484924e+000 -1.898492e+001
    endloop
  endfacet
  facet normal -1.000000e+000  0.000000e+000  0.000000e+000
    outer loop
      vertex  0.000000e+000  1.000000e+001 -2.500000e+001
      vertex  0.000000e+000  1.484924e+000 -1.898492e+001
      vertex  0.000000e+000  1.818653e+000 -1.855000e+001
    endloop
  endfacet
  facet normal -1.000000e+000  0.000000e+000  0.000000e+000
    outer loop
      vertex  0.000000e+000  1.000000e+001 -2.500000e+001
      vertex  0.000000e+000  1.818653e+000 -1.855000e+001
      vertex  0.000000e+000  2.028444e+000 -1.804352e+001
    endloop
  endfacet
  facet normal -1.000000e+000  0.000000e+000  0.000000e+000
    outer loop
      vertex  0.000000e+000  1.000000e+001 -2.500000e+001
      vertex  0.000000e+000  2.028444e+000 -1.804352e+001
      vertex  0.000000e+000  2.100000e+000 -1.750000e+001
    endloop
  endfacet
  facet normal -1.000000e+000  0.000000e+000  0.000000e+000
    outer loop
      vertex  0.000000e+000  1.000000e+001 -2.500000e+001
      vertex  0.000000e+000  2.100000e+000 -1.750000e+001
      vertex  0.000000e+000  2.028444e+000 -1.695648e+001
    endloop
  endfacet
  facet normal -1.000000e+000  0.000000e+000  0.000000e+000
    outer loop
      vertex  0.000000e+000  1.000000e+001 -2.500000e+001
      vertex  0.000000e+000  2.028444e+000 -1.695648e+001
      vertex  0.000000e+000  1.818653e+000 -1.645000e+001
    endloop
  endfacet
  facet normal -9.999999e-001  0.000000e+000  0.000000e+000
    outer loop
      vertex  0.000000e+000  1.000000e+001 -2.500000e+001
      vertex  0.000000e+000  1.818653e+000 -1.645000e+001
      vertex  0.000000e+000  1.484924e+000 -1.601508e+001
    endloop
  endfacet
  facet normal -1.000000e+000  0.000000e+000  0.000000e+000
    outer loop
      vertex  0.000000e+000  1.000000e+001 -2.500000e+001
      vertex  0.000000e+000  1.484924e+000 -1.601508e+001
      vertex  0.000000e+000 -2.250926e-015  1.540000e+001
    endloop
  endfacet
  facet normal -1.000000e+000  0.000000e+000  0.000000e+000
    outer loop
      vertex  0.000000e+000  1.000000e+001 -2.500000e+001
      vertex  0.000000e+000 -2.250926e-015  1.540000e+001
      vertex  0.000000e+000  5.435200e-001  1.547156e+001
    endloop
  endfacet
  facet normal -1.000000e+000  0.000000e+000  0.000000e+000
    outer loop
      vertex  0.000000e+000  1.000000e+001 -2.500000e+001
      vertex  0.000000e+000  5.435200e-001  1.547156e+001
      vertex  0.000000e+000  1.050000e+000  1.568135e+001
    endloop
  endfacet
  facet normal -1.000000e+000  0.000000e+000  0.000000e+000
    outer loop
      vertex  0.000000e+000  1.000000e+001 -2.500000e+001
      vertex  0.000000e+000  1.050000e+000  1.568135e+001
      vertex  0.000000e+000  1.484924e+000  1.601508e+001
    endloop
  endfacet
  facet normal -1.000000e+000  0.000000e+000  0.000000e+000
    outer loop
      vertex  0.000000e+000  1.000000e+001 -2.500000e+001
      vertex  0.000000e+000  1.484924e+000  1.601508e+001
      vertex  0.000000e+000  1.818653e+000  1.645000e+001
    endloop
  endfacet
  facet normal -1.000000e+000  0.000000e+000  0.000000e+000
    outer loop
      vertex  0.000000e+000  1.000000e+001 -2.500000e+001
      vertex  0.000000e+000  1.818653e+000  1.645000e+001
      vertex  0.000000e+000  2.028444e+000  1.695648e+001
    endloop
  endfacet
  facet normal -9.999999e-001  0.000000e+000  0.000000e+000
    outer loop
      vertex  0.000000e+000  1.000000e+001 -2.500000e+001
      vertex  0.000000e+000  2.028444e+000  1.695648e+001
      vertex  0.000000e+000  2.100000e+000  1.750000e+001
    endloop
  endfacet
  facet normal -1.000000e+000  0.000000e+000  0.000000e+000
    outer loop
      vertex  0.000000e+000  1.000000e+001 -2.500000e+001
      vertex  0.000000e+000  2.100000e+000  1.750000e+001
      vertex  0.000000e+000  2.028444e+000  1.804352e+001
    endloop
  endfacet
  facet normal -1.000000e+000  0.000000e+000  0.000000e+000
    outer loop
      vertex  0.000000e+000  1.000000e+001  2.500000e+001
      vertex  0.000000e+000  1.000000e+001 -2.500000e+001
      vertex  0.000000e+000  2.028444e+000  1.804352e+001
    endloop
  endfacet
  facet normal -1.000000e+000  0.000000e+000  0.000000e+000
    outer loop
      vertex  0.000000e+000  1.000000e+001  2.500000e+001
      vertex  0.000000e+000  2.028444e+000  1.804352e+001
      vertex  0.000000e+000  1.818653e+000  1.855000e+001
    endloop
  endfacet
  facet normal -1.000000e+000  0.000000e+000  0.000000e+000
    outer loop
      vertex  0.000000e+000  1.000000e+001  2.500000e+001
      vertex  0.000000e+000  1.818653e+000  1.855000e+001
      vertex  0.000000e+000  1.484924e+000  1.898492e+001
    endloop
  endfacet
  facet normal -1.000000e+000  0.000000e+000  0.000000e+000
    outer loop
      vertex  0.000000e+000  1.000000e+001  2.500000e+001
      vertex  0.000000e+000  1.484924e+000  1.898492e+001
      vertex  0.000000e+000  1.050000e+000  1.931865e+001
    endloop
  endfacet
  facet normal -1.000000e+000  0.000000e+000  0.000000e+000
    outer loop
      vertex  0.000000e+000  1.000000e+001  2.500000e+001
      vertex  0.000000e+000  1.050000e+000  1.931865e+001
      vertex  0.000000e+000  5.435200e-001  1.952844e+001
    endloop
  endfacet
  facet normal -9.999999e-001  0.000000e+000  0.000000e+000
    outer loop
      vertex  0.000000e+000  1.000000e+001  2.500000e+001
      vertex  0.000000e+000  5.435200e-001  1.952844e+001
      vertex  0.000000e+000  5.948773e-016  1.960000e+001
    endloop
  endfacet
  facet normal  0.000000e+000  1.305268e-001 -9.914448e-001
    outer loop
      vertex  0.000000e+000  5.948773e-016 -1.540000e+001
      vertex  5.000000e+000 -5.435200e-001 -1.547156e+001
      vertex  0.000000e+000 -5.435200e-001 -1.547156e+001
    endloop
  endfacet
  facet normal  0.000000e+000  3.826839e-001 -9.238793e-001
    outer loop
      vertex  0.000000e+000 -5.435200e-001 -1.547156e+001
      vertex  5.000000e+000 -5.435200e-001 -1.547156e+001
      vertex  5.000000e+000 -1.050000e+000 -1.568135e+001
    endloop
  endfacet
  facet normal  0.000000e+000  3.826839e-001 -9.238793e-001
    outer loop
      vertex  0.000000e+000 -5.435200e-001 -1.547156e+001
      vertex  5.000000e+000 -1.050000e+000 -1.568135e+001
      vertex  0.000000e+000 -1.050000e+000 -1.568135e+001
    endloop
  endfacet
  facet normal  0.000000e+000  6.087611e-001 -7.933536e-001
    outer loop
      vertex  0.000000e+000 -1.050000e+000 -1.568135e+001
      vertex  5.000000e+000 -1.050000e+000 -1.568135e+001
      vertex  5.000000e+000 -1.484924e+000 -1.601508e+001
    endloop
  endfacet
  facet normal  0.000000e+000  6.087611e-001 -7.933536e-001
    outer loop
      vertex  0.000000e+000 -1.050000e+000 -1.568135e+001
      vertex  5.000000e+000 -1.484924e+000 -1.601508e+001
      vertex  0.000000e+000 -1.484924e+000 -1.601508e+001
    endloop
  endfacet
  facet normal  0.000000e+000  7.933539e-001 -6.087607e-001
    outer loop
      vertex  0.000000e+000 -1.484924e+000 -1.601508e+001
      vertex  5.000000e+000 -1.484924e+000 -1.601508e+001
      vertex  5.000000e+000 -1.818653e+000 -1.645000e+001
    endloop
  endfacet
  facet normal  0.000000e+000  7.933539e-001 -6.087607e-001
    outer loop
      vertex  0.000000e+000 -1.484924e+000 -1.601508e+001
      vertex  5.000000e+000 -1.818653e+000 -1.645000e+001
      vertex  0.000000e+000 -1.818653e+000 -1.645000e+001
    endloop
  endfacet
  facet normal  0.000000e+000  9.238793e-001 -3.826840e-001
    outer loop
      vertex  0.000000e+000 -1.818653e+000 -1.645000e+001
      vertex  5.000000e+000 -1.818653e+000 -1.645000e+001
      vertex  5.000000e+000 -2.028444e+000 -1.695648e+001
    endloop
  endfacet
  facet normal  0.000000e+000  9.238793e-001 -3.826840e-001
    outer loop
      vertex  0.000000e+000 -1.818653e+000 -1.645000e+001
      vertex  5.000000e+000 -2.028444e+000 -1.695648e+001
      vertex  0.000000e+000 -2.028444e+000 -1.695648e+001
    endloop
  endfacet
  facet normal  0.000000e+000  9.914449e-001 -1.305259e-001
    outer loop
      vertex  0.000000e+000 -2.028444e+000 -1.695648e+001
      vertex  5.000000e+000 -2.028444e+000 -1.695648e+001
      vertex  5.000000e+000 -2.100000e+000 -1.750000e+001
    endloop
  endfacet
  facet normal  0.000000e+000  9.914449e-001 -1.305259e-001
    outer loop
      vertex  0.000000e+000 -2.028444e+000 -1.695648e+001
      vertex  5.000000e+000 -2.100000e+000 -1.750000e+001
      vertex  0.000000e+000 -2.100000e+000 -1.750000e+001
    endloop
  endfacet
  facet normal  0.000000e+000  1.305268e-001 -9.914448e-001
    outer loop
      vertex  5.000000e+000 -5.435200e-001 -1.547156e+001
      vertex  0.000000e+000  5.948773e-016 -1.540000e+001
      vertex  5.000000e+000  5.948773e-016 -1.540000e+001
    endloop
  endfacet
  facet normal  -0.000000e+000 -1.305268e-001 -9.914448e-001
    outer loop
      vertex  5.000000e+000  5.948773e-016 -1.540000e+001
      vertex  0.000000e+000  5.948773e-016 -1.540000e+001
      vertex  0.000000e+000  5.435200e-001 -1.547156e+001
    endloop
  endfacet
  facet normal  0.000000e+000 -1.305268e-001 -9.914448e-001
    outer loop
      vertex  5.000000e+000  5.948773e-016 -1.540000e+001
      vertex  0.000000e+000  5.435200e-001 -1.547156e+001
      vertex  5.000000e+000  5.435200e-001 -1.547156e+001
    endloop
  endfacet
  facet normal  -0.000000e+000 -3.826839e-001 -9.238793e-001
    outer loop
      vertex  5.000000e+000  5.435200e-001 -1.547156e+001
      vertex  0.000000e+000  5.435200e-001 -1.547156e+001
      vertex  0.000000e+000  1.050000e+000 -1.568135e+001
    endloop
  endfacet
  facet normal  0.000000e+000 -3.826839e-001 -9.238793e-001
    outer loop
      vertex  5.000000e+000  5.435200e-001 -1.547156e+001
      vertex  0.000000e+000  1.050000e+000 -1.568135e+001
      vertex  5.000000e+000  1.050000e+000 -1.568135e+001
    endloop
  endfacet
  facet normal  -0.000000e+000 -6.087611e-001 -7.933536e-001
    outer loop
      vertex  5.000000e+000  1.050000e+000 -1.568135e+001
      vertex  0.000000e+000  1.050000e+000 -1.568135e+001
      vertex  0.000000e+000  1.484924e+000 -1.601508e+001
    endloop
  endfacet
  facet normal  0.000000e+000 -6.087611e-001 -7.933536e-001
    outer loop
      vertex  5.000000e+000  1.050000e+000 -1.568135e+001
      vertex  0.000000e+000  1.484924e+000 -1.601508e+001
      vertex  5.000000e+000  1.484924e+000 -1.601508e+001
    endloop
  endfacet
  facet normal  -0.000000e+000 -7.933539e-001 -6.087607e-001
    outer loop
      vertex  5.000000e+000  1.484924e+000 -1.601508e+001
      vertex  0.000000e+000  1.484924e+000 -1.601508e+001
      vertex  0.000000e+000  1.818653e+000 -1.645000e+001
    endloop
  endfacet
  facet normal  0.000000e+000 -7.933539e-001 -6.087607e-001
    outer loop
      vertex  5.000000e+000  1.484924e+000 -1.601508e+001
      vertex  0.000000e+000  1.818653e+000 -1.645000e+001
      vertex  5.000000e+000  1.818653e+000 -1.645000e+001
    endloop
  endfacet
  facet normal  -0.000000e+000 -9.238793e-001 -3.826840e-001
    outer loop
      vertex  5.000000e+000  1.818653e+000 -1.645000e+001
      vertex  0.000000e+000  1.818653e+000 -1.645000e+001
      vertex  0.000000e+000  2.028444e+000 -1.695648e+001
    endloop
  endfacet
  facet normal  0.000000e+000 -9.238793e-001 -3.826840e-001
    outer loop
      vertex  5.000000e+000  1.818653e+000 -1.645000e+001
      vertex  0.000000e+000  2.028444e+000 -1.695648e+001
      vertex  5.000000e+000  2.028444e+000 -1.695648e+001
    endloop
  endfacet
  facet normal  -0.000000e+000 -9.914449e-001 -1.305259e-001
    outer loop
      vertex  5.000000e+000  2.028444e+000 -1.695648e+001
      vertex  0.000000e+000  2.028444e+000 -1.695648e+001
      vertex  0.000000e+000  2.100000e+000 -1.750000e+001
    endloop
  endfacet
  facet normal  0.000000e+000 -9.914449e-001 -1.305259e-001
    outer loop
      vertex  5.000000e+000  2.028444e+000 -1.695648e+001
      vertex  0.000000e+000  2.100000e+000 -1.750000e+001
      vertex  5.000000e+000  2.100000e+000 -1.750000e+001
    endloop
  endfacet
  facet normal  0.000000e+000 -1.305268e-001  9.914448e-001
    outer loop
      vertex  0.000000e+000 -2.250926e-015 -1.960000e+001
      vertex  5.000000e+000  5.435200e-001 -1.952844e+001
      vertex  0.000000e+000  5.435200e-001 -1.952844e+001
    endloop
  endfacet
  facet normal  0.000000e+000 -3.826839e-001  9.238793e-001
    outer loop
      vertex  0.000000e+000  5.435200e-001 -1.952844e+001
      vertex  5.000000e+000  5.435200e-001 -1.952844e+001
      vertex  5.000000e+000  1.050000e+000 -1.931865e+001
    endloop
  endfacet
  facet normal  0.000000e+000 -3.826839e-001  9.238793e-001
    outer loop
      vertex  0.000000e+000  5.435200e-001 -1.952844e+001
      vertex  5.000000e+000  1.050000e+000 -1.931865e+001
      vertex  0.000000e+000  1.050000e+000 -1.931865e+001
    endloop
  endfacet
  facet normal  0.000000e+000 -6.087611e-001  7.933536e-001
    outer loop
      vertex  0.000000e+000  1.050000e+000 -1.931865e+001
      vertex  5.000000e+000  1.050000e+000 -1.931865e+001
      vertex  5.000000e+000  1.484924e+000 -1.898492e+001
    endloop
  endfacet
  facet normal  0.000000e+000 -6.087611e-001  7.933536e-001
    outer loop
      vertex  0.000000e+000  1.050000e+000 -1.931865e+001
      vertex  5.000000e+000  1.484924e+000 -1.898492e+001
      vertex  0.000000e+000  1.484924e+000 -1.898492e+001
    endloop
  endfacet
  facet normal  0.000000e+000 -7.933539e-001  6.087607e-001
    outer loop
      vertex  0.000000e+000  1.484924e+000 -1.898492e+001
      vertex  5.000000e+000  1.484924e+000 -1.898492e+001
      vertex  5.000000e+000  1.818653e+000 -1.855000e+001
    endloop
  endfacet
  facet normal  0.000000e+000 -7.933539e-001  6.087607e-001
    outer loop
      vertex  0.000000e+000  1.484924e+000 -1.898492e+001
      vertex  5.000000e+000  1.818653e+000 -1.855000e+001
      vertex  0.000000e+000  1.818653e+000 -1.855000e+001
    endloop
  endfacet
  facet normal  0.000000e+000 -9.238793e-001  3.826840e-001
    outer loop
      vertex  0.000000e+000  1.818653e+000 -1.855000e+001
      vertex  5.000000e+000  1.818653e+000 -1.855000e+001
      vertex  5.000000e+000  2.028444e+000 -1.804352e+001
    endloop
  endfacet
  facet normal  0.000000e+000 -9.238793e-001  3.826840e-001
    outer loop
      vertex  0.000000e+000  1.818653e+000 -1.855000e+001
      vertex  5.000000e+000  2.028444e+000 -1.804352e+001
      vertex  0.000000e+000  2.028444e+000 -1.804352e+001
    endloop
  endfacet
  facet normal  0.000000e+000 -9.914449e-001  1.305259e-001
    outer loop
      vertex  0.000000e+000  2.028444e+000 -1.804352e+001
      vertex  5.000000e+000  2.028444e+000 -1.804352e+001
      vertex  5.000000e+000  2.100000e+000 -1.750000e+001
    endloop
  endfacet
  facet normal  0.000000e+000 -9.914449e-001  1.305259e-001
    outer loop
      vertex  0.000000e+000  2.028444e+000 -1.804352e+001
      vertex  5.000000e+000  2.100000e+000 -1.750000e+001
      vertex  0.000000e+000  2.100000e+000 -1.750000e+001
    endloop
  endfacet
  facet normal  0.000000e+000 -1.305268e-001  9.914448e-001
    outer loop
      vertex  5.000000e+000  5.435200e-001 -1.952844e+001
      vertex  0.000000e+000 -2.250926e-015 -1.960000e+001
      vertex  5.000000e+000 -2.250926e-015 -1.960000e+001
    endloop
  endfacet
  facet normal  0.000000e+000  1.305268e-001  9.914448e-001
    outer loop
      vertex  5.000000e+000 -2.250926e-015 -1.960000e+001
      vertex  0.000000e+000 -2.250926e-015 -1.960000e+001
      vertex  0.000000e+000 -5.435200e-001 -1.952844e+001
    endloop
  endfacet
  facet normal  -0.000000e+000  1.305268e-001  9.914448e-001
    outer loop
      vertex  5.000000e+000 -2.250926e-015 -1.960000e+001
      vertex  0.000000e+000 -5.435200e-001 -1.952844e+001
      vertex  5.000000e+000 -5.435200e-001 -1.952844e+001
    endloop
  endfacet
  facet normal  0.000000e+000  3.826839e-001  9.238793e-001
    outer loop
      vertex  5.000000e+000 -5.435200e-001 -1.952844e+001
      vertex  0.000000e+000 -5.435200e-001 -1.952844e+001
      vertex  0.000000e+000 -1.050000e+000 -1.931865e+001
    endloop
  endfacet
  facet normal  -0.000000e+000  3.826839e-001  9.238793e-001
    outer loop
      vertex  5.000000e+000 -5.435200e-001 -1.952844e+001
      vertex  0.000000e+000 -1.050000e+000 -1.931865e+001
      vertex  5.000000e+000 -1.050000e+000 -1.931865e+001
    endloop
  endfacet
  facet normal  0.000000e+000  6.087611e-001  7.933536e-001
    outer loop
      vertex  5.000000e+000 -1.050000e+000 -1.931865e+001
      vertex  0.000000e+000 -1.050000e+000 -1.931865e+001
      vertex  0.000000e+000 -1.484924e+000 -1.898492e+001
    endloop
  endfacet
  facet normal  -0.000000e+000  6.087611e-001  7.933536e-001
    outer loop
      vertex  5.000000e+000 -1.050000e+000 -1.931865e+001
      vertex  0.000000e+000 -1.484924e+000 -1.898492e+001
      vertex  5.000000e+000 -1.484924e+000 -1.898492e+001
    endloop
  endfacet
  facet normal  0.000000e+000  7.933539e-001  6.087607e-001
    outer loop
      vertex  5.000000e+000 -1.484924e+000 -1.898492e+001
      vertex  0.000000e+000 -1.484924e+000 -1.898492e+001
      vertex  0.000000e+000 -1.818653e+000 -1.855000e+001
    endloop
  endfacet
  facet normal  -0.000000e+000  7.933539e-001  6.087607e-001
    outer loop
      vertex  5.000000e+000 -1.484924e+000 -1.898492e+001
      vertex  0.000000e+000 -1.818653e+000 -1.855000e+001
      vertex  5.000000e+000 -1.818653e+000 -1.855000e+001
    endloop
  endfacet
  facet normal  0.000000e+000  9.238793e-001  3.826840e-001
    outer loop
      vertex  5.000000e+000 -1.818653e+000 -1.855000e+001
      vertex  0.000000e+000 -1.818653e+000 -1.855000e+001
      vertex  0.000000e+000 -2.028444e+000 -1.804352e+001
    endloop
  endfacet
  facet normal  -0.000000e+000  9.238793e-001  3.826840e-001
    outer loop
      vertex  5.000000e+000 -1.818653e+000 -1.855000e+001
      vertex  0.000000e+000 -2.028444e+000 -1.804352e+001
      vertex  5.000000e+000 -2.028444e+000 -1.804352e+001
    endloop
  endfacet
  facet normal  0.000000e+000  9.914449e-001  1.305259e-001
    outer loop
      vertex  5.000000e+000 -2.028444e+000 -1.804352e+001
      vertex  0.000000e+000 -2.028444e+000 -1.804352e+001
      vertex  0.000000e+000 -2.100000e+000 -1.750000e+001
    endloop
  endfacet
  facet normal  -0.000000e+000  9.914449e-001  1.305259e-001
    outer loop
      vertex  5.000000e+000 -2.028444e+000 -1.804352e+001
      vertex  0.000000e+000 -2.100000e+000 -1.750000e+001
      vertex  5.000000e+000 -2.100000e+000 -1.750000e+001
    endloop
  endfacet
  facet normal  0.000000e+000  1.305268e-001 -9.914448e-001
    outer loop
      vertex  0.000000e+000  5.948773e-016  1.960000e+001
      vertex  5.000000e+000 -5.435200e-001  1.952844e+001
      vertex  0.000000e+000 -5.435200e-001  1.952844e+001
    endloop
  endfacet
  facet normal  0.000000e+000  3.826839e-001 -9.238793e-001
    outer loop
      vertex  0.000000e+000 -5.435200e-001  1.952844e+001
      vertex  5.000000e+000 -5.435200e-001  1.952844e+001
      vertex  5.000000e+000 -1.050000e+000  1.931865e+001
    endloop
  endfacet
  facet normal  0.000000e+000  3.826839e-001 -9.238793e-001
    outer loop
      vertex  0.000000e+000 -5.435200e-001  1.952844e+001
      vertex  5.000000e+000 -1.050000e+000  1.931865e+001
      vertex  0.000000e+000 -1.050000e+000  1.931865e+001
    endloop
  endfacet
  facet normal  0.000000e+000  6.087611e-001 -7.933536e-001
    outer loop
      vertex  0.000000e+000 -1.050000e+000  1.931865e+001
      vertex  5.000000e+000 -1.050000e+000  1.931865e+001
      vertex  5.000000e+000 -1.484924e+000  1.898492e+001
    endloop
  endfacet
  facet normal  0.000000e+000  6.087611e-001 -7.933536e-001
    outer loop
      vertex  0.000000e+000 -1.050000e+000  1.931865e+001
      vertex  5.000000e+000 -1.484924e+000  1.898492e+001
      vertex  0.000000e+000 -1.484924e+000  1.898492e+001
    endloop
  endfacet
  facet normal  0.000000e+000  7.933539e-001 -6.087607e-001
    outer loop
      vertex  0.000000e+000 -1.484924e+000  1.898492e+001
      vertex  5.000000e+000 -1.484924e+000  1.898492e+001
      vertex  5.000000e+000 -1.818653e+000  1.855000e+001
    endloop
  endfacet
  facet normal  0.000000e+000  7.933539e-001 -6.087607e-001
    outer loop
      vertex  0.000000e+000 -1.484924e+000  1.898492e+001
      vertex  5.000000e+000 -1.818653e+000  1.855000e+001
      vertex  0.000000e+000 -1.818653e+000  1.855000e+001
    endloop
  endfacet
  facet normal  0.000000e+000  9.238793e-001 -3.826840e-001
    outer loop
      vertex  0.000000e+000 -1.818653e+000  1.855000e+001
      vertex  5.000000e+000 -1.818653e+000  1.855000e+001
      vertex  5.000000e+000 -2.028444e+000  1.804352e+001
    endloop
  endfacet
  facet normal  0.000000e+000  9.238793e-001 -3.826840e-001
    outer loop
      vertex  0.000000e+000 -1.818653e+000  1.855000e+001
      vertex  5.000000e+000 -2.028444e+000  1.804352e+001
      vertex  0.000000e+000 -2.028444e+000  1.804352e+001
    endloop
  endfacet
  facet normal  0.000000e+000  9.914449e-001 -1.305259e-001
    outer loop
      vertex  0.000000e+000 -2.028444e+000  1.804352e+001
      vertex  5.000000e+000 -2.028444e+000  1.804352e+001
      vertex  5.000000e+000 -2.100000e+000  1.750000e+001
    endloop
  endfacet
  facet normal  0.000000e+000  9.914449e-001 -1.305259e-001
    outer loop
      vertex  0.000000e+000 -2.028444e+000  1.804352e+001
      vertex  5.000000e+000 -2.100000e+000  1.750000e+001
      vertex  0.000000e+000 -2.100000e+000  1.750000e+001
    endloop
  endfacet
  facet normal  0.000000e+000  1.305268e-001 -9.914448e-001
    outer loop
      vertex  5.000000e+000 -5.435200e-001  1.952844e+001
      vertex  0.000000e+000  5.948773e-016  1.960000e+001
      vertex  5.000000e+000  5.948773e-016  1.960000e+001
    endloop
  endfacet
  facet normal  -0.000000e+000 -1.305268e-001 -9.914448e-001
    outer loop
      vertex  5.000000e+000  5.948773e-016  1.960000e+001
      vertex  0.000000e+000  5.948773e-016  1.960000e+001
      vertex  0.000000e+000  5.435200e-001  1.952844e+001
    endloop
  endfacet
  facet normal  0.000000e+000 -1.305268e-001 -9.914448e-001
    outer loop
      vertex  5.000000e+000  5.948773e-016  1.960000e+001
      vertex  0.000000e+000  5.435200e-001  1.952844e+001
      vertex  5.000000e+000  5.435200e-001  1.952844e+001
    endloop
  endfacet
  facet normal  -0.000000e+000 -3.826839e-001 -9.238793e-001
    outer loop
      vertex  5.000000e+000  5.435200e-001  1.952844e+001
      vertex  0.000000e+000  5.435200e-001  1.952844e+001
      vertex  0.000000e+000  1.050000e+000  1.931865e+001
    endloop
  endfacet
  facet normal  0.000000e+000 -3.826839e-001 -9.238793e-001
    outer loop
      vertex  5.000000e+000  5.435200e-001  1.952844e+001
      vertex  0.000000e+000  1.050000e+000  1.931865e+001
      vertex  5.000000e+000  1.050000e+000  1.931865e+001
    endloop
  endfacet
  facet normal  -0.000000e+000 -6.087611e-001 -7.933536e-001
    outer loop
      vertex  5.000000e+000  1.050000e+000  1.931865e+001
      vertex  0.000000e+000  1.050000e+000  1.931865e+001
      vertex  0.000000e+000  1.484924e+000  1.898492e+001
    endloop
  endfacet
  facet normal  0.000000e+000 -6.087611e-001 -7.933536e-001
    outer loop
      vertex  5.000000e+000  1.050000e+000  1.931865e+001
      vertex  0.000000e+000  1.484924e+000  1.898492e+001
      vertex  5.000000e+000  1.484924e+000  1.898492e+001
    endloop
  endfacet
  facet normal  -0.000000e+000 -7.933539e-001 -6.087607e-001
    outer loop
      vertex  5.000000e+000  1.484924e+000  1.898492e+001
      vertex  0.000000e+000  1.484924e+000  1.898492e+001
      vertex  0.000000e+000  1.818653e+000  1.855000e+001
    endloop
  endfacet
  facet normal  0.000000e+000 -7.933539e-001 -6.087607e-001
    outer loop
      vertex  5.000000e+000  1.484924e+000  1.898492e+001
      vertex  0.000000e+000  1.818653e+000  1.855000e+001
      vertex  5.000000e+000  1.818653e+000  1.855000e+001
    endloop
  endfacet
  facet normal  -0.000000e+000 -9.238793e-001 -3.826840e-001
    outer loop
      vertex  5.000000e+000  1.818653e+000  1.855000e+001
      vertex  0.000000e+000  1.818653e+000  1.855000e+001
      vertex  0.000000e+000  2.028444e+000  1.804352e+001
    endloop
  endfacet
  facet normal  0.000000e+000 -9.238793e-001 -3.826840e-001
    outer loop
      vertex  5.000000e+000  1.818653e+000  1.855000e+001
      vertex  0.000000e+000  2.028444e+000  1.804352e+001
      vertex  5.000000e+000  2.028444e+000  1.804352e+001
    endloop
  endfacet
  facet normal  -0.000000e+000 -9.914449e-001 -1.305259e-001
    outer loop
      vertex  5.000000e+000  2.028444e+000  1.804352e+001
      vertex  0.000000e+000  2.028444e+000  1.804352e+001
      vertex  0.000000e+000  2.100000e+000  1.750000e+001
    endloop
  endfacet
  facet normal  0.000000e+000 -9.914449e-001 -1.305259e-001
    outer loop
      vertex  5.000000e+000  2.028444e+000  1.804352e+001
      vertex  0.000000e+000  2.100000e+000  1.750000e+001
      vertex  5.000000e+000  2.100000e+000  1.750000e+001
    endloop
  endfacet
  facet normal  0.000000e+000 -1.305268e-001  9.914448e-001
    outer loop
      vertex  0.000000e+000 -2.250926e-015  1.540000e+001
      vertex  5.000000e+000  5.435200e-001  1.547156e+001
      vertex  0.000000e+000  5.435200e-001  1.547156e+001
    endloop
  endfacet
  facet normal  0.000000e+000 -3.826839e-001  9.238793e-001
    outer loop
      vertex  0.000000e+000  5.435200e-001  1.547156e+001
      vertex  5.000000e+000  5.435200e-001  1.547156e+001
      vertex  5.000000e+000  1.050000e+000  1.568135e+001
    endloop
  endfacet
  facet normal  0.000000e+000 -3.826839e-001  9.238793e-001
    outer loop
      vertex  0.000000e+000  5.435200e-001  1.547156e+001
      vertex  5.000000e+000  1.050000e+000  1.568135e+001
      vertex  0.000000e+000  1.050000e+000  1.568135e+001
    endloop
  endfacet
  facet normal  0.000000e+000 -6.087611e-001  7.933536e-001
    outer loop
      vertex  0.000000e+000  1.050000e+000  1.568135e+001
      vertex  5.000000e+000  1.050000e+000  1.568135e+001
      vertex  5.000000e+000  1.484924e+000  1.601508e+001
    endloop
  endfacet
  facet normal  0.000000e+000 -6.087611e-001  7.933536e-001
    outer loop
      vertex  0.000000e+000  1.050000e+000  1.568135e+001
      vertex  5.000000e+000  1.484924e+000  1.601508e+001
      vertex  0.000000e+000  1.484924e+000  1.601508e+001
    endloop
  endfacet
  facet normal  0.000000e+000 -7.933539e-001  6.087607e-001
    outer loop
      vertex  0.000000e+000  1.484924e+000  1.601508e+001
      vertex  5.000000e+000  1.484924e+000  1.601508e+001
      vertex  5.000000e+000  1.818653e+000  1.645000e+001
    endloop
  endfacet
  facet normal  0.000000e+000 -7.933539e-001  6.087607e-001
    outer loop
      vertex  0.000000e+000  1.484924e+000  1.601508e+001
      vertex  5.000000e+000  1.818653e+000  1.645000e+001
      vertex  0.000000e+000  1.818653e+000  1.645000e+001
    endloop
  endfacet
  facet normal  0.000000e+000 -9.238793e-001  3.826840e-001
    outer loop
      vertex  0.000000e+000  1.818653e+000  1.645000e+001
      vertex  5.000000e+000  1.818653e+000  1.645000e+001
      vertex  5.000000e+000  2.028444e+000  1.695648e+001
    endloop
  endfacet
  facet normal  0.000000e+000 -9.238793e-001  3.826840e-001
    outer loop
      vertex  0.000000e+000  1.818653e+000  1.645000e+001
      vertex  5.000000e+000  2.028444e+000  1.695648e+001
      vertex  0.000000e+000  2.028444e+000  1.695648e+001
    endloop
  endfacet
  facet normal  0.000000e+000 -9.914449e-001  1.305259e-001
    outer loop
      vertex  0.000000e+000  2.028444e+000  1.695648e+001
      vertex  5.000000e+000  2.028444e+000  1.695648e+001
      vertex  5.000000e+000  2.100000e+000  1.750000e+001
    endloop
  endfacet
  facet normal  0.000000e+000 -9.914449e-001  1.305259e-001
    outer loop
      vertex  0.000000e+000  2.028444e+000  1.695648e+001
      vertex  5.000000e+000  2.100000e+000  1.750000e+001
      vertex  0.000000e+000  2.100000e+000  1.750000e+001
    endloop
  endfacet
  facet normal  0.000000e+000 -1.305268e-001  9.914448e-001
    outer loop
      vertex  5.000000e+000  5.435200e-001  1.547156e+001
      vertex  0.000000e+000 -2.250926e-015  1.540000e+001
      vertex  5.000000e+000 -2.250926e-015  1.540000e+001
    endloop
  endfacet
  facet normal  0.000000e+000  1.305268e-001  9.914448e-001
    outer loop
      vertex  5.000000e+000 -2.250926e-015  1.540000e+001
      vertex  0.000000e+000 -2.250926e-015  1.540000e+001
      vertex  0.000000e+000 -5.435200e-001  1.547156e+001
    endloop
  endfacet
  facet normal  -0.000000e+000  1.305268e-001  9.914448e-001
    outer loop
      vertex  5.000000e+000 -2.250926e-015  1.540000e+001
      vertex  0.000000e+000 -5.435200e-001  1.547156e+001
      vertex  5.000000e+000 -5.435200e-001  1.547156e+001
    endloop
  endfacet
  facet normal  0.000000e+000  3.826839e-001  9.238793e-001
    outer loop
      vertex  5.000000e+000 -5.435200e-001  1.547156e+001
      vertex  0.000000e+000 -5.435200e-001  1.547156e+001
      vertex  0.000000e+000 -1.050000e+000  1.568135e+001
    endloop
  endfacet
  facet normal  -0.000000e+000  3.826839e-001  9.238793e-001
    outer loop
      vertex  5.000000e+000 -5.435200e-001  1.547156e+001
      vertex  0.000000e+000 -1.050000e+000  1.568135e+001
      vertex  5.000000e+000 -1.050000e+000  1.568135e+001
    endloop
  endfacet
  facet normal  0.000000e+000  6.087611e-001  7.933536e-001
    outer loop
      vertex  5.000000e+000 -1.050000e+000  1.568135e+001
      vertex  0.000000e+000 -1.050000e+000  1.568135e+001
      vertex  0.000000e+000 -1.484924e+000  1.601508e+001
    endloop
  endfacet
  facet normal  -0.000000e+000  6.087611e-001  7.933536e-001
    outer loop
      vertex  5.000000e+000 -1.050000e+000  1.568135e+001
      vertex  0.000000e+000 -1.484924e+000  1.601508e+001
      vertex  5.000000e+000 -1.484924e+000  1.601508e+001
    endloop
  endfacet
  facet normal  0.000000e+000  7.933539e-001  6.087607e-001
    outer loop
      vertex  5.000000e+000 -1.484924e+000  1.601508e+001
      vertex  0.000000e+000 -1.484924e+000  1.601508e+001
      vertex  0.000000e+000 -1.818653e+000  1.645000e+001
    endloop
  endfacet
  facet normal  -0.000000e+000  7.933539e-001  6.087607e-001
    outer loop
      vertex  5.000000e+000 -1.484924e+000  1.601508e+001
      vertex  0.000000e+000 -1.818653e+000  1.645000e+001
      vertex  5.000000e+000 -1.818653e+000  1.645000e+001
    endloop
  endfacet
  facet normal  0.000000e+000  9.238793e-001  3.826840e-001
    outer loop
      vertex  5.000000e+000 -1.818653e+000  1.645000e+001
      vertex  0.000000e+000 -1.818653e+000  1.645000e+001
      vertex  0.000000e+000 -2.028444e+000  1.695648e+001
    endloop
  endfacet
  facet normal  -0.000000e+000  9.238793e-001  3.826840e-001
    outer loop
      vertex  5.000000e+000 -1.818653e+000  1.645000e+001
      vertex  0.000000e+000 -2.028444e+000  1.695648e+001
      vertex  5.000000e+000 -2.028444e+000  1.695648e+001
    endloop
  endfacet
  facet normal  0.000000e+000  9.914449e-001  1.305259e-001
    outer loop
      vertex  5.000000e+000 -2.028444e+000  1.695648e+001
      vertex  0.000000e+000 -2.028444e+000  1.695648e+001
      vertex  0.000000e+000 -2.100000e+000  1.750000e+001
    endloop
  endfacet
  facet normal  -0.000000e+000  9.914449e-001  1.305259e-001
    outer loop
      vertex  5.000000e+000 -2.028444e+000  1.695648e+001
      vertex  0.000000e+000 -2.100000e+000  1.750000e+001
      vertex  5.000000e+000 -2.100000e+000  1.750000e+001
    endloop
  endfacet
  facet normal  0.000000e+000  0.000000e+000  1.000000e+000
    outer loop
      vertex  5.000000e+000 -1.000000e+001  2.500000e+001
      vertex  5.000000e+000  1.000000e+001  2.500000e+001
      vertex  0.000000e+000 -1.000000e+001  2.500000e+001
    endloop
  endfacet
  facet normal  0.000000e+000  0.000000e+000  1.000000e+000
    outer loop
      vertex  0.000000e+000 -1.000000e+001  2.500000e+001
      vertex  5.000000e+000  1.000000e+001  2.500000e+001
      vertex  0.000000e+000  1.000000e+001  2.500000e+001
    endloop
  endfacet
  facet normal  0.000000e+000  1.000000e+000  0.000000e+000
    outer loop
      vertex  5.000000e+000  1.000000e+001 -2.500000e+001
      vertex  0.000000e+000  1.000000e+001 -2.500000e+001
      vertex  5.000000e+000  1.000000e+001  2.500000e+001
    endloop
  endfacet
  facet normal  0.000000e+000  1.000000e+000  0.000000e+000
    outer loop
      vertex  5.000000e+000  1.000000e+001  2.500000e+001
      vertex  0.000000e+000  1.000000e+001 -2.500000e+001
      vertex  0.000000e+000  1.000000e+001  2.500000e+001
    endloop
  endfacet
  facet normal  0.000000e+000  0.000000e+000 -1.000000e+000
    outer loop
      vertex  5.000000e+000  1.000000e+001 -2.500000e+001
      vertex  5.000000e+000 -1.000000e+001 -2.500000e+001
      vertex  0.000000e+000  1.000000e+001 -2.500000e+001
    endloop
  endfacet
  facet normal  0.000000e+000  0.000000e+000 -1.000000e+000
    outer loop
      vertex  0.000000e+000  1.000000e+001 -2.500000e+001
      vertex  5.000000e+000 -1.000000e+001 -2.500000e+001
      vertex  0.000000e+000 -1.000000e+001 -2.500000e+001
    endloop
  endfacet
  facet normal  0.000000e+000 -1.000000e+000  0.000000e+000
    outer loop
      vertex  5.000000e+000 -1.000000e+001  2.500000e+001
      vertex  0.000000e+000 -1.000000e+001  2.500000e+001
      vertex  5.000000e+000 -1.000000e+001 -2.500000e+001
    endloop
  endfacet
  facet normal  0.000000e+000 -1.000000e+000  0.000000e+000
    outer loop
      vertex  5.000000e+000 -1.000000e+001 -2.500000e+001
      vertex  0.000000e+000 -1.000000e+001  2.500000e+001
      vertex  0.000000e+000 -1.000000e+001 -2.500000e+001
    endloop
  endfacet
endsolid CATIA STL
